<?xml version="1.0" encoding="UTF-8"?>
<svg id="_レイヤー_2" data-name="レイヤー 2" xmlns="http://www.w3.org/2000/svg" viewBox="0 0 380 37.18">
  <defs>
    <style>
      .cls-1 {
        fill: #2d313c;
      }
    </style>
  </defs>
  <g id="_レイヤー_2-2" data-name="レイヤー 2">
    <g>
      <path class="cls-1" d="M67.47,16.93l-3.04-.58c.09-.57.21-1.24.38-2.02s.35-1.62.57-2.53c.21-.91.44-1.83.69-2.78.25-.95.49-1.88.75-2.78-.87.2-1.56.38-2.08.53l-.64-2.7c.43-.15.96-.31,1.6-.47.64-.16,1.31-.33,2.03-.49.19-.63.37-1.18.54-1.66.17-.48.31-.84.42-1.09l3.12.51c-.21.45-.44.99-.66,1.62.53-.08,1.03-.14,1.5-.18.47-.04.88-.07,1.24-.07h.19c.06,0,.12,0,.17.02l.26,2.81h-.15c-.49,0-1.11.05-1.86.14s-1.54.22-2.37.37c-.29.94-.57,1.92-.83,2.94-.26,1.02-.51,2.03-.75,3.04-.23,1-.44,1.97-.62,2.88-.18.92-.33,1.75-.44,2.49ZM80.1,17.02c-.14.01-.28.02-.42.03-.14,0-.28,0-.42,0-.77,0-1.54-.07-2.31-.2-.77-.13-1.51-.31-2.22-.54-.71-.23-1.34-.48-1.91-.75-.57-.28-1.03-.55-1.4-.83l1.59-2.47c.44.29,1.03.57,1.76.84s1.52.49,2.39.65c.86.16,1.71.24,2.54.24h.32c.11,0,.22,0,.32-.02l-.25,3.03ZM73.17,9.82l-1.02-2.81c.31-.25.77-.49,1.35-.71.58-.22,1.23-.42,1.93-.58.7-.17,1.38-.3,2.04-.4.66-.1,1.22-.14,1.69-.14h.27c.08,0,.15,0,.22.02l.4,2.96c-.09-.01-.19-.02-.29-.03-.11,0-.22-.01-.33-.01-.47,0-.99.05-1.57.14-.58.09-1.16.22-1.74.38-.58.16-1.13.34-1.64.54-.52.2-.95.41-1.3.64ZM77.5,3.85c-.1-.13-.24-.34-.42-.64-.18-.3-.35-.62-.52-.95s-.27-.6-.32-.8l1.34-.53c.1.29.25.63.46,1.02s.43.72.67,1l-1.21.91ZM79.89,3.51c-.13-.1-.3-.28-.51-.53-.21-.25-.42-.52-.62-.8-.2-.28-.35-.52-.43-.71l1.19-.81c.15.28.37.59.64.93.28.35.55.64.83.88l-1.1,1.04Z"/>
      <path class="cls-1" d="M86.67,15.65l-3.04-.51c.28-1.28.59-2.56.93-3.84.34-1.27.7-2.52,1.08-3.72-.5.14-.97.28-1.39.41-.42.14-.76.25-1.01.34l-.68-2.77c.09-.04.32-.13.71-.28.38-.15.88-.31,1.47-.49.6-.17,1.26-.33,1.97-.45.28-.79.56-1.55.84-2.28.28-.73.56-1.41.82-2.06l2.85.74c-.46,1.04-.92,2.17-1.36,3.37,1.9.08,3.41.56,4.52,1.45,1.11.89,1.67,2.22,1.67,4,0,1.31-.3,2.62-.91,3.94-.6,1.32-1.54,2.65-2.79,4l-2.4-2.06c1.16-1.09,1.95-2.15,2.39-3.18.44-1.02.65-1.98.65-2.88,0-.54-.1-.97-.31-1.3-.21-.33-.49-.57-.83-.73-.35-.16-.73-.27-1.16-.32-.43-.05-.87-.08-1.32-.08-.16,0-.33,0-.49.02-.46,1.45-.88,2.91-1.25,4.38-.37,1.48-.69,2.91-.95,4.29ZM98.43,8.45c-1.18-2.17-2.5-3.95-3.96-5.33l2.19-1.79c.6.6,1.14,1.18,1.6,1.72.46.54.91,1.11,1.33,1.7s.85,1.26,1.29,2.02l-2.45,1.7Z"/>
      <path class="cls-1" d="M110.95,17.65l-1.96-2.53c.75-.14,1.48-.32,2.17-.55.69-.23,1.31-.49,1.86-.8.55-.31.98-.65,1.29-1.04.31-.38.47-.81.47-1.27,0-.64-.25-1.13-.75-1.47s-1.15-.51-1.94-.51c-.57,0-1.24.1-2.03.31-.79.21-1.62.55-2.5,1.03-.88.48-1.74,1.11-2.59,1.9l-2.63-.3c.15-1.18.33-2.29.55-3.33s.49-2.05.82-3.03.73-1.99,1.2-3.01l2.72,1.17c-.55,1.04-.96,1.95-1.22,2.72-.26.77-.44,1.43-.56,1.97.44-.4,1-.75,1.68-1.05.68-.3,1.42-.52,2.21-.69.79-.16,1.57-.25,2.34-.25.71,0,1.4.09,2.08.26.68.18,1.3.45,1.86.81.56.36,1.01.83,1.34,1.39s.5,1.24.5,2.04-.19,1.56-.57,2.24c-.38.68-.89,1.28-1.53,1.8s-1.38.97-2.21,1.33c-.83.37-1.7.64-2.6.83ZM113.99,4.21c-.63,0-1.3-.05-2.02-.15-.72-.1-1.42-.23-2.11-.39-.69-.16-1.31-.32-1.86-.5s-.99-.34-1.3-.49l1.19-2.6c.3.16.71.32,1.24.47.52.15,1.1.29,1.74.41s1.27.22,1.91.29c.63.07,1.21.1,1.73.1h.4l-.3,2.83c-.09.01-.19.02-.29.02h-.31Z"/>
      <path class="cls-1" d="M136.21,15.1c-1.22.54-2.49.96-3.79,1.24s-2.56.43-3.76.43c-1.28,0-2.45-.18-3.5-.54-1.05-.36-1.89-.92-2.51-1.68s-.94-1.74-.94-2.93v-.19l2.68-.83v.23c0,.69.18,1.24.53,1.66.35.42.82.71,1.42.89.59.18,1.25.26,1.98.26.78,0,1.59-.08,2.44-.24.84-.16,1.66-.36,2.45-.61.79-.25,1.48-.52,2.07-.79l.94,3.09ZM134.1,6.05c-.57-.29-1.22-.52-1.96-.7-.74-.18-1.53-.31-2.35-.4s-1.65-.13-2.46-.13c-.69,0-1.37.03-2.03.09-.66.06-1.26.15-1.8.27l-.32-3.02c.82-.19,1.62-.33,2.41-.41.79-.09,1.56-.13,2.31-.13,1.38,0,2.69.14,3.91.41,1.22.28,2.29.67,3.19,1.17l-.89,2.85Z"/>
      <path class="cls-1" d="M150.01,17.14c-1.44,0-2.56-.13-3.37-.39s-1.38-.62-1.72-1.1c-.33-.48-.5-1.04-.5-1.7,0-.53.1-.99.29-1.39.2-.4.48-.82.86-1.27-.49.11-.92.21-1.28.29-.36.08-.72.16-1.06.25s-.71.18-1.1.29c-.4.11-.87.24-1.42.4l-.89-2.51c.55-.16,1.22-.46,1.99-.91.77-.44,1.6-.98,2.49-1.62.89-.64,1.79-1.34,2.72-2.1.92-.76,1.82-1.54,2.68-2.34s1.65-1.58,2.37-2.35l2.66,1.9c-1.21,1.11-2.29,2.04-3.26,2.79-.96.75-1.81,1.38-2.54,1.87-.73.49-1.37.9-1.93,1.23.54-.18,1.17-.37,1.89-.59s1.47-.44,2.27-.66c.79-.22,1.57-.43,2.34-.63.77-.2,1.46-.36,2.08-.49l.21,2.68c-1.55.36-2.85.77-3.91,1.22s-1.91.9-2.56,1.35c-.65.45-1.12.88-1.41,1.28-.29.4-.43.74-.43,1,0,.58.69.87,2.08.87.63,0,1.29-.05,1.98-.14.69-.1,1.48-.28,2.36-.56l-.02,2.79c-.48.13-.92.23-1.31.31-.4.08-.8.14-1.2.18-.4.04-.86.06-1.36.06ZM144.73,6.24c-.52-.23-1.04-.55-1.57-.98-.53-.43-1.02-.88-1.46-1.36-.45-.48-.81-.89-1.1-1.24l2.02-1.92c.53.58,1.14,1.16,1.83,1.74s1.4,1.05,2.13,1.39l-1.85,2.38Z"/>
      <path class="cls-1" d="M162.55,17.74c-.35-.5-.76-1.03-1.24-1.57-.47-.55-.96-1.08-1.46-1.6s-.98-.98-1.44-1.39l2.32-2.22c.79.64,1.55,1.37,2.28,2.2.73.82,1.39,1.64,1.98,2.44l-2.46,2.15Z"/>
      <path class="cls-1" d="M187.11,14.48v.77h6.02v2.22h-14.54v-2.22h5.72v-.77h-3.06v-1.13c-.44.37-.91.7-1.4,1.01-.49.31-.99.57-1.51.78-.13-.21-.29-.45-.49-.71-.2-.26-.41-.51-.63-.76-.22-.25-.42-.46-.61-.62.63-.21,1.24-.49,1.83-.82.59-.33,1.13-.7,1.63-1.1h-3.29v-2.22h3.53V3.49h-2.46V1.3h2.46V.1h2.76v1.21h5.42V.11h2.81v1.19h2.45v2.19h-2.45v5.41h3.42v2.22h-3.08c.98.75,2.07,1.35,3.27,1.77-.19.16-.4.37-.63.62s-.45.51-.65.77c-.2.26-.37.5-.51.72-1.02-.46-1.96-1.09-2.83-1.87v1.34h-3.17ZM184.32,12.35v-.96h2.79v.96h2.34c-.39-.4-.74-.81-1.06-1.23h-5.02c-.17.21-.33.42-.5.62s-.35.4-.54.6h1.98ZM183.07,3.49v.56h5.42v-.56h-5.42ZM183.07,6.49h5.42v-.56h-5.42v.56ZM183.07,8.9h5.42v-.55h-5.42v.55Z"/>
      <path class="cls-1" d="M209.26,15.52c.15.01.3.02.45.03s.31,0,.47,0h.72c.31,0,.66,0,1.04,0,.38,0,.74-.01,1.08-.02.35,0,.63,0,.84,0-.1.18-.2.4-.29.67s-.18.55-.25.84c-.07.29-.12.54-.16.75h-3.15c-1.1,0-2.07-.14-2.92-.42-.85-.28-1.58-.85-2.18-1.69-.23.45-.51.88-.84,1.28s-.74.77-1.22,1.09c-.15-.29-.37-.61-.66-.97-.29-.36-.57-.64-.85-.84.25-.16.48-.35.7-.56h-2.93v1.28h-2.21v-3.85l-.19.27c-.08-.21-.19-.49-.35-.82s-.33-.67-.52-1c-.19-.33-.36-.6-.51-.8.59-.9,1.05-2.01,1.39-3.32s.58-2.68.75-4.13h-1.51V.83h6.55v2.47h-2.53c-.09.58-.18,1.16-.27,1.74s-.21,1.16-.35,1.73h2.79c-.05-.08-.1-.14-.14-.21-.04-.06-.09-.12-.14-.17.36-.29.72-.67,1.06-1.13s.63-.95.87-1.45h-1.1V1.77h1.57V.1h2.19v1.68h1.19v2.04h-1.19v.06c.11.06.28.18.51.34.23.16.45.32.66.48.21.16.36.27.44.35l-1.17,1.51c-.05-.09-.11-.18-.19-.28s-.16-.21-.25-.34v2.32h-2.19v-1.66c-.43.65-.87,1.2-1.32,1.64-.16-.41-.4-.86-.72-1.34v8.58c.52-.6.85-1.29,1-2.07.15-.78.25-1.59.3-2.43h2.4c-.02.36-.05.72-.08,1.07-.03.35-.08.7-.14,1.06.25.64.6,1.15,1.04,1.53v-3.9h-4.15v-2.19h8.99l.38-.11,1.76.53c-.16.54-.35,1.1-.56,1.67-.21.57-.4,1.07-.58,1.48l-2.04-.68c.04-.1.07-.21.1-.33.03-.12.06-.24.1-.37h-1.49v1.21h2.81v2.15h-2.81v1.45ZM199.97,9.11h-.85v4.22h.85v-4.22ZM209.35,6.67c-.2.28-.41.54-.63.78-.22.25-.44.46-.67.65-.09-.25-.23-.55-.43-.9-.2-.35-.39-.62-.57-.82.39-.28.77-.64,1.14-1.1.37-.46.68-.95.94-1.48h-1.23V1.77h1.45V.1h2.23v1.68h1.94v2.04h-1.62c.25.53.55,1.03.89,1.52.34.48.71.87,1.1,1.16-.21.16-.46.39-.73.69-.27.29-.49.57-.65.82-.33-.33-.64-.74-.93-1.24v1.49h-2.23v-1.56Z"/>
      <path class="cls-1" d="M218.83,15.65l-3.04-.51c.28-1.28.59-2.56.93-3.84.34-1.27.7-2.52,1.08-3.72-.5.14-.97.28-1.39.41-.42.14-.76.25-1.01.34l-.68-2.77c.09-.04.32-.13.71-.28.38-.15.88-.31,1.47-.49.6-.17,1.26-.33,1.97-.45.28-.79.56-1.55.84-2.28.28-.73.56-1.41.82-2.06l2.85.74c-.46,1.04-.92,2.17-1.36,3.37,1.9.08,3.41.56,4.52,1.45,1.11.89,1.67,2.22,1.67,4,0,1.31-.3,2.62-.91,3.94-.6,1.32-1.54,2.65-2.79,4l-2.4-2.06c1.16-1.09,1.95-2.15,2.39-3.18.44-1.02.65-1.98.65-2.88,0-.54-.1-.97-.31-1.3-.21-.33-.49-.57-.83-.73-.35-.16-.73-.27-1.16-.32-.43-.05-.87-.08-1.32-.08-.16,0-.33,0-.49.02-.46,1.45-.88,2.91-1.25,4.38-.37,1.48-.69,2.91-.95,4.29ZM230.59,8.45c-1.18-2.17-2.5-3.95-3.96-5.33l2.19-1.79c.6.6,1.14,1.18,1.6,1.72.46.54.91,1.11,1.33,1.7s.85,1.26,1.29,2.02l-2.45,1.7Z"/>
      <path class="cls-1" d="M243.11,17.65l-1.96-2.53c.75-.14,1.48-.32,2.17-.55.69-.23,1.31-.49,1.86-.8.55-.31.98-.65,1.29-1.04.31-.38.47-.81.47-1.27,0-.64-.25-1.13-.75-1.47s-1.15-.51-1.94-.51c-.57,0-1.24.1-2.03.31-.79.21-1.62.55-2.5,1.03-.88.48-1.74,1.11-2.59,1.9l-2.63-.3c.15-1.18.33-2.29.55-3.33s.49-2.05.82-3.03.73-1.99,1.2-3.01l2.72,1.17c-.55,1.04-.96,1.95-1.22,2.72-.26.77-.44,1.43-.56,1.97.44-.4,1-.75,1.68-1.05.68-.3,1.42-.52,2.21-.69.79-.16,1.57-.25,2.34-.25.71,0,1.4.09,2.08.26.68.18,1.3.45,1.86.81.56.36,1.01.83,1.34,1.39s.5,1.24.5,2.04-.19,1.56-.57,2.24c-.38.68-.89,1.28-1.53,1.8s-1.38.97-2.21,1.33c-.83.37-1.7.64-2.6.83ZM246.15,4.21c-.63,0-1.3-.05-2.02-.15-.72-.1-1.42-.23-2.11-.39-.69-.16-1.31-.32-1.86-.5s-.99-.34-1.3-.49l1.19-2.6c.3.16.71.32,1.24.47.52.15,1.1.29,1.74.41s1.27.22,1.91.29c.63.07,1.21.1,1.73.1h.4l-.3,2.83c-.09.01-.19.02-.29.02h-.31Z"/>
      <path class="cls-1" d="M269.79,4.22h-6.29v10.07c0,.88-.11,1.55-.34,2.01-.23.46-.63.81-1.23,1.05-.58.24-1.27.39-2.09.46s-1.7.1-2.67.1c-.06-.31-.17-.67-.31-1.06-.14-.4-.31-.79-.49-1.18s-.36-.72-.54-1c.46.03.95.04,1.45.06.5.01.96.02,1.37.03s.7,0,.88,0c.24-.01.41-.05.51-.12.1-.07.15-.2.15-.41V4.22h-7.42V1.36h17.01v2.87Z"/>
      <path class="cls-1" d="M288.61,14.38h-7.08v1.11c0,.6-.08,1.07-.25,1.41-.17.33-.49.59-.97.76-.47.16-1,.26-1.6.28-.6.03-1.28.04-2.02.04-.06-.37-.17-.77-.33-1.21-.16-.44-.32-.82-.5-1.15.29.01.61.02.96.03.35,0,.67,0,.96,0h.58c.29,0,.43-.1.43-.28v-1h-7.02v-2.24h16.84v2.24ZM272.09,6.35c.39-.14.75-.31,1.1-.52.34-.21.65-.43.92-.67h-2.17V1.28h6.85V.11h2.76v1.17h6.8v3.88h-1.44c.29.23.56.45.82.67.26.22.47.43.63.63l-1.62,1.38h.04v3.79h-13.18v-3.79h.13l-1.64-1.49ZM286.52,7.84c-.28-.33-.64-.68-1.08-1.06-.44-.38-.9-.75-1.38-1.1-.13.72-.36,1.2-.71,1.45-.35.25-.88.38-1.61.38h-2.25c-.71,0-1.25-.06-1.64-.19-.39-.13-.67-.34-.82-.65s-.25-.73-.27-1.25c-.31.49-.69.94-1.13,1.36-.44.41-.97.77-1.59,1.07h12.48ZM274.4,3.47v1.41c.14-.14.27-.28.39-.42.12-.14.22-.3.31-.46l1.66.74v-.43h1.98c-.28-.15-.56-.28-.85-.38l.47-.45h-3.96ZM277.21,9.39h-1.3v.7h1.3v-.7ZM285.78,3.47h-4.65c.2.1.39.21.57.31.18.11.33.21.45.31l-1.42,1.45c-.19-.16-.42-.34-.71-.52-.28-.18-.58-.35-.9-.52v.64c0,.23.04.37.13.41.09.05.28.08.57.08h1.62c.23,0,.38-.05.45-.14.08-.09.13-.31.17-.65.19.13.45.25.77.37.33.12.63.21.92.27l-.26-.19c-.09-.06-.18-.12-.27-.17l1.64-1.34c.14.09.28.18.43.27.15.1.3.19.45.29v-.89ZM280.76,9.39h-1.32v.7h1.32v-.7ZM284.34,9.39h-1.34v.7h1.34v-.7Z"/>
      <path class="cls-1" d="M292.05,16.99c-.3-.83-.52-1.77-.65-2.82-.13-1.05-.2-2.13-.2-3.23,0-1.23.07-2.45.2-3.67.13-1.21.3-2.33.51-3.36.21-1.03.43-1.89.67-2.58l2.89.79c-.42,1.22-.72,2.51-.93,3.88-.2,1.37-.3,2.73-.3,4.07,0,1.14.07,2.25.21,3.32s.33,2.05.58,2.94l-2.98.66ZM306,16.52c-.24.04-.5.07-.78.09-.28.02-.58.04-.88.04-.65,0-1.34-.06-2.05-.19-.71-.13-1.41-.34-2.1-.63-.69-.29-1.32-.69-1.91-1.2s-1.08-1.13-1.48-1.89l1.87-2.15c.43.79.98,1.41,1.65,1.84.67.43,1.41.74,2.22.91.8.18,1.6.26,2.38.26.24,0,.48,0,.71-.03s.46-.04.69-.05l-.32,2.98ZM298.32,6.67l-1.36-2.64c.57-.33,1.25-.63,2.05-.91s1.65-.5,2.55-.68,1.78-.26,2.63-.26c.3,0,.59.01.88.04.28.03.56.06.82.11l.08,2.9c-.28-.04-.58-.06-.91-.06-.71,0-1.48.07-2.31.2s-1.65.31-2.43.54c-.78.23-1.45.48-2,.75Z"/>
      <path class="cls-1" d="M313.23,17.61c-.71,0-1.35-.17-1.93-.51-.58-.34-1.04-.8-1.38-1.38-.34-.58-.51-1.21-.51-1.91s.17-1.34.51-1.92.8-1.04,1.38-1.38,1.22-.51,1.93-.51,1.34.17,1.92.51,1.03.8,1.37,1.38.51,1.22.51,1.92-.17,1.33-.51,1.91c-.34.58-.8,1.04-1.37,1.38-.57.34-1.21.51-1.92.51ZM313.23,15.25c.4,0,.74-.14,1.02-.42.28-.28.42-.62.42-1.01s-.14-.74-.42-1.03c-.28-.28-.62-.42-1.02-.42s-.73.14-1.02.42c-.29.28-.43.62-.43,1.03s.15.73.43,1.01c.29.28.63.42,1.02.42Z"/>
      <path class="cls-1" d="M5.02,32.49c-.06-.14-.14-.3-.22-.47-.09-.17-.18-.35-.29-.54v5.59h-2.19v-4.63c-.2.43-.4.85-.61,1.24-.21.39-.44.74-.68,1.04-.1-.33-.26-.7-.46-1.12-.2-.41-.39-.77-.57-1.06.41-.49.81-1.09,1.2-1.81.38-.72.7-1.43.96-2.12H.39v-2.1h1.93v-1.4c-.54.07-1.06.13-1.57.19-.04-.24-.12-.53-.25-.87-.12-.34-.24-.63-.36-.85.83-.11,1.66-.27,2.5-.47.84-.2,1.56-.43,2.15-.68l1.49,1.74c-.27.1-.55.2-.86.28-.3.08-.61.16-.92.23v1.83h1.31v-.26h3.37v-.36h-2.64v-1.26h2.64v-.37h-2.88v-1.32h2.88v-.64h2.25v.64h3.06v1.32h-3.06v.37h2.74v1.26h-2.74v.36h3.34v1.37H5.92v.99h-1.42v.25c.18.16.39.36.64.61s.48.5.7.73c.22.23.37.4.45.51l-1.27,1.77ZM12.72,34.54c.42.26.85.53,1.28.8.43.27.79.51,1.08.71l-1.96,1.04c-.19-.16-.42-.34-.7-.55-.28-.21-.58-.43-.89-.66-.31-.23-.61-.43-.9-.62l1-.72h-2.49l1.04.72c-.32.24-.7.48-1.13.72-.43.24-.88.47-1.34.67-.46.2-.9.37-1.33.51-.17-.21-.38-.44-.65-.71s-.51-.5-.72-.69c.47-.14.95-.31,1.45-.54.5-.22.94-.45,1.34-.68h-1.06v-6.54h7.36v6.54h-1.38ZM8.77,29.79h3.2v-.45h-3.2v.45ZM8.77,31.5h3.2v-.47h-3.2v.47ZM8.77,33.21h3.2v-.47h-3.2v.47Z"/>
      <path class="cls-1" d="M19.09,35.85c-.08,0-.24-.02-.47-.05-.23-.04-.49-.11-.78-.23s-.56-.29-.83-.52c-.27-.23-.49-.54-.67-.92-.18-.39-.26-.87-.26-1.45,0-.92.24-1.73.73-2.43.49-.7,1.14-1.26,1.97-1.68.82-.42,1.74-.7,2.76-.82.02-.19.03-.34.04-.47,0-.12,0-.2,0-.23,0-.48-.07-.82-.22-1.03s-.33-.35-.54-.41-.41-.09-.6-.09c-.35,0-.74.06-1.15.19-.41.13-.82.31-1.23.54l-.76-2.28c.52-.26,1.03-.46,1.55-.59.51-.14,1.01-.2,1.5-.2s.94.06,1.38.19c.45.13.84.34,1.19.64.35.3.62.72.83,1.24.21.53.31,1.2.31,2,0,.17,0,.34-.02.51.5.05.97.14,1.43.26.46.12.91.27,1.37.46,0-.71-.05-1.38-.16-1.99-.1-.61-.23-1.14-.39-1.58l2.3-.29c.32,1.02.48,2.24.48,3.65,0,.45-.02.9-.06,1.35.28.17.56.34.85.54.28.19.58.4.88.61l-.96,2.17c-.39-.29-.78-.56-1.15-.81-.21.86-.49,1.69-.85,2.49-.36.8-.81,1.54-1.34,2.2l-1.98-1.47c.58-.67,1.04-1.38,1.38-2.14s.59-1.5.75-2.26c-.57-.28-1.09-.48-1.55-.61-.46-.13-.89-.22-1.28-.27-.06.36-.14.74-.23,1.13-.2.87-.48,1.66-.85,2.37-.37.71-.83,1.27-1.38,1.69-.56.42-1.22.63-1.98.63ZM18.35,32.82c0,.47.27.7.82.7.36,0,.67-.17.93-.5s.48-.76.66-1.27c.18-.52.33-1.06.44-1.61-.69.14-1.22.35-1.61.63-.39.27-.67.56-.85.86-.18.3-.29.56-.33.79-.05.23-.07.36-.07.4Z"/>
      <path class="cls-1" d="M45.81,34.9v1.76h-14.29v-1.76h5.91v-.51h-4.76v-1.68h4.76v-.46h-4.25v-5.03h4.25v-.39h-5.82v-1.74h5.82v-.45c-.72.03-1.43.06-2.13.08-.71.02-1.39.03-2.07.03-.01-.26-.06-.55-.16-.89-.1-.33-.19-.61-.29-.84,1.22-.02,2.47-.06,3.74-.13,1.27-.06,2.49-.14,3.66-.25s2.21-.22,3.13-.36l1,1.74c-.68.1-1.41.2-2.19.28-.78.08-1.58.15-2.41.2v.57h5.99v1.74h-5.99v.39h4.51v5.03h-4.51v.46h5.09v1.68h-5.09v.51h6.11ZM35.39,29.08h2.04v-.42h-2.04v.42ZM37.43,30.8v-.42h-2.04v.42h2.04ZM39.7,28.66v.42h2.19v-.42h-2.19ZM41.89,30.38h-2.19v.42h2.19v-.42Z"/>
      <path class="cls-1" d="M49.79,36.28c-.06-.42-.11-.93-.14-1.51-.03-.58-.05-1.21-.06-1.88-.26.5-.5,1.01-.72,1.55l-2.01-1.24c.04-.08.18-.34.41-.78s.55-.99.96-1.64.88-1.33,1.43-2.03l.03-.96c-.21-.09-.48-.19-.82-.3s-.67-.21-1-.31-.6-.17-.79-.22l.81-2.24c.31.06.63.15.96.26s.66.23,1,.37c.04-.51.09-.98.13-1.41.05-.43.1-.8.15-1.11l2.22.12c-.05.35-.1.81-.15,1.37-.05.56-.09,1.17-.13,1.85.67-.57,1.39-1.04,2.15-1.41.76-.37,1.54-.56,2.35-.56,1.26,0,2.27.45,3.01,1.35.74.9,1.11,2.2,1.11,3.91,0,.3-.02.67-.05,1.11-.04.44-.1.88-.19,1.33.16.18.31.37.46.57s.3.43.44.67l-1.2,1.94c-.08-.13-.17-.27-.26-.41-.09-.14-.19-.27-.28-.4-.33.56-.79,1.03-1.36,1.41s-1.31.57-2.22.57c-.66,0-1.25-.13-1.77-.4s-.93-.62-1.23-1.06c-.3-.44-.45-.91-.45-1.42,0-.56.14-1.1.43-1.61.28-.51.72-.93,1.29-1.25.57-.32,1.3-.48,2.17-.48.26,0,.56.03.9.08s.7.16,1.07.32c.02-.18.04-.35.05-.51.01-.17.02-.33.02-.48,0-.31-.02-.64-.07-.98-.05-.34-.13-.67-.26-.97-.13-.31-.31-.55-.55-.75-.24-.19-.55-.29-.93-.29-.59,0-1.31.25-2.15.74s-1.7,1.23-2.57,2.21c-.03,1.19-.05,2.33-.05,3.42,0,.72,0,1.37.02,1.96s.04,1.07.07,1.44l-2.21.06ZM54.75,33.22c0,.3.14.53.42.67.28.15.6.23.95.23.54,0,.95-.12,1.23-.35.28-.23.5-.61.65-1.14-.23-.13-.46-.24-.71-.33-.24-.08-.5-.12-.77-.12-.41,0-.75.06-1.02.18s-.46.26-.58.42-.18.31-.18.44Z"/>
      <path class="cls-1" d="M69.77,36.53c-.5,0-1.01-.03-1.54-.08s-1.03-.16-1.52-.3c-.48-.15-.92-.36-1.3-.63s-.69-.63-.91-1.06c-.22-.43-.33-.96-.33-1.59,0-.3.05-.63.14-.99.09-.36.28-.74.56-1.14.28-.4.69-.81,1.24-1.23-.15-.34-.26-.71-.34-1.11-.08-.4-.12-.83-.12-1.28v-.26c-.42.07-.83.15-1.21.24-.38.09-.74.18-1.06.27l-.4-2.05c.41-.13.88-.26,1.39-.38.51-.12,1.05-.22,1.63-.32.08-.32.18-.65.3-.99s.26-.7.43-1.07l2.44.45c-.21.35-.4.78-.59,1.29.89-.08,1.77-.14,2.65-.19.88-.04,1.69-.06,2.43-.06.39,0,.76,0,1.1.02s.65.03.93.05l-.31,2.1c-.47-.03-.99-.05-1.57-.05-.86,0-1.79.03-2.79.09-1,.06-1.99.15-2.98.26-.02.2-.03.39-.03.57,0,.44.07.85.22,1.23.7-.31,1.51-.61,2.46-.91.94-.29,2.04-.58,3.28-.85l.9,2.28c-.29.05-.7.13-1.24.24s-1.13.25-1.78.41-1.3.37-1.93.61c.43.23.9.41,1.4.56.5.15.97.26,1.43.36l-.57,2.17c-.92-.13-1.79-.35-2.59-.65-.8-.3-1.5-.7-2.09-1.2-.28.22-.5.45-.66.71-.16.25-.24.53-.24.82,0,.4.27.73.81.98.54.25,1.3.37,2.29.37.74,0,1.43-.05,2.07-.14.64-.09,1.28-.24,1.92-.44.64-.2,1.31-.47,2.01-.82l.2,2.64c-.73.25-1.4.45-2.04.61-.63.16-1.27.27-1.93.35-.65.08-1.37.12-2.16.12Z"/>
      <path class="cls-1" d="M86.98,28.69c.51,1.41,1.22,2.65,2.15,3.73.92,1.08,2.1,1.9,3.53,2.45-.19.17-.39.38-.6.63s-.41.52-.61.78-.35.51-.47.73c-1.37-.63-2.5-1.46-3.4-2.48-.9-1.02-1.65-2.22-2.25-3.59-.45,1.19-1.11,2.31-1.98,3.35-.88,1.04-2.08,1.95-3.62,2.72-.18-.31-.42-.65-.74-1.01-.32-.36-.64-.67-.97-.92,1.14-.52,2.07-1.11,2.8-1.78.73-.67,1.3-1.39,1.72-2.18.42-.79.73-1.6.94-2.44h-5.15v-2.35h5.52c.05-.68.08-1.36.09-2.04,0-.68.01-1.34.02-1.98h2.49c-.01.64-.02,1.3-.04,1.98-.02.68-.05,1.36-.12,2.04h5.97v2.35h-5.29Z"/>
      <path class="cls-1" d="M97.9,31.84c.08,0,.14-.05.19-.15.04-.1.07-.29.09-.57s.04-.68.05-1.21c.24.2.55.38.95.55s.74.29,1.04.37c-.07.78-.19,1.39-.34,1.85-.16.46-.37.79-.65.99-.28.2-.64.3-1.09.3h-1.1c-.54,0-.96-.09-1.25-.26-.3-.18-.5-.48-.61-.9-.11-.42-.17-1-.17-1.74v-2.27l-1.32.25-.36-2.1,1.68-.3v-3.87h2.24v3.46l2.75-.5.36,2.05-3.11.57v2.69c0,.34.01.55.04.64.03.08.09.12.19.12h.44ZM107.96,23.36c-.01.29-.02.52-.02.7s0,.32-.02.42c-.04,1.91-.08,3.54-.12,4.87-.04,1.34-.09,2.44-.16,3.31-.06.87-.14,1.55-.24,2.04-.1.49-.22.85-.37,1.06-.23.35-.46.6-.7.75-.24.15-.52.26-.84.34-.29.06-.64.1-1.04.1s-.82,0-1.24,0c-.01-.32-.08-.71-.22-1.17-.13-.45-.3-.84-.5-1.16.38.03.73.05,1.05.05s.57,0,.75,0c.26,0,.46-.11.61-.33.13-.18.24-.58.33-1.22.08-.64.15-1.58.21-2.82.06-1.24.1-2.85.13-4.81h-1.93c-.03,1.25-.1,2.45-.19,3.58-.1,1.13-.29,2.2-.57,3.19-.28.99-.7,1.9-1.25,2.73s-1.3,1.55-2.23,2.18c-.17-.3-.4-.63-.7-.99-.3-.36-.6-.64-.89-.85.83-.52,1.48-1.12,1.96-1.8s.83-1.44,1.05-2.27c.22-.83.37-1.73.44-2.69.07-.97.11-2,.12-3.08h-2.11v-2.14h8.69Z"/>
      <path class="cls-1" d="M110.63,36.24c-.25-.68-.43-1.46-.54-2.32-.11-.86-.16-1.75-.16-2.66,0-1.01.05-2.02.16-3.02.11-1,.25-1.92.42-2.77.17-.85.35-1.56.55-2.13l2.38.65c-.34,1-.6,2.07-.76,3.2-.17,1.13-.25,2.25-.25,3.35,0,.94.06,1.85.17,2.73s.27,1.69.48,2.42l-2.46.54ZM122.13,35.85c-.2.03-.41.06-.64.08-.23.02-.47.03-.72.03-.54,0-1.1-.05-1.69-.16-.58-.1-1.16-.28-1.73-.52-.56-.24-1.09-.57-1.57-.99s-.89-.93-1.22-1.55l1.54-1.77c.35.65.81,1.16,1.36,1.51.55.36,1.16.61,1.83.75.66.15,1.32.22,1.96.22.2,0,.39,0,.58-.02s.38-.03.57-.04l-.26,2.45ZM115.8,27.74l-1.12-2.17c.47-.27,1.03-.52,1.69-.75s1.36-.41,2.1-.56,1.46-.22,2.17-.22c.25,0,.49.01.72.03.23.02.46.05.68.09l.06,2.39c-.23-.03-.48-.05-.75-.05-.58,0-1.22.05-1.91.16s-1.35.26-2,.44c-.64.19-1.19.39-1.65.62Z"/>
      <path class="cls-1" d="M125.17,27.59l-.56-2.19c.76-.21,1.58-.39,2.46-.54s1.8-.29,2.74-.39c.94-.1,1.86-.18,2.76-.23-.08-.34-.17-.64-.26-.9-.09-.26-.17-.47-.24-.64l2.38-.06c.09.17.18.38.26.64.08.26.15.56.21.88h.34c.67,0,1.29.02,1.86.05.57.04,1.05.08,1.47.15l-.25,2.24c-.82-.15-1.88-.22-3.19-.22.01.3.02.6.02.88,0,.63-.06,1.25-.17,1.86.24.34.43.74.56,1.2.13.46.2.98.2,1.56,0,.79-.15,1.52-.45,2.19-.3.67-.71,1.26-1.23,1.75-.52.5-1.11.88-1.77,1.15l-2.15-1.34c.78-.24,1.4-.55,1.88-.94.48-.39.83-.79,1.07-1.22.24-.42.39-.81.47-1.15-.33.38-.73.69-1.18.92-.46.23-.98.34-1.57.34-.64,0-1.22-.13-1.73-.4-.51-.26-.92-.62-1.22-1.06-.3-.44-.45-.95-.45-1.51,0-.17.03-.38.08-.65s.15-.56.3-.86c.14-.31.36-.6.64-.87.28-.27.65-.5,1.1-.67s1.01-.26,1.67-.26c.3,0,.6.02.89.07.29.05.58.12.86.21v-.19c0-.33-.01-.66-.03-.98-.93.05-1.87.13-2.81.23-.94.1-1.84.23-2.7.39-.86.15-1.6.33-2.25.53ZM129.68,30.55c0,.35.12.58.35.69.23.11.46.16.69.16.51,0,.91-.15,1.21-.44.3-.29.52-.65.67-1.06-.25-.18-.51-.3-.79-.37-.27-.07-.52-.11-.72-.11-.38,0-.71.11-1,.32-.28.21-.42.48-.42.82Z"/>
      <path class="cls-1" d="M147.46,36.56c-1.63,0-2.87-.25-3.72-.76-.86-.51-1.28-1.19-1.28-2.03,0-.17.04-.4.12-.7.08-.3.23-.61.44-.92.21-.31.52-.57.92-.79.4-.22.91-.33,1.55-.33.54,0,.99.1,1.35.3.36.2.66.46.88.78.22.32.38.67.48,1.04.1.37.15.73.15,1.07v.05c.77-.17,1.37-.46,1.81-.89s.66-.93.66-1.51c0-.46-.1-.85-.31-1.15-.21-.3-.48-.53-.82-.69s-.71-.27-1.1-.34c-.4-.07-.79-.1-1.17-.1-.6,0-1.25.08-1.94.25-.7.17-1.45.45-2.27.85l-.79-2.38c1.07-.35,1.96-.66,2.68-.92s1.31-.51,1.78-.75c.47-.23.85-.47,1.15-.71.31-.27.47-.48.47-.64,0-.19-.2-.28-.59-.28-.3,0-.96.12-1.98.36-1.02.24-2.27.64-3.76,1.2l-.76-2.24c.38-.18.86-.35,1.43-.52.57-.17,1.17-.33,1.8-.47.63-.15,1.24-.26,1.83-.35.59-.09,1.09-.13,1.52-.13.96,0,1.73.18,2.29.54.56.36.85.86.85,1.51,0,.57-.12,1.05-.35,1.43-.23.38-.51.69-.83.93s-.61.41-.87.53h.09c.73,0,1.4.16,2.04.47.63.32,1.15.77,1.54,1.36s.59,1.29.59,2.1c0,.1-.01.28-.04.54-.03.26-.09.56-.19.89-.1.34-.25.68-.46,1.04-.21.36-.49.69-.86,1-.44.38-1,.7-1.7.96-.7.25-1.57.38-2.62.38ZM144.6,33.67c0,.23.17.4.5.52s.73.19,1.18.22c.01-.08.02-.17.02-.25,0-.74-.29-1.1-.89-1.1-.24,0-.43.06-.58.19-.15.13-.22.27-.22.41Z"/>
      <path class="cls-1" d="M162.32,27.29c-.28,1.59-.68,3.04-1.21,4.35.32.43.62.86.89,1.27.27.41.49.8.65,1.17l-1.8,1.54c-.22-.51-.52-1.08-.92-1.71-.8,1.23-1.79,2.25-2.99,3.06-.09-.16-.23-.34-.41-.57s-.37-.44-.57-.67c-.2-.22-.37-.4-.53-.53.67-.39,1.27-.86,1.79-1.41.52-.54.97-1.16,1.35-1.85-.82-1.11-1.65-2.13-2.49-3.06l1.59-1.29c.3.32.61.66.92,1.01.31.35.62.71.93,1.07.26-.84.46-1.73.61-2.69l2.19.31ZM170.36,27.79h-1.55v6.55c0,.6-.06,1.07-.18,1.42s-.34.62-.68.82-.75.33-1.24.39c-.5.06-1.07.09-1.71.09-.02-.23-.07-.49-.14-.78-.07-.29-.16-.58-.26-.88-.1-.29-.2-.56-.3-.78.4.02.79.03,1.16.04.37,0,.62,0,.75,0s.23-.02.28-.07c.05-.05.08-.14.08-.27v-6.54h-3.7v-1.09h-6.97v-2.08h2.58v-2.28h2.16v2.28h2.75v1.01h3.17v-3.31h2.24v3.31h1.55v2.16ZM164.31,28.8c.24.33.47.69.71,1.07.23.38.44.76.61,1.13s.31.71.39,1.02l-1.94.99c-.07-.3-.19-.64-.35-1.03-.16-.39-.35-.78-.56-1.19s-.43-.78-.66-1.12l1.8-.88Z"/>
      <path class="cls-1" d="M179.63,25.26l-.34,1.09h5.75v10.73h-2.3v-.78h-8.44v.78h-2.18v-10.73h4.77c.02-.18.05-.36.08-.54.03-.19.06-.37.08-.54h-5.54v-2.13h14.21v2.13h-6.1ZM174.29,34.23h1.23v-5.82h-1.23v5.82ZM179.41,28.41h-1.88v.73h1.88v-.73ZM179.41,30.88h-1.88v.82h1.88v-.82ZM177.53,34.23h1.88v-.79h-1.88v.79ZM182.74,28.41h-1.31v5.82h1.31v-5.82Z"/>
      <path class="cls-1" d="M187.42,25.09c.95-.33,1.92-.61,2.91-.85.98-.23,1.95-.41,2.91-.54.95-.12,1.85-.19,2.68-.19.31,0,.63.01.95.03.32.02.63.06.93.11-.02.08-.04.17-.05.26-.02.09-.02.18-.02.27,0,.36.09.69.26.99.18.3.41.54.72.72.3.18.63.27,1,.27.28,0,.53-.05.75-.16.01.07.02.15.02.22,0,.08,0,.16,0,.24,0,.5-.11,1.13-.33,1.89-.22.77-.6,1.61-1.12,2.53-.52.92-1.23,1.87-2.11,2.86-.88.98-1.98,1.94-3.3,2.87l-2.24-1.94c1.05-.64,1.96-1.33,2.75-2.06.79-.74,1.45-1.46,1.98-2.17.53-.72.92-1.36,1.19-1.95.26-.59.4-1.05.4-1.39,0-.4-.15-.67-.46-.8-.31-.13-.69-.19-1.16-.19-.97,0-2.11.12-3.42.37-1.31.24-2.74.64-4.31,1.19l-.92-2.59ZM199.69,25.71c-.42,0-.77-.15-1.07-.45-.3-.3-.44-.66-.44-1.07s.15-.77.44-1.06c.29-.3.65-.44,1.07-.44s.78.15,1.08.44c.29.29.44.65.44,1.06s-.15.77-.44,1.07c-.3.3-.66.45-1.08.45ZM199.69,24.68c.14,0,.26-.05.36-.15s.14-.21.14-.35-.05-.25-.14-.35-.21-.15-.36-.15c-.13,0-.25.05-.34.15-.09.1-.14.21-.14.35s.05.25.14.35c.09.1.21.15.34.15Z"/>
      <path class="cls-1" d="M210.03,36.87l-1.79-2.02c.44-.24.89-.53,1.37-.86s.94-.69,1.39-1.06c.45-.37.86-.74,1.22-1.11.36-.37.65-.71.86-1.03s.32-.59.32-.81-.08-.36-.25-.44c-.17-.09-.38-.14-.64-.16-.26-.02-.53-.03-.81-.03-.49,0-1.06.03-1.72.09-.66.06-1.36.14-2.11.26-.75.12-1.5.27-2.25.44-.76.18-1.47.39-2.15.64l-.45-2.5c.84-.29,1.76-.53,2.78-.73,1.01-.2,2.03-.35,3.06-.45,1.03-.1,1.98-.16,2.86-.16s1.57.05,2.18.14c.81.12,1.39.42,1.75.88.36.46.54.97.54,1.51s-.17,1.11-.51,1.74c-.34.63-.8,1.28-1.38,1.95-.58.67-1.24,1.32-1.98,1.96s-1.5,1.22-2.3,1.76ZM214.16,26.36c-.37-.11-.84-.22-1.41-.33-.56-.1-1.18-.19-1.84-.27-.66-.08-1.34-.14-2.04-.19-.7-.05-1.35-.07-1.98-.07-.39,0-.77,0-1.12.02-.35.02-.67.05-.95.1l.26-2.5c.3-.05.63-.09.99-.1.36-.02.74-.02,1.16-.02.62,0,1.27.02,1.95.06.68.04,1.35.1,2.02.19.67.08,1.29.18,1.87.29s1.08.23,1.51.35l-.44,2.47Z"/>
      <path class="cls-1" d="M220.2,32.6l-1.85-1.69c.28-.39.66-.84,1.13-1.33.47-.49,1.01-1.01,1.63-1.54.61-.54,1.26-1.08,1.95-1.61s1.4-1.05,2.12-1.53,1.44-.91,2.13-1.29c.7-.38,1.35-.67,1.96-.88l1.68,1.94c-.67.25-1.35.55-2.03.92-.68.36-1.34.76-2,1.18.1.46.19.99.26,1.61.07.62.12,1.28.16,1.99.03.7.05,1.41.05,2.13s-.02,1.43-.05,2.1c-.03.68-.08,1.29-.14,1.82l-2.68-.14c.04-.43.07-.96.1-1.57.03-.61.04-1.25.04-1.93,0-.74-.02-1.47-.05-2.21-.04-.74-.1-1.41-.19-2.01-.89.7-1.7,1.41-2.43,2.12s-1.32,1.35-1.78,1.92Z"/>
      <path class="cls-1" d="M246.01,35.79c-.36-.68-.77-1.41-1.21-2.17-.44-.76-.91-1.51-1.38-2.24-.48-.73-.95-1.39-1.42-1.97-.47-.58-.9-1.05-1.31-1.41-.41-.35-.77-.53-1.08-.53s-.64.14-.98.43c-.34.29-.68.65-1.01,1.1-.33.45-.65.93-.95,1.44-.3.51-.57.99-.79,1.44s-.41.82-.54,1.09l-2.15-1.37c.12-.25.29-.59.51-1.02.22-.43.48-.91.79-1.43.31-.52.65-1.04,1.02-1.56.37-.52.78-1,1.21-1.44.43-.44.89-.79,1.38-1.06.48-.26.98-.4,1.5-.4.47,0,.94.14,1.43.4.49.27.98.63,1.48,1.09.5.46.99.98,1.46,1.55.48.57.93,1.17,1.37,1.79.44.62.84,1.21,1.21,1.79.37.58.7,1.11,1,1.58.29.48.53.86.71,1.15l-2.24,1.71ZM243.62,25.49l1.07-.5c.09.24.24.51.43.82.19.31.39.57.6.79l-.93.79c-.09-.09-.22-.26-.39-.5-.17-.24-.32-.49-.47-.76s-.25-.49-.3-.65ZM245.34,25.41l.93-.71c.14.22.34.46.57.73.24.27.48.49.72.67l-.84.92c-.1-.08-.25-.22-.44-.41-.19-.19-.38-.4-.55-.62-.18-.22-.31-.41-.39-.57Z"/>
      <path class="cls-1" d="M250.04,31.7l-.53-2.69c.55-.15,1.19-.27,1.94-.38s1.54-.2,2.4-.29c.86-.08,1.74-.15,2.63-.19.9-.04,1.77-.06,2.62-.06.8,0,1.55.02,2.25.06.7.04,1.33.1,1.87.19l-.3,2.73c-.47-.08-1.01-.14-1.64-.18-.63-.04-1.3-.05-2.03-.05-.81,0-1.65.02-2.51.06s-1.72.1-2.55.18c-.84.08-1.61.17-2.32.27-.72.1-1.33.22-1.84.34Z"/>
      <path class="cls-1" d="M267.84,36.55c-.08-.55-.14-1.17-.19-1.86-.04-.69-.06-1.4-.06-2.13,0-.84.02-1.7.06-2.59.04-.89.1-1.77.16-2.63s.15-1.69.24-2.46c.09-.78.19-1.46.28-2.06l2.64.26c-.11.52-.22,1.14-.33,1.86-.11.73-.2,1.51-.27,2.35.93.28,1.87.62,2.8,1.03.93.41,1.82.86,2.66,1.35.84.49,1.58,1,2.24,1.53l-1.45,2.2c-.57-.51-1.22-.99-1.95-1.45-.73-.46-1.48-.88-2.25-1.26s-1.51-.71-2.2-.98c-.02.53-.03,1.05-.03,1.57,0,.92.03,1.82.08,2.69.05.87.13,1.71.25,2.51l-2.67.08Z"/>
      <path class="cls-1" d="M285.44,36.33c-.75,0-1.34-.15-1.8-.44-.45-.29-.79-.67-1.02-1.16-.23-.48-.38-1.01-.46-1.6-.08-.58-.12-1.17-.12-1.76,0-.84.04-1.74.13-2.71.09-.97.2-1.94.34-2.91.14-.97.29-1.87.46-2.7l2.63.43c-.21.96-.38,1.92-.53,2.88-.15.96-.25,1.87-.33,2.74-.07.87-.11,1.66-.11,2.38,0,.31.02.64.05.98.04.34.13.63.29.87.16.24.42.36.79.36.23,0,.59-.08,1.09-.23.5-.15,1.09-.39,1.78-.71.69-.33,1.43-.75,2.23-1.26.8-.52,1.61-1.14,2.43-1.86l.87,2.75c-.72.63-1.47,1.19-2.25,1.68-.79.49-1.58.91-2.36,1.24s-1.53.59-2.24.77c-.7.18-1.33.26-1.88.26Z"/>
      <path class="cls-1" d="M298.52,31.36c-.04-.25-.1-.56-.17-.94s-.15-.78-.24-1.21c-.09-.43-.19-.84-.32-1.23-.12-.39-.26-.73-.42-1.01l2.13-.67c.35.74.62,1.45.81,2.15s.32,1.49.4,2.37l-2.19.54ZM301.57,30.58c-.03-.63-.13-1.32-.3-2.06-.17-.74-.39-1.5-.67-2.27l2.18-.72c.23.57.41,1.09.55,1.55.14.46.25.92.34,1.39.09.46.16.99.21,1.58l-2.32.53ZM303.23,36.75l-2.13-1.54c.96-.73,1.75-1.45,2.37-2.19.62-.73,1.1-1.48,1.45-2.25.35-.77.61-1.55.77-2.35.16-.8.27-1.62.33-2.46l2.49.67c-.07,1.15-.31,2.33-.7,3.55-.39,1.22-.97,2.39-1.72,3.52s-1.71,2.15-2.87,3.06Z"/>
      <path class="cls-1" d="M313.87,36.28l-1.71-2.3c.88-.54,1.72-1.1,2.51-1.69s1.52-1.18,2.19-1.78,1.25-1.16,1.74-1.69.87-1.01,1.14-1.43.4-.75.4-1c0-.21-.09-.35-.27-.44-.18-.09-.43-.13-.75-.13-.45,0-1,.07-1.66.2-.66.14-1.35.3-2.08.51-.73.2-1.43.41-2.11.61l-.53-2.5c1.28-.35,2.53-.65,3.72-.91s2.36-.38,3.49-.38c.59,0,1.12.06,1.58.19.47.13.84.36,1.1.68s.4.77.4,1.35c0,.67-.21,1.42-.65,2.24-.43.82-.99,1.65-1.67,2.49.69.52,1.41,1.14,2.17,1.87.76.73,1.49,1.5,2.2,2.32l-2.15,1.68c-.55-.71-1.17-1.43-1.85-2.14-.68-.72-1.35-1.36-1.99-1.94-.85.86-1.74,1.66-2.67,2.4-.93.74-1.79,1.34-2.58,1.81Z"/>
      <path class="cls-1" d="M335.03,35.31c-.76.39-1.41.65-1.97.78-.56.12-1.03.19-1.42.19-2.02,0-3.31-1.09-3.86-3.28l2.35-1.06c.14.59.35,1.02.62,1.29s.61.4,1.01.4c.17,0,.45-.05.84-.15s.86-.29,1.41-.55,1.13-.63,1.75-1.11c.62-.48,1.24-1.08,1.87-1.82.62-.74,1.2-1.63,1.74-2.69l1.97,1.82v.02c-.25.5-.59,1.03-1.02,1.6-.43.57-.92,1.14-1.48,1.7-.56.56-1.16,1.09-1.8,1.58-.65.49-1.32.92-2.01,1.28ZM332.11,28.63c-.51-.67-1.09-1.29-1.73-1.85-.65-.56-1.31-1.03-1.98-1.41l1.79-1.89c.64.38,1.3.84,1.98,1.38s1.3,1.18,1.87,1.91l-1.91,1.86Z"/>
      <path class="cls-1" d="M353.7,36.48c-1.31-.06-2.42-.25-3.34-.56s-1.66-.7-2.22-1.18c-.57-.48-.98-1-1.24-1.58s-.4-1.18-.4-1.8c0-.56.12-1.18.37-1.85.25-.68.66-1.35,1.24-2.01.58-.66,1.37-1.25,2.36-1.76-.72.04-1.68.18-2.89.4-1.21.23-2.78.56-4.7,1.01l-.23-2.36c.64-.18,1.4-.35,2.26-.51s1.79-.31,2.77-.44,1.98-.23,2.99-.31c1.02-.08,1.99-.12,2.92-.12.77,0,1.48.03,2.15.09l.05,2.11c-.44.02-.95.14-1.54.37s-1.19.52-1.8.89-1.17.8-1.7,1.29-.95,1-1.27,1.55-.48,1.1-.48,1.66c0,.44.12.82.36,1.13.24.31.56.56.96.75.4.19.85.34,1.34.45.49.11,1,.18,1.51.22.51.04,1,.07,1.45.08l-.93,2.47ZM353.99,29.54c-.1-.07-.27-.2-.49-.4-.22-.19-.44-.4-.65-.61s-.36-.4-.46-.54l.93-.76c.14.21.35.44.61.69.26.25.52.46.77.61l-.71,1.01ZM355.77,28.69c-.12-.05-.3-.15-.53-.29-.23-.14-.46-.3-.69-.47-.23-.17-.4-.32-.51-.46l.73-.93c.19.18.43.37.73.57.3.21.59.37.87.48l-.61,1.09Z"/>
      <path class="cls-1" d="M358.42,27.59l-.56-2.19c.76-.21,1.58-.39,2.46-.54s1.8-.29,2.74-.39c.94-.1,1.86-.18,2.76-.23-.08-.34-.17-.64-.26-.9-.09-.26-.17-.47-.24-.64l2.38-.06c.09.17.18.38.26.64.08.26.15.56.21.88h.34c.67,0,1.29.02,1.86.05.57.04,1.05.08,1.47.15l-.25,2.24c-.82-.15-1.88-.22-3.19-.22.01.3.02.6.02.88,0,.63-.06,1.25-.17,1.86.24.34.43.74.56,1.2.13.46.2.98.2,1.56,0,.79-.15,1.52-.45,2.19-.3.67-.71,1.26-1.23,1.75-.52.5-1.11.88-1.77,1.15l-2.15-1.34c.78-.24,1.4-.55,1.88-.94.48-.39.83-.79,1.07-1.22.24-.42.39-.81.47-1.15-.33.38-.73.69-1.18.92-.46.23-.98.34-1.57.34-.64,0-1.22-.13-1.73-.4-.51-.26-.92-.62-1.22-1.06-.3-.44-.45-.95-.45-1.51,0-.17.03-.38.08-.65s.15-.56.3-.86c.14-.31.36-.6.64-.87.28-.27.65-.5,1.1-.67s1.01-.26,1.67-.26c.3,0,.6.02.89.07.29.05.58.12.86.21v-.19c0-.33-.01-.66-.03-.98-.93.05-1.87.13-2.81.23-.94.1-1.84.23-2.7.39-.86.15-1.6.33-2.25.53ZM362.93,30.55c0,.35.12.58.35.69.23.11.46.16.69.16.51,0,.91-.15,1.21-.44.3-.29.52-.65.67-1.06-.25-.18-.51-.3-.79-.37-.27-.07-.52-.11-.72-.11-.38,0-.71.11-1,.32-.28.21-.42.48-.42.82Z"/>
      <path class="cls-1" d="M376.87,36.75c-.58,0-1.11-.14-1.59-.42-.48-.28-.86-.66-1.14-1.13-.28-.48-.42-1-.42-1.57s.14-1.11.42-1.58.66-.85,1.14-1.13,1.01-.42,1.59-.42,1.11.14,1.58.42.85.66,1.13,1.13.42,1,.42,1.58-.14,1.09-.42,1.57c-.28.48-.66.85-1.13,1.13-.47.28-1,.42-1.58.42ZM376.87,34.81c.33,0,.61-.12.84-.35.23-.23.34-.51.34-.83s-.11-.61-.34-.85c-.23-.23-.51-.35-.84-.35s-.6.12-.84.35c-.24.23-.36.51-.36.85s.12.6.36.83c.24.23.52.35.84.35Z"/>
    </g>
  </g>
</svg>