<?xml version="1.0" encoding="UTF-8"?>
<svg id="_レイヤー_2" data-name="レイヤー 2" xmlns="http://www.w3.org/2000/svg" viewBox="0 0 500 39">
  <defs>
    <style>
      .cls-1 {
        fill: #2d313c;
      }
    </style>
  </defs>
  <g id="_レイヤー_1-2" data-name="レイヤー 1">
    <g>
      <path class="cls-1" d="M24.25,28.28c1.53,1.48,3.49,2.66,5.87,3.54s5.23,1.47,8.53,1.76c-.4.43-.84.96-1.31,1.6-.47.63-.9,1.29-1.31,1.96s-.74,1.29-1,1.86c-3.62-.57-6.67-1.5-9.15-2.81-2.48-1.31-4.58-3.06-6.29-5.24-1.31,1.73-3.24,3.28-5.79,4.67-2.55,1.39-5.93,2.52-10.14,3.38-.21-.43-.53-.96-.95-1.58-.41-.62-.86-1.23-1.33-1.84s-.93-1.13-1.39-1.56c3.91-.65,6.97-1.46,9.17-2.43,2.2-.97,3.82-2.07,4.87-3.32H.93v-5.42h3.74v-9.22h11.38v-3.72h6.15v3.72h11.95v9.22h3.38v5.42h-13.27ZM8.81,8.49H1.29V3.28h7.52V.48h5.79v2.79h9.13V.48h5.83v2.79h7.6v5.22h-7.6v3.28h-5.83v-3.28h-9.13v3.28h-5.79v-3.28ZM16.05,22.86v-4.17h-5.75v4.17h5.75ZM22.2,18.69v4.17h5.99v-4.17h-5.99Z"/>
      <path class="cls-1" d="M55.62,11.94h-15.24v-4.57h15.24v4.57ZM54.5,37.46h-7.44v1.46h-4.87v-14.04h12.31v12.58ZM54.14,17.68h-11.79v-4.37h11.79v4.37ZM42.35,19.05h11.79v4.37h-11.79v-4.37ZM54.21,6.03h-11.62V1.66h11.62v4.37ZM47.06,29.45v3.44h2.49v-3.44h-2.49ZM78.75,16.63v5.1h-23.57v-5.1h4.75c.11-.49.21-.99.3-1.52.09-.53.18-1.06.26-1.6h-3.06v-4.94h3.82l.28-2.15h-4.75V1.46h20.47v4.98h-10.05l-.32,2.15h8.49v8.05h3.38ZM58.08,23.34h18.06v15.41h-5.71v-1.21h-6.88v1.38h-5.47v-15.58ZM63.55,28.56v3.76h6.88v-3.76h-6.88ZM66.12,13.51c-.11.54-.2,1.07-.28,1.6-.08.53-.18,1.03-.28,1.52h4.23v-3.11h-3.66Z"/>
      <path class="cls-1" d="M108.91,37.18l-5.91-4c1.66-.86,3.16-1.94,4.48-3.22,1.33-1.28,2.37-2.71,3.14-4.29.77-1.58,1.15-3.22,1.15-4.92-.03-2.7-.77-4.98-2.23-6.84-1.46-1.86-3.49-3.08-6.09-3.64.03.43.04.86.04,1.29,0,2.94-.4,5.72-1.18,8.33-.79,2.62-1.79,4.95-3,7-.81,1.35-1.79,2.59-2.96,3.72s-2.41,2.03-3.74,2.71c-1.33.67-2.65,1.01-3.96,1.01-1.66,0-3.06-.47-4.18-1.42s-1.96-2.21-2.51-3.78-.82-3.31-.82-5.2c0-1.29.21-2.8.62-4.51s1.09-3.45,2.01-5.22c.92-1.77,2.12-3.4,3.6-4.9,1.47-1.5,3.26-2.71,5.37-3.64s4.57-1.4,7.38-1.4c3.62,0,6.78.67,9.49,2.02,2.71,1.35,4.81,3.31,6.31,5.89,1.5,2.58,2.25,5.71,2.25,9.41,0,1.92-.38,3.83-1.13,5.75-.75,1.92-1.82,3.72-3.2,5.4-1.38,1.69-3.02,3.16-4.93,4.43ZM87.15,23.99c0,.94.13,1.8.4,2.57.27.77.72,1.15,1.37,1.15.32,0,.78-.11,1.37-.32.59-.22,1.26-.7,2.01-1.46.75-.75,1.53-1.94,2.33-3.56.94-1.89,1.6-3.78,1.99-5.67.39-1.89.58-3.59.58-5.1,0-.43-.01-.85-.04-1.25-1.58.43-3,1.15-4.26,2.17-1.26,1.01-2.32,2.18-3.17,3.5-.97,1.4-1.64,2.84-2.01,4.31-.38,1.47-.56,2.69-.56,3.66Z"/>
      <path class="cls-1" d="M158.1,28.81h-15.16v4.04c0,1.43-.2,2.55-.59,3.36-.39.81-1.13,1.43-2.23,1.86-1.07.4-2.28.65-3.62.75-1.34.09-2.84.14-4.51.14-.19-.84-.51-1.81-.97-2.91-.45-1.11-.91-2.03-1.36-2.79.75.03,1.56.06,2.43.08s1.66.04,2.35.04h1.45c.4,0,.68-.05.82-.16s.22-.3.22-.57v-3.84h-15.08v-5.38h15.08v-2.43h2.53c.35-.24.69-.49,1.02-.75.34-.26.65-.52.95-.79h-12.15v-5.06h17.29l1.25-.28,3.66,2.83c-.99,1.11-2.1,2.23-3.34,3.36s-2.53,2.17-3.9,3.11h13.84v5.38ZM127.65,17.15h-5.47V6.76h5.11c-.35-.62-.74-1.25-1.17-1.9-.43-.65-.86-1.24-1.29-1.78l4.99-2.22c.7.75,1.39,1.61,2.07,2.57.68.96,1.18,1.83,1.51,2.61l-1.57.73h5.31c-.27-.73-.61-1.5-1.02-2.33s-.84-1.57-1.27-2.25l5.19-1.94c.62.84,1.22,1.79,1.81,2.85.59,1.06,1.02,2,1.29,2.81l-2.21.85h5.55c.62-.94,1.19-1.95,1.73-3.02.54-1.06.98-2.05,1.33-2.97l6.4,1.82c-.51.73-1.01,1.44-1.51,2.14-.5.7-1,1.38-1.51,2.02h4.87v10.4h-5.75v-5.26h-24.37v5.26Z"/>
      <path class="cls-1" d="M177.33,37.75c-1.88,0-3.61-.34-5.21-1.03-1.6-.69-2.99-1.65-4.18-2.89-1.19-1.24-2.12-2.69-2.78-4.35-.66-1.66-.99-3.47-.99-5.44,0-1.65.21-3.25.64-4.82.43-1.56.94-3.01,1.53-4.35.59-1.33,1.15-2.45,1.67-3.36.52-.9.89-1.5,1.11-1.8l-.12-.08c-.75.43-1.63.96-2.63,1.6-1,.64-1.9,1.44-2.67,2.41l-2.78-5.99c1.18-.92,2.46-1.81,3.84-2.69s2.8-1.6,4.26-2.17c1.46-.57,2.86-.85,4.2-.85,1.16,0,2.14.39,2.96,1.16.81.77,1.22,1.69,1.22,2.77,0,.92-.26,1.91-.78,2.97-.52,1.07-1.15,2.22-1.87,3.46-.75,1.29-1.47,2.58-2.17,3.84-.7,1.27-1.26,2.54-1.69,3.81s-.64,2.57-.64,3.92c0,1.21.27,2.41.81,3.58s1.32,2.15,2.35,2.93c1.03.78,2.28,1.17,3.76,1.17,2.98,0,5.23-1.6,6.76-4.79,1.53-3.2,2.29-7.88,2.29-14.06,0-1.43-.04-2.87-.12-4.33l5.87-.93c.13.75.38,1.83.74,3.21.36,1.39.86,2.91,1.51,4.57.64,1.66,1.46,3.29,2.45,4.9s2.17,3,3.54,4.19l-3.9,4.85c-.72-.62-1.43-1.38-2.11-2.27s-1.29-1.76-1.81-2.63c-.52-.86-.92-1.55-1.19-2.06,0,1.24-.22,2.7-.66,4.37-.44,1.67-1.15,3.3-2.11,4.9-2.6,4.18-6.3,6.27-11.1,6.27ZM192.45,6.96c-.24-.27-.58-.71-1-1.33-.43-.62-.84-1.27-1.23-1.96s-.65-1.25-.78-1.68l2.77-1.3c.27.62.64,1.34,1.13,2.15.48.81.99,1.48,1.53,2.02l-2.41,2.1ZM197.51,6.03c-.27-.21-.65-.57-1.15-1.07-.49-.5-.98-1.04-1.45-1.62-.47-.58-.81-1.07-1.03-1.48l2.42-1.86c.37.57.87,1.2,1.49,1.9.62.7,1.23,1.28,1.85,1.74l-2.13,2.39Z"/>
      <path class="cls-1" d="M205.48,36.73c-.64-1.78-1.1-3.8-1.38-6.05-.28-2.25-.43-4.56-.43-6.94,0-2.64.14-5.27.43-7.87.28-2.6.64-5.01,1.08-7.22.44-2.21.92-4.06,1.43-5.54l6.15,1.7c-.89,2.62-1.54,5.39-1.97,8.33s-.64,5.85-.64,8.74c0,2.46.15,4.83.44,7.12s.71,4.4,1.25,6.31l-6.36,1.42ZM235.2,35.72c-.51.08-1.06.15-1.67.2-.6.06-1.22.08-1.87.08-1.39,0-2.85-.13-4.36-.4-1.52-.27-3-.72-4.46-1.36-1.46-.63-2.81-1.49-4.06-2.57-1.25-1.08-2.3-2.43-3.16-4.05l3.98-4.61c.91,1.7,2.08,3.02,3.52,3.95,1.43.93,3.01,1.58,4.73,1.96,1.72.38,3.4.57,5.07.57.51,0,1.01-.02,1.51-.06.49-.04.99-.07,1.47-.1l-.68,6.39ZM218.83,14.61l-2.9-5.67c1.21-.7,2.66-1.35,4.37-1.94,1.7-.59,3.51-1.08,5.43-1.46,1.92-.38,3.79-.57,5.61-.57.64,0,1.27.03,1.87.08.6.05,1.19.13,1.75.24l.16,6.23c-.59-.08-1.23-.12-1.93-.12-1.5,0-3.15.14-4.93.42-1.78.28-3.51.67-5.17,1.15-1.66.48-3.09,1.02-4.26,1.62Z"/>
      <path class="cls-1" d="M251.37,38.35c-.75-1.08-1.63-2.21-2.63-3.38-1-1.18-2.05-2.32-3.12-3.44-1.07-1.12-2.09-2.11-3.06-2.97l4.95-4.77c1.69,1.38,3.31,2.95,4.87,4.71,1.55,1.77,2.96,3.52,4.22,5.24l-5.23,4.61Z"/>
      <path class="cls-1" d="M292.19,28.85c.75,1.24,1.81,2.14,3.18,2.71s3.03.89,4.99.97c1.23.06,2.68.09,4.34.1s3.41,0,5.25-.04c1.84-.04,3.65-.1,5.43-.18,1.78-.08,3.4-.19,4.85-.32-.22.46-.45,1.05-.7,1.78-.26.73-.48,1.46-.68,2.2-.2.74-.36,1.41-.46,2.01-1.29.08-2.72.14-4.28.18-1.57.04-3.18.07-4.82.08-1.65.01-3.25,0-4.81-.02s-2.96-.07-4.22-.13c-2.39-.11-4.42-.46-6.09-1.07-1.68-.61-3.18-1.69-4.52-3.26-.83.73-1.68,1.47-2.55,2.22-.87.76-1.86,1.56-2.96,2.43l-2.81-6.15c.83-.46,1.7-.97,2.6-1.54.9-.57,1.76-1.15,2.59-1.74v-7.53h-4.14v-5.42h9.85v12.71ZM288.45,11.33c-.38-.62-.91-1.31-1.61-2.06-.7-.76-1.45-1.52-2.27-2.29-.82-.77-1.62-1.45-2.39-2.04l4.34-3.52c.78.54,1.59,1.16,2.43,1.86s1.64,1.42,2.37,2.14,1.34,1.4,1.79,2.02l-4.66,3.88ZM302.04,16.91c-.16,1.56-.44,3.18-.84,4.83-.4,1.66-.99,3.27-1.75,4.82-.76,1.55-1.76,2.95-2.99,4.18-.24-.43-.62-.91-1.13-1.44-.51-.53-1.04-1.03-1.59-1.52-.55-.48-1.05-.85-1.51-1.09,1.34-1.4,2.32-2.95,2.94-4.65.62-1.7,1.01-3.42,1.18-5.16.17-1.74.26-3.36.26-4.88V2.83l5.07.85c2.23-.38,4.4-.84,6.52-1.4s3.91-1.14,5.39-1.76l4.75,4.45c-2.36.89-4.96,1.63-7.78,2.21-2.83.58-5.58,1.06-8.26,1.44v2.87h17.09v5.42h-6.35v14.28h-5.79v-14.28h-5.19Z"/>
      <path class="cls-1" d="M332.41,28.85c.75,1.24,1.81,2.14,3.18,2.71s3.03.89,4.99.97c1.23.06,2.68.09,4.34.1s3.41,0,5.25-.04c1.84-.04,3.65-.1,5.43-.18,1.78-.08,3.4-.19,4.85-.32-.22.46-.45,1.05-.7,1.78-.26.73-.48,1.46-.68,2.2-.2.74-.36,1.41-.46,2.01-1.29.08-2.72.14-4.28.18-1.57.04-3.18.07-4.82.08-1.65.01-3.25,0-4.81-.02s-2.96-.07-4.22-.13c-2.39-.11-4.42-.46-6.09-1.07-1.68-.61-3.18-1.69-4.52-3.26-.83.73-1.68,1.47-2.55,2.22-.87.76-1.86,1.56-2.96,2.43l-2.81-6.15c.83-.46,1.7-.97,2.6-1.54.9-.57,1.76-1.15,2.59-1.74v-7.53h-4.14v-5.42h9.85v12.71ZM328.67,11.33c-.38-.62-.91-1.31-1.61-2.06-.7-.76-1.45-1.52-2.27-2.29-.82-.77-1.62-1.45-2.39-2.04l4.34-3.52c.78.54,1.59,1.16,2.43,1.86s1.64,1.42,2.37,2.14,1.34,1.4,1.79,2.02l-4.66,3.88ZM342.42,10.72c.05-.27.11-.53.16-.77.06-.24.09-.5.12-.77h-9.21v-4.69h4.91c-.21-.4-.44-.8-.68-1.2-.24-.39-.49-.76-.76-1.11l4.59-1.7c.51.59,1,1.25,1.49,1.98.48.73.82,1.39,1.01,1.98l-.12.04h4.02c.32-.62.65-1.3.99-2.04.33-.74.6-1.41.78-2l5.87,1.21c-.32.51-.63,1.01-.92,1.48-.3.47-.59.93-.89,1.36h5.63v4.69h-10.5c-.13.27-.27.53-.4.79-.14.25-.27.5-.4.75h8.77v20.19h-20.87V10.72h6.43ZM351.07,14.89h-9.57v1.42h9.57v-1.42ZM351.07,20.11h-9.57v1.42h9.57v-1.42ZM351.07,25.33h-9.57v1.42h9.57v-1.42Z"/>
      <path class="cls-1" d="M364.91,36.82c-.56-1.7-.97-3.72-1.21-6.05-.24-2.33-.36-4.75-.36-7.26,0-2.67.11-5.31.34-7.93.23-2.61.52-5,.89-7.16.36-2.16.76-3.86,1.18-5.1l6.11,1.34c-.48,1.59-.89,3.37-1.23,5.34s-.59,4.02-.76,6.15c-.18,2.13-.26,4.26-.26,6.39,0,2.4.11,4.69.34,6.88.23,2.18.58,4.11,1.07,5.78l-6.11,1.62ZM383.45,37.42c-1.85,0-3.41-.3-4.69-.89-1.27-.6-2.28-1.36-3.03-2.29-.75-.93-1.3-1.9-1.63-2.91-.34-1.01-.5-1.94-.5-2.77,0-.89.2-1.84.58-2.85.39-1.01.98-1.97,1.77-2.87.79-.9,1.82-1.64,3.08-2.21s2.75-.85,4.46-.85c1.1,0,2.16.08,3.18.24-.06-.92-.14-1.94-.26-3.08s-.27-2.33-.46-3.6c-2.07.19-4.02.46-5.85.81-1.84.35-3.33.74-4.48,1.18l-.84-5.99c.94-.46,2.3-.85,4.1-1.17,1.8-.33,3.73-.58,5.79-.77-.21-.75-.44-1.52-.68-2.29-.24-.77-.51-1.52-.81-2.25l6.27-1.5c.27.73.52,1.59.76,2.57s.47,2.03.68,3.13h.68c1.34,0,2.57.04,3.7.12,1.13.08,2.05.21,2.77.4v6.03c-.78-.22-1.7-.37-2.75-.47-1.06-.09-2.19-.14-3.4-.14h-.08c.21,1.67.4,3.29.54,4.86s.25,2.97.3,4.21c1.53.81,2.93,1.79,4.2,2.95s2.46,2.4,3.56,3.72l-3.74,4.86c-.75-.94-1.49-1.78-2.21-2.51s-1.44-1.36-2.13-1.9c-.99,5.48-3.95,8.21-8.89,8.21ZM379.59,28.72c0,.35.11.75.34,1.2.23.44.6.82,1.11,1.13.51.31,1.18.46,2.01.46.94,0,1.66-.28,2.17-.83.51-.55.88-1.24,1.1-2.06.23-.82.37-1.64.42-2.45-.67-.22-1.29-.35-1.85-.4-.56-.05-1.04-.08-1.45-.08-1.05,0-1.95.29-2.72.87-.76.58-1.15,1.3-1.15,2.16Z"/>
      <path class="cls-1" d="M408.1,31.39l-5.55-1.9c.21-.94.58-2.23,1.08-3.87.51-1.63,1.11-3.45,1.81-5.46s1.44-4.05,2.21-6.13c-.91.22-1.72.44-2.43.67-.71.23-1.25.42-1.63.59l-1.37-5.62c.91-.38,2.07-.75,3.46-1.13,1.39-.38,2.87-.71,4.43-1.01.64-1.56,1.23-2.97,1.77-4.21s.98-2.18,1.33-2.83l5.87,1.86c-.35.6-.7,1.24-1.04,1.94-.35.7-.7,1.44-1.05,2.23,1.42-.13,2.68-.2,3.78-.2h.66c.23,0,.44.02.62.04l-.32,5.58c-.11-.03-.23-.04-.36-.04h-.4c-.86,0-1.86.07-3,.2s-2.31.3-3.52.48c-.83,2.13-1.64,4.32-2.41,6.58-.78,2.25-1.5,4.43-2.17,6.53s-1.26,4.01-1.77,5.71ZM421.74,37.67c-1.88,0-3.49-.36-4.83-1.07-1.34-.71-2.37-1.69-3.1-2.93s-1.08-2.61-1.08-4.13c0-2,.47-3.68,1.43-5.06.95-1.38,2.21-2.43,3.78-3.16,1.57-.73,3.28-1.09,5.13-1.09.72,0,1.43.04,2.13.12-.19-1.1-.43-2.22-.72-3.36-.3-1.14-.68-2.13-1.17-3l5.87-1.25c.59,1.32,1.08,2.85,1.47,4.59.39,1.74.66,3.45.82,5.12,1.37.76,2.74,1.72,4.12,2.89s2.81,2.56,4.28,4.15l-4.06,4.65c-.35-.46-.93-1.16-1.73-2.08-.8-.93-1.77-1.85-2.89-2.77-.22.97-.54,1.95-.97,2.93s-1.01,1.89-1.75,2.71-1.66,1.48-2.75,1.98c-1.1.5-2.43.75-3.98.75ZM418.64,29.57c0,.62.3,1.16.9,1.62.61.46,1.36.68,2.27.68.48,0,1-.14,1.55-.44.55-.3,1.04-.86,1.47-1.68.43-.82.68-2,.77-3.54-.83-.21-1.64-.32-2.42-.32-1.31,0-2.4.34-3.26,1.01s-1.29,1.56-1.29,2.67ZM435.13,16.22c-.4-.89-.95-1.73-1.65-2.51-.7-.78-1.46-1.49-2.29-2.12-.83-.63-1.63-1.18-2.39-1.64-.77-.46-1.39-.81-1.87-1.05l3.1-4.37c1.39.43,2.74,1.11,4.02,2.02,1.29.92,2.44,1.9,3.44,2.95,1,1.05,1.77,2.02,2.31,2.91l-4.66,3.8Z"/>
      <path class="cls-1" d="M458.54,35.89c-1.64,0-3.13-.44-4.49-1.33-1.35-.89-2.56-2.11-3.62-3.66-1.06-1.55-1.98-3.35-2.76-5.4-.78-2.05-1.43-4.23-1.95-6.56-.52-2.32-.93-4.69-1.21-7.12-.28-2.43-.45-4.8-.5-7.12l6.43-.93c.1,3.29.39,6.43.86,9.43.47,3,1.08,5.65,1.83,7.97.75,2.32,1.59,4.15,2.53,5.48.94,1.34,1.92,2,2.94,2,.86,0,1.76-.61,2.72-1.84.95-1.22,1.72-2.86,2.31-4.92l3.86,6.84c-1.16,2.32-2.45,4.09-3.88,5.32s-3.13,1.84-5.09,1.84ZM476.84,19.62c-.56-.57-1.28-1.25-2.15-2.06-.87-.81-1.85-1.67-2.94-2.59-1.09-.92-2.23-1.8-3.44-2.65-1.21-.85-2.44-1.6-3.7-2.25l4.26-4.98c1.1.57,2.23,1.25,3.4,2.06,1.17.81,2.3,1.66,3.42,2.57,1.11.9,2.13,1.76,3.06,2.59.93.82,1.7,1.54,2.31,2.17l-4.22,5.14Z"/>
      <path class="cls-1" d="M491.92,38.07c-1.5,0-2.87-.37-4.1-1.09s-2.21-1.72-2.94-2.95c-.72-1.24-1.09-2.6-1.09-4.09s.36-2.89,1.09-4.13c.72-1.24,1.7-2.23,2.94-2.95s2.6-1.09,4.1-1.09,2.86.37,4.08,1.09c1.22.73,2.19,1.72,2.92,2.95.72,1.24,1.08,2.62,1.08,4.13s-.36,2.84-1.08,4.09c-.72,1.24-1.7,2.23-2.92,2.95-1.22.73-2.58,1.09-4.08,1.09ZM491.92,33.01c.86,0,1.58-.31,2.17-.91s.88-1.33.88-2.16-.29-1.6-.88-2.21-1.31-.91-2.17-.91-1.56.31-2.17.91c-.62.61-.93,1.34-.93,2.21s.31,1.56.93,2.16c.62.61,1.34.91,2.17.91Z"/>
    </g>
  </g>
</svg>