<?xml version="1.0" encoding="UTF-8"?>
<svg id="_レイヤー_2" data-name="レイヤー 2" xmlns="http://www.w3.org/2000/svg" viewBox="0 0 380 29">
  <defs>
    <style>
      .cls-1 {
        fill: #2d313c;
      }
    </style>
  </defs>
  <g id="_レイヤー_1-2" data-name="レイヤー 1">
    <g>
      <path class="cls-1" d="M18.43,21.03c1.16,1.1,2.65,1.98,4.46,2.63s3.97,1.09,6.48,1.31c-.31.32-.64.72-.99,1.19-.36.47-.69.96-.99,1.46s-.56.96-.76,1.38c-2.75-.42-5.07-1.12-6.96-2.09-1.88-.97-3.48-2.27-4.78-3.9-1,1.28-2.47,2.44-4.4,3.47-1.94,1.03-4.5,1.87-7.7,2.51-.16-.32-.4-.71-.72-1.17-.31-.46-.65-.92-1.01-1.37s-.71-.84-1.05-1.16c2.98-.48,5.3-1.08,6.97-1.81,1.67-.72,2.9-1.54,3.7-2.47H.7v-4.03h2.84v-6.86h8.65v-2.77h4.68v2.77h9.08v6.86h2.57v4.03h-10.09ZM6.69,6.32H.98v-3.88h5.72V.36h4.4v2.08h6.94V.36h4.43v2.08h5.78v3.88h-5.78v2.44h-4.43v-2.44h-6.94v2.44h-4.4v-2.44ZM12.2,17v-3.1h-4.37v3.1h4.37ZM16.87,13.9v3.1h4.55v-3.1h-4.55Z"/>
      <path class="cls-1" d="M42.27,8.88h-11.58v-3.4h11.58v3.4ZM41.42,27.86h-5.65v1.08h-3.7v-10.44h9.35v9.35ZM41.14,13.14h-8.96v-3.25h8.96v3.25ZM32.19,14.17h8.96v3.25h-8.96v-3.25ZM41.2,4.48h-8.83V1.23h8.83v3.25ZM35.76,21.9v2.56h1.9v-2.56h-1.9ZM59.85,12.36v3.79h-17.91v-3.79h3.61c.08-.36.16-.74.23-1.13.07-.39.14-.79.2-1.19h-2.32v-3.67h2.91l.21-1.6h-3.61V1.08h15.56v3.7h-7.64l-.24,1.6h6.45v5.99h2.57ZM44.14,17.36h13.72v11.46h-4.34v-.9h-5.23v1.02h-4.16v-11.58ZM48.29,21.24v2.8h5.23v-2.8h-5.23ZM50.25,10.05c-.08.4-.15.8-.21,1.19-.06.39-.13.77-.22,1.13h3.21v-2.32h-2.78Z"/>
      <path class="cls-1" d="M82.77,27.65l-4.49-2.98c1.26-.64,2.4-1.44,3.41-2.39,1.01-.95,1.8-2.01,2.38-3.19.58-1.17.87-2.39.87-3.66-.02-2.01-.58-3.7-1.7-5.08-1.11-1.39-2.65-2.29-4.63-2.71.02.32.03.64.03.96,0,2.19-.3,4.25-.9,6.2-.6,1.95-1.36,3.68-2.28,5.21-.61,1-1.36,1.93-2.25,2.77s-1.83,1.51-2.84,2.01c-1.01.5-2.01.75-3.01.75-1.26,0-2.32-.35-3.18-1.05s-1.49-1.64-1.91-2.81c-.42-1.17-.63-2.46-.63-3.87,0-.96.16-2.08.47-3.35s.83-2.57,1.53-3.88c.7-1.31,1.61-2.53,2.74-3.64,1.12-1.11,2.48-2.01,4.08-2.71s3.47-1.04,5.61-1.04c2.75,0,5.15.5,7.21,1.5,2.06,1,3.66,2.46,4.8,4.38,1.14,1.92,1.71,4.25,1.71,6.99,0,1.42-.29,2.85-.86,4.27-.57,1.42-1.38,2.76-2.43,4.02s-2.3,2.35-3.74,3.29ZM66.24,17.84c0,.7.1,1.34.31,1.91.2.57.55.86,1.04.86.24,0,.59-.08,1.04-.24.45-.16.96-.52,1.53-1.08.57-.56,1.16-1.44,1.77-2.65.71-1.4,1.22-2.81,1.51-4.21.3-1.4.44-2.67.44-3.79,0-.32,0-.63-.03-.93-1.2.32-2.28.86-3.24,1.61-.96.75-1.76,1.62-2.41,2.6-.73,1.04-1.24,2.11-1.53,3.2-.29,1.09-.43,2-.43,2.72Z"/>
      <path class="cls-1" d="M120.16,21.42h-11.52v3.01c0,1.07-.15,1.9-.45,2.5-.29.6-.86,1.06-1.7,1.39-.81.3-1.73.48-2.75.56-1.02.07-2.16.1-3.43.1-.14-.62-.39-1.34-.73-2.17-.35-.82-.69-1.51-1.04-2.08.57.02,1.19.04,1.85.06s1.26.03,1.79.03h1.1c.31,0,.51-.04.63-.12s.17-.22.17-.42v-2.86h-11.46v-4h11.46v-1.8h1.93c.26-.18.52-.36.78-.56.26-.19.5-.39.72-.59h-9.23v-3.76h13.14l.95-.21,2.78,2.11c-.75.82-1.6,1.66-2.54,2.5-.94.84-1.93,1.62-2.97,2.32h10.51v4ZM97.02,12.76h-4.16v-7.73h3.88c-.27-.46-.56-.93-.89-1.42-.33-.48-.65-.92-.98-1.32l3.79-1.65c.53.56,1.05,1.2,1.57,1.91.52.71.9,1.36,1.14,1.94l-1.19.54h4.03c-.2-.54-.46-1.12-.78-1.73s-.64-1.17-.96-1.67l3.94-1.44c.47.62.93,1.33,1.38,2.12.45.79.77,1.49.98,2.09l-1.68.63h4.22c.47-.7.91-1.45,1.31-2.24.41-.79.74-1.53,1.01-2.21l4.86,1.35c-.39.54-.77,1.07-1.15,1.59-.38.52-.76,1.02-1.15,1.51h3.7v7.73h-4.37v-3.91h-18.52v3.91Z"/>
      <path class="cls-1" d="M134.77,28.07c-1.43,0-2.75-.25-3.96-.77-1.21-.51-2.27-1.23-3.18-2.15-.91-.92-1.61-2-2.11-3.23-.5-1.23-.75-2.58-.75-4.04,0-1.22.16-2.42.49-3.58.33-1.16.71-2.24,1.16-3.23.45-.99.87-1.82,1.27-2.5.4-.67.68-1.12.84-1.34l-.09-.06c-.57.32-1.24.72-2,1.19-.76.47-1.44,1.07-2.03,1.79l-2.11-4.45c.9-.68,1.87-1.35,2.92-2s2.13-1.19,3.24-1.61c1.11-.42,2.18-.63,3.19-.63.88,0,1.63.29,2.25.86.62.57.93,1.26.93,2.06,0,.68-.2,1.42-.59,2.21-.4.79-.87,1.65-1.42,2.57-.57.96-1.12,1.92-1.65,2.86-.53.95-.96,1.89-1.28,2.83s-.49,1.91-.49,2.92c0,.9.2,1.79.61,2.66.41.87,1,1.6,1.79,2.18.78.58,1.74.87,2.86.87,2.26,0,3.97-1.19,5.13-3.56,1.16-2.38,1.74-5.86,1.74-10.45,0-1.06-.03-2.13-.09-3.22l4.46-.69c.1.56.29,1.36.56,2.39.28,1.03.66,2.17,1.15,3.4.49,1.23,1.11,2.45,1.86,3.64s1.65,2.23,2.69,3.11l-2.97,3.61c-.55-.46-1.08-1.02-1.6-1.68s-.98-1.31-1.38-1.96c-.4-.64-.7-1.15-.9-1.53,0,.92-.17,2.01-.5,3.25-.34,1.24-.87,2.46-1.6,3.64-1.98,3.11-4.79,4.66-8.44,4.66ZM146.26,5.17c-.18-.2-.44-.53-.76-.99-.33-.46-.64-.95-.93-1.46s-.5-.93-.59-1.25l2.11-.96c.2.46.49.99.86,1.6.37.6.75,1.1,1.16,1.5l-1.83,1.56ZM150.11,4.48c-.2-.16-.49-.42-.87-.8-.38-.37-.74-.77-1.1-1.2-.36-.43-.62-.8-.78-1.1l1.84-1.38c.28.42.66.89,1.13,1.41.47.52.94.95,1.41,1.29l-1.62,1.78Z"/>
      <path class="cls-1" d="M156.16,27.32c-.49-1.32-.84-2.82-1.05-4.5-.22-1.67-.32-3.39-.32-5.16,0-1.97.11-3.92.32-5.85.21-1.94.49-3.73.82-5.37.34-1.64.7-3.02,1.09-4.12l4.68,1.26c-.67,1.95-1.17,4.01-1.5,6.2s-.49,4.35-.49,6.5c0,1.83.11,3.59.34,5.3.22,1.7.54,3.27.95,4.69l-4.83,1.05ZM178.75,26.56c-.39.06-.81.11-1.27.15-.46.04-.93.06-1.42.06-1.06,0-2.17-.1-3.32-.3-1.15-.2-2.28-.54-3.39-1.01-1.11-.47-2.14-1.11-3.09-1.91-.95-.8-1.75-1.8-2.4-3.01l3.03-3.43c.69,1.27,1.58,2.24,2.67,2.94,1.09.69,2.29,1.18,3.59,1.46,1.3.28,2.59.42,3.85.42.39,0,.77-.02,1.15-.05.38-.03.75-.05,1.11-.08l-.52,4.75ZM166.31,10.86l-2.2-4.21c.92-.52,2.02-1,3.32-1.44,1.29-.44,2.67-.8,4.12-1.08,1.46-.28,2.88-.42,4.27-.42.49,0,.96.02,1.42.06.46.04.9.1,1.33.18l.12,4.63c-.45-.06-.94-.09-1.47-.09-1.14,0-2.39.11-3.74.32-1.36.21-2.67.5-3.93.86-1.26.36-2.35.76-3.24,1.2Z"/>
      <path class="cls-1" d="M191.04,28.52c-.57-.8-1.24-1.64-2-2.51-.76-.87-1.55-1.73-2.37-2.56-.82-.83-1.59-1.57-2.32-2.21l3.76-3.55c1.28,1.02,2.52,2.19,3.7,3.5,1.18,1.31,2.25,2.61,3.21,3.9l-3.97,3.43Z"/>
      <path class="cls-1" d="M222.06,21.45c.57.92,1.38,1.59,2.42,2.01s2.3.66,3.79.72c.94.04,2.04.07,3.3.08s2.59,0,3.99-.03c1.4-.03,2.77-.08,4.12-.14,1.36-.06,2.58-.14,3.68-.24-.16.34-.34.78-.53,1.32-.19.54-.37,1.09-.52,1.64-.15.55-.27,1.05-.35,1.49-.98.06-2.06.11-3.26.13-1.19.03-2.42.05-3.67.06-1.25,0-2.47,0-3.65-.01s-2.25-.05-3.21-.09c-1.81-.08-3.36-.35-4.63-.8-1.27-.45-2.42-1.26-3.44-2.42-.63.54-1.28,1.09-1.94,1.65-.66.56-1.41,1.16-2.25,1.8l-2.14-4.57c.63-.34,1.29-.72,1.97-1.14.68-.42,1.34-.85,1.97-1.29v-5.6h-3.15v-4.03h7.49v9.45ZM219.22,8.42c-.29-.46-.69-.97-1.22-1.53-.53-.56-1.1-1.13-1.73-1.7-.62-.57-1.23-1.08-1.82-1.52l3.3-2.62c.59.4,1.21.86,1.85,1.38s1.24,1.05,1.8,1.59,1.01,1.04,1.36,1.51l-3.54,2.89ZM229.55,12.57c-.12,1.16-.34,2.36-.64,3.59-.31,1.23-.75,2.43-1.33,3.58-.58,1.15-1.34,2.19-2.28,3.11-.18-.32-.47-.68-.86-1.07-.39-.39-.79-.77-1.21-1.13-.42-.36-.8-.63-1.14-.81,1.02-1.04,1.76-2.2,2.23-3.46.47-1.27.77-2.54.9-3.84.13-1.3.2-2.5.2-3.63V2.11l3.85.63c1.69-.28,3.34-.63,4.95-1.04s2.98-.85,4.1-1.31l3.61,3.31c-1.79.66-3.77,1.21-5.92,1.64-2.15.43-4.24.79-6.28,1.07v2.13h12.99v4.03h-4.83v10.62h-4.4v-10.62h-3.94Z"/>
      <path class="cls-1" d="M252.63,21.45c.57.92,1.38,1.59,2.42,2.01s2.3.66,3.79.72c.94.04,2.04.07,3.3.08s2.59,0,3.99-.03c1.4-.03,2.77-.08,4.12-.14,1.36-.06,2.58-.14,3.68-.24-.16.34-.34.78-.53,1.32-.19.54-.37,1.09-.52,1.64-.15.55-.27,1.05-.35,1.49-.98.06-2.06.11-3.26.13-1.19.03-2.42.05-3.67.06-1.25,0-2.47,0-3.65-.01s-2.25-.05-3.21-.09c-1.81-.08-3.36-.35-4.63-.8-1.27-.45-2.42-1.26-3.44-2.42-.63.54-1.28,1.09-1.94,1.65-.66.56-1.41,1.16-2.25,1.8l-2.14-4.57c.63-.34,1.29-.72,1.97-1.14.68-.42,1.34-.85,1.97-1.29v-5.6h-3.15v-4.03h7.49v9.45ZM249.79,8.42c-.29-.46-.69-.97-1.22-1.53-.53-.56-1.1-1.13-1.73-1.7-.62-.57-1.23-1.08-1.82-1.52l3.3-2.62c.59.4,1.21.86,1.85,1.38s1.24,1.05,1.8,1.59,1.01,1.04,1.36,1.51l-3.54,2.89ZM260.24,7.97c.04-.2.08-.39.12-.57.04-.18.07-.37.09-.57h-7v-3.49h3.73c-.16-.3-.34-.6-.52-.89-.18-.29-.38-.57-.58-.83l3.48-1.26c.39.44.76.93,1.13,1.47.37.54.62,1.03.77,1.47l-.09.03h3.06c.24-.46.49-.97.75-1.52.25-.55.45-1.05.59-1.49l4.46.9c-.24.38-.48.75-.7,1.1-.23.35-.45.69-.67,1.01h4.28v3.49h-7.98c-.1.2-.2.4-.3.59-.1.19-.2.37-.31.56h6.66v15.01h-15.86V7.97h4.89ZM266.81,11.07h-7.28v1.05h7.28v-1.05ZM266.81,14.95h-7.28v1.05h7.28v-1.05ZM266.81,18.83h-7.28v1.05h7.28v-1.05Z"/>
      <path class="cls-1" d="M277.33,27.38c-.43-1.26-.73-2.76-.92-4.5-.18-1.74-.27-3.54-.27-5.4,0-1.99.09-3.95.26-5.9.17-1.94.4-3.72.67-5.33.27-1.6.57-2.87.9-3.79l4.65.99c-.37,1.18-.68,2.51-.93,3.97s-.45,2.99-.58,4.57c-.13,1.59-.2,3.17-.2,4.75,0,1.78.09,3.49.26,5.11.17,1.62.44,3.06.81,4.3l-4.65,1.2ZM291.42,27.83c-1.41,0-2.59-.22-3.56-.66-.97-.44-1.74-1.01-2.31-1.7-.57-.69-.99-1.41-1.24-2.16-.26-.75-.38-1.44-.38-2.06,0-.66.15-1.37.44-2.12.3-.75.74-1.46,1.35-2.14.6-.67,1.38-1.22,2.34-1.64s2.09-.63,3.39-.63c.84,0,1.64.06,2.42.18-.04-.68-.11-1.44-.2-2.29s-.21-1.73-.35-2.68c-1.57.14-3.05.34-4.45.6-1.4.26-2.53.55-3.41.87l-.64-4.45c.71-.34,1.75-.63,3.12-.87,1.37-.24,2.83-.43,4.4-.57-.16-.56-.34-1.13-.52-1.7-.18-.57-.39-1.13-.61-1.67l4.77-1.11c.2.54.4,1.18.58,1.91s.36,1.51.52,2.33h.52c1.02,0,1.96.03,2.81.09.86.06,1.56.16,2.11.3v4.48c-.59-.16-1.29-.28-2.09-.35-.81-.07-1.67-.11-2.58-.11h-.06c.16,1.24.3,2.45.41,3.61s.19,2.21.23,3.13c1.16.6,2.23,1.33,3.19,2.2s1.87,1.78,2.7,2.77l-2.84,3.61c-.57-.7-1.13-1.32-1.68-1.87s-1.09-1.01-1.62-1.42c-.75,4.07-3,6.11-6.75,6.11ZM288.48,21.36c0,.26.09.56.26.89.17.33.45.61.84.84.39.23.9.35,1.53.35.71,0,1.26-.21,1.65-.62.39-.41.67-.92.84-1.54.17-.61.28-1.22.32-1.82-.51-.16-.98-.26-1.41-.3-.43-.04-.79-.06-1.1-.06-.8,0-1.48.22-2.06.65-.58.43-.87.97-.87,1.61Z"/>
      <path class="cls-1" d="M310.16,23.34l-4.22-1.41c.16-.7.44-1.66.82-2.87.39-1.21.85-2.57,1.38-4.06s1.09-3.01,1.68-4.56c-.69.16-1.31.33-1.85.5-.54.17-.95.32-1.24.44l-1.04-4.18c.69-.28,1.57-.56,2.63-.84,1.06-.28,2.18-.53,3.36-.75.49-1.16.94-2.21,1.34-3.13.41-.92.74-1.62,1.01-2.11l4.46,1.38c-.27.44-.53.92-.79,1.44-.27.52-.53,1.07-.8,1.66,1.08-.1,2.04-.15,2.87-.15h.5c.17,0,.33.01.47.03l-.24,4.15c-.08-.02-.17-.03-.28-.03h-.3c-.65,0-1.41.05-2.28.15s-1.76.22-2.67.36c-.63,1.58-1.24,3.21-1.83,4.89-.59,1.67-1.14,3.29-1.65,4.86s-.96,2.98-1.35,4.24ZM320.52,28.01c-1.43,0-2.65-.27-3.67-.8-1.02-.53-1.8-1.26-2.35-2.18s-.82-1.94-.82-3.07c0-1.48.36-2.74,1.08-3.76.72-1.02,1.68-1.8,2.87-2.35,1.19-.54,2.49-.81,3.9-.81.55,0,1.09.03,1.62.09-.14-.82-.33-1.65-.55-2.49-.23-.84-.52-1.59-.89-2.23l4.46-.93c.45.98.82,2.12,1.12,3.42.29,1.29.5,2.56.63,3.8,1.04.56,2.08,1.28,3.13,2.15s2.13,1.9,3.26,3.08l-3.09,3.46c-.27-.34-.7-.86-1.32-1.55-.61-.69-1.34-1.38-2.2-2.06-.16.72-.41,1.45-.73,2.18-.33.73-.77,1.4-1.33,2.01s-1.26,1.1-2.09,1.47c-.84.37-1.85.56-3.03.56ZM318.17,21.99c0,.46.23.86.69,1.2.46.34,1.03.51,1.73.51.37,0,.76-.11,1.18-.33.42-.22.79-.64,1.11-1.25.33-.61.52-1.49.58-2.63-.63-.16-1.24-.24-1.84-.24-1,0-1.82.25-2.48.75-.65.5-.98,1.16-.98,1.99ZM330.7,12.06c-.31-.66-.72-1.28-1.25-1.87-.53-.58-1.11-1.11-1.74-1.58-.63-.47-1.24-.88-1.82-1.22-.58-.34-1.05-.6-1.42-.78l2.35-3.25c1.06.32,2.08.82,3.06,1.5.98.68,1.85,1.42,2.61,2.2.76.78,1.35,1.51,1.76,2.17l-3.54,2.83Z"/>
      <path class="cls-1" d="M348.49,26.68c-1.24,0-2.38-.33-3.41-.99-1.03-.66-1.95-1.57-2.75-2.72-.81-1.15-1.5-2.49-2.09-4.02-.59-1.52-1.08-3.15-1.48-4.87-.4-1.72-.7-3.49-.92-5.29-.21-1.81-.34-3.57-.38-5.3l4.89-.69c.08,2.45.3,4.78.66,7.01.36,2.23.82,4.2,1.39,5.93.57,1.73,1.21,3.08,1.93,4.08.71.99,1.46,1.49,2.23,1.49.65,0,1.34-.46,2.06-1.37.72-.91,1.31-2.13,1.76-3.66l2.94,5.09c-.88,1.73-1.86,3.04-2.95,3.96s-2.38,1.37-3.87,1.37ZM362.4,14.59c-.43-.42-.98-.93-1.64-1.53-.66-.6-1.41-1.24-2.23-1.93-.83-.68-1.7-1.34-2.61-1.97-.92-.63-1.86-1.19-2.81-1.67l3.24-3.7c.83.42,1.7.93,2.58,1.54.89.6,1.75,1.24,2.6,1.91.85.67,1.62,1.31,2.32,1.92.7.61,1.29,1.15,1.76,1.61l-3.21,3.82Z"/>
      <path class="cls-1" d="M373.86,28.31c-1.14,0-2.18-.27-3.12-.81s-1.68-1.28-2.23-2.2c-.55-.92-.83-1.94-.83-3.04s.28-2.15.83-3.07c.55-.92,1.29-1.66,2.23-2.2s1.98-.81,3.12-.81,2.17.27,3.1.81c.93.54,1.67,1.28,2.22,2.2.55.92.82,1.95.82,3.07s-.27,2.12-.82,3.04c-.55.92-1.29,1.66-2.22,2.2-.93.54-1.96.81-3.1.81ZM373.86,24.55c.65,0,1.2-.23,1.65-.68s.67-.99.67-1.61-.22-1.19-.67-1.64-1-.68-1.65-.68-1.18.23-1.65.68c-.47.45-.7,1-.7,1.64s.23,1.16.7,1.61c.47.45,1.02.68,1.65.68Z"/>
    </g>
  </g>
</svg>