<?xml version="1.0" encoding="UTF-8"?>
<svg id="_レイヤー_2" data-name="レイヤー 2" xmlns="http://www.w3.org/2000/svg" viewBox="0 0 715 18">
  <defs>
    <style>
      .cls-1 {
        fill: #2d313c;
      }
    </style>
  </defs>
  <g id="_レイヤー_1-2" data-name="レイヤー 1">
    <g>
      <path class="cls-1" d="M3.33,16.8l-3-.58c.09-.56.21-1.23.37-2s.35-1.61.56-2.51c.21-.9.44-1.82.68-2.76.24-.94.49-1.86.74-2.76-.86.2-1.54.37-2.05.52l-.63-2.68c.42-.15.95-.31,1.57-.47.63-.16,1.29-.32,2-.49.19-.62.36-1.17.53-1.65.17-.47.31-.83.42-1.08l3.07.51c-.21.45-.43.99-.65,1.61.52-.07,1.02-.13,1.48-.18.47-.04.87-.07,1.22-.07h.19c.06,0,.12,0,.17.02l.26,2.79h-.15c-.48,0-1.1.05-1.83.14s-1.52.21-2.34.37c-.29.93-.56,1.91-.82,2.92-.26,1.01-.51,2.02-.74,3.01s-.43,1.95-.61,2.86c-.18.91-.33,1.73-.44,2.47ZM15.79,16.9c-.14.01-.27.02-.41.03-.14,0-.27,0-.41,0-.76,0-1.52-.07-2.28-.2-.76-.13-1.49-.31-2.19-.53-.7-.23-1.32-.48-1.88-.75-.56-.27-1.02-.55-1.38-.82l1.56-2.45c.43.29,1.01.56,1.73.83s1.5.48,2.35.65c.85.16,1.68.24,2.51.24h.32c.11,0,.22,0,.32-.02l-.24,3.01ZM8.96,9.75l-1.01-2.79c.31-.25.75-.48,1.33-.7.58-.22,1.21-.41,1.9-.58.69-.17,1.36-.3,2.01-.39.65-.09,1.21-.14,1.67-.14h.27c.08,0,.15,0,.21.02l.39,2.94c-.09-.01-.18-.02-.29-.03-.11,0-.21-.01-.33-.01-.46,0-.97.05-1.54.14-.57.09-1.14.22-1.71.37-.57.16-1.11.33-1.62.53-.51.2-.94.41-1.28.63ZM13.22,3.82c-.1-.12-.24-.34-.42-.64-.18-.3-.35-.61-.51-.94s-.27-.6-.32-.8l1.32-.52c.1.29.25.62.46,1.01s.42.72.66.99l-1.19.9ZM15.59,3.48c-.12-.1-.29-.27-.5-.52-.21-.25-.42-.51-.61-.79-.2-.28-.34-.51-.43-.7l1.17-.81c.15.28.36.58.63.93.27.34.55.63.82.87l-1.08,1.03Z"/>
      <path class="cls-1" d="M22.27,15.53l-3-.5c.27-1.27.58-2.54.91-3.81.33-1.27.69-2.5,1.06-3.7-.5.14-.95.27-1.37.41-.42.14-.75.25-1,.34l-.67-2.75c.09-.04.32-.13.7-.28.38-.15.86-.31,1.45-.49.59-.17,1.24-.32,1.95-.45.27-.79.55-1.54.83-2.26.28-.72.55-1.4.81-2.04l2.81.73c-.46,1.04-.91,2.15-1.34,3.35,1.87.07,3.36.56,4.46,1.44,1.1.89,1.65,2.21,1.65,3.97,0,1.3-.3,2.6-.89,3.91-.6,1.31-1.51,2.63-2.76,3.97l-2.36-2.04c1.14-1.09,1.93-2.14,2.35-3.15.43-1.02.64-1.97.64-2.85,0-.54-.1-.97-.31-1.29-.21-.32-.48-.57-.82-.73-.34-.16-.72-.27-1.14-.32-.42-.05-.86-.07-1.3-.07-.16,0-.32,0-.48.02-.46,1.43-.87,2.88-1.24,4.35-.37,1.47-.68,2.88-.94,4.26ZM33.87,8.38c-1.17-2.16-2.47-3.92-3.91-5.29l2.16-1.78c.6.6,1.12,1.17,1.58,1.7.46.54.9,1.1,1.31,1.68s.84,1.25,1.28,2l-2.42,1.68Z"/>
      <path class="cls-1" d="M46.22,17.51l-1.94-2.51c.74-.14,1.46-.32,2.14-.54.68-.23,1.29-.49,1.83-.79.54-.31.96-.65,1.28-1.03.31-.38.46-.8.46-1.26,0-.63-.25-1.12-.74-1.46s-1.14-.51-1.92-.51c-.56,0-1.23.1-2,.31-.78.21-1.6.55-2.47,1.02-.87.47-1.72,1.1-2.55,1.89l-2.59-.3c.15-1.17.33-2.27.54-3.3s.48-2.03.81-3.01.72-1.97,1.18-2.98l2.68,1.16c-.55,1.04-.95,1.94-1.2,2.7-.26.77-.44,1.42-.55,1.96.43-.4.99-.75,1.66-1.04.67-.29,1.4-.52,2.18-.68.78-.16,1.55-.24,2.31-.24.7,0,1.38.09,2.05.26.67.18,1.28.44,1.83.81.55.36.99.82,1.32,1.38s.49,1.23.49,2.02-.19,1.55-.56,2.23c-.37.67-.88,1.27-1.51,1.79s-1.36.96-2.18,1.32c-.82.36-1.68.64-2.57.82ZM49.22,4.17c-.62,0-1.28-.05-1.99-.15-.71-.1-1.4-.23-2.08-.38-.68-.16-1.29-.32-1.83-.49s-.97-.34-1.28-.49l1.17-2.58c.3.16.7.32,1.22.47.52.15,1.09.29,1.71.41s1.25.22,1.88.29c.63.07,1.19.1,1.7.1h.39l-.3,2.81c-.09.01-.18.02-.29.02h-.31Z"/>
      <path class="cls-1" d="M71.13,14.99c-1.2.54-2.45.95-3.74,1.23s-2.53.43-3.71.43c-1.26,0-2.42-.18-3.45-.53-1.04-.35-1.86-.91-2.48-1.66s-.92-1.73-.92-2.91v-.19l2.65-.82v.23c0,.69.17,1.23.52,1.65.35.41.81.71,1.4.88.58.18,1.23.26,1.95.26.77,0,1.57-.08,2.4-.23.83-.16,1.64-.36,2.41-.61.77-.25,1.46-.51,2.04-.79l.93,3.07ZM69.05,6.01c-.56-.29-1.2-.52-1.94-.69-.73-.18-1.51-.31-2.32-.39s-1.62-.13-2.43-.13c-.68,0-1.35.03-2,.09-.65.06-1.25.15-1.78.26l-.32-3c.81-.19,1.6-.32,2.37-.41.78-.09,1.54-.13,2.28-.13,1.37,0,2.65.14,3.85.41,1.2.28,2.25.66,3.15,1.16l-.88,2.83Z"/>
      <path class="cls-1" d="M84.74,17.01c-1.42,0-2.52-.13-3.32-.38s-1.37-.62-1.69-1.09c-.33-.47-.49-1.04-.49-1.68,0-.52.1-.98.29-1.38.19-.39.47-.81.85-1.26-.48.11-.91.21-1.27.29-.36.08-.71.16-1.04.24s-.7.18-1.09.29c-.39.11-.86.24-1.4.39l-.88-2.49c.54-.16,1.2-.46,1.96-.9.76-.44,1.58-.97,2.46-1.61.88-.64,1.77-1.33,2.68-2.09.91-.76,1.79-1.53,2.64-2.32s1.63-1.57,2.34-2.33l2.63,1.89c-1.19,1.1-2.26,2.02-3.21,2.77-.95.75-1.78,1.37-2.5,1.85-.72.49-1.35.89-1.9,1.22.53-.18,1.15-.37,1.86-.59s1.45-.44,2.23-.65c.78-.22,1.55-.43,2.31-.63.76-.2,1.44-.36,2.05-.49l.21,2.66c-1.53.36-2.81.76-3.86,1.21s-1.88.89-2.52,1.34c-.64.45-1.1.87-1.39,1.27-.29.4-.43.73-.43.99,0,.57.68.86,2.05.86.62,0,1.27-.05,1.96-.14.68-.09,1.46-.28,2.33-.55l-.02,2.77c-.47.12-.9.23-1.29.31-.39.08-.79.14-1.18.18-.4.04-.84.06-1.34.06ZM79.53,6.19c-.51-.23-1.02-.55-1.55-.97-.52-.42-1-.87-1.44-1.35-.44-.47-.8-.89-1.09-1.23l1.99-1.91c.52.57,1.12,1.15,1.81,1.73s1.38,1.04,2.11,1.38l-1.82,2.36Z"/>
      <path class="cls-1" d="M97.11,17.61c-.35-.5-.75-1.02-1.22-1.56-.47-.54-.95-1.07-1.44-1.59s-.97-.98-1.42-1.38l2.29-2.21c.78.63,1.53,1.36,2.25,2.18.72.82,1.37,1.62,1.96,2.42l-2.42,2.13Z"/>
      <path class="cls-1" d="M121.34,14.37v.77h5.94v2.21h-14.34v-2.21h5.64v-.77h-3.02v-1.12c-.43.36-.89.7-1.38,1-.48.3-.98.56-1.49.78-.12-.21-.28-.45-.48-.7-.2-.26-.41-.51-.62-.76-.22-.25-.42-.46-.6-.62.62-.21,1.22-.48,1.81-.81.58-.33,1.12-.69,1.6-1.09h-3.24v-2.21h3.48V3.46h-2.42V1.29h2.42V.09h2.72v1.2h5.34V.11h2.77v1.18h2.42v2.17h-2.42v5.37h3.37v2.21h-3.04c.97.75,2.04,1.34,3.22,1.76-.19.16-.39.37-.62.62s-.44.51-.64.77c-.2.26-.37.5-.5.71-1-.46-1.94-1.08-2.79-1.85v1.33h-3.13ZM118.58,12.26v-.95h2.76v.95h2.31c-.39-.4-.73-.8-1.04-1.22h-4.95c-.16.21-.33.42-.49.62s-.34.4-.53.6h1.95ZM117.35,3.46v.56h5.34v-.56h-5.34ZM117.35,6.44h5.34v-.56h-5.34v.56ZM117.35,8.83h5.34v-.54h-5.34v.54Z"/>
      <path class="cls-1" d="M143.18,15.4c.15.01.3.02.45.03s.3,0,.47,0h.71c.31,0,.65,0,1.02,0,.37,0,.73-.01,1.07-.02.34,0,.62,0,.83,0-.1.18-.2.4-.29.67s-.17.55-.24.83c-.07.29-.12.54-.16.75h-3.11c-1.08,0-2.04-.14-2.88-.42-.84-.28-1.56-.84-2.15-1.67-.22.45-.5.87-.83,1.27s-.73.76-1.2,1.09c-.15-.29-.37-.61-.65-.96-.29-.35-.56-.63-.84-.83.25-.16.48-.35.69-.56h-2.89v1.27h-2.18v-3.82l-.19.26c-.07-.21-.19-.48-.34-.81s-.33-.66-.51-.99c-.19-.33-.35-.6-.5-.8.58-.9,1.04-1.99,1.37-3.29.33-1.3.57-2.66.74-4.1h-1.49V.82h6.46v2.45h-2.5c-.09.57-.18,1.15-.27,1.73s-.21,1.15-.34,1.71h2.75c-.05-.07-.1-.14-.14-.21-.04-.06-.09-.12-.14-.17.36-.29.71-.66,1.04-1.12s.62-.94.86-1.44h-1.08V1.76h1.55V.09h2.16v1.66h1.17v2.02h-1.17v.06c.11.06.28.18.5.34.22.16.44.32.65.48.21.16.35.27.43.35l-1.16,1.5c-.05-.09-.11-.18-.19-.28s-.16-.21-.24-.34v2.3h-2.16v-1.65c-.42.65-.86,1.19-1.3,1.63-.16-.41-.4-.85-.71-1.33v8.51c.51-.6.84-1.28.99-2.06s.25-1.58.3-2.41h2.37c-.02.36-.05.72-.08,1.07-.03.35-.08.7-.14,1.05.25.64.59,1.14,1.02,1.52v-3.87h-4.1v-2.17h8.86l.37-.11,1.73.52c-.16.54-.35,1.09-.55,1.66-.21.57-.39,1.06-.57,1.47l-2.01-.67c.04-.1.07-.21.1-.33.03-.12.06-.24.1-.37h-1.47v1.2h2.77v2.13h-2.77v1.44ZM134.02,9.04h-.84v4.19h.84v-4.19ZM143.27,6.62c-.2.28-.41.53-.62.78-.22.24-.44.46-.66.65-.09-.25-.23-.55-.43-.89-.2-.34-.39-.61-.56-.81.39-.27.76-.64,1.13-1.09.37-.46.67-.94.92-1.47h-1.21V1.76h1.43V.09h2.2v1.66h1.92v2.02h-1.6c.25.53.54,1.03.88,1.51.33.48.7.86,1.08,1.15-.21.16-.45.39-.72.68-.27.29-.48.56-.64.81-.32-.32-.63-.74-.91-1.23v1.48h-2.2v-1.55Z"/>
      <path class="cls-1" d="M152.62,15.53l-3-.5c.27-1.27.58-2.54.91-3.81.33-1.27.69-2.5,1.06-3.7-.5.14-.95.27-1.37.41-.42.14-.75.25-1,.34l-.67-2.75c.09-.04.32-.13.7-.28.38-.15.86-.31,1.45-.49.59-.17,1.24-.32,1.95-.45.27-.79.55-1.54.83-2.26.28-.72.55-1.4.81-2.04l2.81.73c-.46,1.04-.91,2.15-1.34,3.35,1.87.07,3.36.56,4.46,1.44,1.1.89,1.65,2.21,1.65,3.97,0,1.3-.3,2.6-.89,3.91-.6,1.31-1.51,2.63-2.76,3.97l-2.36-2.04c1.14-1.09,1.93-2.14,2.35-3.15.43-1.02.64-1.97.64-2.85,0-.54-.1-.97-.31-1.29-.21-.32-.48-.57-.82-.73-.34-.16-.72-.27-1.14-.32-.42-.05-.86-.07-1.3-.07-.16,0-.32,0-.48.02-.46,1.43-.87,2.88-1.24,4.35-.37,1.47-.68,2.88-.94,4.26ZM164.22,8.38c-1.17-2.16-2.47-3.92-3.91-5.29l2.16-1.78c.6.6,1.12,1.17,1.58,1.7.46.54.9,1.1,1.31,1.68s.84,1.25,1.28,2l-2.42,1.68Z"/>
      <path class="cls-1" d="M176.57,17.51l-1.94-2.51c.74-.14,1.46-.32,2.14-.54.68-.23,1.29-.49,1.83-.79.54-.31.96-.65,1.28-1.03.31-.38.46-.8.46-1.26,0-.63-.25-1.12-.74-1.46s-1.14-.51-1.92-.51c-.56,0-1.23.1-2,.31-.78.21-1.6.55-2.47,1.02-.87.47-1.72,1.1-2.55,1.89l-2.59-.3c.15-1.17.33-2.27.54-3.3s.48-2.03.81-3.01.72-1.97,1.18-2.98l2.68,1.16c-.55,1.04-.95,1.94-1.2,2.7-.26.77-.44,1.42-.55,1.96.43-.4.99-.75,1.66-1.04.67-.29,1.4-.52,2.18-.68.78-.16,1.55-.24,2.31-.24.7,0,1.38.09,2.05.26.67.18,1.28.44,1.83.81.55.36.99.82,1.32,1.38s.49,1.23.49,2.02-.19,1.55-.56,2.23c-.37.67-.88,1.27-1.51,1.79s-1.36.96-2.18,1.32c-.82.36-1.68.64-2.57.82ZM179.57,4.17c-.62,0-1.28-.05-1.99-.15-.71-.1-1.4-.23-2.08-.38-.68-.16-1.29-.32-1.83-.49s-.97-.34-1.28-.49l1.17-2.58c.3.16.7.32,1.22.47.52.15,1.09.29,1.71.41s1.25.22,1.88.29c.63.07,1.19.1,1.7.1h.39l-.3,2.81c-.09.01-.18.02-.29.02h-.31Z"/>
      <path class="cls-1" d="M202.88,4.19h-6.2v9.99c0,.87-.11,1.54-.34,1.99-.22.46-.63.8-1.21,1.04-.57.24-1.26.39-2.06.46s-1.68.1-2.63.1c-.06-.31-.16-.66-.31-1.06-.14-.39-.3-.78-.48-1.17s-.36-.72-.53-.99c.46.03.94.04,1.43.06.5.01.95.02,1.35.03s.69,0,.87,0c.23-.01.4-.05.5-.12.1-.07.15-.2.15-.4V4.19h-7.32V1.35h16.78v2.84Z"/>
      <path class="cls-1" d="M221.44,14.28h-6.98v1.1c0,.6-.08,1.06-.25,1.39-.17.33-.49.58-.96.76-.46.16-.99.26-1.58.28-.6.03-1.26.04-1.99.04-.06-.36-.17-.76-.33-1.2-.16-.44-.32-.82-.49-1.14.28.01.6.02.95.03.35,0,.66,0,.95,0h.58c.28,0,.43-.09.43-.28v-.99h-6.93v-2.23h16.61v2.23ZM205.15,6.31c.39-.14.74-.31,1.08-.51.33-.21.64-.43.91-.66h-2.14V1.27h6.76V.11h2.72v1.16h6.7v3.85h-1.42c.28.23.56.45.81.66.25.22.46.43.62.63l-1.6,1.37h.04v3.76h-13v-3.76h.13l-1.62-1.48ZM219.38,7.78c-.27-.32-.63-.68-1.06-1.06-.44-.38-.89-.75-1.36-1.09-.12.71-.36,1.19-.7,1.44-.34.25-.87.37-1.59.37h-2.22c-.7,0-1.24-.06-1.62-.19-.39-.12-.66-.34-.81-.65s-.25-.72-.27-1.24c-.31.49-.68.93-1.12,1.35-.44.41-.96.77-1.56,1.07h12.31ZM207.42,3.44v1.4c.14-.14.26-.28.38-.42.12-.14.22-.3.31-.46l1.64.73v-.43h1.96c-.27-.15-.55-.27-.84-.37l.47-.45h-3.91ZM210.2,9.32h-1.29v.69h1.29v-.69ZM218.65,3.44h-4.58c.2.1.39.2.56.31.17.11.32.21.45.31l-1.4,1.44c-.19-.16-.42-.33-.7-.51-.28-.18-.58-.35-.89-.51v.64c0,.22.04.36.13.41.09.05.27.07.56.07h1.6c.22,0,.37-.05.45-.14.07-.09.13-.31.17-.65.19.12.44.25.76.37.32.12.63.21.91.27l-.26-.19c-.09-.06-.18-.12-.26-.17l1.62-1.33c.14.09.28.18.43.27.15.09.3.19.45.29v-.88ZM213.7,9.32h-1.3v.69h1.3v-.69ZM217.23,9.32h-1.32v.69h1.32v-.69Z"/>
      <path class="cls-1" d="M224.83,16.86c-.3-.82-.51-1.76-.64-2.8-.13-1.04-.19-2.11-.19-3.21,0-1.22.07-2.43.19-3.64.13-1.2.3-2.32.5-3.34.2-1.02.42-1.88.66-2.56l2.85.79c-.41,1.21-.71,2.49-.91,3.85-.2,1.36-.3,2.71-.3,4.04,0,1.14.07,2.23.2,3.29s.33,2.03.58,2.92l-2.94.65ZM238.59,16.39c-.24.04-.49.07-.77.09-.28.02-.57.04-.87.04-.65,0-1.32-.06-2.02-.19-.7-.12-1.39-.33-2.07-.63-.68-.29-1.3-.69-1.88-1.19s-1.07-1.12-1.46-1.87l1.84-2.13c.42.79.96,1.39,1.63,1.82.66.43,1.39.73,2.19.91.79.18,1.58.26,2.35.26.24,0,.47,0,.7-.03s.46-.04.68-.05l-.32,2.96ZM231.02,6.62l-1.34-2.62c.56-.32,1.23-.62,2.02-.9s1.63-.5,2.51-.67,1.75-.26,2.6-.26c.3,0,.59.01.87.04.28.03.55.06.81.11l.07,2.88c-.27-.04-.57-.05-.89-.05-.7,0-1.46.07-2.28.2s-1.62.31-2.39.53c-.77.22-1.43.47-1.97.75Z"/>
      <path class="cls-1" d="M245.73,17.48c-.7,0-1.33-.17-1.9-.5-.57-.34-1.02-.79-1.36-1.37-.33-.57-.5-1.2-.5-1.89s.17-1.33.5-1.91.79-1.03,1.36-1.37,1.2-.51,1.9-.51,1.33.17,1.89.51,1.02.79,1.35,1.37.5,1.21.5,1.91-.17,1.32-.5,1.89c-.33.57-.79,1.03-1.35,1.37-.56.34-1.19.5-1.89.5ZM245.73,15.14c.4,0,.73-.14,1.01-.42.27-.28.41-.62.41-1s-.14-.74-.41-1.02c-.27-.28-.61-.42-1.01-.42s-.72.14-1.01.42c-.28.28-.43.62-.43,1.02s.14.72.43,1c.29.28.62.42,1.01.42Z"/>
      <path class="cls-1" d="M265.95,12.35c-.07-.17-.16-.36-.27-.57-.11-.21-.22-.42-.35-.65v6.73h-2.63v-5.57c-.24.52-.48,1.02-.74,1.5-.25.47-.53.89-.81,1.25-.12-.4-.31-.85-.55-1.35-.24-.5-.47-.92-.68-1.27.5-.59.97-1.31,1.43-2.18.46-.87.84-1.72,1.15-2.55h-2.12v-2.53h2.31v-1.68c-.65.09-1.27.16-1.88.22-.05-.29-.15-.63-.3-1.05-.15-.41-.29-.75-.43-1.03.99-.14,1.99-.33,3-.57,1.01-.24,1.86-.51,2.57-.81l1.79,2.1c-.32.12-.66.24-1.02.34-.36.1-.73.19-1.1.28v2.21h1.56v-.32h4.04v-.43h-3.17v-1.52h3.17v-.45h-3.44V.86h3.44V.09h2.7v.77h3.67v1.59h-3.67v.45h3.28v1.52h-3.28v.43h4v1.65h-10.61v1.2h-1.7v.3c.21.19.47.43.76.74s.58.6.84.88c.26.28.44.48.54.61l-1.53,2.13ZM275.17,14.82c.51.31,1.02.63,1.54.96.52.33.95.62,1.3.85l-2.35,1.25c-.22-.19-.5-.41-.84-.67-.34-.26-.69-.52-1.06-.79-.37-.27-.73-.52-1.08-.75l1.19-.86h-2.98l1.25.86c-.39.29-.84.58-1.35.87-.52.29-1.05.56-1.6.8-.55.24-1.08.45-1.59.61-.2-.25-.46-.53-.77-.85s-.61-.6-.87-.83c.56-.16,1.14-.38,1.73-.65.6-.27,1.13-.54,1.6-.81h-1.27v-7.88h8.81v7.88h-1.66ZM270.44,9.09h3.84v-.54h-3.84v.54ZM270.44,11.15h3.84v-.56h-3.84v.56ZM270.44,13.21h3.84v-.56h-3.84v.56Z"/>
      <path class="cls-1" d="M282.8,16.39c-.1,0-.29-.02-.57-.07-.28-.04-.59-.14-.93-.28s-.67-.35-1-.63c-.32-.27-.59-.65-.8-1.11-.21-.47-.32-1.05-.32-1.75,0-1.11.29-2.09.88-2.93.58-.84,1.37-1.52,2.36-2.03.99-.51,2.09-.84,3.31-.99.02-.22.04-.41.05-.56,0-.15,0-.24,0-.28,0-.57-.09-.99-.27-1.24s-.4-.42-.65-.5-.49-.11-.72-.11c-.42,0-.88.08-1.38.23-.5.16-.99.37-1.47.65l-.91-2.75c.62-.31,1.24-.55,1.85-.71.61-.16,1.21-.24,1.8-.24s1.12.07,1.66.22c.53.15,1.01.41,1.42.77.42.36.75.86,1,1.5.25.64.37,1.44.37,2.41,0,.2,0,.41-.02.62.6.06,1.17.17,1.71.31.54.14,1.09.33,1.64.55,0-.86-.06-1.66-.19-2.4-.12-.74-.28-1.37-.47-1.91l2.76-.35c.38,1.23.58,2.7.58,4.4,0,.54-.03,1.08-.07,1.63.33.2.67.42,1.02.65.34.23.69.48,1.05.74l-1.16,2.62c-.47-.35-.93-.67-1.38-.97-.25,1.04-.59,2.04-1.02,3-.43.97-.96,1.85-1.61,2.65l-2.37-1.78c.7-.81,1.25-1.67,1.66-2.57s.71-1.81.89-2.72c-.68-.34-1.3-.58-1.85-.74-.55-.16-1.06-.26-1.54-.33-.07.44-.17.89-.28,1.37-.24,1.05-.57,2-1.01,2.85-.44.85-.99,1.53-1.66,2.04-.67.51-1.46.76-2.37.76ZM281.91,12.74c0,.56.33.84.99.84.43,0,.81-.2,1.12-.6s.57-.91.79-1.53c.22-.62.39-1.27.53-1.95-.82.17-1.46.43-1.93.76-.47.33-.81.68-1.02,1.04-.21.36-.35.68-.4.95-.06.27-.08.44-.08.49Z"/>
      <path class="cls-1" d="M314.79,15.25v2.12h-17.11v-2.12h7.08v-.62h-5.7v-2.02h5.7v-.56h-5.08v-6.06h5.08v-.47h-6.97v-2.1h6.97v-.54c-.86.04-1.71.07-2.55.09-.84.03-1.67.04-2.48.04-.01-.31-.08-.67-.2-1.07-.12-.4-.23-.74-.34-1.01,1.46-.03,2.96-.07,4.48-.15,1.52-.07,2.98-.17,4.39-.3s2.65-.27,3.74-.43l1.19,2.1c-.82.12-1.69.24-2.63.34-.93.1-1.89.18-2.89.24v.69h7.17v2.1h-7.17v.47h5.4v6.06h-5.4v.56h6.09v2.02h-6.09v.62h7.32ZM302.32,8.23h2.44v-.51h-2.44v.51ZM304.76,10.31v-.51h-2.44v.51h2.44ZM307.47,7.73v.51h2.63v-.51h-2.63ZM310.1,9.8h-2.63v.51h2.63v-.51Z"/>
      <path class="cls-1" d="M319.56,16.92c-.07-.51-.13-1.12-.17-1.82-.04-.7-.06-1.45-.07-2.26-.31.6-.6,1.22-.86,1.87l-2.4-1.5c.05-.1.21-.42.49-.95s.66-1.19,1.14-1.97,1.06-1.6,1.71-2.45l.04-1.16c-.25-.11-.57-.23-.98-.36s-.8-.26-1.2-.37-.71-.21-.95-.27l.97-2.7c.37.07.76.18,1.16.31s.79.28,1.19.44c.05-.61.1-1.18.16-1.69.05-.52.11-.96.18-1.34l2.66.15c-.06.42-.12.97-.18,1.65-.05.67-.11,1.41-.16,2.23.81-.69,1.66-1.25,2.57-1.7.91-.45,1.84-.67,2.81-.67,1.51,0,2.72.54,3.6,1.63.89,1.09,1.33,2.66,1.33,4.72,0,.36-.02.81-.07,1.34-.04.53-.12,1.06-.23,1.6.19.21.37.44.55.69s.36.52.53.8l-1.43,2.34c-.1-.16-.21-.33-.32-.49-.11-.17-.22-.33-.33-.48-.4.67-.94,1.24-1.63,1.7s-1.57.69-2.65.69c-.79,0-1.5-.16-2.12-.49s-1.11-.75-1.47-1.28c-.36-.53-.54-1.1-.54-1.71,0-.67.17-1.32.51-1.94.34-.62.86-1.12,1.55-1.51.69-.39,1.55-.58,2.6-.58.31,0,.67.03,1.08.1s.84.2,1.28.38c.02-.21.04-.42.06-.62.01-.2.02-.39.02-.58,0-.37-.03-.77-.08-1.18-.06-.41-.16-.8-.32-1.17-.16-.37-.38-.67-.66-.9-.29-.23-.66-.35-1.12-.35-.71,0-1.57.3-2.58.89s-2.04,1.48-3.08,2.67c-.04,1.43-.05,2.81-.05,4.12,0,.86,0,1.65.03,2.36s.05,1.29.08,1.74l-2.64.07ZM325.5,13.23c0,.36.17.63.5.81.33.18.71.27,1.14.27.65,0,1.14-.14,1.47-.42.33-.28.6-.74.78-1.38-.27-.16-.56-.29-.85-.39-.29-.1-.6-.15-.92-.15-.5,0-.9.07-1.22.21s-.55.31-.69.51-.21.37-.21.53Z"/>
      <path class="cls-1" d="M343.49,17.21c-.6,0-1.21-.03-1.84-.1s-1.24-.19-1.81-.37c-.58-.18-1.1-.43-1.56-.76s-.82-.75-1.09-1.27c-.27-.52-.4-1.16-.4-1.92,0-.36.06-.76.17-1.19.11-.43.34-.89.67-1.38.33-.49.83-.98,1.49-1.48-.18-.41-.31-.86-.41-1.34-.1-.48-.15-1-.15-1.54v-.32c-.51.09-.99.18-1.45.29-.46.11-.88.22-1.27.33l-.48-2.47c.5-.16,1.05-.31,1.67-.46.61-.14,1.26-.27,1.95-.38.1-.39.22-.79.36-1.2s.31-.84.51-1.29l2.92.54c-.25.42-.48.94-.71,1.55,1.07-.1,2.12-.17,3.17-.22,1.05-.05,2.02-.07,2.91-.07.47,0,.91,0,1.32.02s.78.03,1.12.06l-.37,2.53c-.56-.04-1.19-.06-1.88-.06-1.03,0-2.14.04-3.34.11-1.2.07-2.39.18-3.56.32-.03.24-.04.47-.04.69,0,.54.09,1.03.26,1.48.83-.37,1.81-.74,2.94-1.09,1.13-.35,2.44-.69,3.93-1.02l1.08,2.75c-.35.06-.84.16-1.48.29s-1.35.3-2.13.5-1.55.44-2.31.73c.52.27,1.08.5,1.68.67.6.18,1.17.32,1.71.43l-.69,2.62c-1.11-.16-2.14-.42-3.1-.79-.96-.36-1.8-.84-2.51-1.44-.33.26-.6.55-.79.85-.19.31-.29.63-.29.98,0,.49.32.88.97,1.18.65.3,1.56.45,2.74.45.88,0,1.71-.05,2.48-.17.77-.11,1.54-.29,2.3-.53.76-.24,1.57-.57,2.41-.98l.24,3.18c-.87.3-1.68.54-2.44.73-.76.19-1.53.33-2.31.42-.78.09-1.65.14-2.59.14Z"/>
      <path class="cls-1" d="M364.1,7.77c.61,1.7,1.46,3.2,2.57,4.5s2.51,2.29,4.23,2.95c-.22.2-.46.45-.72.76s-.5.62-.73.95-.42.62-.57.88c-1.64-.76-3-1.76-4.07-2.98-1.07-1.23-1.97-2.67-2.69-4.33-.53,1.43-1.33,2.78-2.37,4.04-1.05,1.26-2.49,2.35-4.33,3.27-.21-.37-.51-.78-.88-1.22-.38-.44-.77-.8-1.16-1.1,1.37-.62,2.48-1.34,3.35-2.14.87-.81,1.55-1.68,2.06-2.63.5-.95.88-1.93,1.13-2.94h-6.16v-2.83h6.61c.06-.82.1-1.64.1-2.46,0-.82.02-1.61.03-2.38h2.98c-.01.77-.03,1.57-.05,2.38-.02.82-.07,1.64-.14,2.46h7.15v2.83h-6.33Z"/>
      <path class="cls-1" d="M377.17,11.56c.1,0,.17-.06.22-.18.05-.12.09-.35.11-.68s.04-.82.06-1.46c.28.24.66.46,1.14.66s.89.35,1.25.44c-.09.93-.22,1.68-.41,2.24-.19.56-.45.95-.78,1.2-.33.24-.77.37-1.3.37h-1.32c-.65,0-1.15-.11-1.5-.32-.35-.21-.6-.57-.74-1.09-.14-.51-.21-1.21-.21-2.1v-2.73l-1.58.3-.43-2.53,2.01-.36V.67h2.68v4.17l3.3-.6.43,2.47-3.72.69v3.24c0,.41.02.67.05.77.03.1.11.15.23.15h.52ZM389.22,1.35c-.01.35-.02.63-.02.84s0,.38-.02.51c-.05,2.31-.1,4.27-.15,5.87-.05,1.61-.11,2.94-.19,3.99-.07,1.05-.17,1.87-.29,2.46-.12.59-.26,1.02-.44,1.28-.27.42-.55.72-.84.9-.29.18-.62.31-1.01.41-.35.07-.76.12-1.25.12s-.98,0-1.49,0c-.01-.39-.1-.85-.26-1.4-.16-.55-.36-1.02-.6-1.4.46.04.88.06,1.26.07s.68,0,.9,0c.31,0,.55-.13.73-.39.16-.21.29-.7.39-1.47.1-.77.18-1.9.25-3.4.07-1.5.12-3.43.16-5.8h-2.31c-.04,1.51-.11,2.95-.23,4.31-.12,1.37-.35,2.65-.68,3.84-.33,1.2-.84,2.29-1.5,3.28s-1.55,1.87-2.67,2.63c-.2-.36-.48-.76-.84-1.19-.36-.43-.71-.77-1.06-1.02.99-.62,1.77-1.35,2.35-2.17s.99-1.73,1.26-2.73c.27-1,.44-2.08.52-3.25.08-1.17.13-2.4.14-3.71h-2.53V1.35h10.41Z"/>
      <path class="cls-1" d="M392.42,16.86c-.3-.82-.51-1.76-.64-2.8-.13-1.04-.19-2.11-.19-3.21,0-1.22.07-2.43.19-3.64.13-1.2.3-2.32.5-3.34.2-1.02.42-1.88.66-2.56l2.85.79c-.41,1.21-.71,2.49-.91,3.85-.2,1.36-.3,2.71-.3,4.04,0,1.14.07,2.23.2,3.29s.33,2.03.58,2.92l-2.94.65ZM406.19,16.39c-.24.04-.49.07-.77.09-.28.02-.57.04-.87.04-.65,0-1.32-.06-2.02-.19-.7-.12-1.39-.33-2.07-.63-.68-.29-1.3-.69-1.88-1.19s-1.07-1.12-1.46-1.87l1.84-2.13c.42.79.96,1.39,1.63,1.82.66.43,1.39.73,2.19.91.79.18,1.58.26,2.35.26.24,0,.47,0,.7-.03s.46-.04.68-.05l-.32,2.96ZM398.61,6.62l-1.34-2.62c.56-.32,1.23-.62,2.02-.9s1.63-.5,2.51-.67,1.75-.26,2.6-.26c.3,0,.59.01.87.04.28.03.55.06.81.11l.07,2.88c-.27-.04-.57-.05-.89-.05-.7,0-1.46.07-2.28.2s-1.62.31-2.39.53c-.77.22-1.43.47-1.97.75Z"/>
      <path class="cls-1" d="M409.83,6.44l-.67-2.64c.91-.25,1.89-.47,2.95-.65s2.15-.34,3.28-.47c1.12-.12,2.23-.22,3.31-.28-.1-.41-.2-.77-.31-1.09-.11-.31-.2-.57-.29-.77l2.85-.07c.11.2.21.46.31.78.09.32.18.67.25,1.06h.41c.81,0,1.55.02,2.23.07.68.04,1.26.1,1.76.18l-.3,2.7c-.98-.18-2.25-.26-3.82-.26.01.36.02.72.02,1.07,0,.76-.07,1.51-.21,2.25.29.41.51.9.67,1.45.16.56.24,1.18.24,1.88,0,.95-.18,1.83-.54,2.64-.36.81-.85,1.52-1.47,2.11-.62.6-1.33,1.06-2.12,1.39l-2.57-1.61c.93-.29,1.68-.66,2.25-1.13.57-.47,1-.96,1.28-1.47.28-.51.47-.97.56-1.38-.4.46-.87.83-1.42,1.1-.55.27-1.17.41-1.88.41-.77,0-1.46-.16-2.08-.48-.61-.32-1.1-.75-1.46-1.28-.36-.54-.54-1.14-.54-1.82,0-.2.03-.46.09-.79s.18-.67.35-1.04c.17-.37.43-.72.76-1.05.34-.33.77-.6,1.31-.81s1.21-.31,2-.31c.36,0,.72.03,1.07.09.35.06.7.14,1.03.25v-.23c0-.4-.01-.79-.04-1.18-1.12.06-2.24.16-3.37.28-1.13.12-2.21.28-3.23.47-1.02.19-1.92.4-2.69.63ZM415.24,10.01c0,.42.14.7.42.83.28.13.56.2.83.2.61,0,1.09-.18,1.45-.53.36-.35.63-.78.8-1.28-.3-.21-.61-.36-.94-.45-.33-.09-.62-.13-.87-.13-.46,0-.86.13-1.19.38-.33.26-.5.58-.5.98Z"/>
      <path class="cls-1" d="M436.52,17.25c-1.95,0-3.44-.31-4.46-.92-1.02-.61-1.54-1.43-1.54-2.45,0-.2.05-.48.15-.84.1-.36.28-.73.53-1.1.25-.37.62-.69,1.1-.95.48-.26,1.09-.39,1.85-.39.65,0,1.19.12,1.62.37.44.24.79.56,1.05.94.27.39.46.81.58,1.25.12.45.18.88.18,1.29v.06c.92-.2,1.64-.56,2.17-1.07s.79-1.12.79-1.82c0-.56-.12-1.02-.37-1.38-.25-.36-.57-.64-.98-.83s-.84-.33-1.32-.41c-.48-.08-.95-.12-1.41-.12-.72,0-1.5.1-2.33.3-.83.2-1.74.54-2.72,1.03l-.95-2.86c1.28-.42,2.35-.79,3.21-1.11s1.57-.62,2.13-.9c.56-.28,1.02-.56,1.38-.85.37-.32.56-.58.56-.77,0-.22-.24-.34-.71-.34-.36,0-1.15.14-2.37.43-1.22.29-2.72.77-4.51,1.44l-.91-2.7c.46-.21,1.03-.42,1.71-.63.68-.21,1.4-.4,2.16-.57.76-.18,1.49-.32,2.19-.42.7-.11,1.31-.16,1.82-.16,1.16,0,2.07.22,2.75.65.68.44,1.02,1.04,1.02,1.82,0,.69-.14,1.26-.42,1.72-.28.46-.61.84-1,1.12s-.73.5-1.04.64h.11c.87,0,1.68.19,2.44.57.76.38,1.37.93,1.84,1.64s.71,1.55.71,2.53c0,.12-.02.34-.05.65-.03.31-.11.67-.22,1.08-.12.41-.3.82-.55,1.25-.25.43-.59.83-1.02,1.21-.52.46-1.2.85-2.04,1.15-.84.3-1.88.46-3.14.46ZM433.09,13.77c0,.28.2.48.6.63s.87.23,1.42.27c.01-.1.02-.2.02-.3,0-.89-.35-1.33-1.06-1.33-.29,0-.52.08-.7.23-.18.16-.27.32-.27.49Z"/>
      <path class="cls-1" d="M454.32,6.08c-.33,1.92-.82,3.67-1.45,5.24.39.52.74,1.04,1.06,1.53.32.5.58.97.78,1.4l-2.16,1.85c-.26-.61-.63-1.3-1.1-2.06-.96,1.48-2.15,2.71-3.58,3.68-.11-.19-.28-.41-.49-.68s-.44-.54-.68-.81c-.24-.27-.45-.48-.63-.64.81-.48,1.52-1.04,2.14-1.69.62-.65,1.16-1.4,1.62-2.24-.98-1.33-1.97-2.56-2.98-3.69l1.9-1.55c.36.39.73.79,1.1,1.22.37.42.74.85,1.12,1.29.31-1.01.55-2.09.73-3.24l2.63.37ZM463.95,6.68h-1.86v7.9c0,.72-.07,1.29-.21,1.71s-.41.74-.81.98-.89.39-1.49.47c-.6.07-1.28.11-2.05.11-.03-.27-.08-.59-.17-.93-.09-.35-.19-.7-.31-1.06-.12-.35-.24-.67-.36-.94.48.02.95.04,1.39.05.44,0,.74,0,.9,0s.27-.03.33-.09c.06-.05.09-.16.09-.33v-7.88h-4.43v-1.31h-8.34v-2.51h3.09V.11h2.59v2.75h3.3v1.22h3.8V.09h2.68v3.98h1.86v2.6ZM456.7,7.9c.29.4.57.83.85,1.29.28.46.52.92.74,1.37s.37.86.47,1.23l-2.33,1.2c-.09-.36-.23-.78-.42-1.24-.19-.47-.42-.95-.67-1.43s-.52-.93-.79-1.35l2.16-1.07Z"/>
      <path class="cls-1" d="M475.05,3.63l-.41,1.31h6.89v12.93h-2.75v-.93h-10.11v.93h-2.61V4.94h5.72c.02-.21.05-.43.09-.65.04-.22.07-.44.09-.65h-6.63V1.07h17.02v2.56h-7.3ZM468.66,14.45h1.47v-7.02h-1.47v7.02ZM474.78,7.43h-2.25v.88h2.25v-.88ZM474.78,10.4h-2.25v.99h2.25v-.99ZM472.53,14.45h2.25v-.95h-2.25v.95ZM478.77,7.43h-1.56v7.02h1.56v-7.02Z"/>
      <path class="cls-1" d="M484.38,3.42c1.14-.4,2.3-.74,3.48-1.02,1.18-.28,2.34-.49,3.48-.65,1.14-.15,2.21-.22,3.2-.22.37,0,.75.01,1.14.04.39.02.76.07,1.12.13-.02.1-.05.2-.07.31-.02.11-.03.22-.03.33,0,.44.11.84.32,1.2.21.36.5.65.86.87.36.22.76.33,1.19.33.33,0,.63-.06.89-.19.01.09.02.18.03.27,0,.09,0,.19,0,.29,0,.6-.13,1.36-.4,2.28-.27.92-.71,1.94-1.34,3.05-.63,1.11-1.47,2.26-2.52,3.44-1.06,1.18-2.37,2.34-3.95,3.46l-2.68-2.34c1.25-.77,2.35-1.6,3.3-2.49s1.73-1.76,2.37-2.62c.63-.86,1.11-1.64,1.42-2.35.32-.71.47-1.26.47-1.67,0-.49-.18-.81-.55-.96-.37-.16-.83-.23-1.39-.23-1.17,0-2.53.15-4.1.44-1.56.29-3.28.77-5.16,1.43l-1.1-3.12ZM499.07,4.17c-.5,0-.92-.18-1.28-.54-.35-.36-.53-.79-.53-1.29s.18-.93.53-1.28c.35-.36.78-.53,1.28-.53s.94.18,1.29.53c.35.35.53.78.53,1.28s-.18.93-.53,1.29c-.35.36-.79.54-1.29.54ZM499.07,2.94c.17,0,.32-.06.43-.18s.17-.26.17-.42-.06-.3-.17-.42-.25-.18-.43-.18c-.16,0-.3.06-.41.18-.11.12-.17.26-.17.42s.06.3.17.42c.11.12.25.18.41.18Z"/>
      <path class="cls-1" d="M511.45,17.63l-2.14-2.43c.52-.29,1.07-.63,1.64-1.04s1.13-.83,1.67-1.28c.54-.45,1.03-.89,1.46-1.34.44-.44.78-.86,1.03-1.24s.38-.71.38-.97-.1-.43-.3-.53c-.2-.11-.45-.17-.76-.2-.31-.03-.63-.04-.97-.04-.58,0-1.27.04-2.06.1-.79.07-1.63.17-2.52.32-.89.14-1.79.32-2.7.53-.91.21-1.76.47-2.57.77l-.54-3.01c1.01-.35,2.11-.64,3.32-.88,1.21-.24,2.43-.42,3.66-.54,1.23-.12,2.37-.19,3.43-.19s1.89.06,2.61.17c.97.15,1.67.5,2.09,1.06.43.56.64,1.16.64,1.82s-.2,1.34-.61,2.1c-.4.76-.95,1.54-1.65,2.35-.7.8-1.48,1.59-2.37,2.36s-1.8,1.48-2.76,2.12ZM516.4,4.96c-.45-.14-1.01-.27-1.68-.39-.68-.12-1.41-.23-2.21-.33-.79-.09-1.61-.17-2.44-.23-.83-.06-1.62-.08-2.37-.08-.47,0-.92,0-1.34.03-.42.02-.8.06-1.14.12l.32-3.01c.36-.06.75-.1,1.18-.12.43-.02.89-.03,1.39-.03.75,0,1.52.03,2.34.08.81.05,1.62.12,2.42.22.8.1,1.55.21,2.24.35s1.3.27,1.81.42l-.52,2.98Z"/>
      <path class="cls-1" d="M523.63,12.48l-2.22-2.04c.34-.47.79-1.01,1.35-1.6.56-.59,1.21-1.21,1.95-1.86.73-.65,1.51-1.3,2.34-1.95s1.67-1.26,2.54-1.84,1.72-1.1,2.55-1.55c.83-.46,1.61-.81,2.35-1.06l2.01,2.34c-.81.3-1.62.67-2.43,1.1-.81.44-1.61.91-2.39,1.42.12.55.23,1.2.32,1.95.09.75.15,1.55.19,2.4.04.85.05,1.7.05,2.56s-.02,1.72-.05,2.54c-.04.82-.09,1.55-.17,2.2l-3.2-.17c.05-.52.09-1.15.12-1.89.03-.74.05-1.51.05-2.32,0-.89-.02-1.77-.06-2.67-.04-.89-.12-1.7-.23-2.42-1.07.85-2.04,1.7-2.91,2.55s-1.59,1.62-2.13,2.31Z"/>
      <path class="cls-1" d="M554.54,16.32c-.44-.82-.92-1.69-1.45-2.61-.53-.92-1.09-1.82-1.66-2.69-.57-.88-1.14-1.67-1.7-2.38-.56-.7-1.08-1.27-1.57-1.69-.49-.42-.92-.64-1.3-.64s-.76.17-1.17.51c-.41.34-.81.79-1.21,1.33-.4.54-.78,1.12-1.14,1.73-.36.61-.68,1.19-.95,1.73s-.49.98-.65,1.32l-2.57-1.65c.15-.3.35-.71.61-1.23.26-.52.57-1.09.94-1.72.37-.63.77-1.26,1.22-1.88.45-.62.93-1.2,1.45-1.73.52-.53,1.07-.95,1.65-1.27.58-.32,1.18-.48,1.8-.48.56,0,1.13.16,1.71.49.58.32,1.17.76,1.77,1.32.6.56,1.18,1.18,1.75,1.87.57.69,1.12,1.41,1.64,2.15.52.74,1.01,1.46,1.45,2.16.45.7.84,1.34,1.19,1.91.35.57.63,1.04.86,1.39l-2.68,2.06ZM551.67,3.91l1.28-.6c.11.29.28.62.51.99.23.37.47.69.72.95l-1.12.95c-.11-.11-.27-.31-.47-.6-.2-.29-.39-.59-.57-.92s-.3-.59-.36-.79ZM553.74,3.82l1.12-.86c.17.26.4.55.69.88.29.32.57.59.86.81l-1,1.1c-.12-.1-.3-.26-.53-.5-.23-.23-.45-.48-.66-.75-.21-.27-.37-.5-.47-.68Z"/>
      <path class="cls-1" d="M559.36,11.4l-.63-3.24c.66-.18,1.43-.33,2.32-.46s1.85-.25,2.88-.35c1.03-.1,2.08-.18,3.16-.23,1.07-.05,2.12-.07,3.14-.07.96,0,1.86.02,2.7.07.84.05,1.59.12,2.23.23l-.35,3.29c-.56-.1-1.21-.17-1.96-.21-.75-.04-1.56-.07-2.43-.07-.97,0-1.97.02-3.01.07s-2.05.12-3.05.21c-1,.09-1.93.2-2.78.33-.86.12-1.59.26-2.2.41Z"/>
      <path class="cls-1" d="M580.68,17.23c-.1-.66-.17-1.41-.22-2.25-.05-.84-.07-1.69-.07-2.56,0-1.01.03-2.05.07-3.13.05-1.07.12-2.13.2-3.17s.18-2.03.29-2.97c.11-.93.22-1.76.34-2.49l3.16.32c-.14.62-.27,1.37-.4,2.24-.13.87-.24,1.82-.33,2.83,1.12.34,2.23.75,3.35,1.24,1.12.49,2.18,1.04,3.19,1.63,1,.59,1.9,1.21,2.68,1.84l-1.73,2.66c-.68-.61-1.46-1.19-2.34-1.75-.88-.55-1.77-1.06-2.7-1.52s-1.8-.85-2.63-1.18c-.02.63-.04,1.27-.04,1.89,0,1.11.03,2.19.09,3.25.06,1.05.16,2.06.3,3.02l-3.2.09Z"/>
      <path class="cls-1" d="M601.76,16.97c-.89,0-1.61-.18-2.15-.53-.54-.35-.95-.81-1.22-1.39-.27-.58-.46-1.22-.55-1.93-.09-.7-.14-1.41-.14-2.12,0-1.01.05-2.1.16-3.27.11-1.16.24-2.33.41-3.51.17-1.17.35-2.26.55-3.26l3.15.52c-.25,1.16-.46,2.32-.63,3.47-.18,1.15-.3,2.25-.39,3.3-.09,1.05-.13,2-.13,2.86,0,.37.02.77.07,1.18.04.41.16.76.35,1.05.19.29.51.43.94.43.27,0,.71-.09,1.3-.27.6-.18,1.31-.47,2.13-.86.83-.39,1.72-.9,2.67-1.52.96-.62,1.92-1.37,2.91-2.25l1.04,3.31c-.86.76-1.76,1.44-2.7,2.03-.94.59-1.89,1.09-2.83,1.5s-1.84.71-2.68.93c-.84.21-1.6.32-2.25.32Z"/>
      <path class="cls-1" d="M617.42,10.98c-.05-.3-.12-.68-.21-1.13s-.18-.94-.29-1.46c-.11-.52-.23-1.01-.38-1.49-.15-.48-.32-.88-.5-1.22l2.55-.81c.42.89.74,1.75.97,2.59s.39,1.79.48,2.85l-2.63.65ZM621.07,10.05c-.04-.76-.16-1.59-.35-2.48-.2-.89-.47-1.81-.8-2.74l2.61-.86c.27.69.49,1.31.66,1.86.17.56.3,1.11.41,1.67.11.56.19,1.2.25,1.91l-2.77.64ZM623.07,17.48l-2.55-1.85c1.15-.87,2.1-1.75,2.84-2.64.74-.88,1.32-1.79,1.74-2.71.42-.92.73-1.87.92-2.83.19-.97.33-1.96.4-2.97l2.98.81c-.09,1.38-.37,2.81-.84,4.27-.47,1.47-1.16,2.88-2.06,4.24s-2.05,2.59-3.44,3.68Z"/>
      <path class="cls-1" d="M635.8,16.92l-2.05-2.77c1.05-.65,2.06-1.33,3.01-2.04s1.82-1.43,2.63-2.14,1.5-1.4,2.09-2.04,1.05-1.22,1.37-1.72.48-.91.48-1.21c0-.25-.11-.43-.33-.53-.22-.11-.52-.16-.9-.16-.53,0-1.19.08-1.98.24-.79.16-1.62.37-2.49.61-.88.24-1.72.49-2.52.74l-.63-3.01c1.54-.42,3.03-.79,4.46-1.09s2.83-.46,4.18-.46c.71,0,1.34.08,1.9.23.56.16,1,.43,1.32.81s.48.93.48,1.63c0,.81-.26,1.71-.77,2.69-.51.99-1.18,1.98-2,3,.82.62,1.68,1.38,2.6,2.25.91.88,1.79,1.81,2.63,2.8l-2.57,2.02c-.66-.86-1.4-1.72-2.22-2.58-.82-.86-1.61-1.64-2.38-2.34-1.02,1.04-2.09,2-3.2,2.89-1.12.89-2.15,1.62-3.09,2.18Z"/>
      <path class="cls-1" d="M661.15,15.74c-.91.47-1.69.79-2.36.93-.67.15-1.24.22-1.7.22-2.42,0-3.96-1.32-4.62-3.95l2.81-1.27c.17.71.42,1.23.74,1.55s.73.49,1.21.49c.2,0,.53-.06,1.01-.19s1.03-.35,1.68-.67,1.35-.76,2.09-1.34c.75-.57,1.49-1.3,2.23-2.19.75-.89,1.44-1.96,2.09-3.24l2.36,2.19v.02c-.3.6-.7,1.24-1.22,1.93-.51.69-1.11,1.37-1.77,2.05-.67.68-1.39,1.32-2.16,1.91-.78.59-1.58,1.11-2.41,1.54ZM657.65,7.69c-.61-.81-1.3-1.55-2.08-2.23-.78-.67-1.57-1.24-2.37-1.7l2.14-2.28c.77.46,1.56,1.02,2.37,1.67s1.55,1.42,2.23,2.3l-2.29,2.25Z"/>
      <path class="cls-1" d="M683.51,17.16c-1.56-.07-2.89-.3-3.99-.67s-1.99-.85-2.66-1.42c-.68-.57-1.17-1.21-1.49-1.91s-.47-1.42-.47-2.17c0-.67.15-1.42.45-2.24.3-.82.79-1.62,1.49-2.42s1.64-1.5,2.83-2.12c-.86.05-2.01.21-3.46.49-1.45.27-3.33.68-5.62,1.22l-.28-2.84c.77-.21,1.67-.42,2.71-.62s2.14-.38,3.32-.53,2.37-.28,3.58-.37c1.22-.09,2.38-.14,3.5-.14.92,0,1.77.04,2.57.11l.06,2.54c-.52.02-1.14.17-1.84.44s-1.42.63-2.15,1.08-1.41.97-2.04,1.55-1.14,1.21-1.53,1.87-.58,1.33-.58,2c0,.54.14.99.43,1.37.29.37.67.68,1.16.91.48.23,1.02.41,1.61.54.59.13,1.19.22,1.81.27.61.05,1.19.08,1.74.09l-1.12,2.97ZM683.85,8.8c-.12-.09-.32-.25-.59-.48-.27-.23-.53-.48-.78-.74s-.44-.48-.55-.65l1.12-.92c.17.25.42.53.74.83.32.3.62.55.92.74l-.86,1.22ZM685.99,7.77c-.15-.06-.36-.18-.63-.35-.27-.17-.55-.36-.82-.56-.27-.21-.48-.39-.61-.55l.88-1.12c.22.21.51.44.88.69.36.25.71.44,1.04.58l-.73,1.31Z"/>
      <path class="cls-1" d="M689.15,6.44l-.67-2.64c.91-.25,1.89-.47,2.95-.65s2.15-.34,3.28-.47c1.12-.12,2.23-.22,3.31-.28-.1-.41-.2-.77-.31-1.09-.11-.31-.2-.57-.29-.77l2.85-.07c.11.2.21.46.31.78.09.32.18.67.25,1.06h.41c.81,0,1.55.02,2.23.07.68.04,1.26.1,1.76.18l-.3,2.7c-.98-.18-2.25-.26-3.82-.26.01.36.02.72.02,1.07,0,.76-.07,1.51-.21,2.25.29.41.51.9.67,1.45.16.56.24,1.18.24,1.88,0,.95-.18,1.83-.54,2.64-.36.81-.85,1.52-1.47,2.11-.62.6-1.33,1.06-2.12,1.39l-2.57-1.61c.93-.29,1.68-.66,2.25-1.13.57-.47,1-.96,1.28-1.47.28-.51.47-.97.56-1.38-.4.46-.87.83-1.42,1.1-.55.27-1.17.41-1.88.41-.77,0-1.46-.16-2.08-.48-.61-.32-1.1-.75-1.46-1.28-.36-.54-.54-1.14-.54-1.82,0-.2.03-.46.09-.79s.18-.67.35-1.04c.17-.37.43-.72.76-1.05.34-.33.77-.6,1.31-.81s1.21-.31,2-.31c.36,0,.72.03,1.07.09.35.06.7.14,1.03.25v-.23c0-.4-.01-.79-.04-1.18-1.12.06-2.24.16-3.37.28-1.13.12-2.21.28-3.23.47-1.02.19-1.92.4-2.69.63ZM694.55,10.01c0,.42.14.7.42.83.28.13.56.2.83.2.61,0,1.09-.18,1.45-.53.36-.35.63-.78.8-1.28-.3-.21-.61-.36-.94-.45-.33-.09-.62-.13-.87-.13-.46,0-.86.13-1.19.38-.33.26-.5.58-.5.98Z"/>
      <path class="cls-1" d="M711.26,17.48c-.7,0-1.33-.17-1.9-.5-.57-.34-1.02-.79-1.36-1.37-.33-.57-.5-1.2-.5-1.89s.17-1.33.5-1.91.79-1.03,1.36-1.37,1.2-.51,1.9-.51,1.33.17,1.89.51,1.02.79,1.35,1.37.5,1.21.5,1.91-.17,1.32-.5,1.89c-.33.57-.79,1.03-1.35,1.37-.56.34-1.19.5-1.89.5ZM711.26,15.14c.4,0,.73-.14,1.01-.42.27-.28.41-.62.41-1s-.14-.74-.41-1.02c-.27-.28-.61-.42-1.01-.42s-.72.14-1.01.42c-.28.28-.43.62-.43,1.02s.14.72.43,1c.29.28.62.42,1.01.42Z"/>
    </g>
  </g>
</svg>