<?xml version="1.0" encoding="UTF-8"?>
<svg id="_レイヤー_1" xmlns="http://www.w3.org/2000/svg" version="1.1" xmlns:xlink="http://www.w3.org/1999/xlink" viewBox="0 0 50 66.2">
  <!-- Generator: Adobe Illustrator 29.7.1, SVG Export Plug-In . SVG Version: 2.1.1 Build 8)  -->
  <defs>
    <style>
      .st0 {
        fill: url(#_名称未設定グラデーション_5);
      }

      .st1 {
        fill: url(#_名称未設定グラデーション_6);
      }

      .st2 {
        fill: url(#_名称未設定グラデーション_2);
      }

      .st3 {
        fill: url(#_名称未設定グラデーション);
      }

      .st4 {
        fill: none;
        stroke: #fff;
        stroke-linecap: round;
        stroke-linejoin: round;
        stroke-width: 0px;
      }

      .st5 {
        fill: url(#_名称未設定グラデーション_8);
      }

      .st6 {
        fill: url(#_名称未設定グラデーション_4);
      }

      .st7 {
        fill: url(#_名称未設定グラデーション_3);
      }

      .st8 {
        fill: url(#_名称未設定グラデーション_10);
      }

      .st9 {
        fill: url(#_名称未設定グラデーション_7);
      }

      .st10 {
        fill: url(#_名称未設定グラデーション_9);
      }
    </style>
    <linearGradient id="_名称未設定グラデーション" data-name="名称未設定グラデーション" x1="17" y1="39.6" x2="22.2" y2="39.6" gradientTransform="translate(0 62.4) scale(1 -1)" gradientUnits="userSpaceOnUse">
      <stop offset="0" stop-color="#00cbd4"/>
      <stop offset="1" stop-color="#0071bc"/>
    </linearGradient>
    <linearGradient id="_名称未設定グラデーション_2" data-name="名称未設定グラデーション 2" x1="17.4" y1="38.6" x2="21.8" y2="38.6" gradientTransform="translate(0 62.4) scale(1 -1)" gradientUnits="userSpaceOnUse">
      <stop offset="0" stop-color="#00cbd4"/>
      <stop offset="1" stop-color="#0071bc"/>
    </linearGradient>
    <linearGradient id="_名称未設定グラデーション_3" data-name="名称未設定グラデーション 3" x1="17.3" y1="43.1" x2="21.8" y2="43.1" gradientTransform="translate(0 62.4) scale(1 -1)" gradientUnits="userSpaceOnUse">
      <stop offset="0" stop-color="#00cbd4"/>
      <stop offset="1" stop-color="#0071bc"/>
    </linearGradient>
    <linearGradient id="_名称未設定グラデーション_4" data-name="名称未設定グラデーション 4" x1="17.4" y1="49.6" x2="21.8" y2="49.6" gradientTransform="translate(0 62.4) scale(1 -1)" gradientUnits="userSpaceOnUse">
      <stop offset="0" stop-color="#00cbd4"/>
      <stop offset="1" stop-color="#0071bc"/>
    </linearGradient>
    <linearGradient id="_名称未設定グラデーション_5" data-name="名称未設定グラデーション 5" x1="17.6" y1="31.8" x2="22" y2="31.8" gradientTransform="translate(0 62.4) scale(1 -1)" gradientUnits="userSpaceOnUse">
      <stop offset="0" stop-color="#00cbd4"/>
      <stop offset="1" stop-color="#0071bc"/>
    </linearGradient>
    <linearGradient id="_名称未設定グラデーション_6" data-name="名称未設定グラデーション 6" x1="17.8" y1="25.9" x2="21.9" y2="25.9" gradientTransform="translate(0 62.4) scale(1 -1)" gradientUnits="userSpaceOnUse">
      <stop offset="0" stop-color="#00cbd4"/>
      <stop offset="1" stop-color="#0071bc"/>
    </linearGradient>
    <linearGradient id="_名称未設定グラデーション_7" data-name="名称未設定グラデーション 7" x1="17.3" y1="19.2" x2="21.3" y2="19.2" gradientTransform="translate(0 62.4) scale(1 -1)" gradientUnits="userSpaceOnUse">
      <stop offset="0" stop-color="#00cbd4"/>
      <stop offset="1" stop-color="#0071bc"/>
    </linearGradient>
    <linearGradient id="_名称未設定グラデーション_8" data-name="名称未設定グラデーション 8" x1="17.8" y1="13.9" x2="21.7" y2="13.9" gradientTransform="translate(0 62.4) scale(1 -1)" gradientUnits="userSpaceOnUse">
      <stop offset="0" stop-color="#00cbd4"/>
      <stop offset="1" stop-color="#0071bc"/>
    </linearGradient>
    <linearGradient id="_名称未設定グラデーション_9" data-name="名称未設定グラデーション 9" x1="17.5" y1="8.2" x2="21.7" y2="8.2" gradientTransform="translate(0 62.4) scale(1 -1)" gradientUnits="userSpaceOnUse">
      <stop offset="0" stop-color="#00cbd4"/>
      <stop offset="1" stop-color="#0071bc"/>
    </linearGradient>
    <linearGradient id="_名称未設定グラデーション_10" data-name="名称未設定グラデーション 10" x1="19.6" y1="34.6" x2="19.7" y2="34.6" gradientTransform="translate(0 62.4) scale(1 -1)" gradientUnits="userSpaceOnUse">
      <stop offset="0" stop-color="#00cbd4"/>
      <stop offset="1" stop-color="#0071bc"/>
    </linearGradient>
  </defs>
  <g>
    <path class="st3" d="M17.6,6.6h2.8l.2.3c-.6.5-1.1.9-1.6,1.2.2,0,.3-.1.5-.1s.2,0,.3,0c.1,0,.2.2.2.3s0,0,0,.1c0,.2,0,.4,0,.6s0,.2,0,.2c0,0,.3,0,.6,0s.6,0,.9,0v.4c-.2,0-.6,0-.9,0s-.7,0-.8,0c0,0-.2-.1-.2-.2,0,0,0-.2,0-.3,0-.3,0-.5,0-.7h0c0-.2,0-.3-.2-.3s-.4.1-.7.3c-.3.2-.8.6-1.3,1.2l-.3-.3c1-.9,1.9-1.8,2.9-2.5h-2.3v-.4ZM19.8,5.7c0,.7-.7.8-.9.3-.1-.7,0-.9.2-1.3.3-.5.7.5.7.8v.2h0ZM20.1,16.7c0,.7-.7.8-.9.3-.1-.7,0-.9.2-1.3.3-.5.7.5.7.8v.2h0ZM21.1,40.1c0,.7-.7.8-.9.3-.1-.7,0-.9.2-1.3.3-.5.7.5.7.8v.2h0ZM22.2,40.5c0,.7-.7.8-.9.3-.1-.7,0-.9.2-1.3.3-.5.7.5.7.8v.2h0Z"/>
    <path class="st2" d="M17.5,22.2h1.7c0-.2-.1-.4-.2-.6h.4c0,.1.1.4.2.6h1.8v.4h-1.7c.1.3.2.6.4.9h1.7v.4h-1.5c.2.3.4.6.6.9h-.4c-.2-.2-.4-.6-.6-.9h-2.4v-.4h2.2c-.1-.3-.2-.6-.4-.9h-1.8v-.4h0ZM20.9,26.1c-.3,0-.6,0-.9,0-.7,0-1.2,0-1.5-.1-.5-.2-.8-.5-.8-.9s0-.4.2-.5l.3.2c0,.1,0,.2,0,.4,0,.3.2.5.6.6.3,0,.7.1,1.2.1s.6,0,.9,0v.4s0,0,0,0Z"/>
    <path class="st7" d="M17.9,17.7h2.8l.2.3c-.6.5-1.1.9-1.6,1.2.2,0,.3-.1.5-.1s.2,0,.3,0c.1,0,.2.2.2.3s0,0,0,.1c0,.2,0,.4,0,.6s0,.2,0,.2c0,0,.3,0,.6,0s.6,0,.9,0v.4c-.2,0-.6,0-.9,0s-.6,0-.8,0c-.1,0-.2-.1-.2-.2,0,0,0-.2,0-.3,0-.3,0-.5,0-.7h0c0-.2,0-.3-.2-.3s-.4.1-.7.3c-.3.2-.8.6-1.3,1.2l-.3-.3c1-.9,1.9-1.8,2.9-2.5h-2.3v-.4h0Z"/>
    <path class="st6" d="M17.5,11.1h1.7c0-.2-.1-.4-.2-.6h.4c0,.1.1.4.2.6h1.8v.4h-1.7c.1.3.2.6.4.9h1.7v.4h-1.5c.2.3.4.6.6.9h-.4c-.2-.2-.5-.6-.6-.9h-2.4v-.4h2.2c-.1-.3-.2-.6-.4-.9h-1.8v-.4h0ZM20.9,15c-.3,0-.6,0-.9,0-.7,0-1.2,0-1.5-.1-.5-.2-.8-.5-.8-.9s0-.4.2-.5l.3.2c0,.1,0,.2,0,.4,0,.3.2.5.6.6.3,0,.7.1,1.2.1s.6,0,.9,0v.4s0,0,0,0Z"/>
    <path class="st0" d="M17.9,29.3l1.8-1.4,2.1,1.4.3.2c-.1.6-.4,1-.8,1.4-.2.2-.5.3-.8.5l-.2-.3c.5-.2.9-.4,1.2-.8.1-.2.2-.4.3-.6h-.2l-.3-.2-.4.2-.2-.2-.4.2-.3-.2-.4.2-.3-.2-.5.2-.3-.2-.5.2s.3-.3.3-.3ZM19.4,30.2h.4v.4c0,.7,0,1.2-.2,1.5-.2.5-.6.8-1.1,1.1l-.3-.3c.4-.2.7-.4.9-.7.1-.2.2-.4.3-.6,0-.3,0-.6,0-1.1v-.4h0Z"/>
    <path class="st1" d="M19.4,35.4c-.5-.2-1-.4-1.6-.5v-.4c.8.2,1.4.3,1.8.5v.4ZM17.8,38.1c.7,0,1.3-.2,1.7-.3,1.1-.4,1.7-1.3,2-2.7l.4.3c-.2.8-.4,1.4-.8,1.8-.4.5-.9.9-1.6,1.1-.4.1-1,.2-1.6.3v-.4c-.1,0,0,0,0,0Z"/>
    <path class="st9" d="M17.3,41.2h3.5l.4.4c0,.8-.2,1.4-.4,1.8-.2.5-.6.9-1.1,1.2-.4.2-.9.4-1.6.6l-.2-.4c1-.2,1.6-.5,2.1-1,.4-.5.7-1.2.7-2.2h-3.5v-.4h0Z"/>
    <path class="st5" d="M17.8,46.2h.4v4c.8-.2,1.5-.6,2.2-1.2.4-.4.8-.8,1-1.2l.3.4c-.4.6-.8,1-1.4,1.5-.7.5-1.4.8-2.2,1.1l-.3-.3v-4.2h0Z"/>
    <path class="st10" d="M17.5,53.2h4.2c0,.8-.2,1.4-.5,1.8-.2.4-.6.7-1,.9-.4.2-.9.3-1.5.4l-.2-.4c.9-.1,1.5-.3,1.9-.7.4-.4.7-.9.8-1.6h-3.7v-.4h0ZM17.8,52h3.3v.4h-3.3v-.4Z"/>
    <rect class="st8" x="19.6" y="27.7" width=".2" height=".2" rx="0" ry="0"/>
  </g>
  <line class="st4" x1="19.7" y1="28" x2="18.2" y2="29.3"/>
  <line class="st4" x1="19.7" y1="28" x2="19" y2="29.2"/>
  <line class="st4" x1="19.7" y1="29.3" x2="19.7" y2="28"/>
  <line class="st4" x1="20.3" y1="29.3" x2="19.7" y2="28"/>
  <line class="st4" x1="20.9" y1="29.2" x2="19.7" y2="28"/>
  <line class="st4" x1="21.5" y1="29.3" x2="19.7" y2="28"/>
</svg>