<?xml version="1.0" encoding="UTF-8"?>
<svg id="_レイヤー_1" data-name="レイヤー 1" xmlns="http://www.w3.org/2000/svg" viewBox="0 0 370 320">
  <defs>
    <style>
      .cls-1 {
        stroke-miterlimit: 10;
      }

      .cls-1, .cls-2, .cls-3, .cls-4 {
        fill: none;
      }

      .cls-1, .cls-3, .cls-4 {
        stroke: #000;
      }

      .cls-5 {
        fill: #fdffd0;
      }

      .cls-6 {
        fill: #d0e0ff;
      }

      .cls-7 {
        fill: #ffefb9;
      }

      .cls-8 {
        fill: #fff;
      }

      .cls-9 {
        fill: #b8e4ff;
      }

      .cls-10 {
        fill: #ffb9cb;
      }

      .cls-3, .cls-4 {
        stroke-linecap: round;
        stroke-linejoin: round;
      }

      .cls-11 {
        fill: #96b573;
      }

      .cls-12 {
        fill: #fcffe7;
      }

      .cls-13 {
        fill: #ff8b9b;
      }

      .cls-4 {
        stroke-width: .5px;
      }

      .cls-14 {
        fill: #ff797e;
      }

      .cls-15 {
        fill: #ffa5b6;
      }

      .cls-16 {
        fill: #bbd1ff;
      }

      .cls-17 {
        fill: #ffd0e4;
      }

      .cls-18 {
        fill: #b9f0ff;
      }

      .cls-19 {
        fill: #f3ffa2;
      }

      .cls-20 {
        fill: #8aa300;
      }

      .cls-21 {
        fill: #a2002d;
      }
    </style>
  </defs>
  <g id="black">
    <g id="monokuro">
      <path d="M193.59,104.01l-.43,1.77c-3.83.95-6.99,2.13-9.5,3.54-2.51,1.42-5.88,3.99-10.14,7.73-11.31,9.88-21.16,17.46-29.54,22.75,2.41,2.98,4.47,6.31,6.17,9.99,1.7,3.69,4.66,12.17,8.87,25.45,3.78,11.86,7.64,19.87,11.57,24.03,3.93,4.16,7.92,6.24,11.99,6.24s6.6-2.08,8.02-6.24c.85-2.46,1.58-3.97,2.2-4.54.85-.76,1.8-1.13,2.84-1.13,1.13,0,2.1.39,2.91,1.17.8.78,1.21,1.71,1.21,2.8,0,2.84-1.68,5.58-5.04,8.22-3.36,2.65-7.61,3.97-12.77,3.97-4.45,0-8.67-1.14-12.66-3.4-4-2.27-7.65-5.84-10.96-10.7-3.31-4.87-6.69-12.41-10.15-22.61-3.22-9.64-5.7-16.25-7.45-19.81-1.75-3.57-4.19-7.34-7.31-11.31l-7.52,28.71c-1.51,5.81-2.46,9.97-2.84,12.48,3.22,1.37,6.1,2.06,8.65,2.06.61,0,1.49-.05,2.62-.14l-.92,3.54c-.94.05-1.53.07-1.77.07-1.56,0-3.77-.17-6.65-.5-3.02-.33-5.5-.5-7.43-.5-3.92,0-10.12.76-18.61,2.27l.43-3.4c4.51-.9,7.69-2.14,9.52-3.72,1.83-1.58,3.29-4.08,4.38-7.48,2.51-7.66,5.77-19.16,9.79-34.52l8.65-32.82c-9.34.57-16.72,2.69-22.15,6.38-4.2,2.79-6.3,5.91-6.3,9.36,0,1.23.58,2.79,1.74,4.68,1.06,1.7,1.6,3.07,1.6,4.11,0,1.28-.47,2.4-1.41,3.37-.94.97-2.04,1.45-3.31,1.45-1.46,0-2.76-.73-3.91-2.2-1.15-1.46-1.72-3.4-1.72-5.81,0-6.57,3.27-12.49,9.8-17.76,6.54-5.27,17.9-7.9,34.08-7.9h4.6c-2.6,6.75-4.3,11.63-5.1,14.65l-5.65,21.5c3.5-1.32,7.58-3.58,12.24-6.77,4.66-3.19,9.14-6.58,13.45-10.17,7.9-6.62,12.4-10.63,13.48-12.05.33-.47.5-.87.5-1.21,0-.38-.49-.72-1.45-1.03-.97-.31-3.7-.51-8.19-.6l.92-3.97c6.05.57,11.01.85,14.89.85s8.55-.28,13.75-.85Z"/>
      <path d="M200,120.65l.85-3.19c6.86-.66,12.72-1.61,17.59-2.84-1.17,3.32-2.43,7.65-3.78,13.01l-5.36,19.96,6.52.35c3.02.14,6.32-.61,9.89-2.27,3.57-1.65,6.76-4.56,9.57-8.72,2.81-4.16,4.22-8.65,4.22-13.47s-1.71-8.55-5.13-11.34c-3.42-2.79-8.65-4.18-15.69-4.18-8.03,0-15.88,2-23.58,5.99-7.7,3.99-13.63,9.1-17.81,15.31-4.18,6.21-6.27,12.35-6.27,18.39,0,2.98.54,5.56,1.63,7.76,1.09,2.2,3.02,4.36,5.81,6.49,2.31,1.7,3.47,3.36,3.47,4.96,0,1.04-.38,1.91-1.14,2.62s-1.66,1.06-2.7,1.06c-2.8,0-5.51-1.91-8.12-5.74-2.61-3.83-3.92-8.67-3.92-14.53,0-10.73,4.11-20.51,12.33-29.35,10.77-11.62,25.23-17.44,43.38-17.44,6.9,0,12.56.9,16.98,2.69,4.42,1.8,7.73,4.25,9.92,7.37,2.2,3.12,3.3,6.5,3.3,10.14,0,4.63-1.54,9.18-4.63,13.65-3.08,4.47-7.63,8.07-13.63,10.81-6,2.74-12.68,4.11-20.02,4.11-1.13,0-2.9-.07-5.3-.21l-5.7,22.06c-.94,3.73-2.01,7.41-3.18,11.05,3.68.9,6.89,1.34,9.62,1.34,3.44,0,7.15-.66,11.11-1.98l-.85,3.97c-3.68.99-6.8,1.49-9.35,1.49s-6.04-.26-10.76-.78c-3.78-.47-6.84-.71-9.21-.71-4.58,0-9.28.54-14.09,1.63l.85-3.76c4.91-.8,8.26-1.96,10.06-3.47,2.55-2.13,4.63-6.4,6.23-12.83l10.69-42.46c.47-1.98.71-3.38.71-4.18,0-.76-.31-1.43-.92-2.02-.61-.59-1.35-.89-2.2-.89-.33,0-.8.05-1.42.14Z"/>
      <path d="M281.37,161.21h-3.69c.52-4.96.78-8.72.78-11.27,0-3.64-.98-6.51-2.94-8.61-1.96-2.1-4.61-3.15-7.96-3.15-5.19,0-9.71,1.88-13.58,5.64-3.87,3.76-5.8,7.98-5.8,12.66,0,2.51.53,4.78,1.59,6.81,1.06,2.03,3.4,4.87,7.03,8.51,6.64,6.53,11,11.63,13.08,15.32,2.07,3.69,3.11,7.28,3.11,10.78,0,5.15-1.57,10.12-4.71,14.9-3.14,4.78-7.77,8.71-13.89,11.81-6.12,3.1-12.58,4.65-19.39,4.65s-12.37-1.75-16.98-5.25c-4.61-3.5-6.91-7.18-6.91-11.06,0-2.08.6-3.8,1.81-5.17,1.21-1.37,2.59-2.06,4.15-2.06s2.93.64,3.97,1.91c.66.76,1.32,2.46,1.98,5.1.76,3.21,1.68,5.54,2.76,6.98,1.09,1.44,2.59,2.62,4.5,3.54,1.91.92,4.01,1.38,6.27,1.38,6.76,0,12.66-2.28,17.72-6.85,5.06-4.56,7.58-9.61,7.58-15.15,0-1.89-.32-3.77-.96-5.64-.64-1.87-1.81-3.98-3.51-6.35-1.18-1.61-3.8-4.45-7.87-8.51-4.02-3.97-6.55-6.69-7.58-8.16-1.47-2.13-2.55-4.27-3.26-6.42s-1.06-4.29-1.06-6.42c0-4.3,1.44-8.63,4.32-12.98,2.88-4.35,6.63-7.81,11.24-10.39,4.61-2.58,9.84-3.87,15.7-3.87,2.93,0,6.54.45,10.85,1.35,2.46.47,4.58.83,6.38,1.06-1.04,3.07-1.84,5.97-2.41,8.68-.57,2.72-1.35,8.12-2.34,16.2Z"/>
      <g>
        <path d="M137.84,240.75c-.04-.26-.06-.39-.09-.65,1.09,0,2.04.13,2.85.38s1.42.55,1.85.91c.16.14.26.28.3.42.04.14,0,.28-.1.41-.13.15-.28.29-.46.41-.18.12-.63.39-1.36.79,1.69.07,2.79.12,3.31.22.88.17,1.58.45,2.1.84.34.26.53.6.57,1.04.04.44-.13.93-.52,1.46-.97,1.34-2.43,2.23-4.42,2.59-1.99.35-3.68-.04-4.99-1.15-.51-.44-.94-.98-1.26-1.63-1.26.69-1.89,1.04-3.17,1.7-.2.1-.34.2-.42.29-.17.19-.19.41-.06.68.2.41.77,1.11,1.73,2.08-.19.11-.29.16-.48.26-1.15-1.1-2.05-1.98-2.72-2.6-.69-.64-1.61-1.45-2.75-2.46.2-.09.3-.13.5-.22.58.5,1.07.78,1.48.85.41.07.89-.04,1.45-.33,2.91-1.53,4.34-2.34,7.13-4.01,1.3-.78,2-1.24,2.11-1.36.12-.13.1-.27-.07-.41-.28-.25-1.11-.4-2.51-.5ZM136.62,246.18c.19.89.59,1.59,1.18,2.08.85.71,2.02.83,3.45.33,1.43-.5,2.5-1.26,3.23-2.23.24-.31.33-.61.28-.9-.05-.29-.22-.55-.51-.78-.32-.25-.78-.41-1.38-.49-.93-.12-1.73-.14-2.37-.04-.46.07-1.08.35-1.87.83-.8.49-1.2.72-2.01,1.2Z"/>
        <path d="M155.29,257.83c.05.2.08.3.13.49-1.04.25-2.05.34-3.02.28-.66-.04-1.16-.16-1.5-.36-.28-.16-.45-.37-.52-.63s0-.57.2-.92c.14-.24.4-.54.79-.92.39-.38,1.31-1.14,2.73-2.32.67-.6,1.03-.96,1.1-1.09.11-.19.04-.36-.21-.5-.31-.17-.76-.26-1.36-.29-.84-.03-1.67.06-2.49.27-.52.14-1.08.48-1.69,1.01-1.11.99-1.68,1.48-2.82,2.45-.69-.44-1.03-.67-1.7-1.13,1.03-.74,1.85-1.37,2.46-1.88,2.1-1.76,3.13-2.66,5.14-4.51.92-.85,1.78-1.42,2.56-1.72.78-.29,1.62-.4,2.52-.33.9.07,1.69.28,2.38.65.29.15.48.34.59.56.1.22.1.42,0,.62-.09.17-.25.27-.48.31-.23.04-.5-.02-.78-.17-.16-.09-.37-.22-.61-.39-.54-.39-.93-.66-1.15-.79-.31-.18-.63-.21-.95-.11-.32.1-.83.5-1.52,1.18-1.5,1.47-2.26,2.19-3.81,3.61,1.31-.19,2.61-.25,3.91-.19.76.03,1.32.14,1.68.33.28.15.46.34.55.56.09.22.06.46-.07.71-.11.21-.25.4-.41.57-.28.3-.86.83-1.72,1.57-1.18,1.02-1.92,1.65-2.19,1.91-.26.26-.46.51-.6.76-.05.1-.07.18-.06.25.02.07.07.13.15.18.19.1.64.13,1.34.06.39-.03.86-.07,1.41-.12Z"/>
        <path d="M166.47,255.8c.74.29,1.26.76,1.58,1.44s.33,1.47.01,2.37c-.5,1.43-1.57,2.51-3.28,3.16-1.71.65-3.32.66-4.75.04-.88-.38-1.49-.92-1.82-1.6-.33-.68-.31-1.39.04-2.14.61-1.3,1.65-2.28,3.07-2.97,1.76-.86,3.45-.96,5.15-.3ZM165.22,256.13c-.64-.26-1.42-.13-2.36.37-.93.5-1.71,1.41-2.3,2.75-.36.81-.45,1.54-.26,2.18.14.47.46.81.95,1.02.69.29,1.46.21,2.28-.23,1.05-.57,1.81-1.52,2.29-2.8.36-.96.46-1.7.31-2.23-.15-.53-.46-.88-.92-1.07Z"/>
        <path d="M175.48,257.07c.79-.05,1.18-.08,1.97-.15-.6,1.04-.9,1.55-1.52,2.58.97.25,1.46.36,2.44.58-.14.27-.21.4-.35.67-.99-.22-1.48-.34-2.47-.59-.76,1.23-1.14,1.84-1.93,3.05-.61.9-.98,1.55-1.08,1.94-.05.18-.04.32.04.43.07.11.2.18.37.23.26.07.7.06,1.3-.05.79-.14,1.56-.35,2.29-.62.15.23.22.34.37.57-2.09.69-3.53,1.02-4.23,1.09-.7.07-1.24.05-1.63-.06-.32-.09-.54-.25-.67-.48-.13-.23-.14-.55-.02-.95.14-.47.52-1.14,1.12-2.02.96-1.42,1.43-2.13,2.35-3.57-.77-.21-1.15-.32-1.91-.55.17-.25.25-.38.42-.63.76.23,1.13.34,1.89.54.5-.79.75-1.19,1.24-1.99Z"/>
        <path d="M187.05,260.86c.78.09,1.4.42,1.87,1,.47.58.68,1.34.6,2.29-.12,1.51-.88,2.83-2.35,3.88-1.47,1.06-3.01,1.48-4.53,1.24-.94-.14-1.65-.51-2.13-1.08-.48-.57-.64-1.27-.49-2.08.27-1.41,1.02-2.62,2.19-3.65,1.47-1.28,3.06-1.8,4.85-1.6ZM185.95,261.5c-.68-.09-1.39.23-2.16.96-.77.72-1.28,1.8-1.52,3.24-.14.88-.05,1.6.29,2.18.25.42.64.67,1.16.74.73.1,1.45-.16,2.12-.8.87-.82,1.36-1.93,1.5-3.29.11-1.02.02-1.76-.26-2.24-.28-.47-.66-.74-1.15-.8Z"/>
        <path d="M205.02,260.99c.71-.07,1.27-.02,1.68.17.41.19.64.43.68.74.02.18-.04.35-.19.51s-.34.25-.58.28c-.15.02-.29,0-.41-.04s-.3-.17-.53-.38c-.44-.4-.85-.58-1.24-.55-.33.03-.61.16-.85.4-.24.23-.34.51-.32.83.02.28.12.54.31.79.19.25.63.64,1.36,1.16,1,.71,1.56,1.42,1.64,2.14.08.72-.23,1.39-.97,2.01-.73.62-1.73.98-2.98,1.06-1.05.07-1.84-.06-2.36-.37-.52-.31-.79-.71-.8-1.2,0-.24.08-.44.27-.6.18-.16.41-.25.69-.26.24-.01.45.04.63.16.18.12.27.26.28.43,0,.07,0,.16,0,.27,0,.09,0,.16,0,.23.01.23.15.41.4.55.24.14.57.2.98.18.47-.03.88-.12,1.23-.28.35-.15.61-.37.78-.64.18-.27.25-.54.23-.79-.02-.24-.14-.48-.34-.71-.21-.23-.65-.6-1.33-1.11-.94-.72-1.41-1.46-1.45-2.19-.04-.67.25-1.27.85-1.82.6-.55,1.38-.86,2.34-.96Z"/>
        <path d="M212.32,258.32c.69-.39,1.03-.59,1.7-.99-.08,1.19-.13,1.79-.24,2.99.98-.2,1.47-.31,2.45-.55,0,.3-.01.45-.02.75-.99.23-1.48.34-2.47.55-.14,1.43-.22,2.15-.4,3.58-.15,1.08-.2,1.82-.12,2.21.03.18.11.3.22.37.11.06.26.08.43.04.27-.05.65-.25,1.14-.61.65-.47,1.24-.99,1.78-1.55.23.14.35.21.59.35-1.58,1.53-2.72,2.46-3.32,2.83s-1.09.59-1.48.66c-.32.06-.59,0-.81-.14-.22-.15-.36-.43-.43-.84-.08-.49-.04-1.25.12-2.31.24-1.7.35-2.54.54-4.24-.78.14-1.17.21-1.95.33.04-.3.06-.45.1-.75.77-.13,1.16-.19,1.93-.34.1-.93.15-1.4.24-2.33Z"/>
        <path d="M226.58,256.16c.65-.25.97-.37,1.61-.64.12,1.5.16,2.25.24,3.76.1,2.19.17,3.43.27,3.7.05.12.12.2.22.24.1.04.19.04.28,0,.14-.05.29-.16.44-.33.21-.25.59-.82,1.09-1.71.22.08.33.11.55.19-1.08,2-2.09,3.13-2.89,3.42-.27.1-.53.1-.77.01-.24-.09-.42-.28-.52-.57-.12-.34-.19-.82-.21-1.44-.5.92-1.21,1.81-2.16,2.67-.63.57-1.22.93-1.77,1.09-.3.09-.56.08-.77-.02-.21-.1-.37-.32-.46-.65-.07-.26-.12-.55-.12-.86-.01-.44.03-1.36.09-2.73.08-1.74.04-2.77-.06-3.08-.06-.18-.16-.25-.32-.2-.14.04-.31.16-.52.35-.21.19-.54.61-1,1.24-.25-.08-.37-.12-.62-.2.85-1.08,1.49-1.83,1.96-2.24.47-.41.87-.67,1.2-.78.18-.06.35-.05.5.02.15.08.27.23.35.47.15.45.24,1.64.23,3.59-.01,1.75,0,2.74.07,2.96.04.14.14.24.28.3.14.06.28.07.42.03.47-.15,1.04-.66,1.68-1.55.64-.89.94-1.76.92-2.61-.05-1.77-.1-2.66-.2-4.42Z"/>
        <path d="M242.81,255.19c.21.06.31.09.52.14-.62,1.28-1.15,2.17-1.54,2.68-.54.7-1.02,1.17-1.44,1.39-.19.1-.37.15-.53.13-.16-.02-.27-.08-.33-.18-.05-.1-.1-.3-.14-.58-.07-.53-.1-.8-.18-1.33-.52,1.28-1.05,2.22-1.55,2.82-.5.6-1.02,1.03-1.54,1.27-.43.2-.86.23-1.29.07-.43-.16-.76-.52-1.02-1.08-.4-.89-.46-2.08-.24-3.58.22-1.49.62-2.73,1.23-3.71.61-.99,1.25-1.67,1.96-2.06.16-.09.41-.2.75-.33-.31-1.35-.48-2.37-.49-3.07,0-.7.1-1.37.33-2.03.23-.65.56-1.26,1-1.83.44-.57.9-1.01,1.39-1.34.26-.17.5-.25.74-.24s.41.11.54.29c.12.17.15.37.08.57-.07.21-.23.4-.48.56-.16.11-.49.28-.97.52-.49.23-.81.4-.98.5-.23.15-.4.33-.5.57-.1.23-.1.61-.02,1.12.05.33.32,1.32.76,2.98.66,2.49.97,3.74,1.53,6.27.17.75.31,1.22.42,1.43.13.23.3.28.53.15.14-.08.28-.21.42-.39.2-.26.55-.84,1.03-1.73ZM237.79,251.97c-.64.22-1.08.38-1.32.51-.49.26-.89.67-1.2,1.23-.31.56-.46,1.42-.46,2.57,0,1.15.15,2.08.48,2.77.15.32.38.52.7.62.32.09.61.07.89-.06.34-.17.66-.47.97-.91.44-.65.7-1.3.79-1.97.05-.41-.07-1.3-.36-2.66-.19-.84-.29-1.26-.49-2.09Z"/>
        <path d="M244.02,249.56c-.26,0-.4.01-.66.02.3-1.09.63-1.96,1.02-2.62.39-.65.77-1.12,1.16-1.41.22-.16.41-.24.58-.25.17,0,.31.05.4.19.12.16.4,1,.82,2.53.68,2.5,1.11,3.98,1.4,4.39.05.08.13.13.22.14.09.02.16,0,.22-.04.24-.17.61-.95,1.06-2.34.26,0,.39,0,.66,0-.46,1.45-.88,2.45-1.22,2.98-.33.53-.65.91-.96,1.11-.27.18-.52.26-.76.24s-.43-.14-.58-.36c-.47-.71-1.04-2.84-1.89-6.29-.04-.16-.1-.29-.17-.4-.08-.11-.18-.12-.3-.04-.14.1-.27.25-.38.46-.12.21-.31.77-.61,1.68ZM244.08,241.21c.2-.15.4-.21.61-.2s.38.11.52.28c.18.24.25.52.19.86-.06.33-.21.59-.46.78-.2.15-.4.21-.62.19-.22-.02-.39-.13-.53-.31-.18-.25-.24-.53-.18-.84.06-.31.21-.56.47-.75Z"/>
        <path d="M253.59,238.98c.61-.57,1.3-.86,2.07-.88s1.5.31,2.17.98c1.07,1.07,1.55,2.54,1.33,4.41-.22,1.87-.97,3.38-2.21,4.45-.76.66-1.54.99-2.31,1-.77.01-1.41-.31-1.93-.96-.9-1.12-1.31-2.5-1.28-4.09.03-1.99.74-3.6,2.15-4.91ZM253.31,240.29c-.54.49-.79,1.27-.77,2.35.02,1.08.49,2.18,1.43,3.3.57.68,1.19,1.07,1.87,1.17.5.07.96-.08,1.38-.45.59-.52.89-1.27.87-2.22-.02-1.23-.53-2.34-1.47-3.33-.71-.74-1.34-1.15-1.89-1.23-.56-.08-1.02.06-1.41.41Z"/>
      </g>
    </g>
  </g>
  <g id="color">
    <path class="cls-10" d="M66.93,114.36c-2.75-1.47-6.35-1.21-8.85.66-3.64-1.81-8.06-2-11.84-.49-1.23.49-2.43,1.19-3.13,2.31s-.74,2.73.19,3.66c-1.18.23-2.05,1.31-2.39,2.46s-.26,2.38-.17,3.58c.17,2.27.34,4.56.98,6.74s1.8,4.28,3.62,5.65c1.8,1.36,4.08,1.89,6.28,2.39,3.26.74,6.52,1.48,9.77,2.22,1.85.42,3.74.84,5.63.74s3.85-.81,5.04-2.3c1.41-1.75,1.51-4.16,2-6.35.39-1.73,1.05-3.38,1.45-5.1s.54-3.58-.12-5.22c-.44-1.11-1.27-2.04-2.34-2.57-1.44-.73-1.51-.39-1.83-2.04-.5-2.64-1.87-5.01-4.31-6.32Z"/>
    <path class="cls-13" d="M67,149.61c-2.39.72-4.78,1.57-6.79,3.06-1.03.76-1.99,1.78-2.17,3.06s.78,2.73,2.06,2.66c-.88,3.14-.35,6.65,1.42,9.39s4.74,4.68,7.96,5.18c2.66.42,5.37-.1,8.02-.62,3.87-.76,8.09-1.72,10.49-4.85,1.68-2.18,2.15-5.09,1.9-7.83-.22-2.35-.99-4.72-2.61-6.43-2.71-2.85-6.77-3.03-10.45-3.06s-6.11-1.68-9.84-.56Z"/>
    <path class="cls-5" d="M225.94,287.49c-.53.19-.99.53-1.45.86-.7.51-1.4,1.02-2.1,1.53-1.65,1.2-3.32,2.42-4.68,3.95-.63.71-1.22,1.57-1.18,2.52.03.66.35,1.26.67,1.83.42.76.84,1.52,1.3,2.25.48.76,1,1.5,1.56,2.2.43.54.89,1.06,1.43,1.48,1.73,1.34,4.29,1.47,6.15.32.79-.49,1.45-1.18,2.28-1.58.82-.39,1.75-.48,2.61-.77,2.62-.87,4.39-3.77,3.97-6.49-.17-1.11-.65-2.14-1.13-3.16-.44-.93-.89-1.89-1.64-2.59-.54-.5-1.23-.84-1.95-.98-.65-.13-1.42.13-2.03-.1s-.97-.87-1.56-1.14c-.7-.32-1.52-.38-2.24-.12Z"/>
    <path class="cls-12" d="M178.03,281.19c-.41,1.69.08,4.06-.33,5.76s-1.74,2.86-1.95,4.66c-.25,2.24-.16,4.52.27,6.73.53,2.72,1.69,5.49,3.99,7.03,1.39.94,3.06,1.34,4.69,1.72,2.92.69,5.84,1.37,8.76,2.06,2.99.7,6.14,1.41,9.11.6,2.41-.65,4.52-2.32,5.72-4.52,1.09-2,1.41-4.33,1.54-6.6.1-1.75,1.31-3.28.94-5-.51-2.33-3.77-3.73-4.93-5.82-.97-1.75-1.1-4.51-2.61-5.83-3.08-2.7-7.35-2.13-11.15-2.36-4.89-.29-9.45-.43-14.05,1.56Z"/>
    <path class="cls-18" d="M325.07,184.14c-.36.66-.65,1.4-.6,2.15s.54,1.51,1.27,1.68c-.72,1.68.72,3.87,2.55,3.87.39,1.7,2.2,2.79,3.94,2.84s3.4-.71,4.9-1.6c1.8-1.07,3.47-2.36,4.96-3.82,1.11-1.09,2.17-2.36,2.37-3.9s-.81-3.32-2.36-3.41c.27-1.26-.28-2.66-1.34-3.4s-2.55-.8-3.66-.13c-1.61-1.33-5.79-2.34-7.44-.4-.74.87-.56,1.69-1.54,2.56-1.21,1.07-2.29,2.12-3.07,3.57Z"/>
    <path class="cls-6" d="M306.71,187.44c-1.25-.16-2.58-.31-3.75.17-1.72.71-2.69,2.87-2.08,4.63-1.53.46-2.61,1.9-3.07,3.44s-.4,3.17-.34,4.78c.09,2.34.23,4.83,1.6,6.73,1.12,1.55,2.9,2.45,4.62,3.3,1.68.83,3.37,1.67,5.05,2.5,3.19,1.58,6.77,3.2,10.18,2.2,1.05-.31,2.03-.86,2.84-1.6,1.44-1.32,2.28-3.15,3.09-4.92.85-1.88,1.72-3.83,1.79-5.9s-.88-4.31-2.77-5.14c.96-1.39.79-3.37-.13-4.78s-2.46-2.33-4.08-2.81c-1.93-.57-3.96-.37-5.88-.9-2.4-.66-4.57-1.38-7.07-1.7Z"/>
    <path class="cls-8" d="M65.19,182.55c.05-.64.09-1.3-.09-1.91s-.66-1.19-1.29-1.3c-.75-.14-1.5.42-1.81,1.12s-.29,1.5-.22,2.26.18,1.54,0,2.28c-1.26-.39-2.51-.79-3.77-1.18-.46-.14-.92-.29-1.4-.25s-.97.29-1.14.74c-.18.46.04,1,.4,1.34s.84.53,1.3.71c.68.26,1.36.52,2.04.79.21.08.44.18.5.39.08.24-.11.49-.34.59s-.49.08-.74.07c-.61-.02-1.24.05-1.8.3s-1.04.72-1.22,1.3,0,1.29.5,1.65c.7.5,1.66.2,2.45-.12,1.11-.45,2.22-.89,3.33-1.34-.17.75-.34,1.5-.51,2.25-.16.69-.28,1.52.23,2.01.52.5,1.44.3,1.94-.23s.67-1.27.81-1.98.28-1.45.74-2.02c.32.73.66,1.49,1.25,2.03s1.53.79,2.21.37c.82-.5.9-1.74.41-2.58s-1.35-1.36-2.18-1.85c1.57-.31,3.08-.95,4.4-1.87.63-.44,1.28-1.12,1.09-1.86-.12-.51-.62-.86-1.14-.94s-1.04.04-1.53.2c-1.07.35-2.07.89-2.96,1.57-.33.26-.76.84-1.22.79-.57-.07-.46-.65-.43-1.06.06-.75.11-1.5.17-2.25Z"/>
    <path class="cls-11" d="M161.22,39.32c.19-.96.05-1.94.07-2.92.01-1.12.23-2.22.53-3.3.34-1.21.8-2.41,1.52-3.45s1.7-1.92,2.88-2.36c.64-.24,1.38-.34,2-.05.64.29,1.04.94,1.25,1.61.33,1.09.23,2.27-.11,3.36s-.88,2.09-1.44,3.09c-.72,1.28-1.46,2.57-2.5,3.61-1.4,1.39-3.51,2.42-5.52,2.39.64-.57,1.13-1.08,1.31-1.97Z"/>
    <path class="cls-11" d="M142.39,39.41c.01-2.34.34-4.7,1.24-6.86.26-.63.66-1.31,1.33-1.46.54-.12,1.19-.28,1.68-.02.38.2.84.3,1.21.5.43.23,1.3.51,1.69.8,1.1.83,1.17,2.64,1.31,4.01.2,1.89-.62,3.73-1.47,5.44-.46.93-.96,1.87-1.76,2.52-.9.72-3.42,2.11-4.49,1.03-.6-.61-.5-1.84-.57-2.62-.1-1.11-.16-2.23-.16-3.34Z"/>
    <path class="cls-11" d="M155.08,47.3c1.08,1.03,1.82,2.61,1.37,4.04-.43,1.36-1.85,2.23-3.27,2.34s-2.82-.41-4.05-1.12c-.88-.5-1.7-1.09-2.51-1.69-.98-.73-1.93-1.49-2.89-2.25-.52-.41-1.04-.83-1.57-1.24-.19-.15-.4-.36-.34-.59.04-.17,1.25-.49,1.44-.56.54-.2,1.08-.39,1.63-.58.79-.27,1.6-.59,2.44-.63,1.65-.07,3.49.11,5.04.66,1,.35,1.93.88,2.7,1.62Z"/>
    <path class="cls-11" d="M163.54,40.81c1.84-.28,3.78-.18,5.46.62s3.06,2.36,3.32,4.2c.14.99-.07,2.07-.76,2.79-.77.8-1.98,1.02-3.08.88-2.19-.28-4.02-1.76-5.68-3.23-.8-.71-1.6-1.42-2.47-2.04-.32-.23-2.26-1.11-2.25-1.4.03-.47,1.68-.84,2.02-.95,1.12-.37,2.26-.7,3.43-.87Z"/>
    <path class="cls-11" d="M121.98,44.1c-.1-1.35-.08-2.84.78-3.85.72-.84,1.93-1.14,2.99-.89s1.97.99,2.61,1.91,1.01,1.99,1.28,3.08c.51,2.1.61,4.36-.11,6.39-.57,1.6-2.3,4.22-4.25,3.97-1.04-.14-1.37-1.2-1.65-2.09-.41-1.3-.75-2.63-1.02-3.97-.3-1.5-.51-3.01-.62-4.54Z"/>
    <path class="cls-11" d="M127.28,53.83c2.81-.98,5.92-.36,8.79.43,1.13.31,2.38.74,2.9,1.8.42.85.22,1.93-.36,2.68s-1.49,1.2-2.43,1.38-1.9.12-2.84,0c-2.09-.25-4.15-.76-6.12-1.5-1.1-.41-5.03-1.53-3.09-3.08.91-.73,2.05-1.33,3.14-1.71Z"/>
    <path class="cls-11" d="M113.41,61.46c.35-2.03-.15-4.12-.83-6.07-.43-1.25-.95-2.49-1.74-3.55s-1.87-1.95-3.15-2.3c-1.06-.29-2.25-.18-3.19.39s-1.61,1.61-1.62,2.71c-.01.96.43,1.85.86,2.71,1.27,2.51,2.55,5.02,3.82,7.54.32.63.64,1.27.96,1.9.23.46.45,1.21.93,1.48.92.53,1.94-.79,2.43-1.41.77-.99,1.31-2.16,1.52-3.4Z"/>
    <path class="cls-11" d="M119.46,64.84c.88.04,1.78.08,2.62.36s1.63.85,1.97,1.66c.54,1.28-.19,2.83-1.33,3.62s-2.6.98-3.99,1.03c-3,.11-6.22-.4-8.47-2.4-.54-.48-1.04-1.14-.9-1.85.12-.62.68-1.05,1.21-1.41.58-.4,1.28-1.09,1.95-1.29.57-.17,1.37.02,1.96.05,1.66.07,3.32.11,4.97.22Z"/>
    <path class="cls-11" d="M97.77,78.57s.06-.01.09-.02c.68-.1,1.43,0,2.12-.06,1.04-.09,2.08-.18,3.12-.26,1.25-.11,2.55-.2,3.72.25s2.16,1.63,1.96,2.87c-.12.75-.65,1.39-1.3,1.79s-1.4.58-2.15.71c-3.11.51-6.37.03-9.19-1.37-.47-.23-1-.63-.92-1.15.1-.61,1.06-1.11,1.39-1.64s.55-.98,1.16-1.11Z"/>
    <path class="cls-11" d="M93.31,66.08c-.4-.6-.84-1.2-1.44-1.6s-1.41-.56-2.06-.24c-.4.2-.7.55-.93.93-1.08,1.72-.98,3.97-.25,5.86s2.03,3.51,3.3,5.09c1.31,1.62,2.3,3.25,3.3,5.06,1.58-1.21,2.72-2.5,2.34-4.52-.45-2.38-1.17-4.71-2.2-6.91-.59-1.27-1.28-2.49-2.05-3.66Z"/>
    <path class="cls-11" d="M84.97,87.93c-.13-1.37-.26-2.74-.61-4.07-.36-1.38-1-2.76-2.14-3.61s-2.88-1.03-3.96-.1c-.77.67-1.08,1.76-1.01,2.78s.46,1.99.87,2.92c1.44,3.22,3.26,6.27,5.41,9.07.56-.84,1.64-1.93,1.78-2.95.18-1.24-.23-2.79-.35-4.03Z"/>
    <path class="cls-11" d="M94.8,91.45c1.08.07,2.17.22,3.13.72s1.76,1.41,1.86,2.48c.15,1.46-1.05,2.8-2.45,3.26s-2.92.22-4.35-.14c-3.2-.82-6.34-2.27-9.63-2.01.11,0,1.13-2.17,1.31-2.42.35-.5.7-.91,1.3-1.09,1.68-.5,3.58-.7,5.32-.82,1.17-.08,2.35-.07,3.52,0Z"/>
    <path class="cls-20" d="M93.86,78.19c.19.76.64,1.49,1.35,1.83.43.21.92.25,1.39.3,1.22.11,2.45.23,3.67.34,1.68.16,3.77-.56,2.75-2.65-.65-1.34-3.73,1.21-4.84.14s-1.12-5.86-2.59-5.26c-2.05.84-2.21,3.38-1.73,5.3Z"/>
    <path class="cls-20" d="M81.9,91.56c.19.76.64,1.49,1.35,1.83.43.21.92.25,1.39.3,1.22.11,2.45.23,3.67.34,1.68.16,3.77-.56,2.75-2.65-.65-1.34-3.73,1.21-4.84.14s-1.12-5.86-2.59-5.26c-2.05.84-2.21,3.38-1.73,5.3Z"/>
    <path class="cls-20" d="M108.5,64.98c.19.76.98,1.14,1.35,1.83.18.35-.07.89.27,1.22.7.69,2.59,2.6,3.82,2.71,1.68.16,4.75-3.86,3.73-5.95-.65-1.34-4.99,1-5.13-.54-.1-1.08,2.55-4.52-2.31-4.58-2.21-.03-2.21,3.38-1.73,5.3Z"/>
    <path class="cls-20" d="M123.86,54.66c.19.76-1.56,1.4.81,2.38.44.18,1.45-.29,1.93-.25,1.22.11,2.45.23,3.67.34,1.68.16,3.77-.56,2.75-2.65-.65-1.34-5.63-.45-4.85-1.77.65-1.11,1.34-3.63-2.58-3.35-2.21.16-2.21,3.38-1.73,5.3Z"/>
    <path class="cls-20" d="M160.3,41.77c-1.5.33-1.56,1.4.81,2.38.44.18,1.45-.29,1.93-.25,1.22.11,2.45.23,3.67.34,1.68.16,3.68.19,2.66-1.9-.65-1.34-5.55-1.2-4.76-2.53.65-1.11,1.09-4.75-2.58-3.35-1.11.43.03,4.91-1.73,5.3Z"/>
    <path class="cls-20" d="M142.89,46.16c.19.76-1.56,1.4.81,2.38.44.18,1.45-.29,1.93-.25,1.22.11,2.45.23,3.67.34,1.68.16,3.77-.56,2.75-2.65-.65-1.34-5.63-.45-4.85-1.77.65-1.11,1.34-3.63-2.58-3.35-2.21.16-2.21,3.38-1.73,5.3Z"/>
    <path class="cls-8" d="M84.14,203.21c.05-.64.09-1.3-.09-1.91s-.66-1.19-1.29-1.3c-.75-.14-1.5.42-1.81,1.12s-.29,1.5-.22,2.26.18,1.54,0,2.28c-1.26-.39-2.51-.79-3.77-1.18-.46-.14-.92-.29-1.4-.25s-.97.29-1.14.74c-.18.46.04,1,.4,1.34s.84.53,1.3.71c.68.26,1.36.52,2.04.79.21.08.44.18.5.39.08.24-.11.49-.34.59s-.49.08-.74.07c-.61-.02-1.24.05-1.8.3s-1.04.72-1.22,1.3,0,1.29.5,1.65c.7.5,1.66.2,2.45-.12,1.11-.45,2.22-.89,3.33-1.34-.17.75-.34,1.5-.51,2.25-.16.69-.28,1.52.23,2.01.52.5,1.44.3,1.94-.23s.67-1.27.81-1.98.28-1.45.74-2.02c.32.73.66,1.49,1.25,2.03s1.53.79,2.21.37c.82-.5.9-1.74.41-2.58s-1.35-1.36-2.18-1.85c1.57-.31,3.08-.95,4.4-1.87.63-.44,1.28-1.12,1.09-1.86-.12-.51-.62-.86-1.14-.94s-1.04.04-1.53.2c-1.07.35-2.07.89-2.96,1.57-.33.26-.76.84-1.22.79-.57-.07-.46-.65-.43-1.06.06-.75.11-1.5.17-2.25Z"/>
    <path class="cls-19" d="M83.63,206.22c-.27-.13-.6-.13-.87.01s-.46.41-.5.7c-.07.46.25.96.7,1.08s.98-.15,1.15-.58-.04-.99-.46-1.2"/>
    <path class="cls-21" d="M312.48,223.9c.45-.06.91-.12,1.36-.04s.89.3,1.14.69c.25.41.25.94.07,1.39s-.51.82-.87,1.14c-1.1.98-3.67,2.4-4.69.58-1.21-2.15,1.26-3.52,2.99-3.76Z"/>
    <path class="cls-21" d="M301.42,220.45c-.01-.74,5.12-.37,3.8,2.46-1.15,2.47-3.77-.97-3.8-2.46Z"/>
    <path class="cls-21" d="M315.15,239.75c1.38.48,2.48,1.71,2.8,3.14-.78.29-1.66.22-2.44-.05s-1.5-.71-2.21-1.14c-.92-.57-2.78-1.15-1.16-1.87.91-.41,2.09-.39,3.02-.07Z"/>
    <path class="cls-21" d="M288.53,235.1c-.14-1.05.9-1.99,1.96-2,1.7,0,4.36,3.06,3.01,4.65s-4.77-1.17-4.96-2.65Z"/>
    <path class="cls-21" d="M309.72,254.23c-1.19,1.43-4.88-.9-3.61-2.72,1.44-2.07,4.89,1.19,3.61,2.72Z"/>
    <path class="cls-21" d="M284.8,243.95c-.9-.51-2.16-.51-2.89.22-.63.63-.72,1.68-.36,2.5.61,1.4,3.61,3.22,5.19,2.43,1.95-.98-.79-4.51-1.94-5.15Z"/>
    <path class="cls-21" d="M308.51,259.98c.62.5,1.15,1.17,1.24,1.96.1.93-.47,1.85-1.29,2.31s-1.82.49-2.72.25c-.78-1.2-2.96-3.46-1.99-5.03s3.7-.33,4.76.51Z"/>
    <path class="cls-21" d="M273.31,255.2c-.37-1-1.26-1.84-2.32-1.99s-2.22.48-2.52,1.51c-.32,1.08.36,2.26,1.3,2.88.67.44,2.34,1.23,3.15.75.93-.55.7-2.32.39-3.15Z"/>
    <path class="cls-21" d="M288.94,265.95c.93-.22,2.01-.03,2.63.69.52.61.56,1.67-.1,2.13-1.55,1.06-6.42-1.88-2.53-2.82Z"/>
    <path class="cls-21" d="M284.01,278.29c.67.58.77,1.72.2,2.4-.52.63-1.45.81-2.22.57-1.15-.36-2.84-2.24-1.91-3.48.78-1.04,3.12-.19,3.93.51Z"/>
    <path class="cls-21" d="M260.24,263.65c-.24-1.13-1.12-2.21-2.13-2.18-.59.02-1.13.43-1.43.99s-.35,1.28-.23,1.94c.22,1.21,1.49,2.94,2.72,2.81,1.32-.14,1.32-2.39,1.07-3.57Z"/>
    <path class="cls-21" d="M268.06,287.85c.42.03.85.09,1.21.31.54.33.83,1.06.56,1.63-.24.5-.83.75-1.39.72s-1.07-.27-1.55-.54c-.3-.17-.6-.36-.82-.63-.21-.27-.69-1.19-.26-1.44.25-.14.78-.08,1.06-.09.39,0,.79,0,1.18.03Z"/>
    <path class="cls-11" d="M51.02,209.63c-1.94-2.95-2.82-6.58-2.44-10.08,3.34.93,6.33,3.09,8.26,5.97,1,1.49,1.7,3.17,2.1,4.91.22.99,1.02,4.18-.06,4.91-2.02,1.36-6.94-4.31-7.86-5.71Z"/>
    <path class="cls-11" d="M95.17,215.16c1.6-.06,3.06.89,4.21,2,2.7,2.63,5.49,8.54,3.76,12.36-.67,1.48-2.48,1.98-3.86,1.14-1.9-1.17-2.73-4.51-3.27-6.52-.8-2.91-1.08-5.97-.84-8.98Z"/>
    <path class="cls-11" d="M64.42,254.37c-3.6-3.37-5.73-8.27-5.73-13.2,0,.02,6.46,2.89,7.06,3.26,2.27,1.43,4.35,3.16,6.18,5.12s3.4,4.16,4.65,6.53c.39.73,1.62,2.45.85,3.13-.67.58-3.62-.2-4.41-.38-3.19-.69-6.21-2.24-8.6-4.47Z"/>
    <path class="cls-20" d="M76.71,255.68c-.68-.79-1.36-1.57-2.04-2.36-.94-1.09-1.89-2.18-3.03-3.06s-2.49-1.54-3.93-1.63c-.22,1.5-.23,3.04.13,4.51s1.13,2.86,2.28,3.84c1.67,1.41,3.96,1.84,6.07,1.99.66.05,1.66.18,1.87-.64.23-.92-.82-2.03-1.36-2.65Z"/>
    <path class="cls-20" d="M98.99,230.65c-.68-.7-1.38-1.44-1.71-2.36s-.18-2.09.6-2.67c.73-.55,1.83-.41,2.56.14s1.15,1.43,1.38,2.31c.2.79.27,1.64.05,2.43-.13.46-.61,1.56-1.19,1.62s-1.34-1.11-1.7-1.48Z"/>
    <path class="cls-20" d="M54.66,213.95c-.83-.66-1.68-1.36-2.12-2.32s-.32-2.26.54-2.88c.79-.56,1.91-.37,2.75.11,1.13.63,2,1.71,2.38,2.95.27.88.52,2.79-.37,3.45-.94.69-2.49-.75-3.19-1.3Z"/>
    <path class="cls-17" d="M319.32,161.5c.67,2.1,2.15,3.86,3.88,5.22s3.71,2.35,5.7,3.31c.29-.41.25-.97.03-1.42s-.57-.81-.92-1.17c-3.2-3.35-5.52-7.54-6.66-12.03-.22-.86-.38-2.04-.98-2.73-.47-.54-.53-.07-.66.46-.14.56-.27,1.11-.39,1.67-.46,2.19-.69,4.52,0,6.69Z"/>
    <path class="cls-13" d="M303.19,131.52c.1,2.37.32,4.77,1.18,6.98s2.45,4.23,4.65,5.14c.16-1.98.32-3.97.48-5.95,1.87,1.61,3.75,3.22,5.62,4.84,1.17-3.51.93-7.47-.65-10.82-1.31-2.78-3.92-5.97-6.99-6.84-4.07-1.15-4.4,3.86-4.29,6.66Z"/>
    <path class="cls-13" d="M332.7,171.14c1.05-4.22.8-8.74-.69-12.82s-4.22-7.7-7.74-10.25c-1.79-1.3-3.65-1.88-3.72.84-.05,2.11.3,4.28.82,6.32,1.07,4.16,3.13,8.07,5.97,11.29.45.51,5.36,4.58,5.35,4.62Z"/>
    <path class="cls-10" d="M298.74,133.36c-.91,2.63-.91,5.57,0,8.2s2.73,4.94,5.08,6.44c.85-2.02,1.72-4.19,1.32-6.34-.19-1.04-.66-2.01-1.06-2.99-.54-1.32-.94-2.7-1.2-4.1s-.12-2.91-.5-4.25c-1-3.49-3.2,1.75-3.64,3.04Z"/>
    <path class="cls-10" d="M313.67,157.72c.09,2.69,1.1,5.28,2.51,7.58s3.2,4.32,4.98,6.34c.68.77,1.61,1.62,2.59,1.31.7-.22,1.1-.97,1.2-1.7.17-1.28-.38-2.56-1.14-3.62s-1.71-1.95-2.5-2.97c-2.49-3.24-3.13-7.82-1.62-11.62.39-.98.91-1.95.86-3-.06-1.11-1.11-2.2-2.25-1.87-1.07.32-2.03,1.75-2.62,2.63-1.36,2.02-2.09,4.47-2.02,6.91Z"/>
    <path class="cls-11" d="M286.33,114.61c.77,3.07,2.69,5.84,5.31,7.64.42.29.95.57,1.43.39.56-.21.74-.9.81-1.5.7-5.59-.71-11.43-3.87-16.09-.38-.56-2.14.07-2.54.41-.64.55-.9,1.87-1.1,2.65-.55,2.12-.57,4.38-.04,6.51Z"/>
    <path class="cls-11" d="M316.65,86.86c1.44,2.1,3.29,3.88,5.23,5.53,3.1,2.63,6.47,4.94,10.04,6.88.1-1.86.09-3.72-.05-5.57-.08-1.11-.21-2.23-.63-3.27-.43-1.06-1.14-1.98-1.87-2.85-2.23-2.67-4.82-5.14-8-6.54-1.91-.84-4.01-1.26-6.09-1.24-.83,0-2.16-.17-1.73.98.37.99.83,1.96,1.29,2.9.53,1.1,1.13,2.17,1.82,3.18Z"/>
    <path class="cls-11" d="M329.81,131.2c.39,2.19,1.24,4.34,2.69,6.03s3.52,2.9,5.74,3.07c.3.02.63.02.85-.19.23-.21.26-.56.27-.87.12-5.11-2.09-10.23-5.89-13.64-.83-.75-3.3-2.34-3.8-.44s-.19,4.23.13,6.05Z"/>
    <path class="cls-20" d="M286.94,110.1c.37.85,1.16,1.54,2.08,1.62,1.21.11,2.33-.89,2.61-2.07.23-1.02-.08-2.1-.66-2.95-.46-.68-1.47-1.87-2.38-1.85-1.96.03-2.19,4.02-1.65,5.26Z"/>
    <path class="cls-20" d="M329.51,128.02c.98,1.2,2.67,1.78,4.17,1.42.67-.16-.28-2.41-.46-2.69-.61-.9-1.6-1.53-2.62-1.88-2.5-.86-2.26,1.72-1.09,3.15Z"/>
    <path class="cls-20" d="M317.01,81.07c.73.69.98,1.74,1.15,2.73.32,1.91.47,3.84.43,5.78-1.57-.86-2.75-2.32-3.57-3.92-.6-1.18-1.71-3.21-1.37-4.6.37-1.5,2.59-.74,3.37,0Z"/>
    <path class="cls-4" d="M82.25,203.96c0,.75.21,1.5.58,2.15"/>
    <path class="cls-4" d="M83.36,204.43v1.57"/>
    <path class="cls-4" d="M78.95,206.2c.85.08,1.66.49,2.23,1.12"/>
    <path class="cls-4" d="M87.11,206.23c-.98.29-1.95.64-2.88,1.06"/>
    <path class="cls-4" d="M83.65,208.53c-.5.88-.69,1.94-.52,2.94"/>
    <g id="monokuro-2" data-name="monokuro">
      <path class="cls-3" d="M97.78,78.65l4.97-.57c1.35-.16,2.75-.3,4.02.15s2.37,1.72,2.17,3.06c-.17,1.11-1.17,1.94-2.25,2.25s-2.49.85-3.6.74c-3.57-.36-4.89-1.94-8.47-2.3"/>
      <g>
        <path d="M162.67,71.71c.02.11.03.16.04.27-.65.5-1.15.98-1.5,1.42-.35.44-.78,1.12-1.25,2.05-1.25,2.45-2.25,4.49-3.15,6.11.65.06,1.26.21,1.84.44.58.24,1.77.9,3.49,2.06,1.54,1.03,2.73,1.64,3.63,1.78.89.15,1.63.06,2.22-.29.58-.33.82-.81.75-1.46-.04-.38-.04-.64.02-.76.08-.17.2-.29.36-.38.17-.09.35-.12.52-.08.18.04.3.13.37.27.19.36.11.85-.21,1.45s-.85,1.11-1.59,1.55c-.64.37-1.33.6-2.08.69-.75.09-1.55,0-2.43-.26-.88-.26-2-.8-3.38-1.62-1.3-.77-2.26-1.25-2.85-1.45-.58-.2-1.3-.34-2.15-.4.56,1.68.86,2.51,1.48,4.15.32.83.58,1.4.76,1.72.58-.23,1.05-.49,1.41-.78.09-.07.21-.18.36-.31.07.2.11.3.19.51-.13.11-.21.18-.24.21-.22.18-.55.41-.98.71-.45.31-.81.59-1.07.83-.54.47-1.32,1.31-2.28,2.56-.12-.16-.17-.24-.29-.41.51-.68.81-1.21.91-1.61.09-.4.05-.85-.12-1.35-.39-1.14-1.03-2.8-1.84-5.02-.69-1.9-1.02-2.87-1.62-4.82-1.52,1.33-2.52,2.64-3.02,3.83-.39.91-.4,1.55-.06,1.91.12.13.37.21.73.24.33.03.55.09.65.2.13.13.17.32.12.56-.05.24-.16.44-.35.63-.22.21-.48.32-.8.34-.32.02-.6-.09-.85-.34-.67-.67-.79-1.78-.28-3.31.51-1.53,2.12-3.53,4.91-5.67.32-.24.48-.36.8-.6.13,1.12.27,1.9.4,2.35.38,1.28.58,1.91.99,3.17.43-.59.89-1.35,1.38-2.29.49-.93.96-1.86,1.41-2.79.82-1.71,1.33-2.7,1.42-2.99.02-.09.02-.16,0-.2-.03-.05-.14-.04-.34.03-.2.07-.71.35-1.51.86-.06-.24-.09-.35-.15-.59,1.13-.64,2.05-1.15,2.76-1.57.73-.43,1.55-.95,2.48-1.54Z"/>
        <path d="M166.82,75.83c-.24-.09-.37-.14-.61-.23.27-.37.41-.56.69-.92.68-.9,1.2-1.49,1.52-1.8.18-.17.36-.3.54-.38.18-.08.39-.08.62,0,1.06.37,2.09,1.06,3.06,2.05s1.66,2.08,2.09,3.21c.06.15.13.37.23.68.56-2.49.74-4.33.34-5.51-.08-.25-.27-.55-.56-.9-.31-.39-.51-.69-.57-.89-.07-.19-.04-.37.08-.55.12-.18.31-.31.56-.4.31-.1.59-.1.84.01.25.11.42.33.53.66.27.84.34,1.97.26,3.38-.08,1.41-.37,3.01-.82,4.79-.44,1.78-.86,3.17-1.32,4.17-.46,1-.94,1.8-1.47,2.41-.53.61-1.08,1.06-1.66,1.37-.44.23-.81.34-1.12.32-.3-.02-.52-.13-.63-.33-.1-.18-.1-.38,0-.61.1-.23.31-.42.61-.59.23-.13.57-.26,1.02-.39.48-.14.8-.24.96-.32.42-.21.8-.58,1.13-1.12.46-.74.76-1.49.91-2.27.14-.78.1-1.48-.16-2.11-.36-.88-.95-1.87-1.79-2.96-.84-1.09-1.72-1.82-2.63-2.19-.46-.19-.87-.2-1.22-.04-.41.19-.91.68-1.45,1.46Z"/>
        <path d="M185.39,67.59c.9-.15,1.69,0,2.36.46.66.45,1.04,1.15,1.15,2.1.18,1.51-.34,2.93-1.45,4.32-1.1,1.39-2.29,2.22-3.67,2.52-.85.19-1.58.12-2.22-.21-.64-.33-1.08-.88-1.3-1.68-.38-1.38-.24-2.81.52-4.25.95-1.79,2.54-2.92,4.61-3.26ZM184.36,68.55c-.77.14-1.44.7-1.96,1.67-.52.96-.6,2.16-.26,3.59.21.86.57,1.5,1.08,1.91.37.3.8.4,1.28.3.68-.14,1.23-.6,1.67-1.4.57-1.03.77-2.22.56-3.57-.16-1.01-.45-1.71-.88-2.08-.43-.37-.93-.51-1.49-.41Z"/>
        <path d="M201.64,67.1c.79.06,1.18.09,1.97.17-.66,1.37-.98,2.06-1.59,3.45-.9,2.02-1.3,3.18-1.32,3.47,0,.13.02.23.09.3.07.07.15.11.24.12.14,0,.31-.03.5-.12.28-.14.83-.49,1.67-1.04.15.17.22.25.37.42-1.83,1.23-3.05,1.88-3.81,1.84-.26-.01-.47-.11-.65-.28-.18-.17-.26-.41-.25-.72.01-.36.12-.83.32-1.41-.77.67-1.7,1.26-2.76,1.79-.71.35-1.31.54-1.82.56-.28,0-.51-.06-.68-.21-.17-.15-.26-.39-.28-.74-.01-.27,0-.56.07-.87.09-.43.32-1.31.73-2.63.52-1.67.81-2.66.81-2.99,0-.19-.1-.29-.28-.28-.16,0-.39.07-.66.21s-.75.46-1.39.98c-.24-.13-.37-.19-.61-.32,1.15-.9,2.08-1.47,2.72-1.74.64-.27,1.17-.4,1.57-.4.22,0,.4.06.54.18.14.12.21.31.2.56,0,.47-.36,1.63-.97,3.48-.55,1.66-.79,2.62-.79,2.85,0,.14.06.27.17.37.11.1.24.15.37.15.46,0,1.11-.32,1.99-.94.88-.61,1.49-1.3,1.8-2.09.65-1.66,1-2.48,1.72-4.12Z"/>
        <path d="M208.25,76.4c-.71-.14-1.07-.2-1.79-.32.52-1.03.78-1.55,1.33-2.57.67-1.26,1.29-2.44,1.87-3.57.14-.28.22-.46.23-.53.03-.16-.05-.26-.25-.3-.13-.03-.36,0-.66.09-.3.09-.87.34-1.68.77-.14-.17-.21-.25-.36-.42.96-.56,1.92-.93,2.86-1.11.93-.18,1.64-.2,2.11-.09.16.04.29.1.37.17.08.08.11.16.09.25-.02.09-.13.3-.34.65-.4.66-.6,1-.99,1.67,1.12-.87,2.36-1.53,3.72-1.96.65-.21,1.17-.25,1.54-.14.27.08.48.21.62.4.14.18.18.36.13.53-.05.18-.19.3-.4.37s-.69.08-1.43.06c-.7-.02-1.29.03-1.76.16-.47.13-1.01.37-1.6.73-.6.37-1.02.71-1.29,1.03-.27.32-.74,1.08-1.38,2.31-.38.73-.57,1.1-.94,1.84Z"/>
        <path d="M217.39,72.34c-.18-.21-.28-.31-.46-.52,1.09-.44,2.07-.67,2.9-.71.83-.04,1.51.05,2.02.25.28.11.48.24.59.39.11.15.14.3.07.45-.08.18-.68.84-1.77,2.01-1.78,1.91-2.68,3.14-2.86,3.61-.03.09-.03.18,0,.26.03.08.08.13.14.16.25.09,1.03-.07,2.4-.42.13.22.19.33.31.55-1.42.36-2.39.59-2.96.64-.57.05-1.01.02-1.32-.09-.27-.09-.46-.24-.57-.44-.11-.2-.12-.42-.04-.67.27-.81,1.49-2.62,3.93-5.26.11-.13.19-.25.24-.36.05-.13,0-.22-.16-.28-.17-.06-.39-.08-.65-.06-.26.02-.87.18-1.81.49ZM225.04,67.96c.29.12.5.29.62.5.13.21.15.41.06.61-.12.28-.37.46-.73.55-.37.09-.72.07-1.06-.08-.27-.11-.47-.27-.6-.48-.13-.21-.15-.42-.06-.63.11-.29.34-.48.69-.57.35-.09.71-.06,1.08.1Z"/>
        <path d="M230.38,73.68c.94.23,1.4.35,2.34.62-.95.77-1.42,1.16-2.35,1.96,1.02.58,1.53.89,2.53,1.52-.23.2-.35.3-.58.5-.99-.62-1.49-.92-2.51-1.5-1.1.95-1.65,1.44-2.71,2.43-.82.73-1.31,1.28-1.5,1.64-.09.16-.11.3-.06.42.05.12.15.22.29.3.23.13.65.21,1.25.26.79.07,1.58.09,2.37.08.07.27.11.4.17.66-2.21-.06-3.62-.03-4.28-.1-.66-.07-1.16-.19-1.49-.36-.27-.14-.45-.33-.52-.57-.08-.25-.03-.55.16-.93.22-.44.69-1.05,1.44-1.8,1.21-1.22,1.83-1.82,3.09-3-.8-.42-1.21-.63-2.02-1.02.22-.22.33-.33.55-.54.82.4,1.23.61,2.04,1.04.7-.64,1.06-.96,1.78-1.59Z"/>
        <path d="M242.48,85.65c-.77-.48-1.43-.95-1.99-1.43-.31-.27-.64-.57-1-.91-.49-.47-.83-.78-1.01-.93-.23-.18-.43-.28-.61-.3-.18-.02-.32.03-.41.15-.14.18-.08.39.17.61.31.28.39.53.24.73-.07.09-.19.13-.35.12-.16,0-.31-.07-.44-.17-.26-.21-.44-.49-.52-.86-.08-.37-.02-.7.2-.99.28-.37.74-.53,1.38-.46.64.07,1.29.37,1.93.89.33.27.76.68,1.26,1.22.82.88,1.4,1.51,1.79,1.87.39.36.84.62,1.35.77.23.07.4.16.5.26.09.08.14.18.17.27.02.1.02.16-.01.2-.05.05-.14.06-.28.04-.44-.04-1.37-.2-2.77-.42-2.15-.34-3.21-.45-5.29-.57-1.52-.09-2.75-.12-3.7-.15.43.26.75.48.97.65.31.24.58.48.8.72.22.24.56.66.99,1.26.56.79,1.04,1.4,1.48,1.79.27.25.53.39.76.43.24.04.43-.02.57-.17.08-.08.13-.26.18-.51.04-.23.11-.39.18-.47.11-.12.26-.17.45-.16s.36.1.52.25c.19.18.3.4.31.64.02.24-.07.45-.24.63-.27.28-.68.43-1.24.49-.55.05-1.1-.02-1.65-.22-.55-.2-1.11-.55-1.71-1.06-.49-.42-1.11-1.14-1.9-2.13-.66-.82-1.2-1.36-1.59-1.65-.24-.17-.58-.27-1.04-.29-.27,0-.47-.04-.6-.13-.26-.18-.35-.31-.28-.42.07-.1.22-.17.46-.2.65-.11,2.17-.21,4.66-.08,1.68.09,3.2.22,4.55.34,1.09.1,1.64.17,2.75.32Z"/>
      </g>
      <path class="cls-3" d="M236.53,43.86c39.62,14.1,71.39,48.51,82.28,89.14"/>
      <path class="cls-3" d="M281.84,66.74c10.56,2.57,20.73,6.73,30.08,12.28,2.73,8.69,11.14,17.13,19.58,20.58.58-4.77-.95-9.77-4.11-13.39-3.16-3.63-7.9-5.83-12.71-5.91"/>
      <path class="cls-3" d="M278.42,66.06l-3.42-.48"/>
      <path class="cls-3" d="M314.01,81.22c6.43,1.65,11.85,6.79,13.84,13.12"/>
      <path class="cls-3" d="M321.38,85.16c1.9.25,3.76.85,5.45,1.77"/>
      <path class="cls-3" d="M319.03,83.84c-.37,1.43-.03,3.03.88,4.2"/>
      <path class="cls-3" d="M324.18,87.72c-.39,1.53.05,3.24,1.13,4.39"/>
      <path class="cls-3" d="M326.17,90.38c1.57.5,3.04,1.31,4.29,2.38"/>
      <path class="cls-3" d="M286.57,78.43c-1.62,8.81-1.12,18,1.43,26.59"/>
      <path class="cls-3" d="M329.05,125.08c-.84,3.24-.39,6.79,1.23,9.71.94,1.7,2.28,3.17,3.85,4.3.76.55,3.89,2.87,4.44,1.76.15-.31.16-.67.16-1.01-.01-1.59-.22-3.19-.63-4.73-1.07-4.05-3.52-7.73-6.85-10.27"/>
      <path class="cls-3" d="M330.23,127.14c.91,3.1,4.51,7.91,6.61,11"/>
      <path class="cls-3" d="M331.26,129.91c-.74,1.79-.45,3.96.72,5.51"/>
      <path class="cls-3" d="M333.1,131.48c1.35-.02,2.7.64,3.5,1.73"/>
      <path class="cls-3" d="M333.86,134.23c-.39.88-.08,2.01.7,2.57"/>
      <path class="cls-3" d="M287.04,105.43c-1.51,2.98-1.82,6.55-.85,9.75.56,1.86,1.55,3.58,2.86,5.02.63.69,3.19,3.63,3.97,2.66.22-.27.3-.62.37-.95.32-1.56.46-3.16.39-4.75-.18-4.19-1.8-8.3-4.52-11.49"/>
      <path class="cls-3" d="M287.76,107.69c.24,3.22,2.74,8.69,4.13,12.15"/>
      <path class="cls-3" d="M288.18,110.62c-1.1,1.6-1.28,3.78-.46,5.53"/>
      <path class="cls-3" d="M289.65,112.55c1.33.26,2.5,1.2,3.05,2.43"/>
      <path class="cls-3" d="M289.8,115.39c-.56.78-.5,1.94.14,2.66"/>
      <path class="cls-3" d="M311.56,109.1c6.98,2.68,13,7.82,16.74,14.3"/>
      <path class="cls-3" d="M319.77,136.02l2.01,8.79"/>
      <path class="cls-3" d="M321.46,147.05c4.25,2.3,7.69,6.07,9.58,10.51,1.89,4.45,2.23,9.54.94,14.2"/>
      <path class="cls-3" d="M319.5,148.31c-.16,9.24,4.72,18.42,12.48,23.45"/>
      <path class="cls-3" d="M323.8,167.87c.37,3.48.43,5.38-.93,6.38-4.17-3.91-8.58-8.25-9.51-13.89-.71-4.34.94-9,4.23-11.93"/>
      <path class="cls-3" d="M319.17,151.76c-.65,2.94-1.6,6.51-.73,9.39.7,2.34,2.26,3.97,3.95,5.74-.96-1.01,3.18,2.81,6.35,3.66-.03-.37-.05-.74-.08-1.11"/>
      <path class="cls-3" d="M305.78,102.85c-2.43,6.95-2.77,14.62-.96,21.76"/>
      <path class="cls-3" d="M302.94,126.04c-3.32,2.81-5.29,7.15-5.23,11.5s2.17,8.63,5.57,11.34c1.53-3.39,1.39-4.43,1.45-8.15"/>
      <path class="cls-3" d="M306.51,124.9c3.13,1.62,5.68,4.33,7.13,7.54s1.78,6.91.92,10.33c-2.24-.65-4.78-3.14-5.67-5.29-.1,2.33-.19,4.67-.29,7-2.59-1.68-4.61-4.24-5.64-7.15s-1.07-6.17-.1-9.1"/>
      <path class="cls-3" d="M156.1,290.9c-40.42-11.63-74.24-44.03-87.61-83.91"/>
      <path class="cls-3" d="M112.92,271.33l3.45.27"/>
      <path class="cls-3" d="M104.03,259.49c1.07-8.89.01-18.04-3.07-26.45"/>
      <path class="cls-3" d="M58.75,215.53c.64-3.28-.02-6.8-1.83-9.62-1.05-1.64-2.47-3.03-4.11-4.06-.79-.5-4.06-2.62-4.54-1.49-.13.32-.12.68-.1,1.02.11,1.59.42,3.17.92,4.68,1.31,3.98,3.99,7.5,7.47,9.83"/>
      <path class="cls-3" d="M57.45,213.55c-1.1-3.03-4.99-7.62-7.27-10.57"/>
      <path class="cls-3" d="M56.25,210.85c.62-1.83.21-3.98-1.06-5.45"/>
      <path class="cls-3" d="M54.31,209.39c-1.35.11-2.73-.47-3.6-1.51"/>
      <path class="cls-3" d="M53.39,206.7c.33-.9-.04-2.01-.86-2.52"/>
      <path class="cls-3" d="M101.89,232.56c1.32-3.07,1.42-6.65.25-9.79-.68-1.82-1.77-3.48-3.16-4.84-.67-.65-3.41-3.42-4.12-2.41-.2.28-.26.63-.31.98-.23,1.58-.26,3.18-.09,4.77.44,4.17,2.31,8.17,5.22,11.19"/>
      <path class="cls-3" d="M101.08,231.07c-.48-3.58-3.65-9.51-5.45-13.29"/>
      <path class="cls-1" d="M100.44,227.45c1-1.66,1.05-3.85.12-5.55"/>
      <path class="cls-3" d="M98.85,225.62c-1.34-.18-2.57-1.04-3.2-2.24"/>
      <path class="cls-3" d="M98.52,222.79c.52-.81.38-1.97-.3-2.64"/>
      <path class="cls-3" d="M77.19,230.41c-7.14-2.25-13.46-7.01-17.59-13.24"/>
      <path class="cls-3" d="M67.34,204.05l-2.55-8.65"/>
      <path class="cls-1" d="M83.34,236.29c2-7.09,1.86-14.77-.38-21.78"/>
      <circle class="cls-3" cx="82.96" cy="207.44" r=".96"/>
      <path class="cls-3" d="M81.65,206.49c-.54-1.7-1.2-3.02-.81-4.75.15-.65.44-1.29.94-1.73s1.24-.65,1.86-.4c.64.25,1.04.92,1.16,1.6s0,1.37-.12,2.05c-.21,1.22-.42,2.44-.64,3.67"/>
      <path class="cls-3" d="M83.92,207.44c1.25-1.82,4.04-3.53,6.23-3.73.6-.06,1.36.06,1.56.63.17.48-.16.98-.5,1.35-1.41,1.53-4.19,2.38-6.26,2.6"/>
      <path class="cls-3" d="M81.65,206.49c-1.26-1.47-3.06-2.46-4.97-2.75-.64-.1-1.42-.06-1.77.48-.31.48-.12,1.15.27,1.55s.95.61,1.48.81c1.33.49,2.67.97,4,1.46"/>
      <path class="cls-3" d="M85.75,208.17c.72.35,1.45.71,2.03,1.25s1.02,1.31.97,2.11-.68,1.58-1.48,1.61c-.77.03-1.41-.58-1.88-1.2-.59-.79-1.06-1.66-1.39-2.59"/>
      <path class="cls-3" d="M81.47,209.6c-.46,1.08-.77,2.22-.92,3.39-.07.53-.08,1.14.3,1.51.33.32.87.35,1.3.16s.74-.56.99-.95c.74-1.17,1.36-2.79.97-4.11"/>
      <path class="cls-3" d="M80.02,207.97c1.1-.38-1.51.22-2.45.38-.72.12-1.47.25-2.04.7s-.93,1.24-.69,1.92c.27.77,1.21,1.14,2.02,1.04s1.53-.55,2.21-1c1.09-.7,2.8-1.9,3.89-2.61"/>
      <circle cx="160.04" cy="291.9" r=".5"/>
      <circle cx="163.22" cy="292.9" r=".5"/>
      <circle cx="166.79" cy="293.69" r=".5"/>
      <circle cx="227.02" cy="41.26" r=".5"/>
      <circle cx="220.46" cy="39.71" r=".5"/>
      <circle cx="214.27" cy="38.58" r=".5"/>
      <path class="cls-3" d="M238.61,289.04c14.78-5.02,28.67-11.1,40.23-23.28,10.75-11.32,20.93-22.54,30.08-36.56"/>
      <path class="cls-3" d="M256.5,281.81l1.95-13.58"/>
      <path class="cls-3" d="M267.39,275.5c3.78-1.46,8.31-.75,11.45,1.81"/>
      <path class="cls-3" d="M273.16,270.73c1.59-1.59,2.46-3.86,2.35-6.11s-1.21-4.42-2.95-5.84"/>
      <path class="cls-3" d="M285.38,259.53c5.65-2.16,12.13-2.06,17.72.27"/>
      <path class="cls-3" d="M295.65,247l-2.59-8.09"/>
      <path class="cls-3" d="M300.77,240.81h9.65"/>
      <path class="cls-3" d="M304.57,235.5c-.13-3.13-.26-6.26-.39-9.4"/>
      <path class="cls-3" d="M278.99,277.67c.31,1.2.66,2.47,1.57,3.31s2.56,1,3.28,0c.67-.94.12-2.35-.86-2.96s-2.21-.62-3.35-.51"/>
      <path class="cls-3" d="M258.68,268.04c-1.11-.76-2.28-1.58-2.85-2.8s-.26-2.96.98-3.49c1.41-.6,3.03.8,3.25,2.32s-.49,3-1.18,4.38"/>
      <path class="cls-3" d="M272.5,258.95c-1.24-.27-2.53-.57-3.47-1.43s-1.32-2.44-.47-3.38c.97-1.08,2.9-.56,3.73.63s.88,2.74.89,4.19"/>
      <path class="cls-3" d="M302.24,259.79c.4,1.48.84,3.05,1.95,4.11s3.12,1.33,4.1.15c1.04-1.26.21-3.32-1.22-4.12s-3.16-.7-4.79-.59"/>
      <path class="cls-3" d="M293.08,239.24c.33-1.48.49-3.11-.23-4.44s-2.65-2.08-3.83-1.12c-1.14.93-.88,2.86.14,3.91s2.51,1.47,3.93,1.84"/>
      <path class="cls-3" d="M310.71,241.04c.88-1.12,2.49-1.59,3.83-1.13s2.31,1.84,2.3,3.26c-2.38.3-4.88-.78-6.31-2.7"/>
      <path class="cls-3" d="M308.7,229.1c-.16-1.21-.02-2.5.63-3.53s1.86-1.75,3.07-1.6,2.27,1.32,2.11,2.53c-.13.96-.94,1.72-1.84,2.07s-1.9.36-2.87.37"/>
      <path class="cls-3" d="M304.18,224.08c-.78-.18-1.6-.37-2.24-.86s-1.07-1.35-.8-2.11c.33-.92,1.6-1.25,2.46-.8s1.33,1.46,1.39,2.44-.21,1.94-.48,2.88"/>
      <path class="cls-3" d="M293.06,250.78c4.16-.74,8.48-.5,12.53.68"/>
      <path class="cls-3" d="M277.71,267.38l9.13.84"/>
      <path class="cls-3" d="M304.91,251.52c-.12,1.95,2.09,3.65,3.95,3.03.72-1.05.02-2.58-1.1-3.2s-2.46-.57-3.72-.5"/>
      <path class="cls-3" d="M285.99,267.64c1-.98,2.23-1.94,3.64-1.87s2.68,1.75,1.87,2.9c-.47.66-1.41.84-2.2.64s-1.45-.71-2.09-1.21"/>
      <path class="cls-3" d="M247.34,285.98c5.92-.6,11.98.29,17.47,2.57.36.9,1.18,1.88,1.99,2.41s2.09.46,2.55-.39c.49-.89-.22-2.05-1.17-2.42s-2.01-.16-3,.04"/>
      <path class="cls-3" d="M72.39,114.98c5.94-17.72,24.66-36.27,40.53-51.07,13.67-12.75,32.7-19.62,51.09-22.95"/>
      <path class="cls-3" d="M288.56,254.58l-1.59-4.17"/>
      <path class="cls-3" d="M286.52,250.2c-1.67-.28-3.45-.62-4.65-1.81s-1.33-3.56.16-4.37c1.2-.65,2.77.1,3.5,1.25s.84,2.58.92,3.94"/>
      <path class="cls-3" d="M83.59,95.84l-5.12-9.35c-.57-1.05-1.16-2.12-1.33-3.3s.14-2.51,1.09-3.23c1.08-.83,2.7-.64,3.82.16s1.79,2.05,2.28,3.33c1.08,2.82,1.37,5.94.85,8.92"/>
      <path class="cls-3" d="M97.98,78.44c-.7-4.16-2.38-8.9-4.55-12.52-.52-.87-1.19-1.79-2.18-1.96-1.2-.21-2.31.81-2.79,1.93-1.12,2.62.07,5.66,1.71,7.99s3.77,4.36,4.86,6.99"/>
      <path class="cls-3" d="M112.16,64.61c2.26-3.68,1.36-9.55-1.43-12.84-1.02-1.21-2.41-2.21-3.99-2.36s-3.31.74-3.75,2.27c-.36,1.27.2,2.6.75,3.8,1.94,4.22,3.77,7.46,5.71,11.69"/>
      <path class="cls-3" d="M128.02,53.16c2.58-3.29,2.82-8.21.58-11.74-1.02-1.6-2.94-3-4.7-2.29-1.77.71-2.17,3.02-2.11,4.93.11,3.66.92,7.29,2.37,10.65"/>
      <path class="cls-3" d="M147.48,44.5c1.24-1.72,2.5-3.47,3.15-5.49s.61-4.38-.63-6.1-3.87-2.47-5.59-1.24c-1.88,1.34-1.92,4.06-1.76,6.36.21,3.08.07,5.37.28,8.45"/>
      <path class="cls-3" d="M163.8,40.65c2.45-2.48,4.35-5.5,5.53-8.78.32-.88.58-1.8.5-2.72s-.6-1.86-1.46-2.21c-1.36-.55-2.82.51-3.75,1.65-1.91,2.33-3.04,5.28-3.19,8.29-.06,1.23.04,2.09-.52,3.19s-1.81,2.08-2.73,2.08"/>
      <path class="cls-3" d="M85.91,92.27c3.34-1.18,7.03-1.34,10.46-.46,1.55.4,3.27,1.26,3.55,2.84.33,1.86-1.68,3.41-3.56,3.5s-3.66-.76-5.48-1.28c-3.03-.86-5.04-1.86-8.03-.87"/>
      <path class="cls-3" d="M112.16,64.61c2.59-.28,6.31-.05,8.89.34,1.41.21,3.07.78,3.35,2.17.21,1.02-.39,2.26-1.11,3.01-.96,1-2.35,1.65-5.53,1.39-5.41-.43-6.7-1.4-8.66-4.04"/>
      <path class="cls-3" d="M127.32,53.5c2.74-.3,5.53.11,8.24.57,1.64.28,3.58,1.05,3.73,2.71.13,1.44-1.29,2.57-2.67,2.99-3.13.93-6.46-.28-9.5-1.48-1.39-.55-2.79-1.1-4.18-1.65"/>
      <path class="cls-3" d="M147.12,45.08c1.84-.36,4.2.45,6.01,1.15s3.56,1.88,3.69,3.75c.05.75-.16,1.52-.59,2.14-1.14,1.63-3.56,1.9-5.42,1.19s-3.33-2.16-4.81-3.49-2.87-2.4-4.84-2.69"/>
      <path class="cls-3" d="M163.56,41.04c1.54-.44,3.28.06,4.83.43s3.01,1.37,3.66,2.83.34,3.37-.92,4.35c-1.6,1.25-4,.67-5.66-.5s-2.94-2.83-4.65-3.92c-1.78-1.13-4-1.57-6.08-1.21"/>
      <path class="cls-4" d="M164.91,36.25c-.4,1.86-1.47,3.57-2.97,4.74"/>
      <path class="cls-4" d="M162.72,38.1c-.39,1.34-1.18,2.57-2.24,3.49"/>
      <path class="cls-4" d="M162.32,41.62c1.08.02,2.15.36,3.05.95"/>
      <path class="cls-4" d="M160.42,41.95c1.33.32,2.56,1.04,3.5,2.03"/>
      <path class="cls-4" d="M147.53,39.61c-.26,2.09-.87,4.14-1.8,6.04"/>
      <path class="cls-4" d="M144.64,42.31c.15,1.2.01,2.44-.4,3.58"/>
      <path class="cls-4" d="M145.68,45.84c.96.22,1.9.51,2.8.88.88.36,1.79.83,2.24,1.67"/>
      <path class="cls-4" d="M143.88,46.53c1.05.05,2.04.72,2.48,1.67"/>
      <path class="cls-4" d="M127.13,47.44c.59.97.86,2.12.77,3.25s-.56,2.22-1.31,3.07"/>
      <path class="cls-4" d="M125.35,51.14c.53,1.17.5,2.59-.1,3.73"/>
      <path class="cls-4" d="M126.05,54.59c.46-.16.97-.09,1.45-.02,1.33.21,2.65.52,3.94.93"/>
      <path class="cls-4" d="M124.24,55.23c1.85.16,3.65.87,5.1,2.03"/>
      <path class="cls-4" d="M110.82,58.16c1.02,2.03,1.27,4.44.68,6.64"/>
      <path class="cls-4" d="M109.05,61.44c.72,1.44,1.14,3.03,1.23,4.64"/>
      <path class="cls-4" d="M111.51,65.85c2.18.17,4.34.6,6.42,1.28"/>
      <path class="cls-4" d="M110.35,66.8c1.39,1.1,3.16,1.72,4.93,1.74"/>
      <path class="cls-4" d="M94.77,73.86c1.09,1.66,1.78,3.59,2,5.57"/>
      <path class="cls-4" d="M97.14,79.99c1.88-.18,3.8-.03,5.63.45"/>
      <path class="cls-4" d="M95.91,80.81c1.54.09,3.07.43,4.5,1.01"/>
      <path class="cls-4" d="M83.1,88.3c.67,1.7,1.18,3.46,1.52,5.25"/>
      <path class="cls-4" d="M84.42,94.12c2.29-.22,4.64.08,6.8.87"/>
      <path class="cls-4" d="M82.71,91.51c.64.58,1.07,1.4,1.17,2.26"/>
      <circle class="cls-3" cx="63.45" cy="187.34" r=".96"/>
      <path class="cls-3" d="M62.17,186.35c-.48-1.71-1.1-3.05-.66-4.78.17-.65.48-1.28.99-1.7s1.26-.61,1.87-.35c.63.27,1.01.95,1.11,1.63s-.04,1.37-.18,2.05c-.25,1.22-.5,2.43-.75,3.65"/>
      <path class="cls-3" d="M64.41,187.37c1.31-1.78,4.14-3.41,6.34-3.54.6-.04,1.35.1,1.54.68.16.48-.19.97-.54,1.33-1.46,1.49-4.25,2.26-6.33,2.41"/>
      <path class="cls-3" d="M62.17,186.35c-1.22-1.5-2.98-2.55-4.88-2.9-.64-.12-1.41-.1-1.78.43-.32.47-.16,1.14.23,1.56s.93.64,1.46.85c1.32.53,2.63,1.05,3.95,1.58"/>
      <path class="cls-3" d="M66.23,188.15c.71.37,1.43.75,1.99,1.31s.98,1.34.91,2.13-.73,1.56-1.53,1.56c-.77,0-1.4-.62-1.84-1.25-.56-.8-1.01-1.69-1.31-2.63"/>
      <path class="cls-3" d="M61.9,189.46c-.49,1.07-.84,2.2-1.02,3.36-.08.53-.11,1.14.26,1.52.32.33.86.38,1.29.2s.76-.53,1.01-.92c.77-1.15,1.44-2.74,1.1-4.08"/>
      <path class="cls-3" d="M60.5,187.78c1.11-.34-1.52.18-2.46.3-.72.1-1.47.21-2.06.64s-.97,1.21-.75,1.9c.25.78,1.17,1.17,1.98,1.1s1.54-.51,2.24-.93c1.11-.67,2.86-1.82,3.97-2.49"/>
      <path class="cls-3" d="M109.46,270.86c-10.7-1.92-21.11-5.44-30.78-10.41-3.26-8.51-12.18-16.42-20.81-19.34-.29,4.8,1.55,9.69,4.93,13.12s8.24,5.33,13.04,5.11"/>
      <path class="cls-3" d="M76.47,258.39c-6.52-1.25-12.24-6.04-14.62-12.24"/>
      <path class="cls-3" d="M68.86,254.9c-1.92-.13-3.81-.62-5.55-1.43"/>
      <path class="cls-3" d="M71.29,256.08c.28-1.45-.15-3.03-1.14-4.14"/>
      <path class="cls-3" d="M65.92,252.52c.3-1.55-.25-3.23-1.4-4.31"/>
      <path class="cls-3" d="M63.76,249.99c-1.6-.4-3.11-1.12-4.43-2.11"/>
    </g>
    <path class="cls-3" d="M42.97,120.96c-1.65.87-2.4,2.49-2.39,4.36s1.14,3.68,2.8,4.52"/>
    <path class="cls-4" d="M59.98,186.26l2.42,1.03"/>
    <path class="cls-4" d="M62.84,184.75c-.14.24-.18.53-.1.8s.27.49.52.61"/>
    <path class="cls-4" d="M63.65,185.3c-.09.28-.07.59.07.85"/>
    <path class="cls-4" d="M66.45,186.93l-1.77.73"/>
    <path class="cls-4" d="M63.73,188.82c-.6.36-.97,1.09-.89,1.79"/>
    <path class="cls-19" d="M64.41,187.39c0,.47-.38.86-.86.86s-.86-.38-.86-.86.38-.86.86-.86.86.38.86.86Z"/>
    <path class="cls-5" d="M193.07,288.7c-1.14-.19-2.35.45-2.92,1.46s-.5,2.32.09,3.32,1.67,1.67,2.81,1.85c-.19-1.49.09-3.03.79-4.36.25-.47,1.51.84,1.13-.79-.17-.75-1.22-1.35-1.91-1.47Z"/>
    <path class="cls-5" d="M196.27,289.18c.62-.28,1.26-.54,1.93-.59s1.4.14,1.86.64c.62.67.57,1.85-.1,2.47s-1.85.56-2.47-.11c-.52-.57-.6-1.39-.82-2.12"/>
    <path class="cls-5" d="M182.79,292.1c-.64.52-1.13,1.26-1.23,2.07-.19,1.52,1.02,2.94,2.45,3.51s3.02.48,4.55.39c.44-1.31-.32-2.71-1.19-3.79-1.49-1.85-2.11-4.21-4.58-2.18Z"/>
    <path class="cls-5" d="M205.95,295.1c.04-1.03-.34-2.13-1.2-2.71.04.62-.29,1.21-.73,1.64-.8.78-7.51,3.3-5.13,5.26.93.77,3.94,0,4.85-.53,1.27-.75,2.15-2.17,2.21-3.66Z"/>
    <path class="cls-5" d="M185.66,283.07c2.16-1.17,4.97-1.02,6.99.37.58.43.3,1.45-.34,1.78s-1.42.21-2.12.06-1.47-.32-2.13-.03c-1.59.69-2.47,5.4-4.98,3.5-2.12-1.61,1.13-4.89,2.59-5.68Z"/>
    <path class="cls-5" d="M200.79,281.79c1.59.89,2.51,2.86,2.15,4.66-1.14-.37-2.28-.73-3.42-1.1-1.14-.37-4.01-1.13-3.47-2.81s3.57-1.4,4.74-.75Z"/>
    <path class="cls-5" d="M191.25,304.48c1.18.02,2.58-.42,2.91-1.56.34-1.13-.62-2.29-1.73-2.67-1.25-.43-2.63-.14-3.92.14-1.82.4-4.22.54-1.9,2.4,1.3,1.05,2.97,1.66,4.64,1.69Z"/>
    <path class="cls-5" d="M179.28,300.85c1.24,1.1,2.83,1.7,4.38,2.29-1.04-1.61-2.99-5.11-4.81-5.89-2.57-1.1-.39,2.88.44,3.61Z"/>
    <path class="cls-5" d="M204.43,305.37c.46-1.11.62-2.31.78-3.49,0-.22-5.07.8-5.49,1.11-.91.67-2.39,2.27-2.31,3.51.09,1.53,1.96,1.79,3.23,1.73,1.81-.08,3.12-1.23,3.8-2.86Z"/>
    <path class="cls-3" d="M194.07,290.86c-.32,1.23-1.91,2.23-1.64,3.47s1.32,2.41,2.59,2.35c1.42-.06,1.01-2.16,2.06-3.11.53-.48-1.46-2.18-3.02-2.71"/>
    <path class="cls-3" d="M197.55,292.46c-.98-2.34-2.22-4.71-4.31-6.14s-5.26-1.59-6.97.28c-1.57,1.71-1.37,4.56,0,6.44s4.89,2.92,7.15,3.45"/>
    <path class="cls-3" d="M201.21,295.71c-.99-.46-2.17.85-3.11,1.41s-1.75,1.32-2.73,1.79c-1.58.76-3.54.68-5.05-.21s-1.89-2.15-1.97-3.9"/>
    <path class="cls-3" d="M198.15,292.22c.78-.3,1.72-.13,2.35.43s.91,1.47.7,2.28"/>
    <path class="cls-3" d="M184.56,289.33c-2.73-.31-6.09,2.31-6.11,5.06s2.15,5.24,4.79,6.01,5.2.26,7.42-1.36"/>
    <path class="cls-3" d="M191.37,285.46c2.46-1.03,4.67-1.47,7.29-1.01s5.14,2.18,5.99,4.7-.4,5.73-2.93,6.56"/>
    <path class="cls-3" d="M196.82,284.27c-1.85-2.17-4.72-4.34-7.55-4.65s-5.83.68-7.75,2.78-2.63,5.31-1.56,7.95"/>
    <path class="cls-3" d="M204.91,288.47c1.87-.3,2.84.41,4.18,1.75s1.98,3.33,1.67,5.2c-.37,2.29-2.07,4.19-4.05,5.41-4.5,2.77-10.77,2.29-14.8-1.13"/>
    <path class="cls-3" d="M177.7,286.94c-1.65.87-2.4,2.49-2.39,4.36s1.14,3.68,2.8,4.52"/>
    <path class="cls-3" d="M181.44,299.56c1.85,3.48,4.59,5.32,8.27,6.2,1.91.46,3.93.63,5.83.11,1.71-.47,3.27-1.51,4.35-2.92"/>
    <path class="cls-3" d="M192.73,280.64c2.12-.37,3.41-.73,5.56-.57s4.33.89,5.84,2.44,2.19,3.98,1.3,5.95"/>
    <path class="cls-3" d="M185.25,280.04c-2.47-.47-5.63-.05-7.14,1.97s.46,5.07,1.61,7.3"/>
    <path class="cls-3" d="M208.96,299.43c.44,1.38.6,4.15-.09,5.43s-1.77,2.31-2.96,3.14c-4.75,3.3-10.61,2.54-15.36-.76-3.76,1.02-7.99.14-11.03-2.3s-3.57-7.04-3.39-10.94"/>
    <path class="cls-7" d="M225,293.1c-.69.03-1.42.41-1.64,1.07-.22.64.08,1.33.38,1.94.18.37.36.74.63,1.04s.66.53,1.07.52.82-.3.87-.71c.05-.37-.19-.71-.39-1.02s-.38-.71-.21-1.05c.22-.44,1.29-.59,1.11-1.22-.15-.53-1.39-.59-1.82-.57Z"/>
    <path class="cls-7" d="M225.87,292.43c.13-.42.53-.71.96-.83s.87-.08,1.31-.05c.25.02.6,0,.84.04s.49.17.61.39.09.53-.12.67c-.25.18-.63.04-.89.19-.29.17-.34.61-.65.72-.23.09-.47-.05-.68-.17-.45-.28-.92-.69-1.38-.97Z"/>
    <path class="cls-7" d="M231.52,289.16c.54.08,1.05.41,1.34.87.29.46.38,1.02.39,1.57.01,1.76-.83,3.5-2.22,4.58-.18.14-.37.27-.59.32s-.47.01-.63-.15c-.17-.44-.09-.94.08-1.38s.41-.85.57-1.3c.36-.97.3-2.08-.12-3.02-.16-.35-.42-.73-.17-1.11.27-.4.94-.45,1.36-.39Z"/>
    <path class="cls-7" d="M235.39,297.53c-.11.94-.65,1.82-1.44,2.35-.39.26-.93.43-1.3.14-.33-.26-.34-.75-.3-1.17.04-.44.08-.89.21-1.31.15-.51.41-.98.71-1.41.22-.31.64-1.05,1.05-1.1.95-.13,1.14,1.93,1.07,2.51Z"/>
    <path class="cls-7" d="M228.7,300.44c-.27.07-.56.09-.82-.01s-.48-.33-.52-.61c-.05-.37.23-.72.57-.87s.72-.16,1.09-.16c.21,0,.82-.17.98-.12.25.09.06.46-.04.67-.24.52-.71.94-1.26,1.09Z"/>
    <path class="cls-7" d="M223.72,300.1c.73.43,1.66.5,2.45.2.18-.07.35-.16.47-.3s.17-.36.09-.53c-.09-.18-.31-.26-.5-.32-.59-.18-1.17-.36-1.76-.54-.44-.14-1.03-.45-1.5-.32-1.04.29.29,1.58.76,1.81Z"/>
    <path class="cls-7" d="M222.13,290.86c-.32.23-.58.6-.97.63-.13.01-.26-.01-.38.03-.17.06-.28.24-.31.42s.01.36.06.54c.13.58.27,1.16.4,1.74.03.11.06.24.16.3.16.09.35-.06.48-.2.7-.78,1.31-1.66,1.8-2.59.19-.36.59-.83.09-1.06-.4-.18-.96-.06-1.31.18Z"/>
    <path class="cls-3" d="M225.44,294.83c.3.61.29,1.33.84,1.74s1.38.51,1.88.04c.55-.53.36-1.54-.26-1.98s-1.49-.38-2.17-.04"/>
    <path class="cls-3" d="M227.96,293.78c-1.22-.6-2.55-1.12-3.9-.97s-2.69,1.2-2.72,2.56c-.03,1.25,1.05,2.32,2.27,2.6s2.49-.09,3.6-.67"/>
    <path class="cls-3" d="M230.58,293.81c-.56.16-.58,1.11-.76,1.66s-.24,1.15-.47,1.69c-.37.86-1.19,1.52-2.12,1.69s-1.82-.05-2.47-.73"/>
    <path class="cls-3" d="M228.11,293.48c.21-.4.65-.66,1.1-.65s.88.28,1.09.68"/>
    <path class="cls-3" d="M221.29,297.37c-1.21.84-1.33,2.78-.37,3.9s2.71,1.36,4.05.75,2.3-1.84,2.63-3.27"/>
    <path class="cls-3" d="M222.99,293.13c.63-1.28,1.37-2.24,2.6-2.97s2.84-.92,4.08-.2,1.85,2.46,1.12,3.68"/>
    <path class="cls-3" d="M224.62,290.64c-1.51-.23-3.27,0-4.53.86s-2.12,2.32-2.16,3.85.81,3.07,2.17,3.76"/>
    <path class="cls-3" d="M229.53,289.58c.65-.78,1.29-.83,2.31-.76s1.97.65,2.5,1.51c.65,1.06.64,2.42.27,3.61-.85,2.71-3.55,4.72-6.38,4.75"/>
    <path class="cls-3" d="M217.99,298.53c-.36.93-.09,1.85.57,2.6s1.75,1.09,2.72.84"/>
    <path class="cls-3" d="M223.94,302.32c1.97.76,3.73.54,5.53-.4.93-.49,1.81-1.13,2.4-2,.53-.79.79-1.76.73-2.71"/>
    <path class="cls-3" d="M221.85,290.7c.73-.9,1.12-1.49,2.05-2.19s2.07-1.16,3.22-1.07,2.29.84,2.62,1.95"/>
    <path class="cls-3" d="M218.61,293.08c-1.16.68-2.29,1.96-2.2,3.31s1.97,1.89,3.22,2.39"/>
    <path class="cls-3" d="M235.15,292.62c.67.4,1.57,1.44,1.74,2.2s.1,1.56-.09,2.31c-.76,3.01-3.4,4.76-6.48,5.09-1.16,1.74-3.18,2.86-5.27,2.95s-3.78-1.24-5.07-2.88"/>
    <path class="cls-16" d="M312.05,195.66c-.68-.23-1.51-.44-2.06.03-.29.25-.42.64-.42,1.02s.1.75.22,1.11c.41,1.23,1.01,2.41,1.77,3.46.08-.56.23-1.12.54-1.59.35-.55.83-.82,1.45-.95.48-.1,1.11-.05,1.31-.63.44-1.3-1.97-2.15-2.8-2.44Z"/>
    <path class="cls-16" d="M318.1,195.88c.85.56,1.63,1.3,1.97,2.27s.12,2.16-.7,2.76c-.43-.63-1.32-.69-2.03-.97-.94-.36-1.66-1.17-2.12-2.07-.34-.67-1.18-2.18-.36-2.72.87-.58,2.52.26,3.25.73Z"/>
    <path class="cls-16" d="M319.23,191.64c.94.26,1.95.72,2.28,1.63.18.5.05,1.16-.44,1.36-.24.1-.51.06-.77,0-1.51-.32-2.9-1.13-3.94-2.27-.53-.58-1.24-1.26-.07-1.25.98,0,2.01.25,2.95.52Z"/>
    <path class="cls-16" d="M323.25,204.43c-.67,1.3-1.9,2.21-3.15,2.97-1.11.67-2.35,1.29-3.64,1.19-1.55-.11-2.83-1.19-3.99-2.21-.35-.31-.74-.75-.57-1.19.14-.38.61-.5,1-.56,1.71-.29,3.42-.58,5.14-.88.83-.14,1.7-.28,2.46-.67.69-.36,1.14-1.03,1.84-1.37,1.82-.88,1.4,1.78.91,2.73Z"/>
    <path class="cls-16" d="M307.04,207.23c1.5.75,3.22,1.03,4.88.8.23-.3.23-.74.08-1.09s-.44-.63-.74-.86c-1.12-.87-2.6-1.24-4-1.05-.45.06-1.28.15-1.45.67-.22.7.73,1.29,1.23,1.54Z"/>
    <path class="cls-16" d="M306.57,190.89c-1.15.51-2.07,1.62-2.13,2.87-.02.44.07.9.36,1.24s.78.51,1.18.32c.31-.14.72-.99,1.02-1.26.44-.38.95-.69,1.49-.9s1.12-.34,1.7-.35c.47-.01,1.04.21,1.46-.07,1.17-.79-.22-1.61-.9-1.84-1.34-.45-2.86-.59-4.18,0Z"/>
    <path class="cls-16" d="M303.05,199.91c.64,1.8,2.59,3.04,4.49,2.84.47-.8.41-1.88-.13-2.64-.42-.58-1.07-.95-1.5-1.52-.33-.44-.51-1.11-1.11-1.27-1.5-.4-2.13,1.5-1.75,2.59Z"/>
    <path class="cls-16" d="M317.11,212.29c1.54-.32,2.64-1.65,3.6-2.9-.91-.26-1.85-.53-2.8-.44-.97.09-3.69.65-3.88,1.81-.26,1.56,2.08,1.74,3.08,1.53Z"/>
    <path class="cls-3" d="M313.54,198.15c-.44.97-1.9,1.58-1.85,2.65s.76,2.18,1.82,2.31c1.19.14,1.14-1.65,2.15-2.29.51-.32-.9-2.01-2.12-2.67"/>
    <path class="cls-3" d="M316.21,199.96c-.49-2.08-1.18-4.21-2.72-5.7s-4.14-2.05-5.82-.74c-1.54,1.2-1.77,3.59-.9,5.34s3.65,3.11,5.45,3.86"/>
    <path class="cls-3" d="M318.79,203.17c-.75-.52-1.92.4-2.78.73s-1.64.85-2.52,1.1c-1.42.41-3.03.07-4.16-.88s-1.26-2.05-1.09-3.51"/>
    <path class="cls-3" d="M316.73,199.85c.69-.14,1.45.13,1.89.68s.55,1.35.26,1.99"/>
    <path class="cls-3" d="M305.87,195.55c-2.22-.64-5.37,1.07-5.77,3.35s1.05,4.65,3.13,5.66,4.28.94,6.35-.09"/>
    <path class="cls-3" d="M312.05,193.29c2.18-.51,4.08-.56,6.19.18s3.95,2.53,4.31,4.74-1.13,4.7-3.35,5.03"/>
    <path class="cls-3" d="M316.74,193.07c-1.23-2.06-3.31-4.26-5.61-4.91s-4.93-.25-6.82,1.23-2.92,4.04-2.4,6.38"/>
    <path class="cls-3" d="M322.87,197.68c1.59.01,2.3.74,3.22,2.04s1.17,3.04.66,4.55c-.63,1.85-2.3,3.19-4.11,3.92-4.12,1.67-9.25.4-12.12-3.01"/>
    <path class="cls-3" d="M300.51,192.62c-1.49.49-2.34,1.73-2.59,3.28s.43,3.21,1.69,4.14"/>
    <path class="cls-3" d="M301.85,203.6c1.05,3.15,3.06,5.05,5.99,6.3,1.52.65,3.17,1.07,4.82.91,1.49-.15,2.92-.8,4.02-1.81"/>
    <path class="cls-3" d="M313.86,189.49c1.81,0,2.93-.13,4.69.31s3.47,1.35,4.51,2.84,1.26,3.61.25,5.12"/>
    <path class="cls-3" d="M307.74,187.94c-1.98-.73-4.66-.83-6.2.63s-.32,4.27.31,6.28"/>
    <path class="cls-3" d="M324.69,207.34c.17,1.21-.09,3.53-.84,4.49s-1.79,1.67-2.89,2.19c-4.4,2.07-9.15.63-12.63-2.77-3.26.32-6.64-1-8.82-3.45s-1.98-6.34-1.28-9.54"/>
    <path class="cls-2" d="M333.07,182.54c-.39-.1-.84-.07-1.15.2-.31.27-.41.71-.47,1.12-.1.6-.17,1.23,0,1.81s.68,1.11,1.29,1.13c.41.01.85-.26.88-.67.03-.37-.26-.68-.49-.97s-.44-.71-.23-1.02c.11-.16.3-.25.49-.31.29-.1.84-.3.67-.72-.11-.29-.73-.5-1-.57Z"/>
    <path class="cls-2" d="M334.49,180.39c.76-.16,1.6.09,2.16.63.12.12.24.26.28.42s.02.36-.1.48c-.3.28-.85-.08-1.2.16-.26.18-.26.61-.54.77-.23.12-.5-.01-.73-.14-.41-.24-1.63-.67-1.4-1.25.21-.54,1-.95,1.53-1.06Z"/>
    <path class="cls-2" d="M331.47,182.74c-.51.29-.77.9-.79,1.49-.04,1.01.54,2.02,1.43,2.49.24.13.52.22.8.19s.55-.2.64-.46c.1-.28-.02-.59-.17-.84s-.32-.51-.35-.81c-.05-.63,1.26-1.37.88-1.86-.2-.25-.91-.32-1.21-.36-.41-.06-.85-.06-1.23.16Z"/>
    <path class="cls-2" d="M339.52,179.95c.45.48.62,1.18.61,1.84-.02,1.78-1.27,3.48-2.96,4.03-.23-.98.04-2.07.71-2.83.2-.23.45-.44.59-.71.22-.44.15-.98-.08-1.41-.18-.35-.44-.62-.71-.91s-.27-.31.1-.41c.63-.18,1.27-.1,1.74.4Z"/>
    <path class="cls-9" d="M332.15,182.47c-.37-.05-.75-.07-1.09.07-.51.21-.82.79-.81,1.34s.29,1.08.67,1.48.87.69,1.36.94c.21.11.43.22.67.24s.5-.07.62-.28c.17-.29,0-.65-.18-.93s-.4-.59-.33-.92c.07-.32.38-.5.65-.69,1.25-.87-.94-1.16-1.57-1.25Z"/>
    <path class="cls-9" d="M334.24,180.94c.54-.05,1.07.15,1.57.36.13.06.27.12.37.22s.15.27.08.4c-.07.13-.22.18-.35.22-.66.19-1.36.38-2.01.19-.44-.13-.84-.43-1.29-.42.16,0,.24.16.43.02.11-.08.12-.3.2-.41.22-.33.62-.54,1.01-.57Z"/>
    <path class="cls-9" d="M339.92,180.01c.57.44.88,1.19.78,1.91-.08.59-.42,1.13-.84,1.55s-.93.75-1.44,1.07c-.25.16-.54.32-.83.23-.41-.13-.47-.72-.27-1.1s.55-.67.76-1.05c.23-.43.25-.94.16-1.42-.09-.44-.65-1.21-.12-1.52s1.38.02,1.79.34Z"/>
    <path class="cls-9" d="M328.27,182.67c-.6.87-.84,1.95-.82,3,0,.3.03.6.16.87s.39.49.68.51c.35.02.67-.25.8-.58s.12-.69.09-1.04-.08-.7-.02-1.05c.07-.41.3-.77.51-1.13.29-.47.58-.94.88-1.41.28-.44.46-.8-.24-.63-.42.1-.81.3-1.16.55-.2.14-.88.63-.88.9Z"/>
    <path class="cls-9" d="M329.45,188.74c.09.52.47.95.93,1.21.99.54,2.36.23,3.02-.68.16-.22.28-.5.19-.75-.11-.3-.48-.42-.79-.49-.79-.18-1.7-.54-2.51-.55-.69-.01-.84.69-.84,1.26Z"/>
    <path class="cls-9" d="M336.06,190.55c.6-.24,1.06-.73,1.49-1.21.21-.24.44-.52.38-.83-.04-.2-.19-.35-.36-.45s-.37-.14-.57-.17c-.33-.06-.68-.1-1.01-.05s-.67.19-.89.45c-.31.38-.56,1.33-.53,1.83.04.68,1.02.62,1.48.44Z"/>
    <path class="cls-9" d="M339.82,188.76c1.14-.04,2.23-.79,2.67-1.85s.2-2.36-.58-3.2c-.51.48-.94,1.06-1.24,1.69-.55,1.14-.72,2.43-.87,3.69"/>
    <path class="cls-3" d="M332.8,184.26c.34.59.37,1.31.93,1.69s1.41.43,1.87-.06c.52-.56.28-1.56-.37-1.97s-1.51-.3-2.17.08"/>
    <path class="cls-3" d="M335.25,183.08c-1.25-.53-2.61-.98-3.95-.75s-2.61,1.35-2.58,2.71c.04,1.25,1.18,2.26,2.4,2.47s2.48-.23,3.55-.87"/>
    <path class="cls-3" d="M337.87,182.96c-.55.19-.52,1.14-.67,1.7s-.18,1.16-.38,1.71c-.32.88-1.11,1.58-2.02,1.8s-1.82.05-2.5-.59"/>
    <path class="cls-3" d="M335.39,182.76c.19-.41.61-.69,1.06-.71s.9.23,1.12.61"/>
    <path class="cls-3" d="M328.79,187.03c-1.17.9-1.18,2.85-.16,3.92s2.78,1.21,4.09.52,2.2-1.96,2.45-3.41"/>
    <path class="cls-3" d="M330.26,182.69c.56-1.31,1.25-2.31,2.43-3.11s2.79-1.08,4.06-.43,1.98,2.35,1.32,3.62"/>
    <path class="cls-3" d="M331.74,180.12c-1.52-.14-3.27.17-4.47,1.11s-1.99,2.44-1.94,3.96.97,3.02,2.37,3.64"/>
    <path class="cls-3" d="M336.59,178.8c.61-.81,1.25-.9,2.26-.88s2,.54,2.58,1.37c.71,1.02.77,2.38.46,3.59-.7,2.75-3.29,4.9-6.11,5.09"/>
    <path class="cls-3" d="M325.56,188.37c-.31.95,0,1.86.71,2.57s1.81.99,2.76.69"/>
    <path class="cls-3" d="M331.71,191.82c2.01.65,3.75.33,5.5-.7.91-.54,1.75-1.22,2.28-2.13.48-.82.69-1.8.58-2.75"/>
    <path class="cls-3" d="M328.99,180.33c.68-.94,1.04-1.55,1.93-2.29s2-1.27,3.16-1.24,2.33.71,2.72,1.8"/>
    <path class="cls-3" d="M325.88,182.89c-1.13.74-2.18,2.08-2.01,3.42s2.07,1.78,3.35,2.21"/>
    <path class="cls-3" d="M342.37,181.52c.69.37,1.65,1.35,1.86,2.1s.18,1.55.03,2.31c-.6,3.04-3.13,4.94-6.19,5.44-1.07,1.8-3.02,3.03-5.1,3.23s-3.84-1.03-5.22-2.6"/>
    <path class="cls-14" d="M79.25,152.63c1.75.28,3.3,1.44,3.91,2.94.1.25.18.52.14.79s-.23.53-.52.61c-.55.15-1.04-.39-1.61-.48-.6-.1-1.17.31-1.78.35-.65.04-1.22-.33-1.74-.69-.68-.47-1.36-.94-2.03-1.41-.73-.51-1.09-.76-.21-1.32,1.1-.7,2.52-.98,3.85-.78Z"/>
    <path class="cls-14" d="M70.27,157.38c-.21,1.12.23,2.32.88,3.07s1.47,1.16,2.27,1.54c.15.07.23-1.61.21-1.77-.06-.59-.37-1.1-.41-1.69-.07-1.03,1.06-1.25.74-2.38-.27-.97-1.47-.94-2.08-.74-.73.24-1.42.93-1.61,1.96Z"/>
    <path class="cls-14" d="M85.76,155.8c.7.95,1.02,2.19.87,3.38-.2,1.6-1.22,3.01-2.51,3.92s-2.83,1.35-4.38,1.59c-.89.14-1.98.12-2.48-.66-.47-.74-.11-1.78.5-2.39s1.44-.95,2.15-1.44c1.45-.99,2.39-2.67,2.63-4.44.1-.76.11-1.52,1.05-1.48.83.03,1.69.87,2.17,1.51Z"/>
    <path class="cls-14" d="M86.84,165.72c-.66,1.13-1.82,1.97-3.11,2.24-.61.13-1.33.1-1.74-.36-.37-.41-.36-1.05-.17-1.57.41-1.13,1.52-1.84,2.55-2.47.59-.36,1.19-.72,1.78-1.08.52-.31,1.02-.89,1.24-.1.3,1.07,0,2.4-.56,3.33Z"/>
    <path class="cls-14" d="M74.36,167.17c.68.11,1.38.06,2.07.02.57-.04,1.18-.09,1.64-.43s.65-1.1.23-1.49c-.15-.14-.35-.21-.54-.28-.62-.21-1.23-.42-1.85-.63-.47-.16-.99-.32-1.46-.14-.64.25-1.05,1.09-1.45,1.61-.69.88.58,1.22,1.36,1.34Z"/>
    <path class="cls-14" d="M65.17,162.63c.25,1.45,1.5,2.63,2.95,3.12s3.06.4,4.55.03c.33-.08.66-.18.92-.38s.45-.52.4-.83c-.07-.4-.47-.65-.83-.87-.55-.34-1.07-.71-1.6-1.09-.78-.55-1.55-1.11-2.33-1.66-.56-.4-1.29-1.2-1.98-1.39-1.52-.4-2.26,2.01-2.08,3.06Z"/>
    <path class="cls-14" d="M70.17,151.16c-.89.1-1.71.48-2.48.9-.75.4-1.49.84-2.04,1.44-1.32,1.42-1.32,3.68,0,5.1.38-.15.76-.29,1.13-.44-.45-1.54.45-3.31,2.05-4.02.67-.3,1.44-.42,2.06-.81.43-.27,1.29-.98,1.21-1.52-.1-.67-1.37-.71-1.94-.65Z"/>
    <path class="cls-3" d="M73.41,157.23c.12,1.07-.29,2.15.3,3.05s1.78,1.52,2.78,1.09c1.11-.48,1.38-2.1.7-3.1s-2.02-1.39-3.22-1.25"/>
    <path class="cls-3" d="M77.73,157.05c-1.49-1.56-3.19-3.07-5.29-3.58s-4.67.33-5.46,2.33c-.73,1.84.3,4.04,1.95,5.12s3.77,1.23,5.73.96"/>
    <path class="cls-3" d="M81.63,158.52c-.93-.07-1.47,1.33-2.05,2.06s-.99,1.58-1.63,2.25c-1.03,1.09-2.61,1.61-4.08,1.36s-2.68-1.07-3.28-2.44"/>
    <path class="cls-3" d="M78.13,156.67c.53-.48,1.33-.63,2-.37s1.17.89,1.25,1.6"/>
    <path class="cls-3" d="M65.81,158.75c-2.27.58-3.52,3.42-2.7,5.62s3.3,3.52,5.63,3.33,4.44-1.48,5.72-3.44"/>
    <path class="cls-3" d="M70.68,153.35c1.65-1.56,3.27-2.58,5.5-3.01s4.75.18,6.19,1.93,1.42,4.68-.35,6.11"/>
    <path class="cls-3" d="M74.47,150.53c-2.13-1.17-4.88-1.8-7.23-1.19s-4.43,2.31-5.32,4.56-.48,5.02,1.17,6.8"/>
    <path class="cls-3" d="M82.38,151.64c1.39-.81,2.39-.53,3.85.13s2.58,2.05,2.91,3.63c.4,1.94-.37,3.96-1.58,5.53-2.74,3.57-7.88,5.09-12.12,3.59"/>
    <path class="cls-3" d="M60.26,158.67c-1.05,1.19-1.16,2.71-.58,4.19s2.02,2.58,3.6,2.75"/>
    <path class="cls-3" d="M67.06,167.58c2.53,2.21,5.26,2.84,8.46,2.43,1.66-.21,3.32-.69,4.67-1.67,1.22-.89,2.14-2.19,2.58-3.64"/>
    <path class="cls-3" d="M64.18,150.89c-2.11.37-4.5,1.67-5.09,3.73s1.9,3.89,3.49,5.33"/>
    <path class="cls-3" d="M89.1,159.25c.77.97,1.55,3.01,1.39,4.24s-.71,2.37-1.41,3.39c-2.78,4.07-7.67,5.24-12.45,4.05-2.68,1.95-6.32,2.53-9.47,1.51s-4.96-3.92-5.99-7.08"/>
    <path class="cls-15" d="M58.31,122.07c-.96-.45-2.2-.22-2.94.55-.51.53-.76,1.25-.86,1.97-.3,2.15.82,4.42,2.7,5.5.05-1.02.11-2.07.51-3.01.42-1.01,1.71-1.56,2-2.57s-.56-2.05-1.4-2.44Z"/>
    <path class="cls-15" d="M64.49,120.93c1.22.8,1.84,2.41,1.48,3.82-.08.29-.19.58-.38.82-.68.89-2.19.82-2.95,0-.58-.61-.78-1.49-1.24-2.2-.49-.76-2.48-2.25-1.42-2.98s3.59-.08,4.51.53Z"/>
    <path class="cls-15" d="M67.77,135c-2.47,1.81-6.2,1.63-8.47-.41-.27-.24-.53-.54-.51-.9.02-.33.28-.59.54-.8,2.87-2.4,6.16-2.17,9.42-3.48,1.62-.65,1.93-.14,1.55,1.57-.35,1.58-1.23,3.05-2.53,4.01Z"/>
    <path class="cls-15" d="M50.6,117.9c-1.2,1-1.94,2.6-1.73,4.15.08.58.51,1.28,1.07,1.12.58-.15.59-.95.66-1.55.13-1.06.92-2.01,1.94-2.33.89-.28,6.27.77,4.98-1.93-.97-2.05-5.7-.47-6.92.55Z"/>
    <path class="cls-15" d="M52.47,134.73c.6.15,1.24.19,1.83,0s1.12-.63,1.3-1.22c.71-2.28-3.45-7.09-6.03-5.98-1.53.66-1.19,2.95-.66,4.17.64,1.48,1.99,2.65,3.55,3.04Z"/>
    <path class="cls-15" d="M66.56,138.89c-.6.24-1.26.37-1.89.28-.18-.02-.36-.07-.54-.13.14.05,1.75-2.44,2.96-2.12,1.83.48.48,1.56-.54,1.97Z"/>
    <path class="cls-3" d="M59.33,124.87c-.32,1.23-1.91,2.23-1.64,3.47s1.32,2.41,2.59,2.35c1.42-.06,1.01-2.16,2.06-3.11.53-.48-1.46-2.18-3.02-2.71"/>
    <path class="cls-3" d="M62.82,126.48c-.98-2.34-2.22-4.71-4.31-6.14s-5.26-1.59-6.97.28c-1.57,1.71-1.37,4.56,0,6.44s4.89,2.92,7.15,3.45"/>
    <path class="cls-3" d="M66.48,129.73c-.99-.46-2.17.85-3.11,1.41s-1.75,1.32-2.73,1.79c-1.58.76-3.54.68-5.05-.21s-1.89-2.15-1.97-3.9"/>
    <path class="cls-3" d="M63.41,126.23c.78-.3,1.72-.13,2.35.43s.91,1.47.7,2.28"/>
    <path class="cls-3" d="M49.83,123.34c-2.73-.31-6.09,2.31-6.11,5.06s2.15,5.24,4.79,6.01,5.2.26,7.42-1.36"/>
    <path class="cls-3" d="M56.63,119.47c2.46-1.03,4.67-1.47,7.29-1.01s5.14,2.18,5.99,4.7-.4,5.73-2.93,6.56"/>
    <path class="cls-3" d="M62.08,118.29c-1.85-2.17-4.72-4.34-7.55-4.65s-5.83.68-7.75,2.78-2.63,5.31-1.56,7.95"/>
    <path class="cls-3" d="M70.18,122.49c1.87-.3,2.84.41,4.18,1.75s1.98,3.33,1.67,5.2c-.37,2.29-2.07,4.19-4.05,5.41-4.5,2.77-10.77,2.29-14.8-1.13"/>
    <path class="cls-3" d="M46.71,133.58c1.85,3.48,4.59,5.32,8.27,6.2,1.91.46,3.93.63,5.83.11,1.71-.47,3.27-1.51,4.35-2.92"/>
    <path class="cls-3" d="M58,114.66c2.12-.37,3.41-.73,5.56-.57s4.33.89,5.84,2.44,2.19,3.98,1.3,5.95"/>
    <path class="cls-3" d="M50.52,114.05c-2.47-.47-5.63-.05-7.14,1.97s.46,5.07,1.61,7.3"/>
    <path class="cls-3" d="M74.22,133.45c.44,1.38.6,4.15-.09,5.43s-1.77,2.31-2.96,3.14c-4.75,3.3-10.61,2.54-15.36-.76-3.76,1.02-7.99.14-11.03-2.3s-3.57-7.04-3.39-10.94"/>
  </g>
</svg>