<?xml version="1.0" encoding="UTF-8"?>
<svg id="_レイヤー_1" data-name="レイヤー 1" xmlns="http://www.w3.org/2000/svg" viewBox="0 0 370 320">
  <defs>
    <style>
      .cls-1 {
        stroke-miterlimit: 10;
      }

      .cls-1, .cls-2, .cls-3 {
        fill: none;
        stroke: #000;
      }

      .cls-2, .cls-3 {
        stroke-linecap: round;
        stroke-linejoin: round;
      }

      .cls-3 {
        stroke-width: .5px;
      }
    </style>
  </defs>
  <g id="black">
    <g id="monokuro">
      <path d="M180.26,94.29l-.43,1.77c-3.83.95-6.99,2.13-9.5,3.54-2.51,1.42-5.88,3.99-10.14,7.73-11.31,9.88-21.16,17.46-29.54,22.75,2.41,2.98,4.47,6.31,6.17,9.99,1.7,3.69,4.66,12.17,8.87,25.45,3.78,11.86,7.64,19.87,11.57,24.03,3.93,4.16,7.92,6.24,11.99,6.24s6.6-2.08,8.02-6.24c.85-2.46,1.58-3.97,2.2-4.54.85-.76,1.8-1.13,2.84-1.13,1.13,0,2.1.39,2.91,1.17.8.78,1.21,1.71,1.21,2.8,0,2.84-1.68,5.58-5.04,8.22-3.36,2.65-7.61,3.97-12.77,3.97-4.45,0-8.67-1.14-12.66-3.4-4-2.27-7.65-5.84-10.96-10.7-3.31-4.87-6.69-12.41-10.15-22.61-3.22-9.64-5.7-16.25-7.45-19.81-1.75-3.57-4.19-7.34-7.31-11.31l-7.52,28.71c-1.51,5.81-2.46,9.97-2.84,12.48,3.22,1.37,6.1,2.06,8.65,2.06.61,0,1.49-.05,2.62-.14l-.92,3.54c-.94.05-1.53.07-1.77.07-1.56,0-3.77-.17-6.65-.5-3.02-.33-5.5-.5-7.43-.5-3.92,0-10.12.76-18.61,2.27l.43-3.4c4.51-.9,7.69-2.14,9.52-3.72,1.83-1.58,3.29-4.08,4.38-7.48,2.51-7.66,5.77-19.16,9.79-34.52l8.65-32.82c-9.34.57-16.72,2.69-22.15,6.38-4.2,2.79-6.3,5.91-6.3,9.36,0,1.23.58,2.79,1.74,4.68,1.06,1.7,1.6,3.07,1.6,4.11,0,1.28-.47,2.4-1.41,3.37-.94.97-2.04,1.45-3.31,1.45-1.46,0-2.76-.73-3.91-2.2-1.15-1.46-1.72-3.4-1.72-5.81,0-6.57,3.27-12.49,9.8-17.76,6.54-5.27,17.9-7.9,34.08-7.9h4.6c-2.6,6.75-4.3,11.63-5.1,14.65l-5.65,21.5c3.5-1.32,7.58-3.58,12.24-6.77,4.66-3.19,9.14-6.58,13.45-10.17,7.9-6.62,12.4-10.63,13.48-12.05.33-.47.5-.87.5-1.21,0-.38-.49-.72-1.45-1.03-.97-.31-3.7-.51-8.19-.6l.92-3.97c6.05.57,11.01.85,14.89.85s8.55-.28,13.75-.85Z"/>
      <path d="M186.66,110.93l.85-3.19c6.86-.66,12.72-1.61,17.59-2.84-1.17,3.32-2.43,7.65-3.78,13.01l-5.36,19.96,6.52.35c3.02.14,6.32-.61,9.89-2.27,3.57-1.65,6.76-4.56,9.57-8.72,2.81-4.16,4.22-8.65,4.22-13.47s-1.71-8.55-5.13-11.34c-3.42-2.79-8.65-4.18-15.69-4.18-8.03,0-15.88,2-23.58,5.99-7.7,3.99-13.63,9.1-17.81,15.31-4.18,6.21-6.27,12.35-6.27,18.39,0,2.98.54,5.56,1.63,7.76,1.09,2.2,3.02,4.36,5.81,6.49,2.31,1.7,3.47,3.36,3.47,4.96,0,1.04-.38,1.91-1.14,2.62s-1.66,1.06-2.7,1.06c-2.8,0-5.51-1.91-8.12-5.74-2.61-3.83-3.92-8.67-3.92-14.53,0-10.73,4.11-20.51,12.33-29.35,10.77-11.62,25.23-17.44,43.38-17.44,6.9,0,12.56.9,16.98,2.69,4.42,1.8,7.73,4.25,9.92,7.37,2.2,3.12,3.3,6.5,3.3,10.14,0,4.63-1.54,9.18-4.63,13.65-3.08,4.47-7.63,8.07-13.63,10.81-6,2.74-12.68,4.11-20.02,4.11-1.13,0-2.9-.07-5.3-.21l-5.7,22.06c-.94,3.73-2.01,7.41-3.18,11.05,3.68.9,6.89,1.34,9.62,1.34,3.44,0,7.15-.66,11.11-1.98l-.85,3.97c-3.68.99-6.8,1.49-9.35,1.49s-6.04-.26-10.76-.78c-3.78-.47-6.84-.71-9.21-.71-4.58,0-9.28.54-14.09,1.63l.85-3.76c4.91-.8,8.26-1.96,10.06-3.47,2.55-2.13,4.63-6.4,6.23-12.83l10.69-42.46c.47-1.98.71-3.38.71-4.18,0-.76-.31-1.43-.92-2.02-.61-.59-1.35-.89-2.2-.89-.33,0-.8.05-1.42.14Z"/>
      <path d="M268.03,151.49h-3.69c.52-4.96.78-8.72.78-11.27,0-3.64-.98-6.51-2.94-8.61-1.96-2.1-4.61-3.15-7.96-3.15-5.19,0-9.71,1.88-13.58,5.64-3.87,3.76-5.8,7.98-5.8,12.66,0,2.51.53,4.78,1.59,6.81,1.06,2.03,3.4,4.87,7.03,8.51,6.64,6.53,11,11.63,13.08,15.32,2.07,3.69,3.11,7.28,3.11,10.78,0,5.15-1.57,10.12-4.71,14.9-3.14,4.78-7.77,8.71-13.89,11.81-6.12,3.1-12.58,4.65-19.39,4.65s-12.37-1.75-16.98-5.25c-4.61-3.5-6.91-7.18-6.91-11.06,0-2.08.6-3.8,1.81-5.17,1.21-1.37,2.59-2.06,4.15-2.06s2.93.64,3.97,1.91c.66.76,1.32,2.46,1.98,5.1.76,3.21,1.68,5.54,2.76,6.98,1.09,1.44,2.59,2.62,4.5,3.54,1.91.92,4.01,1.38,6.27,1.38,6.76,0,12.66-2.28,17.72-6.85,5.06-4.56,7.58-9.61,7.58-15.15,0-1.89-.32-3.77-.96-5.64-.64-1.87-1.81-3.98-3.51-6.35-1.18-1.61-3.8-4.45-7.87-8.51-4.02-3.97-6.55-6.69-7.58-8.16-1.47-2.13-2.55-4.27-3.26-6.42s-1.06-4.29-1.06-6.42c0-4.3,1.44-8.63,4.32-12.98,2.88-4.35,6.63-7.81,11.24-10.39,4.61-2.58,9.84-3.87,15.7-3.87,2.93,0,6.54.45,10.85,1.35,2.46.47,4.58.83,6.38,1.06-1.04,3.07-1.84,5.97-2.41,8.68-.57,2.72-1.35,8.12-2.34,16.2Z"/>
      <g>
        <path d="M150.97,60.59c.02.11.03.16.04.27-.65.5-1.15.98-1.5,1.42-.35.44-.78,1.12-1.25,2.05-1.25,2.45-2.25,4.49-3.15,6.11.65.06,1.26.21,1.84.44.58.24,1.77.9,3.49,2.06,1.54,1.03,2.73,1.64,3.63,1.78.89.15,1.63.06,2.22-.29.58-.33.82-.81.75-1.46-.04-.38-.04-.64.02-.76.08-.17.2-.29.36-.38.17-.09.35-.12.52-.08.18.04.3.13.37.27.19.36.11.85-.21,1.45s-.85,1.11-1.59,1.55c-.64.37-1.33.6-2.08.69-.75.09-1.55,0-2.43-.26-.88-.26-2-.8-3.38-1.62-1.3-.77-2.26-1.25-2.85-1.45-.58-.2-1.3-.34-2.15-.4.56,1.68.86,2.51,1.48,4.15.32.83.58,1.4.76,1.72.58-.23,1.05-.49,1.41-.78.09-.07.21-.18.36-.31.07.2.11.3.19.51-.13.11-.21.18-.24.21-.22.18-.55.41-.98.71-.45.31-.81.59-1.07.83-.54.47-1.32,1.31-2.28,2.56-.12-.16-.17-.24-.29-.41.51-.68.81-1.21.91-1.61.09-.4.05-.85-.12-1.35-.39-1.14-1.03-2.8-1.84-5.02-.69-1.9-1.02-2.87-1.63-4.82-1.52,1.33-2.52,2.64-3.02,3.83-.39.91-.4,1.55-.06,1.91.12.13.37.21.73.24.33.03.55.09.65.2.13.13.17.32.12.56-.05.24-.16.44-.35.63-.22.21-.48.32-.8.34-.32.02-.6-.09-.85-.34-.67-.67-.79-1.78-.28-3.31.51-1.53,2.12-3.53,4.91-5.67.32-.24.48-.36.8-.6.13,1.12.27,1.9.4,2.35.38,1.28.58,1.91.99,3.17.44-.59.89-1.35,1.38-2.29.49-.93.96-1.86,1.41-2.79.82-1.71,1.33-2.7,1.42-2.99.02-.09.02-.16,0-.2-.03-.05-.14-.04-.34.03-.2.07-.71.35-1.51.86-.06-.24-.09-.35-.15-.59,1.13-.64,2.05-1.15,2.76-1.57.73-.43,1.55-.95,2.48-1.54Z"/>
        <path d="M155.12,64.71c-.24-.09-.37-.14-.61-.23.27-.37.41-.56.69-.92.68-.9,1.2-1.49,1.52-1.8.18-.17.36-.3.54-.38s.39-.08.62,0c1.06.37,2.09,1.06,3.06,2.05.98,1,1.66,2.08,2.09,3.21.06.15.13.37.23.68.56-2.49.74-4.33.34-5.51-.08-.25-.27-.55-.56-.9-.31-.39-.51-.69-.57-.89-.07-.19-.04-.37.08-.55.12-.18.31-.31.56-.4.31-.1.59-.1.84.01.25.11.42.33.53.66.27.84.34,1.97.26,3.38-.08,1.41-.37,3.01-.82,4.79-.44,1.78-.86,3.17-1.32,4.17-.46,1-.94,1.8-1.47,2.41-.53.61-1.08,1.06-1.66,1.37-.44.23-.81.34-1.12.32-.3-.02-.52-.13-.63-.33-.1-.18-.1-.38,0-.61.1-.23.31-.42.61-.59.23-.13.57-.26,1.02-.39.48-.14.8-.24.96-.32.42-.21.8-.58,1.13-1.12.46-.74.76-1.49.91-2.27s.1-1.48-.16-2.11c-.36-.88-.95-1.87-1.79-2.96-.84-1.09-1.72-1.82-2.63-2.19-.46-.19-.87-.2-1.22-.04-.41.19-.91.68-1.45,1.46Z"/>
        <path d="M173.7,56.47c.9-.15,1.69,0,2.36.46.66.45,1.04,1.15,1.15,2.1.18,1.51-.34,2.93-1.45,4.32-1.1,1.39-2.29,2.22-3.67,2.52-.85.19-1.58.12-2.22-.21-.64-.33-1.08-.88-1.3-1.68-.38-1.38-.24-2.81.52-4.25.95-1.79,2.54-2.92,4.61-3.26ZM172.67,57.43c-.77.14-1.44.7-1.96,1.67-.52.96-.6,2.16-.26,3.59.21.86.57,1.5,1.08,1.91.37.3.8.4,1.28.3.68-.14,1.23-.6,1.67-1.4.57-1.03.77-2.22.56-3.57-.16-1.01-.45-1.71-.88-2.08-.43-.37-.93-.51-1.49-.41Z"/>
        <path d="M189.94,55.98c.79.06,1.18.09,1.97.17-.66,1.37-.98,2.06-1.59,3.45-.9,2.02-1.3,3.18-1.32,3.47,0,.13.02.23.09.3.07.07.15.11.24.12.14,0,.31-.03.5-.12.28-.14.83-.49,1.67-1.04.15.17.22.25.37.42-1.83,1.23-3.05,1.88-3.81,1.84-.26-.01-.47-.11-.65-.28-.18-.17-.26-.41-.25-.72.01-.36.12-.83.32-1.41-.77.67-1.7,1.26-2.76,1.79-.71.35-1.31.54-1.82.56-.28,0-.51-.06-.68-.21-.17-.15-.26-.39-.28-.74-.01-.27,0-.56.07-.87.09-.43.32-1.31.73-2.63.52-1.67.81-2.66.81-2.99,0-.19-.1-.29-.28-.28-.16,0-.39.07-.66.21s-.75.46-1.39.98c-.24-.13-.37-.19-.61-.32,1.15-.9,2.08-1.47,2.72-1.74.64-.27,1.17-.4,1.57-.4.22,0,.4.06.54.18.14.12.21.31.2.56,0,.47-.36,1.63-.97,3.48-.55,1.66-.79,2.62-.79,2.85,0,.14.06.27.17.37.11.1.24.15.37.15.46,0,1.11-.32,1.99-.94.88-.61,1.49-1.3,1.8-2.09.65-1.66,1-2.48,1.72-4.12Z"/>
        <path d="M196.55,65.28c-.71-.14-1.07-.2-1.79-.32.52-1.03.78-1.55,1.33-2.57.67-1.26,1.29-2.44,1.87-3.57.14-.28.22-.46.23-.53.03-.16-.05-.26-.25-.3-.13-.03-.36,0-.66.09-.3.09-.87.34-1.68.77-.14-.17-.21-.25-.36-.42.96-.56,1.92-.93,2.86-1.11.93-.18,1.64-.2,2.11-.09.16.04.29.1.37.17.08.08.11.16.09.25-.02.09-.13.3-.34.65-.4.66-.6,1-.99,1.67,1.12-.87,2.36-1.53,3.72-1.96.65-.21,1.17-.25,1.54-.14.27.08.48.21.62.4.14.18.18.36.13.53-.05.18-.19.3-.4.37-.21.07-.69.08-1.43.06-.7-.02-1.29.03-1.76.16-.47.13-1.01.37-1.6.73-.6.37-1.02.71-1.29,1.03-.27.32-.74,1.08-1.38,2.31-.38.73-.57,1.1-.94,1.84Z"/>
        <path d="M205.69,61.22c-.18-.21-.28-.31-.46-.52,1.09-.44,2.07-.67,2.9-.71.83-.04,1.51.05,2.02.25.28.11.48.24.59.39.11.15.14.3.07.45-.08.18-.68.84-1.77,2.01-1.78,1.91-2.68,3.14-2.86,3.61-.03.09-.03.18,0,.26s.08.13.14.16c.25.09,1.03-.07,2.4-.42.13.22.19.33.31.55-1.42.36-2.39.59-2.96.64-.57.05-1.01.02-1.32-.09-.27-.09-.46-.24-.57-.44s-.12-.42-.04-.67c.27-.81,1.49-2.62,3.93-5.26.11-.13.19-.25.24-.36.05-.13,0-.22-.16-.28-.17-.06-.39-.08-.65-.06-.26.02-.87.18-1.81.49ZM213.34,56.84c.29.12.5.29.62.5s.15.41.06.61c-.12.28-.37.46-.73.55-.37.09-.72.07-1.06-.08-.27-.11-.47-.27-.6-.48-.13-.21-.15-.42-.06-.63.11-.29.34-.48.69-.57.35-.09.71-.06,1.08.1Z"/>
        <path d="M218.68,62.56c.94.23,1.4.35,2.34.62-.95.77-1.42,1.16-2.35,1.96,1.02.58,1.53.89,2.53,1.52-.23.2-.35.3-.58.5-.99-.62-1.49-.92-2.51-1.5-1.1.95-1.65,1.44-2.71,2.43-.82.73-1.31,1.28-1.5,1.64-.09.16-.11.3-.06.42.05.12.15.22.29.3.23.13.65.21,1.25.26.79.07,1.58.09,2.37.08.07.27.11.4.17.66-2.21-.06-3.62-.03-4.28-.1s-1.16-.19-1.49-.36c-.27-.14-.45-.33-.52-.57-.08-.25-.03-.55.16-.93.22-.44.69-1.05,1.44-1.8,1.21-1.22,1.83-1.82,3.09-3-.8-.42-1.21-.63-2.02-1.02.22-.22.33-.33.55-.54.82.4,1.23.61,2.04,1.04.7-.64,1.06-.96,1.78-1.59Z"/>
        <path d="M230.79,74.53c-.77-.48-1.43-.95-1.99-1.43-.31-.27-.64-.57-1-.91-.49-.47-.83-.78-1.01-.93-.23-.18-.43-.28-.61-.3-.18-.02-.32.03-.41.15-.14.18-.08.39.17.61.31.28.39.53.24.73-.07.09-.19.13-.35.12-.16,0-.31-.07-.44-.17-.26-.21-.44-.49-.52-.86-.08-.37-.02-.7.2-.99.28-.37.74-.53,1.38-.46s1.29.37,1.93.89c.33.27.76.68,1.26,1.22.82.88,1.4,1.51,1.79,1.87.39.36.84.62,1.35.77.23.07.4.16.5.26.09.08.14.18.17.27.02.1.02.16-.01.2-.05.05-.14.06-.28.04-.44-.04-1.37-.2-2.77-.42-2.15-.34-3.21-.45-5.29-.57-1.52-.09-2.75-.12-3.7-.15.43.26.75.48.97.65.31.24.58.48.8.72.22.24.56.66.99,1.26.56.79,1.04,1.4,1.48,1.79.27.25.53.39.76.43.24.04.43-.02.57-.17.08-.08.13-.26.18-.51.04-.23.11-.39.18-.47.11-.12.26-.17.45-.16.19.01.36.1.52.25.19.18.3.4.31.64.02.24-.07.45-.24.63-.27.28-.68.43-1.24.49-.55.05-1.1-.02-1.65-.22-.55-.2-1.11-.55-1.71-1.06-.49-.42-1.11-1.14-1.9-2.13-.66-.82-1.2-1.36-1.59-1.65-.24-.17-.58-.27-1.04-.29-.27,0-.47-.04-.6-.13-.26-.18-.35-.31-.28-.42.07-.1.22-.17.46-.2.65-.11,2.17-.21,4.66-.08,1.68.09,3.2.22,4.55.34,1.09.1,1.64.17,2.75.32Z"/>
      </g>
      <g>
        <path d="M124.5,231.03c-.04-.26-.06-.39-.09-.65,1.09,0,2.04.13,2.85.38.81.25,1.42.55,1.85.91.16.14.26.28.3.42.04.14,0,.28-.1.41-.13.15-.28.29-.46.41-.18.12-.63.39-1.36.79,1.69.07,2.79.12,3.31.22.88.17,1.58.45,2.1.84.34.26.53.6.57,1.04s-.13.93-.52,1.46c-.97,1.34-2.43,2.23-4.42,2.59-1.99.35-3.68-.04-4.99-1.15-.51-.44-.94-.98-1.26-1.63-1.26.69-1.89,1.04-3.17,1.7-.2.1-.34.2-.42.29-.17.19-.19.41-.06.68.2.41.77,1.11,1.73,2.08-.19.11-.29.16-.48.26-1.15-1.1-2.05-1.98-2.72-2.6-.69-.64-1.61-1.45-2.75-2.46.2-.09.3-.13.5-.22.58.5,1.07.78,1.48.85.41.07.89-.04,1.45-.33,2.91-1.53,4.34-2.34,7.13-4.01,1.3-.78,2-1.24,2.11-1.36.12-.13.1-.27-.07-.41-.28-.25-1.11-.4-2.51-.5ZM123.28,236.46c.19.89.59,1.59,1.18,2.08.85.71,2.02.83,3.45.33s2.5-1.26,3.23-2.23c.24-.31.33-.61.28-.9-.05-.29-.22-.55-.51-.78-.32-.25-.78-.41-1.38-.49-.93-.12-1.73-.14-2.37-.04-.46.07-1.08.35-1.87.83-.8.49-1.2.72-2.01,1.2Z"/>
        <path d="M141.95,248.11c.05.2.08.3.13.49-1.04.25-2.05.34-3.02.28-.66-.04-1.16-.16-1.5-.36-.28-.16-.45-.37-.52-.63-.07-.26,0-.57.2-.92.14-.24.4-.54.79-.92.39-.38,1.31-1.14,2.73-2.32.67-.6,1.03-.96,1.1-1.09.11-.19.04-.36-.21-.5-.31-.17-.76-.26-1.36-.29-.84-.03-1.67.06-2.49.27-.52.14-1.08.48-1.69,1.01-1.11.99-1.68,1.48-2.82,2.45-.69-.44-1.03-.67-1.7-1.13,1.03-.74,1.85-1.37,2.46-1.88,2.1-1.76,3.13-2.66,5.14-4.51.92-.85,1.78-1.42,2.56-1.72.78-.29,1.62-.4,2.52-.33.9.07,1.69.28,2.38.65.29.15.48.34.59.56.1.22.1.42,0,.62-.09.17-.25.27-.48.31-.23.04-.5-.02-.78-.17-.16-.09-.37-.22-.61-.39-.54-.39-.93-.66-1.15-.79-.31-.18-.63-.21-.95-.11-.32.1-.83.5-1.52,1.18-1.5,1.47-2.26,2.19-3.81,3.61,1.31-.19,2.61-.25,3.91-.19.76.03,1.32.14,1.68.33.28.15.46.34.55.56.09.22.06.46-.07.71-.11.21-.25.4-.41.57-.28.3-.86.83-1.72,1.57-1.18,1.02-1.92,1.65-2.19,1.91-.26.26-.46.51-.6.76-.05.1-.07.18-.06.25.02.07.07.13.15.18.19.1.64.13,1.34.06.39-.03.86-.07,1.41-.12Z"/>
        <path d="M153.13,246.08c.74.29,1.26.76,1.58,1.44.32.68.33,1.47.01,2.37-.5,1.43-1.57,2.51-3.28,3.16-1.71.65-3.32.66-4.75.04-.88-.38-1.49-.92-1.82-1.6-.33-.68-.31-1.39.04-2.14.61-1.3,1.65-2.28,3.07-2.97,1.76-.86,3.45-.96,5.15-.3ZM151.88,246.42c-.64-.26-1.42-.13-2.36.37-.93.5-1.71,1.41-2.3,2.75-.36.81-.45,1.54-.26,2.18.14.47.46.81.95,1.02.69.29,1.46.21,2.28-.23,1.05-.57,1.81-1.52,2.29-2.8.36-.96.46-1.7.31-2.23-.15-.53-.46-.88-.92-1.07Z"/>
        <path d="M162.14,247.35c.79-.05,1.18-.08,1.97-.15-.6,1.04-.9,1.55-1.52,2.58.97.25,1.46.36,2.44.58-.14.27-.21.4-.35.67-.99-.22-1.48-.34-2.47-.59-.76,1.23-1.14,1.84-1.93,3.05-.61.9-.98,1.55-1.08,1.94-.05.18-.04.32.04.43.07.11.2.18.37.23.26.07.7.06,1.3-.05.79-.14,1.56-.35,2.29-.62.15.23.22.34.37.57-2.09.69-3.53,1.02-4.23,1.09-.7.07-1.24.05-1.63-.06-.32-.09-.54-.25-.67-.48-.13-.23-.14-.55-.01-.95.14-.47.52-1.14,1.12-2.02.96-1.42,1.43-2.13,2.35-3.57-.77-.21-1.15-.32-1.91-.55.17-.25.25-.38.42-.63.76.23,1.13.34,1.89.54.5-.79.75-1.19,1.24-1.99Z"/>
        <path d="M173.72,251.14c.78.09,1.4.42,1.87,1,.47.58.68,1.34.6,2.29-.12,1.51-.88,2.83-2.35,3.88-1.47,1.06-3.01,1.48-4.53,1.24-.94-.14-1.65-.51-2.13-1.08-.48-.57-.64-1.27-.49-2.08.27-1.41,1.02-2.62,2.19-3.65,1.47-1.28,3.06-1.8,4.85-1.6ZM172.61,251.79c-.68-.09-1.39.23-2.16.96-.77.72-1.28,1.8-1.52,3.24-.14.88-.05,1.6.29,2.18.25.42.64.67,1.16.74.73.1,1.45-.16,2.12-.8.87-.82,1.36-1.93,1.5-3.29.11-1.02.02-1.76-.26-2.24-.28-.47-.66-.74-1.15-.8Z"/>
        <path d="M191.68,251.27c.71-.07,1.27-.02,1.68.17.41.19.64.43.68.74.02.18-.04.35-.19.51-.15.16-.34.25-.58.28-.15.02-.29,0-.41-.04-.12-.04-.3-.17-.53-.38-.44-.4-.85-.58-1.24-.55-.33.03-.61.16-.85.4-.24.23-.34.51-.32.83.02.28.12.54.31.79.19.25.63.64,1.36,1.16,1,.71,1.56,1.42,1.64,2.14.08.72-.23,1.39-.97,2.01-.73.62-1.73.98-2.98,1.06-1.05.07-1.84-.06-2.36-.37-.52-.31-.79-.71-.8-1.2,0-.24.08-.44.27-.6.18-.16.41-.25.69-.26.24-.01.45.04.63.16.18.12.27.26.28.43,0,.07,0,.16,0,.27,0,.09,0,.16,0,.23.01.23.15.41.4.55.24.14.57.2.98.18.47-.03.88-.12,1.23-.28.35-.15.61-.37.78-.64.18-.27.25-.54.23-.79-.02-.24-.14-.48-.34-.71-.21-.23-.65-.6-1.33-1.11-.94-.72-1.41-1.46-1.45-2.19-.04-.67.25-1.27.85-1.82.6-.55,1.38-.86,2.34-.96Z"/>
        <path d="M198.99,248.6c.69-.39,1.03-.59,1.7-.99-.08,1.19-.13,1.79-.24,2.99.98-.2,1.47-.31,2.45-.55,0,.3-.01.45-.02.75-.99.23-1.48.34-2.47.55-.14,1.43-.22,2.15-.4,3.58-.15,1.08-.2,1.82-.12,2.21.03.18.11.3.22.37.11.06.26.08.43.04.27-.05.65-.25,1.14-.61.65-.47,1.24-.99,1.78-1.55.23.14.35.21.59.35-1.58,1.53-2.72,2.46-3.32,2.83-.59.37-1.09.59-1.48.66-.32.06-.59,0-.81-.14-.22-.15-.36-.43-.43-.84-.08-.49-.04-1.25.12-2.31.24-1.7.35-2.54.54-4.24-.78.14-1.17.21-1.95.33.04-.3.06-.45.1-.75.77-.13,1.16-.19,1.93-.34.1-.93.15-1.4.24-2.33Z"/>
        <path d="M213.24,246.44c.65-.25.97-.37,1.61-.64.12,1.5.16,2.25.24,3.76.1,2.19.17,3.43.27,3.7.05.12.12.2.22.24.1.04.19.04.28,0,.14-.05.29-.16.44-.33.21-.25.59-.82,1.09-1.71.22.08.33.11.55.19-1.08,2-2.09,3.13-2.89,3.42-.27.1-.53.1-.77.01-.24-.09-.42-.28-.52-.57-.12-.34-.19-.82-.21-1.44-.5.92-1.21,1.81-2.16,2.67-.63.57-1.22.93-1.77,1.09-.3.09-.56.08-.77-.02-.21-.1-.37-.32-.46-.65-.07-.26-.12-.55-.12-.86-.01-.44.03-1.36.09-2.73.08-1.74.04-2.77-.06-3.08-.06-.18-.16-.25-.32-.2-.14.04-.31.16-.52.35-.21.19-.54.61-1,1.24-.25-.08-.37-.12-.62-.2.85-1.08,1.49-1.83,1.96-2.24.47-.41.87-.67,1.2-.78.18-.06.35-.05.5.02.15.08.27.23.35.47.15.45.24,1.64.23,3.59-.01,1.75,0,2.74.07,2.96.04.14.14.24.28.3.14.06.28.07.42.03.47-.15,1.04-.66,1.68-1.55.64-.89.94-1.76.92-2.61-.05-1.77-.1-2.66-.2-4.42Z"/>
        <path d="M229.47,245.47c.21.06.31.09.52.14-.62,1.28-1.15,2.17-1.54,2.68-.54.7-1.02,1.17-1.44,1.39-.19.1-.37.15-.53.13-.16-.02-.27-.08-.33-.18s-.1-.3-.14-.58c-.07-.53-.1-.8-.18-1.33-.52,1.28-1.05,2.22-1.55,2.82s-1.02,1.03-1.54,1.27c-.43.2-.86.23-1.29.07-.43-.16-.76-.52-1.02-1.08-.4-.89-.46-2.08-.24-3.58.22-1.49.62-2.73,1.23-3.71.61-.99,1.25-1.67,1.96-2.06.16-.09.41-.2.75-.33-.31-1.35-.48-2.37-.49-3.07,0-.7.1-1.37.33-2.03.23-.65.56-1.26,1-1.83.44-.57.9-1.01,1.39-1.34.26-.17.5-.25.74-.24.23.01.41.11.54.29.12.17.15.37.08.57-.07.21-.23.4-.48.56-.16.11-.49.28-.97.52-.49.23-.81.4-.98.5-.23.15-.4.33-.5.57-.1.23-.1.61-.02,1.12.05.33.32,1.32.76,2.98.66,2.49.97,3.74,1.53,6.27.17.75.31,1.22.42,1.43.13.23.3.28.53.15.14-.08.28-.21.42-.39.2-.26.55-.84,1.03-1.73ZM224.46,242.25c-.64.22-1.08.38-1.32.51-.49.26-.89.67-1.2,1.23-.31.56-.46,1.42-.46,2.57,0,1.15.15,2.08.48,2.77.15.32.38.52.7.62.32.09.61.07.89-.06.34-.17.66-.47.97-.91.44-.65.7-1.3.79-1.97.05-.41-.07-1.3-.36-2.66-.19-.84-.29-1.26-.49-2.09Z"/>
        <path d="M230.68,239.84c-.26,0-.4.01-.66.02.3-1.09.63-1.96,1.02-2.62.39-.65.77-1.12,1.16-1.41.22-.16.41-.24.58-.25.17,0,.31.05.4.19.12.16.4,1,.82,2.53.68,2.5,1.11,3.98,1.4,4.39.05.08.13.13.22.14.09.02.16,0,.22-.04.24-.17.61-.95,1.06-2.34.26,0,.39,0,.66,0-.46,1.45-.88,2.45-1.22,2.98-.33.53-.65.91-.96,1.11-.27.18-.52.26-.76.24s-.43-.14-.58-.36c-.47-.71-1.04-2.84-1.89-6.29-.04-.16-.1-.29-.17-.4-.08-.11-.18-.12-.3-.04-.14.1-.27.25-.38.46-.12.21-.31.77-.61,1.68ZM230.74,231.49c.2-.15.4-.21.61-.2s.38.11.52.28c.18.24.25.52.19.86-.06.33-.21.59-.46.78-.2.15-.4.21-.62.19-.22-.02-.39-.13-.53-.31-.18-.25-.24-.53-.18-.84.06-.31.21-.56.47-.75Z"/>
        <path d="M240.25,229.26c.61-.57,1.3-.86,2.07-.88s1.5.31,2.18.98c1.07,1.07,1.55,2.54,1.33,4.41-.22,1.87-.97,3.38-2.21,4.45-.76.66-1.54.99-2.31,1-.77.01-1.41-.31-1.93-.96-.9-1.12-1.31-2.5-1.28-4.09.03-1.99.74-3.6,2.15-4.91ZM239.97,230.57c-.54.49-.79,1.27-.77,2.35.02,1.08.49,2.18,1.43,3.3.57.68,1.19,1.07,1.87,1.17.5.07.96-.08,1.38-.45.59-.52.89-1.27.87-2.22-.02-1.23-.53-2.34-1.47-3.33-.71-.74-1.34-1.15-1.89-1.23-.56-.08-1.02.06-1.41.41Z"/>
      </g>
      <path class="cls-2" d="M228.45,36.72c39.62,14.1,71.39,48.51,82.28,89.14"/>
      <path class="cls-2" d="M273.77,59.6c10.56,2.57,20.73,6.73,30.08,12.28,2.73,8.69,11.14,17.13,19.58,20.58.58-4.77-.95-9.77-4.11-13.39s-7.9-5.83-12.71-5.91"/>
      <path class="cls-2" d="M270.35,58.92l-3.42-.48"/>
      <path class="cls-2" d="M305.93,74.08c6.43,1.65,11.85,6.79,13.84,13.12"/>
      <path class="cls-2" d="M313.3,78.03c1.9.25,3.76.85,5.45,1.77"/>
      <path class="cls-2" d="M310.96,76.7c-.37,1.43-.03,3.03.88,4.2"/>
      <path class="cls-2" d="M316.1,80.58c-.39,1.53.05,3.24,1.13,4.39"/>
      <path class="cls-2" d="M318.09,83.24c1.57.5,3.04,1.31,4.29,2.38"/>
      <path class="cls-2" d="M278.49,71.29c-1.62,8.81-1.12,18,1.43,26.59"/>
      <path class="cls-2" d="M320.97,117.94c-.84,3.24-.39,6.79,1.23,9.71.94,1.7,2.28,3.17,3.85,4.3.76.55,3.89,2.87,4.44,1.76.15-.31.16-.67.16-1.01-.01-1.59-.22-3.19-.63-4.73-1.07-4.05-3.52-7.73-6.85-10.27"/>
      <path class="cls-2" d="M322.15,120c.91,3.1,4.51,7.91,6.61,11"/>
      <path class="cls-2" d="M323.18,122.77c-.74,1.79-.45,3.96.72,5.51"/>
      <path class="cls-2" d="M325.03,124.34c1.35-.02,2.7.64,3.5,1.73"/>
      <path class="cls-2" d="M325.78,127.09c-.39.88-.08,2.01.7,2.57"/>
      <path class="cls-2" d="M278.97,98.29c-1.51,2.98-1.82,6.55-.85,9.75.56,1.86,1.55,3.58,2.86,5.02.63.69,3.19,3.63,3.97,2.66.22-.27.3-.62.37-.95.32-1.56.46-3.16.39-4.75-.18-4.19-1.8-8.3-4.52-11.49"/>
      <path class="cls-2" d="M279.69,100.55c.24,3.22,2.74,8.69,4.13,12.15"/>
      <path class="cls-2" d="M280.1,103.48c-1.1,1.6-1.28,3.78-.46,5.53"/>
      <path class="cls-2" d="M281.58,105.41c1.33.26,2.5,1.2,3.05,2.43"/>
      <path class="cls-2" d="M281.73,108.25c-.56.78-.5,1.94.14,2.66"/>
      <path class="cls-2" d="M303.49,101.96c6.98,2.68,13,7.82,16.74,14.3"/>
      <path class="cls-2" d="M311.7,128.88l2.01,8.79"/>
      <path class="cls-2" d="M313.38,139.91c4.25,2.3,7.69,6.07,9.58,10.51s2.23,9.54.94,14.2"/>
      <path class="cls-2" d="M311.43,141.17c-.16,9.24,4.72,18.42,12.48,23.45"/>
      <path class="cls-2" d="M315.73,160.73c.37,3.48.43,5.38-.93,6.38-4.17-3.91-8.58-8.25-9.51-13.89-.71-4.34.94-9,4.23-11.93"/>
      <path class="cls-2" d="M311.09,144.62c-.65,2.94-1.6,6.51-.73,9.39.7,2.34,2.26,3.97,3.95,5.74-.96-1.01,3.18,2.81,6.35,3.66-.03-.37-.05-.74-.08-1.11"/>
      <path class="cls-2" d="M297.71,95.71c-2.43,6.95-2.77,14.62-.96,21.76"/>
      <path class="cls-2" d="M294.86,118.9c-3.32,2.81-5.29,7.15-5.23,11.5s2.17,8.63,5.57,11.34c1.53-3.39,1.39-4.43,1.45-8.15"/>
      <path class="cls-2" d="M298.43,117.76c3.13,1.62,5.68,4.33,7.13,7.54s1.78,6.91.92,10.33c-2.24-.65-4.78-3.14-5.67-5.29-.1,2.33-.19,4.67-.29,7-2.59-1.68-4.61-4.24-5.64-7.15s-1.07-6.17-.1-9.1"/>
      <path class="cls-2" d="M148.02,283.76c-40.42-11.63-74.24-44.03-87.61-83.91"/>
      <path class="cls-2" d="M101.38,263.72c-10.7-1.92-21.11-5.44-30.78-10.41-3.26-8.51-12.18-16.42-20.81-19.34-.29,4.8,1.55,9.69,4.93,13.12s8.24,5.33,13.04,5.11"/>
      <path class="cls-2" d="M104.84,264.19l3.45.27"/>
      <path class="cls-2" d="M68.39,251.25c-6.52-1.25-12.24-6.04-14.62-12.24"/>
      <path class="cls-2" d="M60.79,247.76c-1.92-.13-3.81-.62-5.55-1.43"/>
      <path class="cls-2" d="M63.21,248.94c.28-1.45-.15-3.03-1.14-4.14"/>
      <path class="cls-2" d="M57.84,245.38c.3-1.55-.25-3.23-1.4-4.31"/>
      <path class="cls-2" d="M55.69,242.85c-1.6-.4-3.11-1.12-4.43-2.11"/>
      <path class="cls-2" d="M95.95,252.35c1.07-8.89.01-18.04-3.07-26.45"/>
      <path class="cls-2" d="M50.68,208.39c.64-3.28-.02-6.8-1.83-9.62-1.05-1.64-2.47-3.03-4.11-4.06-.79-.5-4.06-2.62-4.54-1.49-.13.32-.12.68-.1,1.02.11,1.59.42,3.17.92,4.68,1.31,3.98,3.99,7.5,7.47,9.83"/>
      <path class="cls-2" d="M49.37,206.41c-1.1-3.03-4.99-7.62-7.27-10.57"/>
      <path class="cls-2" d="M48.18,203.71c.62-1.83.21-3.98-1.06-5.45"/>
      <path class="cls-2" d="M46.24,202.25c-1.35.11-2.73-.47-3.6-1.51"/>
      <path class="cls-2" d="M45.32,199.56c.33-.9-.04-2.01-.86-2.52"/>
      <path class="cls-2" d="M93.81,225.42c1.32-3.07,1.42-6.65.25-9.79-.68-1.82-1.77-3.48-3.16-4.84-.67-.65-3.41-3.42-4.12-2.41-.2.28-.26.63-.31.98-.23,1.58-.26,3.18-.09,4.77.44,4.17,2.31,8.17,5.22,11.19"/>
      <path class="cls-2" d="M93,223.93c-.48-3.58-3.65-9.51-5.45-13.29"/>
      <path class="cls-1" d="M92.36,220.31c1-1.66,1.05-3.85.12-5.55"/>
      <path class="cls-2" d="M90.77,218.48c-1.34-.18-2.57-1.04-3.2-2.24"/>
      <path class="cls-2" d="M90.45,215.65c.52-.81.38-1.97-.3-2.64"/>
      <path class="cls-2" d="M69.12,223.27c-7.14-2.25-13.46-7.01-17.59-13.24"/>
      <path class="cls-2" d="M59.26,196.91l-2.55-8.65"/>
      <path class="cls-1" d="M75.27,229.15c2-7.09,1.86-14.77-.38-21.78"/>
      <circle cx="151.96" cy="284.76" r=".5"/>
      <circle cx="155.14" cy="285.76" r=".5"/>
      <circle cx="158.71" cy="286.55" r=".5"/>
      <circle cx="218.94" cy="34.12" r=".5"/>
      <circle cx="212.38" cy="32.57" r=".5"/>
      <circle cx="206.2" cy="31.44" r=".5"/>
      <path class="cls-2" d="M230.54,281.9c14.78-5.02,28.67-11.1,40.23-23.28,10.75-11.32,20.93-22.54,30.08-36.56"/>
      <path class="cls-2" d="M248.42,274.67l1.95-13.58"/>
      <path class="cls-2" d="M259.31,268.36c3.78-1.46,8.31-.75,11.45,1.81"/>
      <path class="cls-2" d="M265.09,263.59c1.59-1.59,2.46-3.86,2.35-6.11s-1.21-4.42-2.95-5.84"/>
      <path class="cls-2" d="M277.31,252.39c5.65-2.16,12.13-2.06,17.72.27"/>
      <path class="cls-2" d="M287.58,239.86l-2.59-8.09"/>
      <path class="cls-2" d="M292.69,233.67h9.65"/>
      <path class="cls-2" d="M296.5,228.36l-.39-9.4"/>
      <path class="cls-2" d="M270.92,270.53c.31,1.2.66,2.47,1.57,3.31s2.56,1,3.28,0c.67-.94.12-2.35-.86-2.96s-2.21-.62-3.35-.51"/>
      <path class="cls-2" d="M250.6,260.9c-1.11-.76-2.28-1.58-2.85-2.8s-.26-2.96.98-3.49c1.41-.6,3.03.8,3.25,2.32s-.49,3-1.18,4.38"/>
      <path class="cls-2" d="M264.42,251.81c-1.24-.27-2.53-.57-3.47-1.43s-1.32-2.44-.47-3.38c.97-1.08,2.9-.56,3.73.63s.88,2.74.89,4.19"/>
      <path class="cls-2" d="M294.16,252.65c.4,1.48.84,3.05,1.95,4.11s3.12,1.33,4.1.15c1.04-1.26.21-3.32-1.22-4.12s-3.16-.7-4.79-.59"/>
      <path class="cls-2" d="M285.01,232.1c.33-1.48.49-3.11-.23-4.44s-2.65-2.08-3.83-1.12c-1.14.93-.88,2.86.14,3.91s2.51,1.47,3.93,1.84"/>
      <path class="cls-2" d="M302.63,233.9c.88-1.12,2.49-1.59,3.83-1.13s2.31,1.84,2.3,3.26c-2.38.3-4.88-.78-6.31-2.7"/>
      <path class="cls-2" d="M300.62,221.96c-.16-1.21-.02-2.5.63-3.53s1.86-1.75,3.07-1.6,2.27,1.32,2.11,2.53c-.13.96-.94,1.72-1.84,2.07s-1.9.36-2.87.37"/>
      <path class="cls-2" d="M296.11,216.94c-.78-.18-1.6-.37-2.24-.86s-1.07-1.35-.8-2.11c.33-.92,1.6-1.25,2.46-.8s1.33,1.46,1.39,2.44-.21,1.94-.48,2.88"/>
      <path class="cls-2" d="M284.98,243.64c4.16-.74,8.48-.5,12.53.68"/>
      <path class="cls-2" d="M269.63,260.24l9.13.84"/>
      <path class="cls-2" d="M296.84,244.38c-.12,1.95,2.09,3.65,3.95,3.03.72-1.05.02-2.58-1.1-3.2s-2.46-.57-3.72-.5"/>
      <path class="cls-2" d="M277.91,260.5c1-.98,2.23-1.94,3.64-1.87s2.68,1.75,1.87,2.9c-.47.66-1.41.84-2.2.64s-1.45-.71-2.09-1.21"/>
      <path class="cls-2" d="M239.26,278.84c5.92-.6,11.98.29,17.47,2.57.36.9,1.18,1.88,1.99,2.41s2.09.46,2.55-.39c.49-.89-.22-2.05-1.17-2.42s-2.01-.16-3,.04"/>
      <path class="cls-2" d="M64.31,107.84c5.94-17.72,24.66-36.27,40.53-51.07,13.67-12.75,32.7-19.62,51.09-22.95"/>
      <path class="cls-2" d="M280.48,247.44l-1.59-4.17"/>
      <path class="cls-2" d="M278.45,243.06c-1.67-.28-3.45-.62-4.65-1.81s-1.33-3.56.16-4.37c1.2-.65,2.77.1,3.5,1.25s.84,2.58.92,3.94"/>
      <path class="cls-2" d="M75.52,88.7l-5.12-9.35c-.57-1.05-1.16-2.12-1.33-3.3s.14-2.51,1.09-3.23c1.08-.83,2.7-.64,3.82.16s1.79,2.05,2.28,3.33c1.08,2.82,1.37,5.94.85,8.92"/>
      <path class="cls-2" d="M89.91,71.3c-.7-4.16-2.38-8.9-4.55-12.52-.52-.87-1.19-1.79-2.18-1.96-1.2-.21-2.31.81-2.79,1.93-1.12,2.62.07,5.66,1.71,7.99s3.77,4.36,4.86,6.99"/>
      <path class="cls-2" d="M104.09,57.48c2.26-3.68,1.36-9.55-1.43-12.84-1.02-1.21-2.41-2.21-3.99-2.36s-3.31.74-3.75,2.27c-.36,1.27.2,2.6.75,3.8,1.94,4.22,3.77,7.46,5.71,11.69"/>
      <path class="cls-2" d="M119.95,46.02c2.58-3.29,2.82-8.21.58-11.74-1.02-1.6-2.94-3-4.7-2.29-1.77.71-2.17,3.02-2.11,4.93.11,3.66.92,7.29,2.37,10.65"/>
      <path class="cls-2" d="M139.41,37.36c1.24-1.72,2.5-3.47,3.15-5.49s.61-4.38-.63-6.1-3.87-2.47-5.59-1.24c-1.88,1.34-1.92,4.06-1.76,6.36.21,3.08.07,5.37.28,8.45"/>
      <path class="cls-2" d="M155.72,33.52c2.45-2.48,4.35-5.5,5.53-8.78.32-.88.58-1.8.5-2.72s-.6-1.86-1.46-2.21c-1.36-.55-2.82.51-3.75,1.65-1.91,2.33-3.04,5.28-3.19,8.29-.06,1.23.04,2.09-.52,3.19s-1.81,2.08-2.73,2.08"/>
      <path class="cls-2" d="M77.83,85.13c3.34-1.18,7.03-1.34,10.46-.46,1.55.4,3.27,1.26,3.55,2.84.33,1.86-1.68,3.41-3.56,3.5s-3.66-.76-5.48-1.28c-3.03-.86-5.04-1.86-8.03-.87"/>
      <path class="cls-2" d="M89.71,71.51l4.97-.57c1.35-.16,2.75-.3,4.02.15s2.37,1.72,2.17,3.06c-.17,1.11-1.17,1.94-2.25,2.25s-2.49.85-3.6.74c-3.57-.36-4.89-1.94-8.47-2.3"/>
      <path class="cls-2" d="M104.09,57.48c2.59-.28,6.31-.05,8.89.34,1.41.21,3.07.78,3.35,2.17.21,1.02-.39,2.26-1.11,3.01-.96,1-2.35,1.65-5.53,1.39-5.41-.43-6.7-1.4-8.66-4.04"/>
      <path class="cls-2" d="M119.25,46.36c2.74-.3,5.53.11,8.24.57,1.64.28,3.58,1.05,3.73,2.71.13,1.44-1.29,2.57-2.67,2.99-3.13.93-6.46-.28-9.5-1.48-1.39-.55-2.79-1.1-4.18-1.65"/>
      <path class="cls-2" d="M139.04,37.94c1.84-.36,4.2.45,6.01,1.15s3.56,1.88,3.69,3.75c.05.75-.16,1.52-.59,2.14-1.14,1.63-3.56,1.9-5.42,1.19s-3.33-2.16-4.81-3.49-2.87-2.4-4.84-2.69"/>
      <path class="cls-2" d="M155.48,33.9c1.54-.44,3.28.06,4.83.43s3.01,1.37,3.66,2.83.34,3.37-.92,4.35c-1.6,1.25-4,.67-5.66-.5s-2.94-2.83-4.65-3.92c-1.78-1.13-4-1.57-6.08-1.21"/>
      <path class="cls-3" d="M156.84,29.11c-.4,1.86-1.47,3.57-2.97,4.74"/>
      <path class="cls-3" d="M154.64,30.96c-.39,1.34-1.18,2.57-2.24,3.49"/>
      <path class="cls-3" d="M154.24,34.48c1.08.02,2.15.36,3.05.95"/>
      <path class="cls-3" d="M152.34,34.81c1.33.32,2.56,1.04,3.5,2.03"/>
      <path class="cls-3" d="M139.46,32.47c-.26,2.09-.87,4.14-1.8,6.04"/>
      <path class="cls-3" d="M136.57,35.17c.15,1.2.01,2.44-.4,3.58"/>
      <path class="cls-3" d="M137.6,38.7c.96.22,1.9.51,2.8.88.88.36,1.79.83,2.24,1.67"/>
      <path class="cls-3" d="M135.8,39.39c1.05.05,2.04.72,2.48,1.67"/>
      <path class="cls-3" d="M119.05,40.3c.59.97.86,2.12.77,3.25s-.56,2.22-1.31,3.07"/>
      <path class="cls-3" d="M117.27,44c.53,1.17.5,2.59-.1,3.73"/>
      <path class="cls-3" d="M117.98,47.45c.46-.16.97-.09,1.45-.02,1.33.21,2.65.52,3.94.93"/>
      <path class="cls-3" d="M116.16,48.09c1.85.16,3.65.87,5.1,2.03"/>
      <path class="cls-3" d="M102.74,51.02c1.02,2.03,1.27,4.44.68,6.64"/>
      <path class="cls-3" d="M100.98,54.3c.72,1.44,1.14,3.03,1.23,4.64"/>
      <path class="cls-3" d="M103.44,58.71c2.18.17,4.34.6,6.42,1.28"/>
      <path class="cls-3" d="M102.28,59.66c1.39,1.1,3.16,1.72,4.93,1.74"/>
      <path class="cls-3" d="M86.7,66.72c1.09,1.66,1.78,3.59,2,5.57"/>
      <path class="cls-3" d="M89.06,72.85c1.88-.18,3.8-.03,5.63.45"/>
      <path class="cls-3" d="M87.84,73.67c1.54.09,3.07.43,4.5,1.01"/>
      <path class="cls-3" d="M75.03,81.16c.67,1.7,1.18,3.46,1.52,5.25"/>
      <path class="cls-3" d="M76.34,86.98c2.29-.22,4.64.08,6.8.87"/>
      <path class="cls-3" d="M74.63,84.37c.64.58,1.07,1.4,1.17,2.26"/>
    </g>
    <path class="cls-2" d="M51.25,117.73c-.32,1.23-1.91,2.23-1.64,3.47s1.32,2.41,2.59,2.35c1.42-.06,1.01-2.16,2.06-3.11.53-.48-1.46-2.18-3.02-2.71"/>
    <path class="cls-2" d="M54.74,119.34c-.98-2.34-2.22-4.71-4.31-6.14s-5.26-1.59-6.97.28c-1.57,1.71-1.37,4.56,0,6.44s4.89,2.92,7.15,3.45"/>
    <path class="cls-2" d="M58.4,122.59c-.99-.46-2.17.85-3.11,1.41s-1.75,1.32-2.73,1.79c-1.58.76-3.54.68-5.05-.21s-1.89-2.15-1.97-3.9"/>
    <path class="cls-2" d="M55.34,119.09c.78-.3,1.72-.13,2.35.43s.91,1.47.7,2.28"/>
    <path class="cls-2" d="M41.75,116.2c-2.73-.31-6.09,2.31-6.11,5.06s2.15,5.24,4.79,6.01,5.2.26,7.42-1.36"/>
    <path class="cls-2" d="M48.56,112.33c2.46-1.03,4.67-1.47,7.29-1.01s5.14,2.18,5.99,4.7-.4,5.73-2.93,6.56"/>
    <path class="cls-2" d="M54.01,111.15c-1.85-2.17-4.72-4.34-7.55-4.65s-5.83.68-7.75,2.78-2.63,5.31-1.56,7.95"/>
    <path class="cls-2" d="M62.1,115.35c1.87-.3,2.84.41,4.18,1.75s1.98,3.33,1.67,5.2c-.37,2.29-2.07,4.19-4.05,5.41-4.5,2.77-10.77,2.29-14.8-1.13"/>
    <path class="cls-2" d="M34.89,113.82c-1.65.87-2.4,2.49-2.39,4.36s1.14,3.68,2.8,4.52"/>
    <path class="cls-2" d="M38.63,126.44c1.85,3.48,4.59,5.32,8.27,6.2,1.91.46,3.93.63,5.83.11,1.71-.47,3.27-1.51,4.35-2.92"/>
    <path class="cls-2" d="M49.92,107.52c2.12-.37,3.41-.73,5.56-.57s4.33.89,5.84,2.44,2.19,3.98,1.3,5.95"/>
    <path class="cls-2" d="M42.44,106.92c-2.47-.47-5.63-.05-7.14,1.97s.46,5.07,1.61,7.3"/>
    <path class="cls-2" d="M66.15,126.31c.44,1.38.6,4.15-.09,5.43s-1.77,2.31-2.96,3.14c-4.75,3.3-10.61,2.54-15.36-.76-3.76,1.02-7.99.14-11.03-2.3s-3.57-7.04-3.39-10.94"/>
    <path class="cls-2" d="M217.37,287.69c.3.61.29,1.33.84,1.74s1.38.51,1.88.04c.55-.53.36-1.54-.26-1.98s-1.49-.38-2.17-.04"/>
    <path class="cls-2" d="M219.88,286.64c-1.22-.6-2.55-1.12-3.9-.97s-2.69,1.2-2.72,2.56c-.03,1.25,1.05,2.32,2.27,2.6s2.49-.09,3.6-.67"/>
    <path class="cls-2" d="M222.5,286.67c-.56.16-.58,1.11-.76,1.66s-.24,1.15-.47,1.69c-.37.86-1.19,1.52-2.12,1.69s-1.82-.05-2.47-.73"/>
    <path class="cls-2" d="M220.04,286.34c.21-.4.65-.66,1.1-.65s.88.28,1.09.68"/>
    <path class="cls-2" d="M213.21,290.23c-1.21.84-1.33,2.78-.37,3.9s2.71,1.36,4.05.75,2.3-1.84,2.63-3.27"/>
    <path class="cls-2" d="M214.92,285.99c.63-1.28,1.37-2.24,2.6-2.97s2.84-.92,4.08-.2,1.85,2.46,1.12,3.68"/>
    <path class="cls-2" d="M216.54,283.5c-1.51-.23-3.27,0-4.53.86s-2.12,2.32-2.16,3.85.81,3.07,2.17,3.76"/>
    <path class="cls-2" d="M221.45,282.44c.65-.78,1.29-.83,2.31-.76s1.97.65,2.5,1.51c.65,1.06.64,2.42.27,3.61-.85,2.71-3.55,4.72-6.38,4.75"/>
    <path class="cls-2" d="M209.91,291.39c-.36.93-.09,1.85.57,2.6s1.75,1.09,2.72.84"/>
    <path class="cls-2" d="M215.86,295.18c1.97.76,3.73.54,5.53-.4.93-.49,1.81-1.13,2.4-2,.53-.79.79-1.76.73-2.71"/>
    <path class="cls-2" d="M213.78,283.56c.73-.9,1.12-1.49,2.05-2.19s2.07-1.16,3.22-1.07,2.29.84,2.62,1.95"/>
    <path class="cls-2" d="M210.54,285.94c-1.16.68-2.29,1.96-2.2,3.31s1.97,1.89,3.22,2.39"/>
    <path class="cls-2" d="M227.07,285.48c.67.4,1.57,1.44,1.74,2.2s.1,1.56-.09,2.31c-.76,3.01-3.4,4.76-6.48,5.09-1.16,1.74-3.18,2.86-5.27,2.95s-3.78-1.24-5.07-2.88"/>
    <path class="cls-2" d="M185.99,283.72c-.32,1.23-1.91,2.23-1.64,3.47s1.32,2.41,2.59,2.35c1.42-.06,1.01-2.16,2.06-3.11.53-.48-1.46-2.18-3.02-2.71"/>
    <path class="cls-2" d="M189.48,285.32c-.98-2.34-2.22-4.71-4.31-6.14s-5.26-1.59-6.97.28c-1.57,1.71-1.37,4.56,0,6.44,1.37,1.88,4.89,2.92,7.15,3.45"/>
    <path class="cls-2" d="M193.14,288.57c-.99-.46-2.17.85-3.11,1.41s-1.75,1.32-2.73,1.79c-1.58.76-3.54.68-5.05-.21s-1.89-2.15-1.97-3.9"/>
    <path class="cls-2" d="M190.07,285.08c.78-.3,1.72-.13,2.35.43s.91,1.47.7,2.28"/>
    <path class="cls-2" d="M176.49,282.19c-2.73-.31-6.09,2.31-6.11,5.06s2.15,5.24,4.79,6.01,5.2.26,7.42-1.36"/>
    <path class="cls-2" d="M183.29,278.32c2.46-1.03,4.67-1.47,7.29-1.01s5.14,2.18,5.99,4.7-.4,5.73-2.93,6.56"/>
    <path class="cls-2" d="M188.74,277.13c-1.85-2.17-4.72-4.34-7.55-4.65s-5.83.68-7.75,2.78-2.63,5.31-1.56,7.95"/>
    <path class="cls-2" d="M196.84,281.33c1.87-.3,2.84.41,4.18,1.75s1.98,3.33,1.67,5.2c-.37,2.29-2.07,4.19-4.05,5.41-4.5,2.77-10.77,2.29-14.8-1.13"/>
    <path class="cls-2" d="M169.62,279.8c-1.65.87-2.4,2.49-2.39,4.36s1.14,3.68,2.8,4.52"/>
    <path class="cls-2" d="M173.37,292.42c1.85,3.48,4.59,5.32,8.27,6.2,1.91.46,3.93.63,5.83.11,1.71-.47,3.27-1.51,4.35-2.92"/>
    <path class="cls-2" d="M184.66,273.5c2.12-.37,3.41-.73,5.56-.57s4.33.89,5.84,2.44,2.19,3.98,1.3,5.95"/>
    <path class="cls-2" d="M177.18,272.9c-2.47-.47-5.63-.05-7.14,1.97s.46,5.07,1.61,7.3"/>
    <path class="cls-2" d="M200.88,292.29c.44,1.38.6,4.15-.09,5.43s-1.77,2.31-2.96,3.14c-4.75,3.3-10.61,2.54-15.36-.76-3.76,1.02-7.99.14-11.03-2.3s-3.57-7.04-3.39-10.94"/>
    <path class="cls-2" d="M324.72,177.12c.34.59.37,1.31.93,1.69s1.41.43,1.87-.06c.52-.56.28-1.56-.37-1.97s-1.51-.3-2.17.08"/>
    <path class="cls-2" d="M327.17,175.94c-1.25-.53-2.61-.98-3.95-.75s-2.61,1.35-2.58,2.71c.04,1.25,1.18,2.26,2.4,2.47s2.48-.23,3.55-.87"/>
    <path class="cls-2" d="M329.8,175.82c-.55.19-.52,1.14-.67,1.7s-.18,1.16-.38,1.71c-.32.88-1.11,1.58-2.02,1.8s-1.82.05-2.5-.59"/>
    <path class="cls-2" d="M327.31,175.62c.19-.41.61-.69,1.06-.71s.9.23,1.12.61"/>
    <path class="cls-2" d="M320.71,179.89c-1.17.9-1.18,2.85-.16,3.92s2.78,1.21,4.09.52,2.2-1.96,2.45-3.41"/>
    <path class="cls-2" d="M322.18,175.55c.56-1.31,1.25-2.31,2.43-3.11s2.79-1.08,4.06-.43,1.98,2.35,1.32,3.62"/>
    <path class="cls-2" d="M323.67,172.98c-1.52-.14-3.27.17-4.47,1.11s-1.99,2.44-1.94,3.96.97,3.02,2.37,3.64"/>
    <path class="cls-2" d="M328.52,171.66c.61-.81,1.25-.9,2.26-.88s2,.54,2.58,1.37c.71,1.02.77,2.38.46,3.59-.7,2.75-3.29,4.9-6.11,5.09"/>
    <path class="cls-2" d="M317.48,181.23c-.31.95,0,1.86.71,2.57s1.81.99,2.76.69"/>
    <path class="cls-2" d="M323.63,184.68c2.01.65,3.75.33,5.5-.7.91-.54,1.75-1.22,2.28-2.13.48-.82.69-1.8.58-2.75"/>
    <path class="cls-2" d="M320.91,173.19c.68-.94,1.04-1.55,1.93-2.29s2-1.27,3.16-1.24,2.33.71,2.72,1.8"/>
    <path class="cls-2" d="M317.81,175.75c-1.13.74-2.18,2.08-2.01,3.42s2.07,1.78,3.35,2.21"/>
    <path class="cls-2" d="M334.29,174.38c.69.37,1.65,1.35,1.86,2.1s.18,1.55.03,2.31c-.6,3.04-3.13,4.94-6.19,5.44-1.07,1.8-3.02,3.03-5.1,3.23s-3.84-1.03-5.22-2.6"/>
    <path class="cls-2" d="M305.46,191.01c-.44.97-1.9,1.58-1.85,2.65s.76,2.18,1.82,2.31c1.19.14,1.14-1.65,2.15-2.29.51-.32-.9-2.01-2.12-2.67"/>
    <path class="cls-2" d="M308.13,192.82c-.49-2.08-1.18-4.21-2.72-5.7s-4.14-2.05-5.82-.74c-1.54,1.2-1.77,3.59-.9,5.34s3.65,3.11,5.45,3.86"/>
    <path class="cls-2" d="M310.71,196.03c-.75-.52-1.92.4-2.78.73s-1.64.85-2.52,1.1c-1.42.41-3.03.07-4.16-.88s-1.26-2.05-1.09-3.51"/>
    <path class="cls-2" d="M308.66,192.71c.69-.14,1.45.13,1.89.68s.55,1.35.26,1.99"/>
    <path class="cls-2" d="M297.79,188.41c-2.22-.64-5.37,1.07-5.77,3.35s1.05,4.65,3.13,5.66,4.28.94,6.35-.09"/>
    <path class="cls-2" d="M303.98,186.15c2.18-.51,4.08-.56,6.19.18s3.95,2.53,4.31,4.74-1.13,4.7-3.35,5.03"/>
    <path class="cls-2" d="M308.67,185.93c-1.23-2.06-3.31-4.26-5.61-4.91s-4.93-.25-6.82,1.23-2.92,4.04-2.4,6.38"/>
    <path class="cls-2" d="M314.79,190.54c1.59.01,2.3.74,3.22,2.04s1.17,3.04.66,4.55c-.63,1.85-2.3,3.19-4.11,3.92-4.12,1.67-9.25.4-12.12-3.01"/>
    <path class="cls-2" d="M292.43,185.48c-1.49.49-2.34,1.73-2.59,3.28s.43,3.21,1.69,4.14"/>
    <path class="cls-2" d="M293.78,196.46c1.05,3.15,3.06,5.05,5.99,6.3,1.52.65,3.17,1.07,4.82.91,1.49-.15,2.92-.8,4.02-1.81"/>
    <path class="cls-2" d="M305.78,182.35c1.81,0,2.93-.13,4.69.31s3.47,1.35,4.51,2.84,1.26,3.61.25,5.12"/>
    <path class="cls-2" d="M299.66,180.8c-1.98-.73-4.66-.83-6.2.63s-.32,4.27.31,6.28"/>
    <path class="cls-2" d="M316.62,200.2c.17,1.21-.09,3.53-.84,4.49s-1.79,1.67-2.89,2.19c-4.4,2.07-9.15.63-12.63-2.77-3.26.32-6.64-1-8.82-3.45s-1.98-6.34-1.28-9.54"/>
    <path class="cls-2" d="M65.33,150.09c.12,1.07-.29,2.15.3,3.05s1.78,1.52,2.78,1.09c1.11-.48,1.38-2.1.7-3.1s-2.02-1.39-3.22-1.25"/>
    <path class="cls-2" d="M69.65,149.91c-1.49-1.56-3.19-3.07-5.29-3.58s-4.67.33-5.46,2.33c-.73,1.84.3,4.04,1.95,5.12s3.77,1.23,5.73.96"/>
    <path class="cls-2" d="M73.55,151.39c-.93-.07-1.47,1.33-2.05,2.06s-.99,1.58-1.63,2.25c-1.03,1.09-2.61,1.61-4.08,1.36s-2.68-1.07-3.28-2.44"/>
    <path class="cls-2" d="M70.05,149.53c.53-.48,1.33-.63,2-.37s1.17.89,1.25,1.6"/>
    <path class="cls-2" d="M57.74,151.61c-2.27.58-3.52,3.42-2.7,5.62s3.3,3.52,5.63,3.33,4.44-1.48,5.72-3.44"/>
    <path class="cls-2" d="M62.61,146.21c1.65-1.56,3.27-2.58,5.5-3.01s4.75.18,6.19,1.93,1.42,4.68-.35,6.11"/>
    <path class="cls-2" d="M66.39,143.39c-2.13-1.17-4.88-1.8-7.23-1.19s-4.43,2.31-5.32,4.56-.48,5.02,1.17,6.8"/>
    <path class="cls-2" d="M74.3,144.5c1.39-.81,2.39-.53,3.85.13s2.58,2.05,2.91,3.63c.4,1.94-.37,3.96-1.58,5.53-2.74,3.57-7.88,5.09-12.12,3.59"/>
    <path class="cls-2" d="M52.18,151.53c-1.05,1.19-1.16,2.71-.58,4.19s2.02,2.58,3.6,2.75"/>
    <path class="cls-2" d="M58.98,160.44c2.53,2.21,5.26,2.84,8.46,2.43,1.66-.21,3.32-.69,4.67-1.67,1.22-.89,2.14-2.19,2.58-3.64"/>
    <path class="cls-2" d="M56.1,143.75c-2.11.37-4.5,1.67-5.09,3.73s1.9,3.89,3.49,5.33"/>
    <path class="cls-2" d="M81.02,152.11c.77.97,1.55,3.01,1.39,4.24s-.71,2.37-1.41,3.39c-2.78,4.07-7.67,5.24-12.45,4.05-2.68,1.95-6.32,2.53-9.47,1.51s-4.96-3.92-5.99-7.08"/>
    <path class="cls-3" d="M74.09,196.85c0,.75.21,1.5.58,2.15"/>
    <path class="cls-3" d="M75.2,197.32v1.57"/>
    <path class="cls-3" d="M70.79,199.09c.85.08,1.66.49,2.23,1.12"/>
    <path class="cls-3" d="M78.95,199.12c-.98.29-1.95.64-2.88,1.06"/>
    <path class="cls-3" d="M75.49,201.42c-.5.88-.69,1.94-.52,2.94"/>
    <path class="cls-2" d="M59.18,196.94l-2.55-8.65"/>
    <path class="cls-1" d="M75.18,229.19c2-7.09,1.86-14.77-.38-21.78"/>
    <circle class="cls-2" cx="74.8" cy="200.33" r=".96"/>
    <path class="cls-2" d="M73.49,199.38c-.54-1.7-1.2-3.02-.81-4.75.15-.65.44-1.29.94-1.73s1.24-.65,1.86-.4c.64.25,1.04.92,1.16,1.6s0,1.37-.12,2.05c-.21,1.22-.42,2.44-.64,3.67"/>
    <path class="cls-2" d="M75.76,200.33c1.25-1.82,4.04-3.53,6.23-3.73.6-.06,1.36.06,1.56.63.17.48-.16.98-.5,1.35-1.41,1.53-4.19,2.38-6.26,2.6"/>
    <path class="cls-2" d="M73.49,199.38c-1.26-1.47-3.06-2.46-4.97-2.75-.64-.1-1.42-.06-1.77.48-.31.48-.12,1.15.27,1.55s.95.61,1.48.81c1.33.49,2.67.97,4,1.46"/>
    <path class="cls-2" d="M77.59,201.06c.72.35,1.45.71,2.03,1.25s1.02,1.31.97,2.11-.68,1.58-1.48,1.61c-.77.03-1.41-.58-1.88-1.2-.59-.79-1.06-1.66-1.39-2.59"/>
    <path class="cls-2" d="M73.31,202.5c-.46,1.08-.77,2.22-.92,3.39-.07.53-.08,1.14.3,1.51.33.32.87.35,1.3.16s.74-.56.99-.95c.74-1.17,1.36-2.79.97-4.11"/>
    <path class="cls-2" d="M71.86,200.87c1.1-.38-1.51.22-2.45.38-.72.12-1.47.25-2.04.7s-.93,1.24-.69,1.92c.27.77,1.21,1.14,2.02,1.04s1.53-.55,2.21-1c1.09-.7,2.8-1.9,3.89-2.61"/>
    <circle class="cls-2" cx="55.29" cy="180.24" r=".96"/>
    <path class="cls-2" d="M54.01,179.25c-.48-1.71-1.1-3.05-.66-4.78.17-.65.48-1.28.99-1.7s1.26-.61,1.87-.35c.63.27,1.01.95,1.11,1.63s-.04,1.37-.18,2.05c-.25,1.22-.5,2.43-.75,3.65"/>
    <path class="cls-2" d="M56.25,180.26c1.31-1.78,4.14-3.41,6.34-3.54.6-.04,1.35.1,1.54.68.16.48-.19.97-.54,1.33-1.46,1.49-4.25,2.26-6.33,2.41"/>
    <path class="cls-2" d="M54.01,179.25c-1.22-1.5-2.98-2.55-4.88-2.9-.64-.12-1.41-.1-1.78.43-.32.47-.16,1.14.23,1.56s.93.64,1.46.85c1.32.53,2.63,1.05,3.95,1.58"/>
    <path class="cls-2" d="M58.07,181.05c.71.37,1.43.75,1.99,1.31s.98,1.34.91,2.13-.73,1.56-1.53,1.56c-.77,0-1.4-.62-1.84-1.25-.56-.8-1.01-1.69-1.31-2.63"/>
    <path class="cls-2" d="M53.74,182.36c-.49,1.07-.84,2.2-1.02,3.36-.08.53-.11,1.14.26,1.52.32.33.86.38,1.29.2s.76-.53,1.01-.92c.77-1.15,1.44-2.74,1.1-4.08"/>
    <path class="cls-2" d="M52.34,180.68c1.11-.34-1.52.18-2.46.3-.72.1-1.47.21-2.06.64s-.97,1.21-.75,1.9c.25.78,1.17,1.17,1.98,1.1s1.54-.51,2.24-.93c1.11-.67,2.86-1.82,3.97-2.49"/>
    <path class="cls-3" d="M51.82,179.16l2.42,1.03"/>
    <path class="cls-3" d="M54.68,177.65c-.14.24-.18.53-.1.8s.27.49.52.61"/>
    <path class="cls-3" d="M55.49,178.19c-.09.28-.07.59.07.85"/>
    <path class="cls-3" d="M58.29,179.82l-1.77.73"/>
    <path class="cls-3" d="M55.57,181.72c-.6.36-.97,1.09-.89,1.79"/>
  </g>
</svg>