<?xml version="1.0" encoding="UTF-8"?>
<svg id="_レイヤー_1" data-name=" レイヤー 1" xmlns="http://www.w3.org/2000/svg" xmlns:xlink="http://www.w3.org/1999/xlink" viewBox="0 0 50 66.23">
  <defs>
    <style>
      .cls-1 {
        fill: url(#_名称未設定グラデーション_5);
      }

      .cls-2 {
        fill: url(#_名称未設定グラデーション_6);
      }

      .cls-3 {
        fill: url(#_名称未設定グラデーション_2);
      }

      .cls-4 {
        fill: url(#_名称未設定グラデーション);
      }

      .cls-5 {
        fill: none;
        stroke: #fff;
        stroke-linecap: round;
        stroke-linejoin: round;
        stroke-width: .03px;
      }

      .cls-6 {
        fill: url(#_名称未設定グラデーション_8);
      }

      .cls-7 {
        fill: url(#_名称未設定グラデーション_4);
      }

      .cls-8 {
        fill: url(#_名称未設定グラデーション_3);
      }

      .cls-9 {
        fill: url(#_名称未設定グラデーション_10);
      }

      .cls-10 {
        fill: url(#_名称未設定グラデーション_7);
      }

      .cls-11 {
        fill: url(#_名称未設定グラデーション_9);
      }
    </style>
    <linearGradient id="_名称未設定グラデーション" data-name="名称未設定グラデーション" x1="17.04" y1="39.56" x2="22.2" y2="39.56" gradientTransform="translate(0 62.37) scale(1 -1)" gradientUnits="userSpaceOnUse">
      <stop offset="0" stop-color="#00cbd4"/>
      <stop offset=".99" stop-color="#0071bc"/>
    </linearGradient>
    <linearGradient id="_名称未設定グラデーション_2" data-name="名称未設定グラデーション 2" x1="17.39" y1="38.55" x2="21.78" y2="38.55" gradientTransform="translate(0 62.37) scale(1 -1)" gradientUnits="userSpaceOnUse">
      <stop offset="0" stop-color="#00cbd4"/>
      <stop offset=".99" stop-color="#0071bc"/>
    </linearGradient>
    <linearGradient id="_名称未設定グラデーション_3" data-name="名称未設定グラデーション 3" x1="17.34" y1="43.07" x2="21.85" y2="43.07" gradientTransform="translate(0 62.37) scale(1 -1)" gradientUnits="userSpaceOnUse">
      <stop offset="0" stop-color="#00cbd4"/>
      <stop offset=".99" stop-color="#0071bc"/>
    </linearGradient>
    <linearGradient id="_名称未設定グラデーション_4" data-name="名称未設定グラデーション 4" x1="17.4" y1="49.61" x2="21.79" y2="49.61" gradientTransform="translate(0 62.37) scale(1 -1)" gradientUnits="userSpaceOnUse">
      <stop offset="0" stop-color="#00cbd4"/>
      <stop offset=".99" stop-color="#0071bc"/>
    </linearGradient>
    <linearGradient id="_名称未設定グラデーション_5" data-name="名称未設定グラデーション 5" x1="17.6" y1="31.77" x2="22.01" y2="31.77" gradientTransform="translate(0 62.37) scale(1 -1)" gradientUnits="userSpaceOnUse">
      <stop offset="0" stop-color="#00cbd4"/>
      <stop offset=".99" stop-color="#0071bc"/>
    </linearGradient>
    <linearGradient id="_名称未設定グラデーション_6" data-name="名称未設定グラデーション 6" x1="17.76" y1="25.87" x2="21.85" y2="25.87" gradientTransform="translate(0 62.37) scale(1 -1)" gradientUnits="userSpaceOnUse">
      <stop offset="0" stop-color="#00cbd4"/>
      <stop offset=".99" stop-color="#0071bc"/>
    </linearGradient>
    <linearGradient id="_名称未設定グラデーション_7" data-name="名称未設定グラデーション 7" x1="17.33" y1="19.16" x2="21.27" y2="19.16" gradientTransform="translate(0 62.37) scale(1 -1)" gradientUnits="userSpaceOnUse">
      <stop offset="0" stop-color="#00cbd4"/>
      <stop offset=".99" stop-color="#0071bc"/>
    </linearGradient>
    <linearGradient id="_名称未設定グラデーション_8" data-name="名称未設定グラデーション 8" x1="17.79" y1="13.94" x2="21.72" y2="13.94" gradientTransform="translate(0 62.37) scale(1 -1)" gradientUnits="userSpaceOnUse">
      <stop offset="0" stop-color="#00cbd4"/>
      <stop offset=".99" stop-color="#0071bc"/>
    </linearGradient>
    <linearGradient id="_名称未設定グラデーション_9" data-name="名称未設定グラデーション 9" x1="17.47" y1="8.22" x2="21.69" y2="8.22" gradientTransform="translate(0 62.37) scale(1 -1)" gradientUnits="userSpaceOnUse">
      <stop offset="0" stop-color="#00cbd4"/>
      <stop offset=".99" stop-color="#0071bc"/>
    </linearGradient>
    <linearGradient id="_名称未設定グラデーション_10" data-name="名称未設定グラデーション 10" x1="19.58" y1="34.58" x2="19.74" y2="34.58" gradientTransform="translate(0 62.37) scale(1 -1)" gradientUnits="userSpaceOnUse">
      <stop offset="0" stop-color="#00cbd4"/>
      <stop offset=".99" stop-color="#0071bc"/>
    </linearGradient>
  </defs>
  <g>
    <path class="cls-4" d="M17.62,6.6h2.82l.2.3c-.6.45-1.13.86-1.59,1.23.18-.09.34-.13.49-.13.13,0,.24.03.33.09.11.08.17.19.17.34,0,.03,0,.07-.01.12-.02.21-.03.4-.03.59,0,.1.02.17.06.2.06.05.26.08.59.08.3,0,.59-.02.89-.05l.03.41c-.27.03-.59.04-.95.04-.39,0-.65-.03-.78-.08-.1-.04-.17-.1-.21-.18-.03-.07-.05-.17-.05-.3,0-.28,0-.5.03-.67v-.05c0-.15-.08-.22-.25-.22-.2,0-.44.1-.72.31-.34.25-.77.65-1.3,1.21l-.3-.33c.96-.94,1.93-1.78,2.91-2.54h-2.33v-.37ZM19.8,5.67c-.04.7-.71.84-.93.27-.13-.67-.09-.85.2-1.26.34-.48.71.5.72.82v.17h0ZM20.09,16.73c-.04.7-.71.84-.93.27-.13-.67-.09-.85.2-1.26.34-.48.71.5.72.82v.17h.01ZM21.07,40.1c-.04.7-.71.84-.93.27-.13-.67-.09-.85.2-1.26.34-.48.71.5.72.82v.17h0ZM22.2,40.45c-.04.7-.71.84-.93.27-.13-.67-.09-.85.2-1.26.34-.48.71.5.72.82v.17h0Z"/>
    <path class="cls-3" d="M17.48,22.16h1.66c-.07-.21-.14-.42-.21-.62l.42-.03c.05.18.12.4.22.65h1.84v.36h-1.71c.11.29.24.58.39.87h1.68v.36h-1.48c.19.33.39.64.61.93l-.42.14c-.24-.34-.45-.7-.65-1.07h-2.43v-.36h2.25c-.13-.28-.25-.57-.37-.87h-1.79v-.36h-.01ZM20.87,26.09c-.31.02-.6.03-.87.03-.68,0-1.17-.05-1.5-.15-.53-.17-.79-.47-.79-.92,0-.22.06-.4.17-.53l.34.19c-.05.13-.08.24-.08.35,0,.27.2.46.59.56.28.07.68.11,1.19.11.28,0,.59-.01.92-.04l.04.41h-.01Z"/>
    <path class="cls-8" d="M17.91,17.68h2.82l.2.3c-.6.45-1.13.86-1.59,1.23.18-.09.34-.13.49-.13.13,0,.24.03.33.09.11.08.17.19.17.34,0,.03,0,.07-.01.12-.02.21-.03.4-.03.59,0,.1.02.17.06.2.06.05.26.08.59.08.3,0,.59-.02.89-.05l.03.41c-.27.03-.59.04-.95.04-.39,0-.65-.03-.78-.08-.1-.04-.17-.1-.21-.18-.03-.07-.05-.17-.05-.3,0-.28.01-.5.03-.67v-.05c0-.15-.08-.22-.25-.22-.2,0-.44.1-.72.31-.34.25-.77.65-1.3,1.21l-.3-.33c.96-.94,1.93-1.78,2.91-2.54h-2.34v-.37h.01Z"/>
    <path class="cls-7" d="M17.49,11.1h1.66c-.07-.21-.14-.42-.21-.62l.42-.03c.05.18.12.4.22.65h1.84v.36h-1.71c.11.29.24.58.39.87h1.68v.36h-1.48c.19.33.39.64.61.93l-.42.14c-.24-.34-.45-.7-.65-1.07h-2.43v-.36h2.25c-.13-.28-.25-.57-.37-.87h-1.79v-.36h-.01ZM20.88,15.03c-.31.02-.6.03-.87.03-.68,0-1.17-.05-1.5-.15-.53-.17-.79-.47-.79-.92,0-.22.06-.4.17-.53l.34.19c-.05.13-.08.24-.08.35,0,.27.2.46.59.56.28.07.68.11,1.19.11.28,0,.59-.01.92-.04l.04.41h-.01Z"/>
    <path class="cls-1" d="M17.91,29.3l1.75-1.42,2.06,1.36.29.24c-.15.58-.43,1.04-.84,1.37-.22.18-.5.33-.84.46l-.25-.32c.5-.16.89-.43,1.17-.8.13-.17.22-.36.27-.57h-.24l-.32-.23-.35.23-.24-.21-.39.21-.32-.2-.37.2-.32-.21-.53.21-.29-.21-.55.21s.31-.32.31-.32ZM19.36,30.21h.43v.44c0,.68-.07,1.2-.2,1.55-.18.47-.56.84-1.12,1.13l-.31-.32c.39-.19.68-.42.86-.71.13-.19.22-.39.26-.59.06-.27.09-.63.09-1.07v-.44h-.01Z"/>
    <path class="cls-2" d="M19.36,35.42c-.5-.23-1.04-.41-1.61-.54l.14-.41c.68.16,1.22.34,1.62.54l-.15.41ZM17.8,38.11c.71-.06,1.27-.17,1.68-.32,1.06-.39,1.73-1.29,2-2.71l.37.26c-.16.77-.42,1.37-.77,1.82-.38.49-.9.85-1.56,1.07-.41.14-.95.24-1.62.31l-.11-.44h.01Z"/>
    <path class="cls-10" d="M17.33,41.24h3.53l.41.35c-.04.76-.17,1.38-.39,1.84-.23.49-.58.89-1.07,1.18-.39.23-.91.43-1.57.57l-.22-.38c.95-.18,1.64-.5,2.08-.99.44-.49.67-1.22.7-2.19h-3.47v-.39h0Z"/>
    <path class="cls-6" d="M17.79,46.19h.44v3.99c.78-.22,1.5-.62,2.17-1.2.43-.37.78-.79,1.02-1.24l.28.41c-.37.56-.84,1.05-1.41,1.46-.66.48-1.4.84-2.21,1.08l-.3-.3v-4.21h.01Z"/>
    <path class="cls-11" d="M17.47,53.25h4.23c-.08.76-.25,1.36-.53,1.78-.24.38-.58.67-1.02.87-.39.18-.88.32-1.47.41l-.2-.38c.86-.11,1.49-.34,1.9-.68.44-.37.7-.91.79-1.62h-3.71v-.38h0ZM17.84,51.99h3.35v.38h-3.35v-.38Z"/>
    <rect class="cls-9" x="19.58" y="27.67" width=".16" height=".25" rx=".06" ry=".06"/>
  </g>
  <line class="cls-5" x1="19.65" y1="27.95" x2="18.2" y2="29.26"/>
  <line class="cls-5" x1="19.65" y1="27.95" x2="19.01" y2="29.21"/>
  <line class="cls-5" x1="19.65" y1="29.26" x2="19.65" y2="27.95"/>
  <line class="cls-5" x1="20.33" y1="29.26" x2="19.65" y2="27.95"/>
  <line class="cls-5" x1="20.93" y1="29.21" x2="19.65" y2="27.95"/>
  <line class="cls-5" x1="21.53" y1="29.26" x2="19.65" y2="27.95"/>
</svg>