<?xml version="1.0" encoding="UTF-8"?>
<svg id="_レイヤー_1" data-name="レイヤー 1" xmlns="http://www.w3.org/2000/svg" viewBox="0 0 370 320">
  <defs>
    <style>
      .cls-1, .cls-2, .cls-3, .cls-4 {
        fill: #fff;
      }

      .cls-1, .cls-5, .cls-6, .cls-3, .cls-7, .cls-4 {
        stroke: #fff;
      }

      .cls-1, .cls-5, .cls-4 {
        stroke-miterlimit: 10;
      }

      .cls-5, .cls-6, .cls-7 {
        fill: none;
      }

      .cls-6 {
        stroke-width: .5px;
      }

      .cls-6, .cls-7 {
        stroke-linecap: round;
        stroke-linejoin: round;
      }

      .cls-4 {
        font-family: MonotypeCorsiva, 'Monotype Corsiva';
        font-size: 145.17px;
      }
    </style>
  </defs>
  <g id="black">
    <g id="monokuro">
      <text class="cls-4" transform="translate(75.83 175.73)"><tspan x="0" y="0">K</tspan></text>
      <text class="cls-4" transform="translate(147.68 182.91)"><tspan x="0" y="0">P</tspan></text>
      <text class="cls-4" transform="translate(200.61 206.84)"><tspan x="0" y="0">S</tspan></text>
      <g>
        <path class="cls-3" d="M152.8,61.26c.01.1.02.15.04.26-.64.49-1.13.95-1.49,1.37-.35.42-.78,1.08-1.26,1.97-1.27,2.36-2.29,4.32-3.2,5.89.63.05,1.22.19,1.78.41.56.22,1.7.85,3.34,1.94,1.47.97,2.63,1.54,3.5,1.67.87.13,1.59.04,2.19-.3.57-.33.83-.79.77-1.41-.03-.37-.02-.61.04-.73.08-.16.2-.28.36-.36.17-.09.35-.12.52-.09.17.03.29.12.36.25.18.35.09.81-.24,1.39-.33.58-.86,1.08-1.6,1.5-.64.37-1.32.6-2.06.69s-1.52.02-2.37-.22c-.85-.24-1.93-.75-3.25-1.52-1.25-.73-2.17-1.18-2.73-1.37-.56-.19-1.25-.32-2.07-.37.5,1.61.77,2.41,1.33,3.98.29.8.52,1.35.69,1.65.57-.23,1.03-.48,1.39-.77.09-.07.21-.17.36-.31.07.19.1.29.17.49-.13.11-.21.18-.24.2-.22.17-.54.4-.97.7-.45.31-.8.58-1.07.81-.54.46-1.32,1.28-2.28,2.5-.11-.16-.16-.23-.27-.39.51-.66.82-1.18.93-1.57.1-.39.08-.82-.08-1.3-.35-1.1-.92-2.69-1.65-4.83-.62-1.83-.91-2.75-1.45-4.62-1.5,1.29-2.5,2.56-3.02,3.7-.4.88-.43,1.5-.11,1.84.12.12.35.2.7.22.32.02.53.09.62.19.12.13.15.31.1.53-.05.23-.17.43-.36.61-.22.2-.48.32-.78.33-.31.02-.58-.09-.81-.32-.63-.64-.72-1.71-.18-3.19.54-1.48,2.13-3.41,4.88-5.48.31-.24.47-.35.79-.58.1,1.07.22,1.82.34,2.25.34,1.22.51,1.83.88,3.04.44-.57.89-1.31,1.39-2.21.5-.9.98-1.8,1.43-2.69.84-1.64,1.35-2.59,1.45-2.88.02-.09.02-.16,0-.19-.03-.04-.14-.03-.33.04-.19.07-.69.34-1.49.84-.05-.23-.08-.34-.13-.56,1.11-.62,2.02-1.12,2.72-1.52.72-.42,1.53-.92,2.45-1.49Z"/>
        <path class="cls-3" d="M156.77,65.16c-.24-.09-.36-.13-.6-.21.27-.36.41-.53.7-.89.68-.87,1.2-1.44,1.52-1.73.18-.17.36-.29.54-.37s.38-.08.6,0c1.03.34,2.02.99,2.96,1.94.94.94,1.59,1.97,2,3.04.05.14.12.35.22.65.59-2.38.81-4.13.42-5.26-.08-.23-.26-.52-.53-.86-.3-.37-.49-.66-.55-.84-.06-.18-.03-.35.09-.53.12-.17.3-.3.55-.38.31-.1.58-.1.82,0,.24.11.41.32.51.62.25.8.31,1.87.21,3.22-.1,1.35-.41,2.87-.88,4.57-.47,1.7-.91,3.03-1.38,3.99-.47.96-.96,1.73-1.5,2.32-.54.59-1.09,1.03-1.67,1.34-.44.23-.81.34-1.11.32-.3-.02-.5-.12-.61-.31-.09-.17-.09-.36.02-.58.11-.22.31-.41.62-.57.23-.12.57-.25,1.02-.39.47-.14.79-.24.95-.32.42-.2.8-.56,1.14-1.08.47-.71.79-1.43.94-2.18.16-.75.13-1.42-.11-2.01-.34-.83-.89-1.78-1.7-2.81-.81-1.03-1.65-1.73-2.53-2.07-.44-.18-.85-.19-1.19-.03-.41.19-.9.65-1.45,1.4Z"/>
        <path class="cls-3" d="M175.11,57.2c.89-.15,1.66,0,2.31.43.65.43,1.02,1.09,1.12,1.99.17,1.43-.35,2.78-1.46,4.1-1.1,1.32-2.29,2.12-3.65,2.42-.84.18-1.57.13-2.19-.18-.63-.31-1.05-.83-1.26-1.59-.35-1.31-.2-2.67.57-4.04.96-1.71,2.52-2.79,4.56-3.12ZM174.09,58.11c-.76.14-1.42.67-1.94,1.59-.53.92-.61,2.06-.29,3.41.19.82.54,1.42,1.04,1.81.37.28.78.38,1.26.28.67-.14,1.22-.58,1.66-1.34.57-.98.78-2.11.58-3.39-.15-.96-.43-1.62-.85-1.97-.42-.35-.92-.48-1.46-.38Z"/>
        <path class="cls-3" d="M191.09,56.72c.78.06,1.16.09,1.94.17-.65,1.3-.96,1.96-1.56,3.27-.88,1.91-1.27,3.01-1.29,3.29,0,.12.02.22.09.29.07.07.15.11.24.11.14,0,.3-.03.5-.11.28-.13.82-.46,1.64-.98.15.16.22.24.37.4-1.8,1.16-3.01,1.77-3.76,1.74-.26-.01-.47-.1-.64-.27-.17-.17-.26-.39-.25-.69.01-.34.12-.78.32-1.34-.76.63-1.67,1.19-2.73,1.69-.7.33-1.3.51-1.81.53-.28,0-.5-.06-.67-.2-.17-.14-.26-.37-.28-.7-.01-.25.01-.53.07-.82.09-.41.32-1.25.73-2.5.52-1.58.81-2.53.8-2.84,0-.18-.1-.27-.28-.27-.16,0-.38.07-.65.2-.27.13-.74.44-1.37.93-.24-.12-.36-.18-.6-.3,1.14-.85,2.05-1.39,2.68-1.65.63-.26,1.15-.38,1.55-.38.22,0,.4.06.53.17.14.11.2.29.2.53,0,.45-.35,1.55-.96,3.3-.54,1.58-.78,2.49-.78,2.71,0,.14.06.25.17.35.11.1.23.14.36.14.46,0,1.1-.31,1.97-.89.87-.58,1.47-1.23,1.78-1.98.64-1.57.98-2.35,1.68-3.9Z"/>
        <path class="cls-3" d="M197.67,65.56c-.71-.14-1.06-.2-1.78-.32.5-.98.76-1.47,1.29-2.43.65-1.19,1.25-2.32,1.81-3.38.13-.26.21-.43.22-.5.03-.15-.05-.25-.25-.29-.13-.03-.35,0-.65.08-.3.08-.85.31-1.64.72-.14-.16-.21-.24-.35-.4.94-.53,1.88-.88,2.8-1.04.92-.16,1.61-.18,2.07-.08.16.04.28.09.37.17.08.08.11.15.09.24-.02.08-.13.29-.33.62-.39.63-.58.95-.95,1.58,1.09-.82,2.31-1.44,3.63-1.85.63-.19,1.14-.23,1.51-.13.27.08.47.21.61.38.14.17.18.34.14.5-.05.17-.18.28-.39.35-.21.07-.68.08-1.4.05-.69-.03-1.26.03-1.73.14-.46.12-.99.34-1.57.69-.58.34-1,.67-1.26.97-.26.3-.71,1.03-1.33,2.19-.37.69-.55,1.04-.91,1.74Z"/>
        <path class="cls-3" d="M206.62,61.76c-.18-.2-.28-.3-.46-.49,1.07-.41,2.02-.63,2.84-.66.81-.03,1.48.06,1.98.25.28.11.47.23.58.38.11.14.14.29.08.43-.07.17-.65.8-1.7,1.9-1.71,1.8-2.58,2.97-2.74,3.42-.03.09-.03.17,0,.24.03.08.08.13.14.15.25.09,1.02-.06,2.35-.38.13.21.19.32.32.53-1.38.33-2.34.54-2.9.59-.56.04-.99.01-1.3-.09-.27-.09-.46-.23-.57-.42-.11-.19-.13-.4-.05-.64.25-.77,1.43-2.48,3.77-4.98.11-.12.19-.23.23-.34.04-.12-.01-.21-.16-.27-.17-.06-.38-.08-.64-.06-.25.02-.85.16-1.77.45ZM214.04,57.64c.28.12.49.28.62.48.13.2.15.39.07.59-.11.26-.35.43-.71.52-.36.08-.7.06-1.04-.08-.27-.11-.46-.26-.59-.46-.13-.2-.15-.4-.07-.6.11-.27.33-.45.67-.54.34-.08.69-.05,1.06.1Z"/>
        <path class="cls-3" d="M219.35,63.14c.92.23,1.37.35,2.29.61-.91.73-1.36,1.1-2.24,1.85,1.01.57,1.51.86,2.5,1.48-.22.19-.33.28-.55.47-.98-.61-1.48-.9-2.48-1.46-1.06.9-1.58,1.36-2.59,2.3-.78.69-1.25,1.21-1.43,1.55-.08.16-.1.29-.05.4.05.11.15.21.29.29.23.12.64.21,1.23.26.77.07,1.55.11,2.32.1.08.26.11.38.19.64-2.16-.08-3.54-.07-4.19-.15-.65-.08-1.14-.19-1.47-.36-.27-.14-.45-.32-.53-.56-.08-.24-.04-.53.13-.89.2-.42.66-.99,1.37-1.71,1.16-1.16,1.75-1.72,2.96-2.84-.79-.41-1.19-.61-1.99-.99.21-.21.31-.31.52-.51.81.39,1.21.59,2.01,1.01.67-.61,1.01-.91,1.7-1.51Z"/>
        <path class="cls-3" d="M231.39,74.73c-.76-.47-1.41-.93-1.96-1.4-.3-.26-.64-.55-.99-.88-.49-.46-.83-.76-1.01-.9-.22-.17-.42-.27-.6-.29-.17-.02-.3.03-.39.14-.13.18-.07.37.18.59.31.28.4.52.25.7-.07.09-.18.12-.34.11-.16-.01-.3-.07-.43-.17-.26-.2-.44-.48-.52-.83-.09-.35-.03-.67.17-.95.26-.36.7-.5,1.33-.43.62.07,1.26.36,1.89.87.33.27.75.66,1.26,1.19.81.85,1.4,1.46,1.78,1.81.39.35.83.6,1.32.75.23.07.39.16.49.26.08.08.14.17.17.26.03.09.02.16,0,.19-.05.05-.13.06-.27.04-.43-.04-1.33-.2-2.68-.42-2.08-.34-3.11-.46-5.14-.6-1.48-.1-2.67-.15-3.61-.18.42.25.74.47.96.63.31.23.58.47.8.71.22.24.57.64,1,1.23.57.77,1.05,1.36,1.49,1.74.27.24.52.38.75.42.23.04.41-.01.54-.16.07-.08.12-.25.16-.49.03-.22.09-.38.16-.46.1-.12.25-.17.43-.15.18.02.35.1.51.24.19.18.3.38.32.62.02.23-.05.43-.22.61-.25.26-.65.41-1.18.46-.54.05-1.07-.03-1.61-.23-.54-.2-1.1-.55-1.69-1.04-.49-.41-1.11-1.11-1.91-2.07-.66-.8-1.21-1.33-1.6-1.6-.23-.17-.57-.26-1.02-.29-.26,0-.46-.05-.59-.13-.26-.17-.35-.31-.29-.4.06-.09.21-.16.44-.19.63-.09,2.12-.18,4.54-.03,1.64.1,3.12.24,4.42.37,1.06.11,1.6.17,2.67.33Z"/>
      </g>
      <g>
        <path class="cls-2" d="M130.02,228.83c-.04-.26-.06-.39-.09-.65,1.09,0,2.04.13,2.85.38.81.25,1.42.55,1.85.91.16.14.26.28.3.42.04.14,0,.28-.1.41-.13.15-.28.29-.46.41-.18.12-.63.39-1.36.79,1.69.07,2.79.12,3.31.22.88.17,1.58.45,2.1.84.34.26.53.6.57,1.04.04.44-.13.93-.52,1.46-.97,1.34-2.43,2.23-4.42,2.59-1.99.35-3.68-.04-4.99-1.15-.51-.44-.94-.98-1.27-1.63-1.26.7-1.89,1.04-3.17,1.7-.2.1-.34.2-.42.29-.17.19-.19.41-.06.68.2.41.77,1.11,1.73,2.08-.19.11-.29.16-.48.26-1.15-1.1-2.05-1.98-2.72-2.61-.69-.64-1.61-1.45-2.75-2.46.2-.09.3-.13.5-.22.58.5,1.07.78,1.48.85.41.07.89-.04,1.45-.33,2.91-1.53,4.34-2.34,7.13-4.01,1.3-.78,2-1.24,2.11-1.36.12-.13.09-.27-.07-.41-.28-.25-1.11-.4-2.51-.5ZM128.8,234.26c.19.89.59,1.59,1.18,2.08.85.71,2.02.83,3.45.33,1.43-.5,2.5-1.26,3.23-2.23.24-.31.33-.61.28-.9-.05-.29-.22-.55-.51-.78-.32-.25-.78-.41-1.38-.49-.93-.12-1.73-.14-2.37-.04-.46.07-1.08.35-1.87.83-.8.48-1.2.72-2.01,1.2Z"/>
        <path class="cls-2" d="M147.47,245.91c.05.2.08.3.13.49-1.04.25-2.05.34-3.02.28-.66-.04-1.16-.16-1.5-.36-.28-.16-.45-.37-.52-.63-.07-.26,0-.57.2-.92.14-.24.4-.54.79-.92.39-.38,1.31-1.14,2.73-2.32.67-.6,1.03-.96,1.1-1.09.11-.19.03-.36-.21-.5-.31-.17-.76-.26-1.36-.29-.84-.03-1.67.06-2.49.27-.52.14-1.08.48-1.69,1.01-1.11.99-1.68,1.48-2.82,2.45-.69-.44-1.03-.67-1.7-1.13,1.03-.74,1.85-1.37,2.46-1.88,2.1-1.76,3.13-2.66,5.14-4.5.92-.85,1.78-1.42,2.56-1.72.78-.29,1.62-.4,2.52-.33.9.07,1.69.28,2.38.65.29.15.48.34.59.56.1.22.1.42,0,.62-.09.17-.25.27-.48.31-.23.04-.5-.02-.78-.17-.16-.09-.37-.22-.61-.39-.54-.39-.93-.66-1.15-.79-.31-.18-.63-.21-.95-.11-.32.1-.83.5-1.52,1.18-1.5,1.47-2.26,2.19-3.81,3.61,1.31-.19,2.61-.25,3.91-.19.76.03,1.32.14,1.68.33.28.15.46.34.55.56.09.22.06.46-.07.71-.11.21-.25.4-.41.57-.28.3-.86.83-1.72,1.57-1.19,1.02-1.92,1.65-2.19,1.91s-.46.51-.6.76c-.05.1-.07.18-.06.25.02.07.07.13.16.18.19.1.64.13,1.34.06.39-.03.86-.07,1.41-.12Z"/>
        <path class="cls-2" d="M158.65,243.88c.74.29,1.26.76,1.58,1.44s.33,1.47.01,2.37c-.5,1.43-1.57,2.51-3.28,3.16-1.71.65-3.32.66-4.75.04-.88-.38-1.49-.92-1.82-1.6-.33-.68-.31-1.39.04-2.14.61-1.3,1.65-2.28,3.07-2.97,1.76-.86,3.45-.96,5.15-.3ZM157.4,244.21c-.64-.26-1.42-.13-2.36.37-.93.5-1.71,1.41-2.3,2.75-.36.81-.45,1.54-.26,2.18.14.47.46.81.95,1.02.69.29,1.46.22,2.28-.23,1.05-.57,1.81-1.52,2.29-2.8.36-.96.46-1.7.31-2.23-.15-.53-.46-.88-.92-1.07Z"/>
        <path class="cls-2" d="M167.66,245.15c.79-.05,1.18-.08,1.97-.15-.6,1.04-.9,1.55-1.52,2.58.98.25,1.46.36,2.44.58-.14.27-.21.4-.35.67-.99-.22-1.48-.34-2.47-.59-.76,1.23-1.14,1.84-1.93,3.05-.61.9-.98,1.55-1.08,1.94-.05.18-.04.32.04.43.07.11.2.18.37.23.26.07.7.06,1.3-.05.79-.14,1.56-.35,2.29-.62.15.23.22.34.37.57-2.09.69-3.53,1.02-4.23,1.09s-1.24.05-1.63-.06c-.32-.09-.54-.25-.67-.48-.13-.23-.14-.55-.02-.95.14-.47.52-1.14,1.12-2.02.96-1.42,1.43-2.13,2.35-3.57-.77-.21-1.15-.32-1.91-.55.17-.25.25-.38.42-.63.76.23,1.13.34,1.89.54.5-.79.75-1.19,1.24-1.99Z"/>
        <path class="cls-2" d="M179.24,248.94c.78.09,1.4.42,1.87,1s.68,1.34.6,2.29c-.12,1.51-.88,2.83-2.35,3.88-1.47,1.06-3.01,1.48-4.53,1.24-.94-.14-1.65-.51-2.13-1.08-.48-.57-.64-1.27-.49-2.08.27-1.41,1.02-2.62,2.19-3.65,1.47-1.28,3.06-1.8,4.85-1.6ZM178.13,249.58c-.68-.09-1.39.23-2.16.96-.77.72-1.28,1.8-1.52,3.24-.14.88-.05,1.6.29,2.18.25.42.64.67,1.16.74.73.1,1.45-.16,2.12-.8.87-.82,1.36-1.93,1.5-3.29.11-1.02.02-1.76-.26-2.24-.28-.47-.66-.74-1.15-.8Z"/>
        <path class="cls-2" d="M197.2,249.07c.71-.07,1.27-.02,1.68.17.41.19.64.43.68.74.02.18-.04.35-.19.51-.15.16-.34.25-.58.28-.15.02-.29,0-.41-.04-.12-.04-.3-.17-.53-.38-.44-.4-.85-.58-1.24-.55-.33.03-.61.16-.85.4-.24.23-.34.51-.32.83.02.28.12.54.31.79.19.25.63.64,1.36,1.16,1,.71,1.56,1.42,1.64,2.14s-.23,1.39-.97,2.01c-.73.62-1.73.98-2.98,1.06-1.05.07-1.84-.06-2.36-.37-.52-.31-.79-.71-.8-1.2,0-.24.08-.44.27-.6.18-.16.41-.25.69-.26.24-.01.45.04.63.16.18.12.27.26.28.43,0,.07,0,.16,0,.27,0,.09,0,.16,0,.23.01.23.15.41.4.55.24.14.57.2.98.18.47-.03.88-.12,1.23-.28.35-.15.61-.37.78-.64.18-.27.25-.53.23-.79-.02-.24-.14-.48-.34-.71-.21-.23-.65-.6-1.33-1.11-.94-.72-1.41-1.46-1.45-2.19-.04-.67.25-1.27.85-1.82.6-.55,1.37-.86,2.34-.96Z"/>
        <path class="cls-2" d="M204.51,246.4c.69-.39,1.03-.59,1.7-.99-.08,1.19-.13,1.79-.24,2.98.98-.2,1.47-.31,2.45-.55,0,.3-.01.45-.02.75-.99.23-1.48.34-2.47.55-.14,1.43-.22,2.15-.4,3.58-.15,1.08-.2,1.82-.12,2.21.03.18.11.3.22.37.11.06.26.08.43.04.27-.05.65-.25,1.14-.61.65-.47,1.24-.99,1.78-1.55.23.14.35.21.59.35-1.58,1.53-2.72,2.46-3.32,2.83s-1.09.59-1.48.66c-.32.06-.59,0-.81-.14-.22-.15-.36-.43-.43-.84-.08-.49-.04-1.25.12-2.31.24-1.7.35-2.54.54-4.24-.78.14-1.17.21-1.95.33.04-.3.06-.45.1-.75.77-.13,1.16-.19,1.93-.34.1-.93.15-1.4.24-2.33Z"/>
        <path class="cls-2" d="M218.76,244.24c.65-.25.97-.37,1.61-.64.12,1.5.16,2.25.24,3.76.1,2.19.17,3.43.27,3.7.05.12.12.2.22.24.1.04.19.04.28,0,.14-.05.29-.16.44-.33.21-.25.59-.82,1.09-1.71.22.07.33.11.55.19-1.08,2-2.09,3.13-2.89,3.42-.27.1-.53.1-.77.01-.24-.09-.42-.28-.52-.57-.12-.34-.19-.82-.21-1.44-.5.92-1.21,1.81-2.16,2.67-.63.57-1.22.93-1.77,1.09-.3.09-.56.08-.77-.02-.21-.1-.37-.32-.46-.65-.07-.26-.11-.55-.12-.86-.01-.44.03-1.36.09-2.73.08-1.74.04-2.77-.06-3.08-.06-.18-.16-.25-.32-.2-.14.04-.31.16-.52.35-.21.19-.54.61-1,1.24-.25-.08-.37-.12-.62-.2.85-1.08,1.49-1.83,1.96-2.24.47-.41.87-.67,1.2-.78.18-.06.35-.05.5.02.15.08.27.23.35.47.15.45.24,1.64.23,3.59-.01,1.75,0,2.74.07,2.96.04.14.14.24.28.3.14.06.28.07.42.03.47-.15,1.04-.66,1.68-1.55.64-.89.94-1.76.92-2.61-.05-1.77-.1-2.66-.2-4.42Z"/>
        <path class="cls-2" d="M234.99,243.27c.21.06.31.09.52.14-.62,1.28-1.15,2.17-1.54,2.68-.54.7-1.02,1.17-1.44,1.39-.19.1-.37.15-.53.13-.16-.02-.27-.08-.32-.18s-.1-.3-.14-.58c-.07-.53-.1-.8-.18-1.33-.52,1.28-1.05,2.22-1.55,2.82-.5.6-1.02,1.03-1.54,1.27-.43.2-.86.23-1.29.07-.43-.16-.76-.52-1.02-1.08-.4-.89-.46-2.08-.24-3.58.22-1.49.62-2.73,1.23-3.71.61-.99,1.25-1.67,1.96-2.06.16-.09.41-.2.75-.33-.31-1.35-.48-2.37-.49-3.07,0-.7.1-1.37.33-2.03.23-.65.56-1.26,1-1.83.44-.57.9-1.01,1.39-1.34.26-.17.5-.25.74-.24s.41.11.54.29c.12.17.15.37.08.57-.07.21-.23.4-.48.56-.16.11-.49.28-.97.52-.49.23-.81.4-.98.5-.23.15-.4.33-.5.57-.1.23-.1.61-.02,1.12.05.33.32,1.32.76,2.98.66,2.49.97,3.74,1.53,6.27.17.75.31,1.22.42,1.43.13.23.3.28.53.15.14-.08.28-.21.42-.39.2-.26.55-.84,1.03-1.73ZM229.97,240.04c-.64.22-1.08.38-1.32.51-.49.26-.89.67-1.2,1.23-.31.56-.46,1.41-.46,2.57,0,1.15.15,2.08.48,2.77.15.32.38.52.7.62.32.09.62.07.89-.06.34-.17.66-.47.97-.91.44-.65.7-1.3.79-1.97.05-.41-.07-1.3-.36-2.66-.19-.84-.29-1.26-.49-2.09Z"/>
        <path class="cls-2" d="M236.2,237.63c-.26,0-.4.01-.66.02.3-1.09.63-1.96,1.02-2.62.39-.65.77-1.12,1.16-1.4.22-.16.41-.24.58-.25.17,0,.31.06.4.19.12.16.4,1,.82,2.53.68,2.5,1.11,3.98,1.4,4.39.05.08.13.13.22.14.09.02.16,0,.22-.04.24-.17.61-.95,1.06-2.34.26,0,.39,0,.66,0-.46,1.45-.88,2.45-1.22,2.98-.33.53-.65.91-.95,1.11-.27.18-.52.26-.76.24-.24-.02-.43-.14-.58-.36-.47-.71-1.04-2.84-1.89-6.29-.04-.16-.1-.29-.17-.4-.08-.11-.18-.12-.3-.04-.14.1-.26.25-.38.46-.12.21-.31.77-.61,1.68ZM236.26,229.29c.2-.15.4-.21.61-.2s.38.11.52.28c.18.24.25.52.19.86-.06.33-.21.59-.46.78-.2.15-.4.21-.62.19s-.39-.13-.53-.31c-.18-.25-.24-.53-.18-.84.06-.31.21-.56.47-.75Z"/>
        <path class="cls-2" d="M245.77,227.06c.61-.57,1.3-.86,2.07-.88.78-.01,1.5.31,2.18.98,1.07,1.07,1.55,2.54,1.33,4.41-.22,1.87-.97,3.38-2.21,4.45-.76.66-1.54.99-2.31,1-.77.01-1.41-.31-1.93-.96-.9-1.12-1.31-2.5-1.28-4.09.03-1.99.74-3.6,2.15-4.91ZM245.49,228.37c-.54.49-.79,1.27-.77,2.35.02,1.08.49,2.18,1.43,3.3.57.68,1.19,1.07,1.87,1.17.5.07.96-.08,1.38-.45.59-.52.88-1.27.87-2.22-.02-1.23-.53-2.34-1.47-3.33-.71-.74-1.34-1.15-1.89-1.23-.56-.08-1.02.06-1.41.41Z"/>
      </g>
      <path class="cls-7" d="M233.97,34.52c39.62,14.1,71.39,48.51,82.28,89.14"/>
      <path class="cls-7" d="M279.29,57.4c10.56,2.57,20.73,6.73,30.08,12.28,2.73,8.69,11.14,17.13,19.58,20.58.58-4.77-.95-9.77-4.11-13.39s-7.9-5.83-12.71-5.91"/>
      <path class="cls-7" d="M275.87,56.71l-3.42-.48"/>
      <path class="cls-7" d="M311.45,71.87c6.43,1.65,11.85,6.79,13.84,13.12"/>
      <path class="cls-7" d="M318.82,75.82c1.9.25,3.76.85,5.45,1.77"/>
      <path class="cls-7" d="M316.47,74.5c-.37,1.43-.03,3.03.88,4.2"/>
      <path class="cls-7" d="M321.62,78.38c-.39,1.53.05,3.24,1.13,4.39"/>
      <path class="cls-7" d="M323.61,81.04c1.57.5,3.04,1.31,4.29,2.38"/>
      <path class="cls-7" d="M284.01,69.08c-1.62,8.81-1.12,18,1.43,26.59"/>
      <path class="cls-7" d="M326.49,115.74c-.84,3.24-.39,6.79,1.23,9.71.94,1.7,2.28,3.17,3.85,4.3.76.55,3.89,2.87,4.44,1.76.15-.31.16-.67.16-1.01-.01-1.59-.22-3.19-.63-4.73-1.07-4.05-3.52-7.73-6.85-10.27"/>
      <path class="cls-7" d="M327.67,117.79c.91,3.1,4.51,7.91,6.61,11"/>
      <path class="cls-7" d="M328.7,120.57c-.74,1.79-.45,3.96.72,5.51"/>
      <path class="cls-7" d="M330.55,122.14c1.35-.02,2.7.64,3.5,1.73"/>
      <path class="cls-7" d="M331.3,124.89c-.39.88-.08,2.01.7,2.57"/>
      <path class="cls-7" d="M284.49,96.09c-1.51,2.98-1.82,6.55-.85,9.75.56,1.86,1.55,3.58,2.86,5.02.63.69,3.19,3.63,3.97,2.66.22-.27.3-.62.37-.95.32-1.56.46-3.16.39-4.75-.18-4.19-1.8-8.3-4.52-11.49"/>
      <path class="cls-7" d="M285.2,98.35c.24,3.22,2.74,8.69,4.13,12.15"/>
      <path class="cls-7" d="M285.62,101.28c-1.1,1.6-1.28,3.78-.46,5.53"/>
      <path class="cls-7" d="M287.09,103.2c1.33.26,2.5,1.2,3.05,2.43"/>
      <path class="cls-7" d="M287.25,106.05c-.56.78-.5,1.94.14,2.66"/>
      <path class="cls-7" d="M309,99.76c6.98,2.68,13,7.82,16.74,14.3"/>
      <path class="cls-7" d="M317.22,126.68l2.01,8.79"/>
      <path class="cls-7" d="M318.9,137.71c4.25,2.3,7.69,6.07,9.58,10.51s2.23,9.54.94,14.2"/>
      <path class="cls-7" d="M316.94,138.97c-.16,9.24,4.72,18.42,12.48,23.45"/>
      <path class="cls-7" d="M321.25,158.53c.37,3.48.43,5.38-.93,6.38-4.17-3.91-8.58-8.25-9.51-13.89-.71-4.34.94-9,4.23-11.93"/>
      <path class="cls-7" d="M316.61,142.41c-.65,2.94-1.6,6.51-.73,9.39.7,2.34,2.26,3.97,3.95,5.74-.96-1.01,3.18,2.81,6.35,3.66-.03-.37-.05-.74-.08-1.11"/>
      <path class="cls-7" d="M303.23,93.51c-2.43,6.95-2.77,14.62-.96,21.76"/>
      <path class="cls-7" d="M300.38,116.7c-3.32,2.81-5.29,7.15-5.23,11.5.07,4.35,2.17,8.63,5.57,11.34,1.53-3.39,1.39-4.43,1.45-8.15"/>
      <path class="cls-7" d="M303.95,115.55c3.13,1.62,5.68,4.33,7.13,7.54s1.78,6.91.92,10.33c-2.24-.65-4.78-3.14-5.67-5.29-.1,2.33-.19,4.67-.29,7-2.59-1.68-4.61-4.24-5.64-7.15s-1.07-6.17-.1-9.1"/>
      <path class="cls-7" d="M153.54,281.56c-40.42-11.63-74.24-44.03-87.61-83.91"/>
      <path class="cls-7" d="M106.9,261.52c-10.7-1.92-21.11-5.44-30.78-10.41-3.26-8.51-12.18-16.42-20.81-19.34-.29,4.8,1.55,9.69,4.93,13.12s8.24,5.33,13.04,5.11"/>
      <path class="cls-7" d="M110.36,261.99l3.45.27"/>
      <path class="cls-7" d="M73.91,249.05c-6.52-1.25-12.24-6.04-14.62-12.24"/>
      <path class="cls-7" d="M66.31,245.56c-1.92-.13-3.81-.62-5.55-1.43"/>
      <path class="cls-7" d="M68.73,246.73c.28-1.45-.15-3.03-1.14-4.14"/>
      <path class="cls-7" d="M63.36,243.18c.3-1.55-.25-3.23-1.4-4.31"/>
      <path class="cls-7" d="M61.2,240.65c-1.6-.4-3.11-1.12-4.43-2.11"/>
      <path class="cls-7" d="M101.47,250.14c1.07-8.89.01-18.04-3.07-26.45"/>
      <path class="cls-7" d="M56.2,206.19c.64-3.28-.02-6.8-1.83-9.62-1.05-1.64-2.47-3.03-4.11-4.06-.79-.5-4.06-2.62-4.54-1.49-.13.32-.12.68-.1,1.02.11,1.59.42,3.17.92,4.68,1.31,3.98,3.99,7.5,7.47,9.83"/>
      <path class="cls-7" d="M54.89,204.21c-1.1-3.03-4.99-7.62-7.27-10.57"/>
      <path class="cls-7" d="M53.69,201.51c.62-1.83.21-3.98-1.06-5.45"/>
      <path class="cls-7" d="M51.75,200.05c-1.35.11-2.73-.47-3.6-1.51"/>
      <path class="cls-7" d="M50.83,197.35c.33-.9-.04-2.01-.86-2.52"/>
      <path class="cls-7" d="M99.33,223.22c1.32-3.07,1.42-6.65.25-9.79-.68-1.82-1.77-3.48-3.16-4.84-.67-.65-3.41-3.42-4.12-2.41-.2.28-.26.63-.31.98-.23,1.58-.26,3.18-.09,4.77.44,4.17,2.31,8.17,5.22,11.19"/>
      <path class="cls-7" d="M98.52,221.73c-.48-3.58-3.65-9.51-5.45-13.29"/>
      <path class="cls-5" d="M97.88,218.11c1-1.66,1.05-3.85.12-5.55"/>
      <path class="cls-7" d="M96.29,216.28c-1.34-.18-2.57-1.04-3.2-2.24"/>
      <path class="cls-7" d="M95.96,213.45c.52-.81.38-1.97-.3-2.64"/>
      <path class="cls-7" d="M74.63,221.07c-7.14-2.25-13.46-7.01-17.59-13.24"/>
      <path class="cls-7" d="M64.78,194.7l-2.55-8.65"/>
      <path class="cls-5" d="M80.79,226.95c2-7.09,1.86-14.77-.38-21.78"/>
      <circle class="cls-1" cx="157.48" cy="282.56" r=".5"/>
      <ellipse class="cls-1" cx="160.66" cy="283.81" rx=".5" ry=".25"/>
      <circle class="cls-1" cx="164.23" cy="284.34" r=".5"/>
      <circle class="cls-1" cx="224.46" cy="31.92" r=".5"/>
      <circle class="cls-1" cx="217.9" cy="30.37" r=".5"/>
      <circle class="cls-1" cx="211.72" cy="29.23" r=".5"/>
      <path class="cls-7" d="M236.05,279.7c14.78-5.02,28.67-11.1,40.23-23.28,10.75-11.32,20.93-22.54,30.08-36.56"/>
      <path class="cls-7" d="M253.94,272.47c.65-4.53,1.3-9.06,1.95-13.58"/>
      <path class="cls-7" d="M264.83,266.16c3.78-1.46,8.31-.75,11.45,1.81"/>
      <path class="cls-7" d="M270.61,261.39c1.59-1.59,2.46-3.86,2.35-6.11s-1.21-4.42-2.95-5.84"/>
      <path class="cls-7" d="M282.82,250.19c5.65-2.16,12.13-2.06,17.72.27"/>
      <path class="cls-7" d="M293.09,237.65c-.86-2.7-1.73-5.4-2.59-8.09"/>
      <path class="cls-7" d="M298.21,231.47h9.65"/>
      <path class="cls-7" d="M302.01,226.16c-.13-3.13-.26-6.26-.39-9.4"/>
      <path class="cls-7" d="M276.44,268.33c.31,1.2.66,2.47,1.57,3.31s2.56,1,3.28,0c.67-.94.12-2.35-.86-2.96s-2.21-.62-3.35-.51"/>
      <path class="cls-7" d="M256.12,258.7c-1.11-.76-2.28-1.58-2.85-2.8s-.26-2.96.98-3.49c1.41-.6,3.03.8,3.25,2.32s-.49,3-1.18,4.38"/>
      <path class="cls-7" d="M269.94,249.61c-1.24-.27-2.53-.57-3.47-1.43s-1.32-2.44-.47-3.38c.97-1.08,2.9-.56,3.73.63s.88,2.74.89,4.19"/>
      <path class="cls-7" d="M299.68,250.45c.4,1.48.84,3.05,1.95,4.11s3.12,1.33,4.1.15c1.04-1.26.21-3.32-1.22-4.12s-3.16-.7-4.79-.59"/>
      <path class="cls-7" d="M290.53,229.89c.33-1.48.49-3.11-.23-4.44s-2.65-2.08-3.83-1.12c-1.14.93-.88,2.86.14,3.91,1.02,1.06,2.51,1.47,3.93,1.84"/>
      <path class="cls-7" d="M308.15,231.69c.88-1.12,2.49-1.59,3.83-1.13s2.31,1.84,2.3,3.26c-2.38.3-4.88-.78-6.31-2.7"/>
      <path class="cls-7" d="M306.14,219.75c-.16-1.21-.02-2.5.63-3.53.65-1.03,1.86-1.75,3.07-1.6s2.27,1.32,2.11,2.53c-.13.96-.94,1.72-1.84,2.07s-1.9.36-2.87.37"/>
      <path class="cls-7" d="M301.62,214.74c-.78-.18-1.6-.37-2.24-.86s-1.07-1.35-.8-2.11c.33-.92,1.6-1.25,2.46-.8s1.33,1.46,1.39,2.44-.21,1.94-.48,2.88"/>
      <path class="cls-7" d="M290.5,241.44c4.16-.74,8.48-.5,12.53.68"/>
      <path class="cls-7" d="M275.15,258.04l9.13.84"/>
      <path class="cls-7" d="M302.36,242.17c-.12,1.95,2.09,3.65,3.95,3.03.72-1.05.02-2.58-1.1-3.2s-2.46-.57-3.72-.5"/>
      <path class="cls-7" d="M283.43,258.29c1-.98,2.23-1.94,3.64-1.87s2.68,1.75,1.87,2.9c-.47.66-1.41.84-2.2.64s-1.45-.71-2.09-1.21"/>
      <path class="cls-7" d="M244.78,276.64c5.92-.6,11.98.29,17.47,2.57.36.9,1.18,1.88,1.99,2.41s2.09.46,2.55-.39c.49-.89-.22-2.05-1.17-2.42s-2.01-.16-3,.04"/>
      <path class="cls-7" d="M69.83,105.64c5.94-17.72,24.66-36.27,40.53-51.07,13.67-12.75,32.7-19.62,51.09-22.95"/>
      <path class="cls-7" d="M286,245.24c-.53-1.39-1.06-2.78-1.59-4.17"/>
      <path class="cls-7" d="M283.96,240.86c-1.67-.28-3.45-.62-4.65-1.81-1.2-1.2-1.33-3.56.16-4.37,1.2-.65,2.77.1,3.5,1.25s.84,2.58.92,3.94"/>
      <path class="cls-7" d="M81.04,86.5c-1.71-3.12-3.41-6.23-5.12-9.35-.57-1.05-1.16-2.12-1.33-3.3s.14-2.51,1.09-3.23c1.08-.83,2.7-.64,3.82.16s1.79,2.05,2.28,3.33c1.08,2.82,1.37,5.94.85,8.92"/>
      <path class="cls-7" d="M95.42,69.09c-.7-4.16-2.38-8.9-4.55-12.52-.52-.87-1.19-1.79-2.18-1.96-1.2-.21-2.31.81-2.79,1.93-1.12,2.62.07,5.66,1.71,7.99s3.77,4.36,4.86,6.99"/>
      <path class="cls-7" d="M109.61,55.27c2.26-3.68,1.36-9.55-1.43-12.84-1.02-1.21-2.41-2.21-3.99-2.36s-3.31.74-3.75,2.27c-.36,1.27.2,2.6.75,3.8,1.94,4.22,3.77,7.46,5.71,11.69"/>
      <path class="cls-7" d="M125.46,43.82c2.58-3.29,2.82-8.21.58-11.74-1.02-1.6-2.94-3-4.7-2.29-1.77.71-2.17,3.02-2.11,4.93.11,3.66.92,7.29,2.37,10.65"/>
      <path class="cls-7" d="M144.92,35.15c1.24-1.72,2.5-3.47,3.15-5.49s.61-4.38-.63-6.1-3.87-2.47-5.59-1.24c-1.88,1.34-1.92,4.06-1.76,6.36.21,3.08.07,5.37.28,8.45"/>
      <path class="cls-7" d="M161.24,31.31c2.45-2.48,4.35-5.5,5.53-8.78.32-.88.58-1.8.5-2.72s-.6-1.86-1.46-2.21c-1.36-.55-2.82.51-3.75,1.65-1.91,2.33-3.04,5.28-3.19,8.29-.06,1.23.04,2.09-.52,3.19s-1.81,2.08-2.73,2.08"/>
      <path class="cls-7" d="M83.35,82.93c3.34-1.18,7.03-1.34,10.46-.46,1.55.4,3.27,1.26,3.55,2.84.33,1.86-1.68,3.41-3.56,3.5s-3.66-.76-5.48-1.28c-3.03-.86-5.04-1.86-8.03-.87"/>
      <path class="cls-7" d="M95.23,69.31l4.97-.57c1.35-.16,2.75-.3,4.02.15s2.37,1.72,2.17,3.06c-.17,1.11-1.17,1.94-2.25,2.25s-2.49.85-3.6.74c-3.57-.36-4.89-1.94-8.47-2.3"/>
      <path class="cls-7" d="M109.61,55.27c2.59-.28,6.31-.05,8.89.34,1.41.21,3.07.78,3.35,2.17.21,1.02-.39,2.26-1.11,3.01-.96,1-2.35,1.65-5.53,1.39-5.41-.43-6.7-1.4-8.66-4.04"/>
      <path class="cls-7" d="M124.76,44.16c2.74-.3,5.53.11,8.24.57,1.64.28,3.58,1.05,3.73,2.71.13,1.44-1.29,2.57-2.67,2.99-3.13.93-6.46-.28-9.5-1.48-1.39-.55-2.79-1.1-4.18-1.65"/>
      <path class="cls-7" d="M144.56,35.74c1.84-.36,4.2.45,6.01,1.15s3.56,1.88,3.69,3.75c.05.75-.16,1.52-.59,2.14-1.14,1.63-3.56,1.9-5.42,1.19s-3.33-2.16-4.81-3.49-2.87-2.4-4.84-2.69"/>
      <path class="cls-7" d="M161,31.7c1.54-.44,3.28.06,4.83.43s3.01,1.37,3.66,2.83c.65,1.46.34,3.37-.92,4.35-1.6,1.25-4,.67-5.66-.5s-2.94-2.83-4.65-3.92c-1.78-1.13-4-1.57-6.08-1.21"/>
      <path class="cls-6" d="M162.36,26.91c-.4,1.86-1.47,3.57-2.97,4.74"/>
      <path class="cls-6" d="M160.16,28.76c-.39,1.34-1.18,2.57-2.24,3.49"/>
      <path class="cls-6" d="M159.76,32.28c1.08.02,2.15.36,3.05.95"/>
      <path class="cls-6" d="M157.86,32.61c1.33.32,2.56,1.04,3.5,2.03"/>
      <path class="cls-6" d="M144.97,30.27c-.26,2.09-.87,4.14-1.8,6.04"/>
      <path class="cls-6" d="M142.09,32.97c.15,1.2.01,2.44-.4,3.58"/>
      <path class="cls-6" d="M143.12,36.5c.96.22,1.9.51,2.8.88.88.36,1.79.83,2.24,1.67"/>
      <path class="cls-6" d="M141.32,37.19c1.05.05,2.04.72,2.48,1.67"/>
      <path class="cls-6" d="M124.57,38.1c.59.97.86,2.12.77,3.25s-.56,2.22-1.31,3.07"/>
      <path class="cls-6" d="M122.79,41.8c.53,1.17.5,2.59-.1,3.73"/>
      <path class="cls-6" d="M123.49,45.24c.46-.16.97-.09,1.45-.02,1.33.21,2.65.52,3.94.93"/>
      <path class="cls-6" d="M121.68,45.89c1.85.16,3.65.87,5.1,2.03"/>
      <path class="cls-6" d="M108.26,48.82c1.02,2.03,1.27,4.44.68,6.64"/>
      <path class="cls-6" d="M106.49,52.1c.72,1.44,1.14,3.03,1.23,4.64"/>
      <path class="cls-6" d="M108.96,56.5c2.18.17,4.34.6,6.42,1.28"/>
      <path class="cls-6" d="M107.79,57.46c1.39,1.1,3.16,1.72,4.93,1.74"/>
      <path class="cls-6" d="M92.22,64.52c1.09,1.66,1.78,3.59,2,5.57"/>
      <path class="cls-6" d="M94.58,70.65c1.88-.18,3.8-.03,5.63.45"/>
      <path class="cls-6" d="M93.36,71.47c1.54.09,3.07.43,4.5,1.01"/>
      <path class="cls-6" d="M80.55,78.96c.67,1.7,1.18,3.46,1.52,5.25"/>
      <path class="cls-6" d="M81.86,84.78c2.29-.22,4.64.08,6.8.87"/>
      <path class="cls-6" d="M80.15,82.16c.64.58,1.07,1.4,1.17,2.26"/>
    </g>
  </g>
</svg>