<?xml version="1.0" encoding="UTF-8"?>
<svg id="_レイヤー_1" data-name="レイヤー 1" xmlns="http://www.w3.org/2000/svg" viewBox="0 0 165 65">
  <defs>
    <style>
      .cls-1 {
        stroke: #131c3e;
        stroke-width: 5px;
      }

      .cls-1, .cls-2, .cls-3, .cls-4, .cls-5 {
        fill: none;
      }

      .cls-1, .cls-3, .cls-5 {
        stroke-linecap: round;
        stroke-linejoin: round;
      }

      .cls-6 {
        font-size: 48px;
      }

      .cls-6, .cls-7 {
        fill: #131c3e;
        font-family: Rockwell, Rockwell;
      }

      .cls-2, .cls-3 {
        stroke-width: 2px;
      }

      .cls-2, .cls-3, .cls-4, .cls-5 {
        stroke: #121b3c;
      }

      .cls-2, .cls-4 {
        stroke-miterlimit: 10;
      }

      .cls-7 {
        font-size: 28px;
      }

      .cls-4 {
        stroke-width: 1.5px;
      }

      .cls-5 {
        stroke-width: 4px;
      }
    </style>
  </defs>
  <path class="cls-1" d="M37.89,27.79c1.82-1.82,3.14-2.57,3.2-5.16.08-3.67-2.35-6.94-5.82-8.15-6.52-2.28-16.07-2.71-18.05,3.39,0,0,0,.01,0,.02,0,.63-.35,1.6-.23,2.22s.24,1.05.69,1.49c.53.52,1.28.77,2.01.83s3.86.19,4.59.08"/>
  <path class="cls-1" d="M36.89,47.79c2.73-2.2,3.28-4.14,3.06-7.64-.29-4.48-4.3-8.05-8.66-9.13s-8.95-.18-13.27,1.06c-1.24.36-2.52.76-3.47,1.64-1.31,1.21-1.82,3.55.31,4.61,1.08.54,2.36.48,3.46,0l7.03-3.07"/>
  <path class="cls-1" d="M23.89,49.79l-5.9-.66c-1.36.54-2.15,2.95-.81,3.51.83.35,3.22.66,4.11.66,1.62,0,3.18-.48,4.71-1.03"/>
  <circle class="cls-4" cx="39.54" cy="24.52" r="5.5"/>
  <circle class="cls-4" cx="39.54" cy="44.99" r="5.5"/>
  <text class="cls-7" transform="translate(47.14 49.48) skewX(.65)"><tspan x="0" y="0">ase</tspan></text>
  <text class="cls-6" transform="translate(104.75 55.95)"><tspan x="0" y="0">IN</tspan></text>
  <line class="cls-3" x1="90.12" y1="22.1" x2="59.02" y2="22.1"/>
  <path class="cls-2" d="M97.81,28.31l-.02,16.69.02.75c.13,5.37-3.87,10.13-9.23,10.51-.28.02-.56.03-.84.03h-51.43c-5.66,0-10.29-4-10.29-8.16v-25.21c0-5.63,4.63-9.64,10.29-9.64h14.5s.45-.06.58,0c2.65,1.21,7.63,8.81,7.63,8.81"/>
  <path class="cls-3" d="M89.81,22.1c1.94.02,4.44-.15,6,1,1.56,1.15,2,3,2,6"/>
  <line class="cls-5" x1="26.85" y1="17.1" x2="26.43" y2="51.29"/>
</svg>