<?xml version="1.0" encoding="UTF-8"?>
<svg id="_レイヤー_1" data-name="レイヤー 1" xmlns="http://www.w3.org/2000/svg" viewBox="0 0 411.32 238.81">
  <defs>
    <style>
      .cls-1 {
        stroke-miterlimit: 10;
      }

      .cls-1, .cls-2 {
        fill: none;
        stroke: #000;
      }

      .cls-2 {
        stroke-linecap: round;
        stroke-linejoin: round;
      }
    </style>
  </defs>
  <g id="_線" data-name="線">
    <path class="cls-2" d="M100.29,88.43c-2.13-1.12-5-.58-6.56,1.25s-1.67,4.74-.25,6.68,4.09,3.11,6.29,2.14c4.18,10.69,12.78,19.67,23.43,23.94s23.24,3.68,33.26-1.92c10.02-5.6,17.18-16.21,18.25-27.64"/>
    <path class="cls-2" d="M148.98,54.79c-.87,6.07-.41,12.34,1.36,18.21.76,2.53,1.81,5.08,3.72,6.91s4.86,2.78,7.29,1.72"/>
    <path class="cls-2" d="M162.02,59.46c-1.16,3.52-1.89,7.19-2.16,10.89-.23,3.09-.11,6.34,1.32,9.09,2.14,4.11,7.28,6.4,11.76,5.23"/>
    <path class="cls-2" d="M176.9,67.81c-.88,3.89-1.76,7.78-2.64,11.67-.55,2.45-1.11,4.99-.61,7.46s2.37,4.84,4.87,5.09"/>
    <path class="cls-2" d="M147.45,55.56c.7,4.21.87,8.58-.17,12.72s-3.37,8.06-6.91,10.44-9.35,2.49-13.16.56"/>
    <path class="cls-2" d="M135.44,58.45c-.61,4.28-1.37,8.58-3.06,12.55s-4.39,7.64-8.14,9.78-8.63,2.53-12.37.37"/>
    <path class="cls-2" d="M101.56,70.73c-2.03,2.54-4.1,5.17-5.05,8.28s-.58,6.72,1.84,8.9c10.09-3.2,18.09-12.24,20.05-22.64"/>
    <path class="cls-2" d="M124.15,23.66c8.81-4.85,19.65-5.51,29.24-2.47s17.89,9.59,23.72,17.78c6.69,9.4,10.22,21,9.9,32.53-.53,19.3-11.43,38.1-7.62,57.03.52,2.6,1.21,5.65-.57,7.61-1.46,1.61-4.08,1.67-6.03.73s-3.41-2.66-4.81-4.32c.89,2.81-1.06,5.9-4.01,5.8"/>
    <path class="cls-2" d="M119.98,25.37c-5.22-1.13-10.74.88-14.89,4.24s-7.1,7.96-9.67,12.63c-8.38,15.21-13.48,32.22-14.86,49.53-.69,8.68-.53,17.75-4.34,25.59-1.12,2.31-2.59,4.51-3.08,7.03-.87,4.46,1.92,9.36,6.21,10.87s9.54-.53,11.67-4.55c-.02,2.04-.04,4.09-.06,6.13,3.06,1.83,7.6.28,8.9-3.04-.5,2.39,1.38,5.01,3.81,5.3"/>
    <path class="cls-2" d="M144.4,125.24c-1.09,2.56.02,6,.56,7.35"/>
    <path class="cls-2" d="M128.35,124.5c1.45,2.53,1.63,5.75.47,8.43"/>
    <path class="cls-1" d="M153.69,94.68c-.58-.37-1.28.26-1.51,1.39s.05,2.56.6,3.07,1.29.03,1.57-1.05c.21-.8.15-1.85-.13-2.55s-.79-1.03-1.23-.79"/>
    <path class="cls-2" d="M143.55,101.66c-.36.25-.55.78-.34,1.17s.84.5,1.11.15-.13-.98-.55-.83"/>
    <path class="cls-2" d="M190.65,195.11c.59-7.71-1.03-15.47-3.69-22.74s-6.34-14.11-10-20.92c-2.03-3.78-4.16-7.67-7.52-10.34-3.47-2.75-8.13-3.9-12.49-3.19-3.39.55-1.99,1.57-2.31,4.35-.23,1.96-1.12,3.86-2.57,5.21-2.54,2.38-6.64,2.91-9.7,1.26-3.72-2-5.36-6.38-6.7-10.4.88,1.32.73,3.14-.08,4.51s-2.16,2.32-3.6,3c-3,1.41-6.66,1.66-9.59.12s-4.85-5.09-3.99-8.29,6.81-5.94,9.78-4.46c.69,2.2,2.72,3.82,4.96,4.37s4.63.1,6.72-.88,3.89-2.47,5.54-4.07c3.46-.34,7.14,2.09,8.57,5.26.11.24.2.48.28.73"/>
    <path class="cls-2" d="M118.5,136.88c-7.79-1.67-15.93,2.21-21.44,7.95s-8.89,13.16-12.17,20.41c-.16.35-.32.7-.47,1.05"/>
    <path class="cls-2" d="M340.94,30c24.77-3.74,48.77-12.65,69.88-26.13"/>
    <path class="cls-2" d="M285.92,29.65c8.59,1.43,16.79,2.19,25.5,2.33,8.15.14,16.31-.29,24.4-1.28"/>
    <path class="cls-2" d="M239.7,15.63c13,5.99,26.47,10.3,40.59,13.05"/>
    <path class="cls-2" d="M213.04.5c7.07,4.86,14.21,9.07,21.86,12.84"/>
    <path class="cls-2" d="M235.58,18.85c1.24,15.64-4.86,31.7-16.16,42.58"/>
    <path class="cls-2" d="M233.72,17.49c-5.34,4.9-9.93,9.11-15.27,14.01-2.23,2.05-4.62,4.43-4.72,7.45"/>
    <path class="cls-2" d="M232.71,36.39c-13.13,8.3-24.49,19.41-33.07,32.36"/>
    <path class="cls-2" d="M226.62,24.43c2.93,4.04,2.53,10.14-.9,13.76-1.91-2.96-2.8-6.57-2.47-10.08"/>
    <path class="cls-2" d="M233.46,39.79c3.07.66,5.84,2.6,7.53,5.25.92,1.46,1.53,3.25,1.06,4.91-.54,1.89-2.48,3.2-4.44,3.26s-3.87-1-5.08-2.54-1.81-3.51-1.94-5.47"/>
    <path class="cls-2" d="M227.2,52.9c2.02,1.98,2.49,3.82,3.14,6.57.27,1.15.4,2.38.02,3.5s-1.39,2.09-2.57,2.12c-1.54.04-2.69-1.42-3.25-2.85-.79-2.02-.95-3.87-.43-5.97"/>
    <path class="cls-2" d="M229.01,44.41c-2.13-.43-4.47.4-5.86,2.08-.86,1.05-1.29,2.73-.33,3.68.69.68,1.85.68,2.72.26s2.4-.25,3.03-.98"/>
    <path class="cls-2" d="M236.32,25.91c2.26.33,4.3,1.91,5.19,4.01.57,1.35.67,2.96,0,4.27s-2.2,2.2-3.64,1.9c-1.09-.23-1.97-1.08-2.51-2.06s-.19-.94-.42-2.03"/>
    <path class="cls-2" d="M218.45,45.46c.76-.97-.31-3.19-1.42-3.72s-2.58.08-3.07,1.21.01,2.56,1.05,3.21,2.48.52,3.44-.25"/>
    <path class="cls-2" d="M213.77,51.52c.82-.52,2.4-1.35,3.17-.75s1.1,1.7.8,2.62c-.41,1.25-2.05,1.96-3.2,1.31s-1.81-2.37-.76-3.18"/>
    <path class="cls-2" d="M209.86,54.32c.03-1-1.01-1.77-2.01-1.82s-1.95.43-2.83.9c-1.24.67-2.65,1.73-2.43,3.12.19,1.21,1.64,1.88,2.85,1.68s2.22-1.01,3.16-1.79c1.69-.24,4.01,2.97,3.82,4.67s-2.19,2.93-3.79,2.33-2.89-3.31-1.91-4.72"/>
    <path class="cls-2" d="M202.24,63.74c-1.22-.63-2.46-1.28-3.82-1.49s-2.87.08-3.8,1.09-1.02,2.8.04,3.68c1.35,1.11,5,.43,6.48-.49"/>
    <path class="cls-2" d="M201.89,67.26c1.65.08,3.25,1.17,3.82,2.72s0,3.49-1.38,4.39c-1.36.88-3.33.62-4.42-.58s-1.27-3.38-.27-4.65"/>
    <path class="cls-2" d="M229.8,19.42c-6.19.13-12.29,2.64-16.78,6.9,3.52.43,7.69.63,11.08-.41"/>
    <path class="cls-2" d="M214.68,33.82c-4.63.08-9.09,2.99-11.03,7.19,3.48,1.14,7.57.16,10.14-2.44"/>
    <polyline class="cls-2" points="247.22 187.9 210.43 192.05 210.43 97.44 322.79 85.07 321.96 179.25 282.05 184.06"/>
    <polyline class="cls-2" points="200.51 189.94 200.13 189.98 200.13 95.37 311.86 83.32 311.86 83.32"/>
    <polyline class="cls-2" points="282.2 185.09 282.2 203.12 252.64 206.47 252.64 186.91 282.3 183.88 282.2 185.09"/>
    <polyline class="cls-2" points="282.6 193.92 327.23 203.6 251.19 212.81 206.57 203.13 247.41 197.94"/>
    <polyline class="cls-2" points="327.23 208.4 251.19 217.6 216.77 210.78 206.57 207.93 206.96 207.88"/>
    <line class="cls-1" x1="251.19" y1="212.81" x2="251.19" y2="217.6"/>
    <line class="cls-1" x1="327.23" y1="203.6" x2="327.23" y2="208.4"/>
    <line class="cls-1" x1="200.13" y1="95.37" x2="210.43" y2="97.44"/>
    <line class="cls-1" x1="200.13" y1="189.98" x2="210.43" y2="192.05"/>
    <ellipse class="cls-1" cx="75.66" cy="206.71" rx="15.55" ry="2.69"/>
    <path class="cls-1" d="M86.68,231.19c.04.09.06.18.06.28,0,1.49-4.96,2.69-11.08,2.69s-11.08-1.2-11.08-2.69c0-.16.06-.32.17-.47"/>
    <path class="cls-1" d="M64.75,231.11c.06-.08.13-.16.21-.23"/>
    <line class="cls-1" x1="60.11" y1="206.71" x2="64.58" y2="231.58"/>
    <line class="cls-1" x1="91.21" y1="206.71" x2="86.74" y2="231.58"/>
    <path class="cls-1" d="M62.01,217.27c-1.27-.81-3.56-1.52-4.6-.43s-1.11,3-.08,4.1c.54.58,1.29.91,2.07,1.07s2.74-.63,3.53-.66"/>
    <path class="cls-1" d="M61.74,212.41c-.73-.22-7.73-.11-9.58,3.39-1.48,2.8-.82,6.53,1.44,8.75s6.98,2.31,9.9,1.05"/>
    <polyline class="cls-2" points="206.23 207.52 145.4 214.89 122.63 207.89 132.69 206.67"/>
    <line class="cls-2" x1="152.25" y1="204.33" x2="168.82" y2="202.33"/>
    <polyline class="cls-2" points="206.28 212.04 145.4 219.68 122.63 212.68"/>
    <line class="cls-2" x1="122.63" y1="212.68" x2="122.82" y2="212.66"/>
    <line class="cls-1" x1="122.63" y1="207.89" x2="122.63" y2="212.68"/>
    <line class="cls-1" x1="145.4" y1="214.89" x2="145.4" y2="219.68"/>
    <path class="cls-2" d="M128.36,226.05c-.08,4.12,6.08,6.68,9.83,8.39s7.99,1.9,12.11,2.06c14.56.58,29.12,1.16,43.69,1.74,3.08.12,6.32.22,9.08-1.16s4.8-4.74,3.61-7.59c-1.44-3.44-6.06-3.85-9.79-3.72-3.58.13-7.17.25-10.75.38-1.85.07-4.22.56-4.52,2.39-.33,2.05,2.27,3.19,4.32,3.5,18.89,2.85,38.88-2.51,53.81-14.43"/>
    <path class="cls-2" d="M66.42,189.33c-1.1.15-1.49,1.66-1.02,2.67s1.42,1.68,2.18,2.49,1.33,2.03.81,3.01"/>
    <path class="cls-2" d="M80.58,174.21c-2.03,1.16-3.51,3.25-3.93,5.55s.24,4.78,1.74,6.58c1.06,1.27,2.51,2.22,3.3,3.66,1,1.83.73,4.15-.18,6.02s-2.39,3.41-3.84,4.91"/>
    <path class="cls-2" d="M148.27,200.53c.41-2.03-.73-4.13-2.35-5.43s-3.64-1.97-5.62-2.58c-4.44-1.38-8.97-2.65-13.61-2.82s-9.47.82-13.19,3.6"/>
    <path class="cls-2" d="M190.36,195.29c.75-.25,1.63-.09,2.24.42s.93,1.34.81,2.13"/>
    <path class="cls-2" d="M178.87,188.53c-3.12-1.26-6.27-2.53-9.61-2.97s-6.91.05-9.63,2.03-4.3,5.68-3.2,8.85"/>
    <polyline class="cls-2" points="282.42 34.99 296.24 37.77 287.81 79.69 255.08 73.11 263.51 31.19 278.85 34.25"/>
    <polyline class="cls-2" points="235 13.39 237.94 9 242.22 11.87 236.98 19.67 232.71 16.8 235 13.39"/>
    <rect class="cls-2" x="279.48" y="25.96" width="5.14" height="9.39" transform="translate(64.89 -151.92) rotate(33.85)"/>
    <polyline class="cls-2" points="340.94 30 341.29 37.91 336.15 38.14 335.82 30.7"/>
    <polyline class="cls-2" points="335.82 30.7 335.73 28.76 340.87 28.53 340.94 30"/>
    <path class="cls-1" d="M130.34,93.77c-.59-.38-1.29.27-1.52,1.4s.05,2.58.61,3.1,1.3.03,1.58-1.06c.21-.81.16-1.87-.13-2.58s-.8-1.04-1.24-.8"/>
    <line class="cls-2" x1="206.57" y1="203.13" x2="206.57" y2="207.93"/>
    <line class="cls-2" x1="206.57" y1="207.23" x2="206.57" y2="212.02"/>
    <line class="cls-2" x1="206.15" y1="207.23" x2="185.49" y2="199.67"/>
    <path class="cls-2" d="M140.86,199.95c2.92-.48,5.99.61,8.15,2.63,1.27,1.18,2.25,2.67,2.85,4.29-.76.35-1.78-.13-1.99-.93.42,1.29.84,2.59,1.25,3.88-1.56-.16-3.03-1.07-3.88-2.39l1.06,2.3c-1.21.1-2.44-.52-3.09-1.54.25.77.5,1.53.75,2.3-1.31-.07-2.57-.78-3.31-1.86.41.1.56.67.34,1.03s-.69.5-1.11.46-.8-.24-1.18-.44c-.88-.46-1.75-.91-2.63-1.37-.96-.5-1.92-.99-2.87-1.49-.83-.43-1.34-.88-.86-1.75.43-.78.98-1.65,1.57-2.34,1.25-1.47,3.04-2.48,4.95-2.79Z"/>
    <path class="cls-2" d="M175.52,195.68c2.92-.48,5.99.61,8.15,2.63,1.27,1.18,2.25,2.67,2.85,4.29-.76.35-1.78-.13-1.99-.93.42,1.29.84,2.59,1.25,3.88-1.56-.16-3.03-1.07-3.88-2.39l1.06,2.3c-1.21.1-2.44-.52-3.09-1.54.25.77.5,1.53.75,2.3-1.31-.07-2.57-.78-3.31-1.86.41.1.56.67.34,1.03s-.69.5-1.11.46-.8-.24-1.18-.44c-.88-.46-1.75-.91-2.63-1.37-.96-.5-1.92-.99-2.87-1.49-.83-.43-1.34-.88-.86-1.75.43-.78.98-1.65,1.57-2.34,1.25-1.47,3.04-2.48,4.95-2.79Z"/>
    <line class="cls-2" x1="332.25" y1="169.98" x2="366.76" y2="163.85"/>
    <line class="cls-2" x1=".5" y1="228.89" x2="42.93" y2="221.36"/>
    <path class="cls-2" d="M339.09,38.14c8.48,9.35,15.75,24.51,16.11,35.23"/>
    <path class="cls-2" d="M333.25,32.83c.92.66,1.84,1.41,2.76,2.23"/>
    <path class="cls-2" d="M343.09,43.73c-5.92,2.78-13.15,6.45-18.22,10.58s-9.2,9.77-10.2,16.23"/>
    <path class="cls-2" d="M348.13,51.14c2.62,1.64,4.86,3.28,7.48,4.92"/>
    <path class="cls-2" d="M351.59,58.47c-1.65,2.13-3.74,6.22-3.65,8.91"/>
    <path class="cls-2" d="M354.32,67.03c1.97,1.58,4.63,3.78,6.6,5.36"/>
    <path class="cls-2" d="M343.77,44.06c-6.85,10.52-10.28,25.69-6.64,37.7"/>
    <path class="cls-2" d="M333.25,48.75c-2.96-.32-7.59-1.13-10.55-1.45"/>
    <path class="cls-2" d="M328.88,51.41c-.36,1.82-1.27,6.09-1.63,7.91"/>
    <path class="cls-2" d="M320.85,58.16c-3.66-.12-7.35,1.5-10.44,3.46"/>
    <path class="cls-2" d="M317,63.98l1.19,9.11"/>
    <path class="cls-2" d="M338.51,53.87c-1.92,1.29-5.91,3.22-7.83,4.51"/>
    <path class="cls-2" d="M336.68,62.59l2.93,6.23"/>
    <path class="cls-2" d="M335.47,68.77l-4.43,6.52"/>
    <path class="cls-2" d="M336.08,77.02c2.55-.05,4.47,1.54,5.89,3.66"/>
    <path class="cls-2" d="M341.29,48.37c-.74,3.37-.09,7.76,1.09,11"/>
    <path class="cls-2" d="M345,45.88c1.91.4,3.46.79,5.37,1.19"/>
    <path class="cls-2" d="M121.22,211.94c-4.22-2.83-9.42-4.43-14.45-3.66s-9.76,4.15-11.43,8.95c-.47,1.35-.69,2.86-.14,4.18.85,2.05,3.22,2.95,5.37,3.53,8.42,2.25,17.29,2.77,25.91,1.52,4.28-.62,5.97-2.42,3.3-6-2.42-3.25-5.18-6.25-8.56-8.51Z"/>
    <polyline class="cls-2" points="248.67 203.98 247.67 203.35 247.67 183.79 277.33 180.75 278.26 181.34"/>
    <line class="cls-1" x1="247.67" y1="203.35" x2="252.64" y2="206.47"/>
    <line class="cls-1" x1="248.11" y1="184.52" x2="253.08" y2="187.64"/>
    <line class="cls-1" x1="277.33" y1="180.75" x2="282.3" y2="183.88"/>
    <line class="cls-1" x1="311.86" y1="83.32" x2="322.79" y2="85.07"/>
  </g>
</svg>