<?xml version="1.0" encoding="UTF-8"?>
<svg id="_レイヤー_1" data-name="レイヤー 1" xmlns="http://www.w3.org/2000/svg" viewBox="0 0 411.32 238.81">
  <defs>
    <style>
      .cls-1 {
        stroke-miterlimit: 10;
      }

      .cls-1, .cls-2, .cls-3 {
        fill: none;
      }

      .cls-1, .cls-4, .cls-3 {
        stroke: #a67c52;
      }

      .cls-5, .cls-2 {
        stroke: #d6d687;
        stroke-width: 3px;
      }

      .cls-5, .cls-2, .cls-4, .cls-3 {
        stroke-linecap: round;
        stroke-linejoin: round;
      }

      .cls-6 {
        fill: #727272;
      }

      .cls-7, .cls-4 {
        fill: #efdbcb;
      }

      .cls-8 {
        fill: #af7f5f;
      }

      .cls-9 {
        fill: #fcefe6;
      }

      .cls-10 {
        fill: #f7dab7;
      }

      .cls-11 {
        fill: #d38585;
      }

      .cls-12 {
        fill: #9e809d;
      }

      .cls-13 {
        fill: #ceb499;
      }

      .cls-14 {
        fill: #808f9b;
      }

      .cls-15 {
        fill: #a67c52;
      }

      .cls-16 {
        fill: #999;
      }

      .cls-17 {
        fill: #ff396d;
      }

      .cls-18 {
        fill: #ceb29f;
      }

      .cls-19 {
        fill: #a1dba6;
      }
    </style>
  </defs>
  <g id="_塗" data-name="塗">
    <line class="cls-2" x1="100.48" y1="143.61" x2="100.48" y2="206.67"/>
    <line class="cls-5" x1="114.4" y1="137.79" x2="114.4" y2="200.95"/>
    <line class="cls-2" x1="127.57" y1="147.94" x2="128.4" y2="202.96"/>
    <line class="cls-2" x1="140.53" y1="149.6" x2="140.53" y2="204.12"/>
    <line class="cls-5" x1="155.59" y1="143.32" x2="155.59" y2="199.78"/>
    <line class="cls-2" x1="168.69" y1="142.24" x2="169.59" y2="201.79"/>
    <line class="cls-2" x1="181.64" y1="162.4" x2="181.64" y2="206.38"/>
    <line class="cls-2" x1="188.94" y1="182.09" x2="189.27" y2="204.04"/>
    <line class="cls-2" x1="86.97" y1="162.4" x2="86.97" y2="201.79"/>
    <path class="cls-19" d="M240.48,28.23c1.03,1.37,1.31,3.26.71,4.87-.48,1.3-1.68,2.46-3.07,2.38-1.1-.06-2.05-.89-2.53-1.88s-.59-2.12-.63-3.22c-.04-1.12-.17-3.92,1.27-4.2s3.39.92,4.25,2.05Z"/>
    <path class="cls-19" d="M240.72,44.95c.65,1.02,1.13,2.19,1.17,3.4s-.43,2.47-1.38,3.22c-1.36,1.08-3.57,1.6-5.16.92-1.51-.64-2.62-2.39-3.61-3.69-.52-.69-.96-1.51-.91-2.38.03-.52.24-1.01.45-1.48.73-1.68.76-5.4,3.2-4.8,2.26.55,5.03,2.88,6.25,4.81Z"/>
    <path class="cls-19" d="M225.43,45.09c-.87.4-1.48,1.19-2.06,1.95-.44.58-.9,1.29-.67,1.97.23.66.7,1.47,1.39,1.55s1.72-.51,2.34-.2c.22.11,2.22-.91,2.34-1.1.41-.72,1.17-2.82,1.35-3.63.19-.88-1.07-.64-2.01-.78-.88-.13-1.86-.14-2.69.25Z"/>
    <path class="cls-19" d="M224.78,61.51c.25.84.75,2.25,1.4,2.83s2.29.33,3.14.14c.57-.13,1.05-2.89,1.07-3.36.04-1.24-.59-2.87-1.01-4.04-.27-.74-1.43-3.86-2.46-3.76-.96.09-2.42,2.89-2.66,3.65-.41,1.3.14,3.24.52,4.55Z"/>
    <path class="cls-9" d="M268.23,32.41c-.85-.14-1.75-.26-2.52.11-1.03.5-1.46,1.71-1.79,2.8-3.33,11.06-5.85,22.36-7.54,33.79-.18,1.23-.31,2.63.48,3.59.68.83,1.84,1.07,2.9,1.25,4.68.81,9.36,1.61,14.04,2.42,4.93.85,9.87,1.7,14.8,2.55,2.44-12.38,4.87-24.75,7.31-37.13.22-1.09.4-2.32-.23-3.24-.65-.95-1.92-1.19-3.05-1.36-4.44-.66-9.34-.84-13.62-2.19-3.62-1.14-6.98-1.98-10.77-2.59Z"/>
    <path class="cls-16" d="M298.93,84.36c5.47-.58,6.34-1.18,11.47-.86,2.52.16,9.31.34,11.87,1.24-.55,30.66,0,62.75-.56,93.4-16.56,2.74-27.83,4.52-44.38,7.26-.52,2.86.52,5.89,0,8.75,3.66.33.91-.84,4.54-.29,11.15,1.67,32.64,6.11,43.32,9.72.18,1.24,1.87,3.57,2.05,4.81-15.24,4.42-43.86,4.26-59.28,7.18-10.33.82-21.2-.36-31.53-1.22-10.32-.87-20.4-2.21-29.11-7.82-.07-1.06-.14-2.12-.21-3.18,9.04-1.09,18.08-2.18,27.13-3.27,3.86-.83,9.52-1.03,13.19-2.15-.29-3.13,1.83-10.96-2-10.05-6.98,1.66-21.16,1.7-31.94,3.17-4.73.65-10.88,1.65-13.34-2.45.24-2.43-.07-5.55,0-7.88.72-24.42-.39-48.32.32-72.73.1-3.51-1.58-11.54.45-12.48,2.39-1.11,9.29-1.08,11.92-1.35,3.02-.32,6.04-.64,9.07-.95,12.2-1.28,24.39-2.56,36.59-3.85,13.48-1.42,27-3.33,40.45-5.01Z"/>
    <path class="cls-16" d="M124.06,212.11c.86.83,2.01,1.26,3.13,1.67,4.57,1.68,9.18,3.36,13.98,4.19,8.27,1.43,16.73.26,25.04-.92,13.48-1.9,26.96-3.8,40.44-5.71.38-1.15-.06-2.72-.95-3.54s-2.13-1.14-3.26-1.57c-5.18-1.93-11.42-4.07-16.6-6,.07,1.08.3,1.95-.36,2.74s-1.12,1.8-2.07,2.2c-.69.29-1.79.09-2.53.16-.96.1-1.51.53-2.48.38-.39-.06-.78.05-1.16-.04-2.05-.48-4.92-2.69-7.02-2.93-6.51-.73-12.4.79-18.98,2.15.11,2.66-2.4,4.85-5.03,5.29s-5.27-.45-7.74-1.45-4.95-2.15-7.6-2.25c-2.48-.1-10.53,2.06-6.82,5.63Z"/>
    <path class="cls-16" d="M111.08,207.96c2.05.28,3.97,1.15,5.85,2.01,1.83.83,3.68,1.67,5.37,2.76,2.73,1.75,5.03,4.14,6.74,6.89.55.89,1.06,1.85,1.2,2.89s-.12,2.19-.9,2.89c-.79.71-1.93.85-2.99.93-6.05.5-12.13.48-18.18-.04-2.71-.24-5.45-.59-7.94-1.68-1.37-.6-2.69-1.46-3.47-2.73-1.4-2.28-1.35-5.75.29-7.86,1.33-1.71,3.35-3.17,5.17-4.28,1.5-.91,3.09-1.14,4.85-1.56,1.3-.32,2.67-.39,4-.21Z"/>
    <path class="cls-18" d="M151.99,21.08c12.31,3.42,22.6,12.73,28.37,24.13,5.78,11.4,7.26,24.7,5.43,37.35-2.12,14.64-8.51,28.99-6.56,43.65.37,2.77,1.53,5.87.29,8.37-1.08,2.18-1.67,3.15-4.08,2.89s-6.69-2.37-7.28-4.72c.49,3.37-1.82,3.94-3.18,5.42-4.59.1-10.43-1.27-14.62-3.14-2.37-1.06-4.66-2.87-4.99-5.44-.59-4.66,3.3-6.14,6.6-6.77,10.5-2.02,17.3-13.15,21.15-23.12,1.5-3.88,2.35-8.51.08-12-2.51-3.85-7.68-4.71-12.25-5.21-8.13-1.41-14.48-9.61-13.81-17.83,1.07,2.29.39,5.11-1.14,7.13s-3.85,5.82-6.11,6.95c-9.5,4.75-20.44,3.94-30.9,2.13-1.7,2.9-5.39,3.86-8.67,4.59-1.5.33-1.93,1.23-3.17,2.14-1.08.79-2.94,1.44-4.57,3.53-1.96,2.52,3.79,6.82,5.9,9.21,2.64,3,3,5.22,5.65,8.22,4.45,5.04,9.09,10.23,15.23,12.96,1.97.87,5.27,1.95,6.98,3.26s1.93,4.25,1.17,6.26c-.62,1.66-3.01,1.41-3.82,2.19-.98.94-2.24,1-3.04,1.55-4.28,2.91-7.14.49-10.39,2.26-5.74,3.12-8.21,2.33-10.78-1.48-1.16.51-2.16.91-3.03,1.21-7,2.42-5.33-1.59-5.76-4.78-2.58,2.72-8.6,4.22-12.08,2.84s-5.96-4.99-5.98-8.73c-.03-4.11,2.56-7.71,4.14-11.51,2.67-6.38,2.53-13.52,2.96-20.42,1.25-20.39,7.79-40.44,18.81-57.64,2.05-3.2,4.31-6.36,7.41-8.56,3.36-2.39,6.83-2.62,10.78-2.51,3.7.1,6.47-1.89,9.85-3.16,8.06-3.02,17.08-3.51,25.39-1.21Z"/>
    <path class="cls-7" d="M167.91,83.89c-3.89-1.05-8.1-1.03-11.71-2.81-4.31-2.13-7.74-11.45-7.64-16.26.42-.64-3.84,11.37-7.76,13.73-3.62,2.18-9.37.28-13.58.74-5.85.65-8.58,5.5-14.03,2.98-.89-.41-1.32-1.47-2.01-1.63-3.97-.93-5.39,2.55-6.73,4.48-.54.78-3.01,1.48-4.02,2.03-.67.37.28,1.47-.14,1.28-1.24-.56-3.17-.62-4.73-.1s-2.83,2.64-3.01,3.99c-.29,2.08,2.05,5.9,4.2,6.16,4.04.49,4.98,5.72,7.69,8.75,4.01,4.47,8.15,9.92,13.51,12.62,3.6,1.81,7.08,3.26,10.02,5.54,2.51,1.94-.49,6.77,1.32,9.37,1.56,2.24,5.64,3.44,8.28,2.74s5.14-2.67,7.28-4.35c.68-3.03,1.03-6.09,1.71-9.12.05-.22,6.26-1.73,6.93-2.02,2.28-1,5.12-2.75,7.13-4.21,3.98-2.9,6.74-6.15,9.26-10.37s3.51-9.44,5.02-14.01c1.65-5-2.24-8.25-6.98-9.53Z"/>
    <path class="cls-17" d="M56.89,212.61c-1.61.83-3.24,1.68-4.57,2.91s-.78,3.26-.8,5.07c-.03,2.7,1.34,4.12,3.85,5.1s5.44,0,8.13-.09c.08-1.06-.72-2.77-.65-3.83-1.41-.13-2.55.82-3.86.26s-1.96-.67-2.28-2.05c-.32-1.35-.53-2.8.62-3.56s2.79-.72,3.91.1c.2.14.04-3.48-.34-3.91-.74-.85-2.99.31-4.02,0Z"/>
    <path class="cls-17" d="M64.24,228.46c.19,1.31.41,2.69,1.28,3.68,1.2,1.36,3.23,1.54,5.04,1.62,3.19.15,6.39.29,9.58.44,1.56.07,3.24.11,4.54-.74,1.88-1.23,2.26-3.77,2.47-6.01.48-5.25,2.5-9.53,2.98-14.78.07-.79,1.31-3.95.82-4.57-.77-.97-9.29.62-10.53.71-8.12.63-11.66-.1-19.66-1.03-.99,2.21,1.03,7.79,1.38,10.26.49,3.47,1.61,6.96,2.1,10.42Z"/>
    <path class="cls-10" d="M173.96,195.96c2.56-.79,5.32-.42,7.97-.04,1.31,1.41,2.67,3.01,2.72,4.94.05,2.05-1.55,3.9-3.5,4.56s-4.12.28-5.98-.58c-4.61-2.14-8.42-6.67-1.21-8.88Z"/>
    <path class="cls-10" d="M137.31,201.52c1.72-.75,3.68-.7,5.56-.64,1.82.06,3.72.14,5.3,1.04s2.69,2.91,1.96,4.58c-.69,1.57-2.61,2.17-4.33,2.29-3.24.23-16.71-3.69-8.49-7.27Z"/>
    <path class="cls-13" d="M214.35,26.13c1.62.11,4.16.37,5.77.47.56.04,2.64-.3,3.17-.47.61-.2,2.98-1.96,3.45-2.4,1.06-.98,2.12-1.97,3.18-2.95.24-.22.69-.71.32-1.02-.2-.16-.96-.04-1.2-.04-.96.01-1.92.13-2.86.34-1.88.43-3.17.72-5.39,1.26-1.15.28-2.72,1.12-3.12,1.49-.15.14-7.79,4.65-3.32,3.33Z"/>
    <path class="cls-13" d="M206.26,37.66c-.45.51-2.56,2.86-2.25,3.21.17.19,2.15,1.01,3.47.38s2.15-.76,3.34-1.1c1.14-.33,2.18-1.63,2.95-2.54.75-.88,1.67-3.74-.34-3.43-1.71.27-3.36.99-4.74,2.02-.79.59-1.9.86-2.43,1.46Z"/>
    <path class="cls-13" d="M223.25,28.11c-.21,1.45.34,3.66.71,5.09.1.39.21.79.43,1.13s.94,3.82,1.34,3.87c.73.09,2.08-3.72,2.42-4.37.81-1.55.59-3.58.22-5.28-.19-.86-.56-1.94-1.17-2.42-.97-.77-1.65-.92-2.4-.1-.7.77-1.4,1.06-1.55,2.08Z"/>
    <path class="cls-11" d="M214.18,45.3c-.52-.44-.02-2.81.38-3.36.28-.39.79-.56,1.27-.6.57-.04,1.16.07,1.62.41s1.1,3.6,1,4.16c-.24,1.36-3.45.08-4.27-.61Z"/>
    <path class="cls-11" d="M214.53,54.7c.32.26,2.48-.42,2.83-.64.86-.55-.01-3.76-1.52-3.69-1.13.05-3.71,2.37-1.31,4.33Z"/>
    <path class="cls-11" d="M209.07,52.92c-.61-.33-2.54-.25-3.2-.02-1.29.45-3.01,1.98-3.01,3.35,0,.42.65,1.2.91,1.52.37.44,1.23.03,1.81,0,1.89-.14,5.99-3.48,3.48-4.84Z"/>
    <path class="cls-11" d="M207.21,58.65c-.35.48-.87,1.25-.77,1.84.12.68,1.36,2.42,1.93,2.81.57.39,1.69-.21,2.31-.53.56-.3,1.36-.92,1.43-1.55.08-.78-1.24-3.09-1.66-3.75-.93-1.45-2.39.05-3.23,1.19Z"/>
    <path class="cls-11" d="M198.57,62.57c-.69-.24-1.65.05-2.37.17-.68.11-1.55.82-1.71,1.64-.11.58-.42,1.7-.02,2.13.55.59,1.98,1.1,2.79,1.08.51-.01,1.49-.21,1.98-.33.82-.21,3.28-2.22,3.15-2.98s-3.19-1.5-3.82-1.71Z"/>
    <path class="cls-11" d="M202.97,67.71c.56.4,1.78.81,2.16,1.38.31.47.46,3.31.42,3.86-.06.83-3.03,1.78-3.86,1.83-1.22.07-2.07-2.36-2.45-3.52-.61-1.87,1.74-4.96,3.74-3.56Z"/>
    <circle class="cls-12" cx="318.78" cy="47.22" r="3.15"/>
    <circle class="cls-12" cx="326.8" cy="61.62" r="3.15"/>
    <circle class="cls-12" cx="351.68" cy="45.88" r="3.15"/>
    <circle class="cls-12" cx="333.83" cy="84.62" r="3.15"/>
    <circle class="cls-12" cx="343.75" cy="81.77" r="3.15"/>
    <circle class="cls-12" cx="328.32" cy="77.29" r="3.15"/>
    <circle class="cls-12" cx="340.6" cy="69.93" r="3.15"/>
    <circle class="cls-12" cx="330.68" cy="58.38" r="3.15"/>
    <circle class="cls-12" cx="342.38" cy="60.45" r="3.15"/>
    <circle class="cls-12" cx="311.11" cy="73.09" r="3.15"/>
    <circle class="cls-12" cx="318.78" cy="73.58" r="3.15"/>
    <circle class="cls-12" cx="307.96" cy="61.62" r="3.15"/>
    <circle class="cls-12" cx="354.22" cy="75.55" r="3.15"/>
    <circle class="cls-12" cx="360.92" cy="72.39" r="3.15"/>
    <circle class="cls-12" cx="347.94" cy="67.38" r="3.15"/>
    <circle class="cls-12" cx="357.97" cy="57.3" r="3.15"/>
    <circle class="cls-14" cx="321.57" cy="49.62" r="3.15"/>
    <circle class="cls-14" cx="342.76" cy="78.32" r="3.15"/>
    <circle class="cls-14" cx="352.3" cy="73.58" r="3.15"/>
    <circle class="cls-14" cx="361.61" cy="69.93" r="3.15"/>
    <circle class="cls-14" cx="351.09" cy="48.81" r="3.15"/>
    <circle class="cls-14" cx="356.36" cy="58.77" r="3.15"/>
    <circle class="cls-14" cx="350.06" cy="64.77" r="3.15"/>
    <circle class="cls-14" cx="339.61" cy="66.78" r="3.15"/>
    <circle class="cls-14" cx="331.04" cy="77.43" r="3.15"/>
    <circle class="cls-14" cx="312.5" cy="72.21" r="3.15"/>
    <circle class="cls-14" cx="310.4" cy="59.53" r="3.15"/>
    <circle class="cls-14" cx="330.76" cy="62.68" r="3.15"/>
    <circle class="cls-14" cx="337.45" cy="81.2" r="3.15"/>
  </g>
  <g id="_影" data-name="影">
    <path class="cls-6" d="M122.51,212.2c5.55,1.25,15.84,5.39,21.27,7.02,4.46,1.34,4.77-.28,9.42-.58,3.02-.19,5.97-.82,8.99-1.01,2.11-.13,4.16-.46,6.24-.88,1.64-.33,3.38-.22,5.03-.55,6.84-1.38,13.07-2.27,20.33-3,1.85-.18,4-.07,5.85-.26,2.35-.25,4.48-.64,6.93-.69-.15-1.6.85-3.82-.32-4.58s-2.8.29-4.19.45c-1.63.18-3.18.42-4.81.6-2.19.25-4.38.47-6.57.72-13.53,1.53-26.99,3.21-40.52,4.74-1.95.22-3.94.44-5.85,0-.84-.19-1.64-.5-2.47-.75-1.15-.35-2.33-.58-3.5-.84-3.28-.71-6.51-1.6-9.74-2.52-.86-.25-4.8-2.16-5.48-1.86-.66.28-.54,3.98-.59,3.99Z"/>
    <path class="cls-6" d="M128.13,222.4c-.33.95-2.54,1.71-3.52,1.92-1.51.33-2.19.42-3.2.49-6.58.48-10.46.74-16.89-.72-.72-.16-3.49-.52-4.57-.95-.85-.33-2.77-1.65-3.07-2.51-.57-1.65-.55-3.82-.07-5.75-1.51.74-1.31,2.36-1.81,3.97s-.07,3.54,1.24,4.59c.75.61,3.59,1.43,4.52,1.68,7.87,2.15,13.3,2.11,21.46,1.98,1.28-.02,3.19-.72,4.51-.7.42,0,.7.28,1.27.15.39-.09,1.76-.73,2.16-.78.99-.12,1.24-1.95.99-2.92s-.95-1.73-1.68-2.41c-.72-.67-2.11-4.16-3.14-3.77.11,1.05,2.51,3.65,1.79,5.71Z"/>
    <path class="cls-6" d="M212.41,209.58c7.63,2.17,13.29,2.46,22.48,4.37,2.84.59,5.05,1.89,6.85,2.07,1.75.18,8.64,1.83,10.39,1.59,23.78-3.19,48.79-7.36,75.1-9.22-.28-2.05.28-2.74,0-4.79l-26.6,3.07c-2.48.25-8.18,1.46-10.66,1.21-2.68-.27-6.92.89-8.98,1.32-2.99.62-5.28.57-8.22.99-6.11.89-9.27,1.27-15.48,1.82-1.86.17-4.27.42-6.1.79-1.44.29-4.21-.44-5.64-.79-4.46-1.11-6.25-1.48-9.59-2.59-6.57-2.17-14.07-2.32-20.64-4.4-1.6-.51-8.71-3.08-8.76-.91-.03,1-.45,2.31.15,3.03,1.35,1.64,4.59,2.12,5.69,2.43Z"/>
    <path class="cls-6" d="M252.64,206c0,.71,10.48-.1,9.95-.56-.46-.4,2.84-.42,3.91-.54,5.5-.62,9.06-.72,14.44-2.03.27-.07.55-.14.78-.3.35-.25.62-.66.67-1.1.21-1.82-.16-3.83-.23-5.73-.12-3.57-.73-8.19,0-11.69-2.98-.54-7.54.22-11.12.8-4.41.72-18.53.68-18.53,3.23,0,5.36.09,13.27.14,17.92Z"/>
    <path class="cls-6" d="M210.43,110.81c-.62,9.85,0,10.96,0,20.62-.11-.85.11,6.56,0,5.71.1,7.54.37,11.96.37,20.22,0,3-.27,8.85-.2,12.13.14,6.35.15,5.87-.02,12.47-.02.95-.28,5.95.1,6.82.69,1.58-1.97,3.07-.25,3,12.8-.53,19.86-1.66,32.42-3.47.61-.09,3.96.03,4.37-.42.52-.58.21-2.65.45-3.39.61-1.89.67-.92,2.64-1.06,11.43-.77,13.27-1.55,15.81-1.55s10.13-1.12,11.2-1.15c1.83-.04,2.23,1.93,3.9,2.68,1.38.62-10.36,1.92-6.25,1.4,14.65-1.83,29.79-3.54,44.49-4.84.88-.08,1.81-.18,2.49-.74.73-.61.39-2.3.31-3.25-.32-4.18.12-7.85,0-11.84-.16-5.43.2-10.15.2-15.58,0-20.24,1.31-41.55.32-61.07-.04-.72.09-1.76-.44-2.23-.6-.53-3.08.32-3.88.37-7.05.41-14.08,1.44-21.26,2.13-11.7,1.12-22.52,3.19-34.24,3.88-4.45.26-9.65.5-14.04,1.29-4.73.84-9.85,1.02-14.62,1.61-6.56.81-13.58,1.79-20.16,2.21-1.46.09-3.72.4-3.72,1.53,0,2.96.23,8.89,0,12.52Z"/>
    <path class="cls-8" d="M107.83,77.06c2.89-1.96,5.68-4.08,8.33-6.34.02,2.74-.99,5.47-2.78,7.54,7.39,1.29,15.39-2.13,19.57-8.35.54,1.29.48,2.82-.17,4.06,3.81.73,7.91-.25,11-2.6s5.09-6.06,5.39-9.93c.78,2.98,1.6,6.04,3.39,8.56s4.79,4.41,7.85,4c1.12,2.28,3.54,3.71,6.02,4.26s5.06.35,7.6.14c4.01,2.65,6.18,7.8,5.29,12.52-.38,1.99-3.57-.17-4.6-1.28-.53-.58-.77-3.77-.68-4.79.14-1.48-4.22.95-5.54.26-.81-.42-4.68-2.38-5.02-3.31-.42-1.14-2.42.03-3.63.07-2.97.09-5.75-1.68-7.61-3.99s-2.6-9.49-3.68-12.26c-1.75,7.07-6.56,12.85-10.21,14.28-3.59,1.41-6.47.76-10.14-.22-2.73-.73-4.77,1.79-7.53,2.39s-7.69.32-9.89-1.46c-2.4,2.17-1.89,1.34-4.55,3.19s-7.13,4.7-8.33,3.53c-1.05-1.02-3.01-3.58-2.12-5.26.8-1.51,3.6-1.63,4.99-1.96,2.61-.63,4.81-1.53,7.06-3.05Z"/>
    <path class="cls-8" d="M90.71,121.34c4.65-2.98,8.52-7.17,11.13-12.04,1.11,6.3.69,12.86-1.2,18.97-.74,2.38-2.61,6.09-.66,7.62.6.48,2.48,2.94,3.24,3.06,1.97.3,4.08-1.36,6.05-1.67,2.75-.43,6.01-.33,8.75-.76.81-.13,1-1.03,1.7-1.46.72-.44,1.41-1.26,2.18-1.6.9-.39,1.39-.99,2.26-.54,6.12,3.1,6.03-4.6,5.11-7.57-.13-.43-.33-.85-.63-1.18-.67-.72-1.74-.89-2.71-1.08-5.41-1.06-10.24-4.17-14.21-8s-7.15-8.37-10.33-12.88c-1.12-1.59-.4-4.03-2.58-3.7-3.25.49-2.34.43-3.25,5.06-1.23,6.21-3.72,11.53-4.84,17.77Z"/>
    <path class="cls-8" d="M162.59,128.99c0,1.83.44,5.6-.39,7.24-.97,1.91-2.65,1.23-4.79,1.29-.87.02-2.77,1.4-3.29.7-.32-.44-.3-1.97-1.18-2.63s-1.04-1.04-1.52-1.22c-1.51-.57-2-1.21-3.5-1.79-1.33-.5-2.17.64-2.95-.54-1.11-1.67-1.12-7.02.73-7.81.88-.38,1.92-.19,2.86-.38,1.3-.26,2.35-.85,3.48-1.54,1.89-1.15,7.74-4.17,10.95-6.76.8-.64,2.31-3.17,2.91-2.67.27.22-.12,2.52-.07,3.56.17,3.52-3.25,9.37-3.23,12.54Z"/>
  </g>
  <g id="_線" data-name="線">
    <path class="cls-3" d="M100.29,88.43c-2.13-1.12-5-.58-6.56,1.25s-1.67,4.74-.25,6.68,4.09,3.11,6.29,2.14c4.18,10.69,12.78,19.67,23.43,23.94s23.24,3.68,33.26-1.92c10.02-5.6,17.18-16.21,18.25-27.64"/>
    <path class="cls-3" d="M148.98,54.79c-.87,6.07-.41,12.34,1.36,18.21.76,2.53,1.81,5.08,3.72,6.91s4.86,2.78,7.29,1.72"/>
    <path class="cls-3" d="M162.02,59.46c-1.16,3.52-1.89,7.19-2.16,10.89-.23,3.09-.11,6.34,1.32,9.09,2.14,4.11,7.28,6.4,11.76,5.23"/>
    <path class="cls-3" d="M176.9,67.81c-.88,3.89-1.76,7.78-2.64,11.67-.55,2.45-1.11,4.99-.61,7.46s2.37,4.84,4.87,5.09"/>
    <path class="cls-3" d="M147.45,55.56c.7,4.21.87,8.58-.17,12.72s-3.37,8.06-6.91,10.44-9.35,2.49-13.16.56"/>
    <path class="cls-3" d="M135.44,58.45c-.61,4.28-1.37,8.58-3.06,12.55s-4.39,7.64-8.14,9.78-8.63,2.53-12.37.37"/>
    <path class="cls-3" d="M101.56,70.73c-2.03,2.54-4.1,5.17-5.05,8.28s-.58,6.72,1.84,8.9c10.09-3.2,18.09-12.24,20.05-22.64"/>
    <path class="cls-3" d="M124.15,23.66c8.81-4.85,19.65-5.51,29.24-2.47s17.89,9.59,23.72,17.78c6.69,9.4,10.22,21,9.9,32.53-.53,19.3-11.43,38.1-7.62,57.03.52,2.6,1.21,5.65-.57,7.61-1.46,1.61-4.08,1.67-6.03.73s-3.41-2.66-4.81-4.32c.89,2.81-1.06,5.9-4.01,5.8"/>
    <path class="cls-3" d="M119.98,25.37c-5.22-1.13-10.74.88-14.89,4.24s-7.1,7.96-9.67,12.63c-8.38,15.21-13.48,32.22-14.86,49.53-.69,8.68-.53,17.75-4.34,25.59-1.12,2.31-2.59,4.51-3.08,7.03-.87,4.46,1.92,9.36,6.21,10.87s9.54-.53,11.67-4.55c-.02,2.04-.04,4.09-.06,6.13,3.06,1.83,7.6.28,8.9-3.04-.5,2.39,1.38,5.01,3.81,5.3"/>
    <path class="cls-3" d="M144.4,125.24c-1.09,2.56.02,6,.56,7.35"/>
    <path class="cls-3" d="M128.35,124.5c1.45,2.53,1.63,5.75.47,8.43"/>
    <path class="cls-15" d="M153.69,94.68c-.58-.37-1.28.26-1.51,1.39s.05,2.56.6,3.07,1.29.03,1.57-1.05c.21-.8.15-1.85-.13-2.55s-.79-1.03-1.23-.79"/>
    <path class="cls-3" d="M143.55,101.66c-.36.25-.55.78-.34,1.17s.84.5,1.11.15-.13-.98-.55-.83"/>
    <path class="cls-3" d="M190.65,195.11c.59-7.71-1.03-15.47-3.69-22.74s-6.34-14.11-10-20.92c-2.03-3.78-4.16-7.67-7.52-10.34-3.47-2.75-8.13-3.9-12.49-3.19-3.39.55-1.99,1.57-2.31,4.35-.23,1.96-1.12,3.86-2.57,5.21-2.54,2.38-6.64,2.91-9.7,1.26-3.72-2-5.36-6.38-6.7-10.4.88,1.32.73,3.14-.08,4.51s-2.16,2.32-3.6,3c-3,1.41-6.66,1.66-9.59.12s-4.85-5.09-3.99-8.29,6.81-5.94,9.78-4.46c.69,2.2,2.72,3.82,4.96,4.37s4.63.1,6.72-.88,3.89-2.47,5.54-4.07c3.46-.34,7.14,2.09,8.57,5.26.11.24.2.48.28.73"/>
    <path class="cls-3" d="M118.5,136.88c-7.79-1.67-15.93,2.21-21.44,7.95s-8.89,13.16-12.17,20.41c-.16.35-.32.7-.47,1.05"/>
    <path class="cls-3" d="M340.94,30c24.77-3.74,48.77-12.65,69.88-26.13"/>
    <path class="cls-3" d="M285.92,29.65c8.59,1.43,16.79,2.19,25.5,2.33,8.15.14,16.31-.29,24.4-1.28"/>
    <path class="cls-3" d="M239.7,15.63c13,5.99,26.47,10.3,40.59,13.05"/>
    <path class="cls-3" d="M213.04.5c7.07,4.86,14.21,9.07,21.86,12.84"/>
    <path class="cls-3" d="M235.58,18.85c1.24,15.64-4.86,31.7-16.16,42.58"/>
    <path class="cls-3" d="M233.72,17.49c-5.34,4.9-9.93,9.11-15.27,14.01-2.23,2.05-4.62,4.43-4.72,7.45"/>
    <path class="cls-3" d="M232.71,36.39c-13.13,8.3-24.49,19.41-33.07,32.36"/>
    <path class="cls-3" d="M226.62,24.43c2.93,4.04,2.53,10.14-.9,13.76-1.91-2.96-2.8-6.57-2.47-10.08"/>
    <path class="cls-3" d="M233.46,39.79c3.07.66,5.84,2.6,7.53,5.25.92,1.46,1.53,3.25,1.06,4.91-.54,1.89-2.48,3.2-4.44,3.26s-3.87-1-5.08-2.54-1.81-3.51-1.94-5.47"/>
    <path class="cls-3" d="M227.2,52.9c2.02,1.98,2.49,3.82,3.14,6.57.27,1.15.4,2.38.02,3.5s-1.39,2.09-2.57,2.12c-1.54.04-2.69-1.42-3.25-2.85-.79-2.02-.95-3.87-.43-5.97"/>
    <path class="cls-3" d="M229.01,44.41c-2.13-.43-4.47.4-5.86,2.08-.86,1.05-1.29,2.73-.33,3.68.69.68,1.85.68,2.72.26s2.4-.25,3.03-.98"/>
    <path class="cls-3" d="M236.32,25.91c2.26.33,4.3,1.91,5.19,4.01.57,1.35.67,2.96,0,4.27s-2.2,2.2-3.64,1.9c-1.09-.23-1.97-1.08-2.51-2.06s-.19-.94-.42-2.03"/>
    <path class="cls-3" d="M218.45,45.46c.76-.97-.31-3.19-1.42-3.72s-2.58.08-3.07,1.21.01,2.56,1.05,3.21,2.48.52,3.44-.25"/>
    <path class="cls-3" d="M213.77,51.52c.82-.52,2.4-1.35,3.17-.75s1.1,1.7.8,2.62c-.41,1.25-2.05,1.96-3.2,1.31s-1.81-2.37-.76-3.18"/>
    <path class="cls-3" d="M209.86,54.32c.03-1-1.01-1.77-2.01-1.82s-1.95.43-2.83.9c-1.24.67-2.65,1.73-2.43,3.12.19,1.21,1.64,1.88,2.85,1.68s2.22-1.01,3.16-1.79c1.69-.24,4.01,2.97,3.82,4.67s-2.19,2.93-3.79,2.33-2.89-3.31-1.91-4.72"/>
    <path class="cls-3" d="M202.24,63.74c-1.22-.63-2.46-1.28-3.82-1.49s-2.87.08-3.8,1.09-1.02,2.8.04,3.68c1.35,1.11,5,.43,6.48-.49"/>
    <path class="cls-3" d="M201.89,67.26c1.65.08,3.25,1.17,3.82,2.72s0,3.49-1.38,4.39c-1.36.88-3.33.62-4.42-.58s-1.27-3.38-.27-4.65"/>
    <path class="cls-3" d="M229.8,19.42c-6.19.13-12.29,2.64-16.78,6.9,3.52.43,7.69.63,11.08-.41"/>
    <path class="cls-3" d="M214.68,33.82c-4.63.08-9.09,2.99-11.03,7.19,3.48,1.14,7.57.16,10.14-2.44"/>
    <polyline class="cls-3" points="247.22 187.9 210.43 192.05 210.43 97.44 322.79 85.07 321.96 179.25 282.05 184.06"/>
    <polyline class="cls-3" points="200.51 189.94 200.13 189.98 200.13 95.37 311.86 83.32 311.86 83.32"/>
    <polyline class="cls-3" points="282.2 185.09 282.2 203.12 252.64 206.47 252.64 186.91 282.3 183.88 282.2 185.09"/>
    <polyline class="cls-3" points="282.6 193.92 327.23 203.6 251.19 212.81 206.57 203.13 247.41 197.94"/>
    <polyline class="cls-3" points="327.23 208.4 251.19 217.6 216.77 210.78 206.57 207.93 206.96 207.88"/>
    <line class="cls-1" x1="251.19" y1="212.81" x2="251.19" y2="217.6"/>
    <line class="cls-1" x1="327.23" y1="203.6" x2="327.23" y2="208.4"/>
    <line class="cls-1" x1="200.13" y1="95.37" x2="210.43" y2="97.44"/>
    <line class="cls-1" x1="200.13" y1="189.98" x2="210.43" y2="192.05"/>
    <ellipse class="cls-1" cx="75.66" cy="206.71" rx="15.55" ry="2.69"/>
    <path class="cls-1" d="M86.68,231.19c.04.09.06.18.06.28,0,1.49-4.96,2.69-11.08,2.69s-11.08-1.2-11.08-2.69c0-.16.06-.32.17-.47"/>
    <path class="cls-1" d="M64.75,231.11c.06-.08.13-.16.21-.23"/>
    <line class="cls-1" x1="60.11" y1="206.71" x2="64.58" y2="231.58"/>
    <line class="cls-1" x1="91.21" y1="206.71" x2="86.74" y2="231.58"/>
    <path class="cls-1" d="M62.01,217.27c-1.27-.81-3.56-1.52-4.6-.43s-1.11,3-.08,4.1c.54.58,1.29.91,2.07,1.07s2.74-.63,3.53-.66"/>
    <path class="cls-1" d="M61.74,212.41c-.73-.22-7.73-.11-9.58,3.39-1.48,2.8-.82,6.53,1.44,8.75s6.98,2.31,9.9,1.05"/>
    <polyline class="cls-3" points="206.23 207.52 145.4 214.89 122.63 207.89 132.69 206.67"/>
    <line class="cls-3" x1="152.25" y1="204.33" x2="168.82" y2="202.33"/>
    <polyline class="cls-3" points="206.28 212.04 145.4 219.68 122.63 212.68"/>
    <line class="cls-3" x1="122.63" y1="212.68" x2="122.82" y2="212.66"/>
    <line class="cls-1" x1="122.63" y1="207.89" x2="122.63" y2="212.68"/>
    <line class="cls-1" x1="145.4" y1="214.89" x2="145.4" y2="219.68"/>
    <path class="cls-3" d="M128.36,226.05c-.08,4.12,6.08,6.68,9.83,8.39s7.99,1.9,12.11,2.06c14.56.58,29.12,1.16,43.69,1.74,3.08.12,6.32.22,9.08-1.16s4.8-4.74,3.61-7.59c-1.44-3.44-6.06-3.85-9.79-3.72-3.58.13-7.17.25-10.75.38-1.85.07-4.22.56-4.52,2.39-.33,2.05,2.27,3.19,4.32,3.5,18.89,2.85,38.88-2.51,53.81-14.43"/>
    <path class="cls-3" d="M66.42,189.33c-1.1.15-1.49,1.66-1.02,2.67s1.42,1.68,2.18,2.49,1.33,2.03.81,3.01"/>
    <path class="cls-3" d="M80.58,174.21c-2.03,1.16-3.51,3.25-3.93,5.55s.24,4.78,1.74,6.58c1.06,1.27,2.51,2.22,3.3,3.66,1,1.83.73,4.15-.18,6.02s-2.39,3.41-3.84,4.91"/>
    <path class="cls-3" d="M148.27,200.53c.41-2.03-.73-4.13-2.35-5.43s-3.64-1.97-5.62-2.58c-4.44-1.38-8.97-2.65-13.61-2.82s-9.47.82-13.19,3.6"/>
    <path class="cls-3" d="M190.36,195.29c.75-.25,1.63-.09,2.24.42s.93,1.34.81,2.13"/>
    <path class="cls-3" d="M178.87,188.53c-3.12-1.26-6.27-2.53-9.61-2.97s-6.91.05-9.63,2.03-4.3,5.68-3.2,8.85"/>
    <polyline class="cls-3" points="282.42 34.99 296.24 37.77 287.81 79.69 255.08 73.11 263.51 31.19 278.85 34.25"/>
    <polyline class="cls-3" points="235 13.39 237.94 9 242.22 11.87 236.98 19.67 232.71 16.8 235 13.39"/>
    <rect class="cls-3" x="279.48" y="25.96" width="5.14" height="9.39" transform="translate(64.89 -151.92) rotate(33.85)"/>
    <polyline class="cls-3" points="340.94 30 341.29 37.91 336.15 38.14 335.82 30.7"/>
    <polyline class="cls-3" points="335.82 30.7 335.73 28.76 340.87 28.53 340.94 30"/>
    <path class="cls-15" d="M130.34,93.77c-.59-.38-1.29.27-1.52,1.4s.05,2.58.61,3.1,1.3.03,1.58-1.06c.21-.81.16-1.87-.13-2.58s-.8-1.04-1.24-.8"/>
    <line class="cls-3" x1="206.57" y1="203.13" x2="206.57" y2="207.93"/>
    <line class="cls-3" x1="206.57" y1="207.23" x2="206.57" y2="212.02"/>
    <line class="cls-3" x1="206.15" y1="207.23" x2="185.49" y2="199.67"/>
    <path class="cls-4" d="M140.86,199.95c2.92-.48,5.99.61,8.15,2.63,1.27,1.18,2.25,2.67,2.85,4.29-.76.35-1.78-.13-1.99-.93.42,1.29.84,2.59,1.25,3.88-1.56-.16-3.03-1.07-3.88-2.39l1.06,2.3c-1.21.1-2.44-.52-3.09-1.54.25.77.5,1.53.75,2.3-1.31-.07-2.57-.78-3.31-1.86.41.1.56.67.34,1.03s-.69.5-1.11.46-.8-.24-1.18-.44c-.88-.46-1.75-.91-2.63-1.37-.96-.5-1.92-.99-2.87-1.49-.83-.43-1.34-.88-.86-1.75.43-.78.98-1.65,1.57-2.34,1.25-1.47,3.04-2.48,4.95-2.79Z"/>
    <path class="cls-4" d="M175.52,195.68c2.92-.48,5.99.61,8.15,2.63,1.27,1.18,2.25,2.67,2.85,4.29-.76.35-1.78-.13-1.99-.93.42,1.29.84,2.59,1.25,3.88-1.56-.16-3.03-1.07-3.88-2.39l1.06,2.3c-1.21.1-2.44-.52-3.09-1.54.25.77.5,1.53.75,2.3-1.31-.07-2.57-.78-3.31-1.86.41.1.56.67.34,1.03s-.69.5-1.11.46-.8-.24-1.18-.44c-.88-.46-1.75-.91-2.63-1.37-.96-.5-1.92-.99-2.87-1.49-.83-.43-1.34-.88-.86-1.75.43-.78.98-1.65,1.57-2.34,1.25-1.47,3.04-2.48,4.95-2.79Z"/>
    <line class="cls-3" x1="332.25" y1="169.98" x2="366.76" y2="163.85"/>
    <line class="cls-3" x1=".5" y1="228.89" x2="42.93" y2="221.36"/>
    <path class="cls-3" d="M339.09,38.14c8.48,9.35,15.75,24.51,16.11,35.23"/>
    <path class="cls-3" d="M333.25,32.83c.92.66,1.84,1.41,2.76,2.23"/>
    <path class="cls-3" d="M343.09,43.73c-5.92,2.78-13.15,6.45-18.22,10.58s-9.2,9.77-10.2,16.23"/>
    <path class="cls-3" d="M348.13,51.14c2.62,1.64,4.86,3.28,7.48,4.92"/>
    <path class="cls-3" d="M351.59,58.47c-1.65,2.13-3.74,6.22-3.65,8.91"/>
    <path class="cls-3" d="M354.32,67.03c1.97,1.58,4.63,3.78,6.6,5.36"/>
    <path class="cls-3" d="M343.77,44.06c-6.85,10.52-10.28,25.69-6.64,37.7"/>
    <path class="cls-3" d="M333.25,48.75c-2.96-.32-7.59-1.13-10.55-1.45"/>
    <path class="cls-3" d="M328.88,51.41c-.36,1.82-1.27,6.09-1.63,7.91"/>
    <path class="cls-3" d="M320.85,58.16c-3.66-.12-7.35,1.5-10.44,3.46"/>
    <path class="cls-3" d="M317,63.98l1.19,9.11"/>
    <path class="cls-3" d="M338.51,53.87c-1.92,1.29-5.91,3.22-7.83,4.51"/>
    <path class="cls-3" d="M336.68,62.59l2.93,6.23"/>
    <path class="cls-3" d="M335.47,68.77l-4.43,6.52"/>
    <path class="cls-3" d="M336.08,77.02c2.55-.05,4.47,1.54,5.89,3.66"/>
    <path class="cls-3" d="M341.29,48.37c-.74,3.37-.09,7.76,1.09,11"/>
    <path class="cls-3" d="M345,45.88c1.91.4,3.46.79,5.37,1.19"/>
    <path class="cls-3" d="M121.22,211.94c-4.22-2.83-9.42-4.43-14.45-3.66s-9.76,4.15-11.43,8.95c-.47,1.35-.69,2.86-.14,4.18.85,2.05,3.22,2.95,5.37,3.53,8.42,2.25,17.29,2.77,25.91,1.52,4.28-.62,5.97-2.42,3.3-6-2.42-3.25-5.18-6.25-8.56-8.51Z"/>
    <polyline class="cls-3" points="248.67 203.98 247.67 203.35 247.67 183.79 277.33 180.75 278.26 181.34"/>
    <line class="cls-1" x1="247.67" y1="203.35" x2="252.64" y2="206.47"/>
    <line class="cls-1" x1="248.11" y1="184.52" x2="253.08" y2="187.64"/>
    <line class="cls-1" x1="277.33" y1="180.75" x2="282.3" y2="183.88"/>
    <line class="cls-1" x1="311.86" y1="83.32" x2="322.79" y2="85.07"/>
  </g>
</svg>