<?xml version="1.0" encoding="UTF-8"?>
<svg id="_レイヤー_1" data-name="レイヤー 1" xmlns="http://www.w3.org/2000/svg" viewBox="0 0 74.41 38.36">
  <path d="M21.54,1c3.29,0,6.52.44,9.25.86,3.84.6,8.83,1.53,13.43,3.39,2.1.85,4.05,1.86,5.78,3.02.94.62,1.82,1.29,2.62,1.99.2.17.45.46.71.76.57.65,1.16,1.32,1.87,1.64.24.11.49.16.74.16,1.3,0,2.21-1.29,3.09-2.54.35-.49.7-1,.97-1.23,1.42-1.26,3.07-2.07,4.78-2.33.36-.05.74-.08,1.11-.08,3.16,0,6.09,1.86,7.13,4.52.6,1.53.48,3.4-.31,5.01-.72,1.46-1.91,2.53-3.28,2.93-.56.16-1.15.24-1.81.24-1.25,0-2.54-.28-3.9-.58-1.43-.31-2.91-.64-4.43-.64-.11,0-.23,0-.34,0-3.96.13-7.3,2.54-10.39,5-.57.46-1.15.92-1.72,1.38-3.76,3.02-7.64,6.13-11.86,8.54-5.03,2.87-9.91,4.33-14.49,4.33-.37,0-.74,0-1.12-.03-7.58-.4-14.69-5.46-17.3-12.28-2.69-7.04-.32-15.66,5.51-20.04,2.88-2.16,6.7-3.51,11.05-3.89.92-.08,1.89-.12,2.88-.12M21.54,0c-.99,0-1.98.04-2.97.12-4.13.36-8.26,1.59-11.57,4.08C.73,8.93-1.64,18.06,1.17,25.4c2.8,7.35,10.33,12.51,18.18,12.93.39.02.78.03,1.17.03,5.25,0,10.41-1.85,14.98-4.46,4.92-2.81,9.28-6.47,13.7-10,2.89-2.31,6.1-4.66,9.8-4.78.1,0,.2,0,.31,0,2.8,0,5.6,1.22,8.33,1.22.7,0,1.4-.08,2.09-.28,3.67-1.07,5.63-5.7,4.24-9.26-1.24-3.16-4.66-5.16-8.06-5.16-.42,0-.84.03-1.26.09-1.98.3-3.81,1.24-5.29,2.57-.98.88-2.18,3.52-3.39,3.52-.11,0-.23-.02-.34-.07-.82-.36-1.64-1.64-2.33-2.24-.86-.74-1.78-1.43-2.72-2.06-1.87-1.24-3.88-2.27-5.96-3.11-4.36-1.76-9.01-2.72-13.65-3.45-3.11-.49-6.26-.88-9.41-.88h0Z"/>
</svg>