<?xml version="1.0" encoding="UTF-8"?>
<svg id="_レイヤー_1" data-name=" レイヤー 1" xmlns="http://www.w3.org/2000/svg" viewBox="0 0 1080 1080">
  <path d="M733,900c3.2,7.7,7.7,10.5,2,18.5-12.8,17.8-50,7.9-67.5,2.7-3.1,5-1.9,9.5-7,13.8-16.1,13.7-37.6,7.2-54.5-1-3.3,10.9-14.3,13.3-24.5,14-9.9.7-15-.8-24-4s-16.7-8.1-18.5-7.6-6,3.7-6,4.1c5.7,5.1,11.8,12.7,18,16.9,36,24.6,108.8,0,150.4-3.4,38.4-3.1,67.5,6.6,103,18,24.4,7.8,36.5,9,62,8.9,13.5,0,34.8,2.7,45.5,11.6,7.7,6.4,12,21.5,3.7,29.1s-46.1,8.3-58,7.2c-21-1.9-40.9-12.7-61.4-17.6-42.3-10-101.1-24.6-143.2-12.8-14.6,4.1-24.3,9.5-40.5,10.5-36.1,2.3-57.8-.5-88.2-19.8-16.2-10.3-27.6-28-30.5-47-31.7-5.2-58.9-27.7-85.2-45.3-11.6-7.8-23.1-15.7-34.6-23.4-22.7-15.1-52.8-32.9-71-53-1.2-1.3-1.1-3.3-2.6-4.4-25.7,13.1-35.4-16.8-34.5-37-34.4,6.9-43.2-39.5-42.1-64.9-12.4-2.2-16.9-8-19.8-19.7-3.8-15.2-3.7-31.1-1.5-46.5-8.1-4.9-19.2-12.4-20.4-22.6s.6-36.4,1.9-49.9c1.5-16.4,5.1-32.5,9-48.5-10.4-2.8-22.2-2.2-26.9-13.6-8.9-21.9,5.7-40.9,18.9-56.9.4-2-.4-1.2-1.3-1.7-6.6-3.9-9.2-2.8-11.4-11.6-3.9-15.1,3-27.8,14.6-36.9-14.5-16.9-6.4-40.1,8.9-53l1-12.6-112.9-96.3c-2.6-1.4-8.5,7.8-11.7,9.3s-7,1.6-10.3.8-11-7.8-12.9-10.1c-5-6-5.7-12.6-1-19s25.5-27.5,30.5-31.5,12.6-5.9,19.5-.5c13,10,16.7,20.1,3,32l.5.5,107.5,90c4.9-13.6,16.7-24.9,28.9-32.1-5.5-20.8,6.9-24.6,19.1-35.3,19-16.6,37.3-34.5,59-47.5l-81-121c-13.8,10.5-26.6,10.2-32.7-7.7-6.1-17.9-.3-11.7,5.3-16.3,5.6-4.5,29.3-19.8,35.6-22.4,18.8-7.8,34.5,24.8,13.3,32.4l-.3,1.4,80.9,118.2,53.6-27.5c-3.3-11.2-3.4-19.5,9.2-22.7,12.5-3.2,22.1.8,34.2,2.7-.9-39.3,48.8-18.8,71.4-16.2,4-5.7,5.6-10.5,12.6-13.3,13.7-5.4,37.6-2.6,52.2-.2s7.6,1.5,11.2,2.7c6.1-9.2,10.9-11.8,22.1-11,19.8,1.4,68.1,22,88.8,30.2,101.8,40.5,196.9,96.5,251.9,195.1,10.4,18.6,31.3,53,35.6,72.4s.1,8.9,1.7,13.3c1.9,5.2,7.5,11.7,10,17,5.9,12.4,14.6,34.9,11.4,48.3-.9,3.9-6,12.4-5.9,14.1.2,3.1,4.9,12,5.8,16.3s2.5,16.4,2.2,19.6c-.6,7.2-9.7,15.3-10,18.2s2.4,6.4,2.8,9.2c2,13.6-11.8,76.6-18,90.5s-6.1,8.3-7.8,13.3c-.2,3.8,7.3,6.6,7.1,14.9-.4,18.8-25.3,36.5-41.6,41.4,9,26.7-21.3,45.3-42,54,6,22.9-20.3,29.5-36,37-.2,6.2,1.2,9.6-1,16-3.5,10.1-10.9,15.8-20.5,19.5s-9.2,1.9-10.9,3.1-2.3,4.2-4,6-7.9,5.2-9.1,6.9-.8,4-1.9,6.1c-4.2,8.4-24.8,17.3-34.1,14.8-2.8,8.8-1.7,15.1-11.5,18.5s-15.5,4.1-17.9,4.1h-15.5l-.2.2ZM246.7,39.2l-37.8,24.2c-3.8,5.5,4.6,18.1,10.5,17.6,5.6-3.4,38.4-21.5,40.1-25,2.2-4.6-1.3-11.2-4.5-14.5s-4.2-3.2-8.3-2.3ZM333,189l-81-119.5-12.6,7.5.5,2.6,78.1,114.9,3,2.1,11.9-7.6h.1ZM936,322c-3.5-7.3-7.9-14.4-12.6-20.9-60.1-84-139.2-129.1-233.4-166.6-19-7.5-67.8-28.2-85.5-29.5s-12.2-.6-17.5,6.5c13,4.4,27,6.5,40,11,47,16.2,105.8,46.3,150.1,69.9,46.6,24.9,89.9,61.7,128,98,10.7,10.2,20.4,21.2,31,31.5l-.1.1ZM975,402c-.8-8.2-4.5-17.9-8.1-25.4-19.1-39.8-54.6-72.8-86.9-102.1-59.9-54.4-120.4-87.8-193.7-121.3-40.4-18.5-114-48.8-157.9-42.1-6.6,1-14.8,3.7-17.5,10.5-2.7,6.8.6,1.3,1.4,1.6,18.6,6.9,40.8,11.5,60.2,17.9,19.4,6.4,34.6,11.9,51.4,18.6,85.1,33.8,185.3,77.1,252.1,140.9,26.4,25.2,52.8,54.3,78.5,80.5,6.8,7,13.7,14,20.5,21v-.1ZM995,483c5.8-18.7-.2-37.1-8.4-54-11-22.7-29.1-36.4-46.1-53.9-32.2-33.2-63.6-69.3-100.6-97.4-64.6-49-134.3-79.9-209.2-109.8-42.5-17-91.6-34.6-136.5-43.5s-59.7-15.8-55.1,15.6c48.2,13.4,97.3,24.2,143.9,42.6,52.8,20.9,107,48.5,157.7,74.3,43.5,22.1,78.4,46.1,115.8,77.2,45.1,37.4,90.3,78.6,125.2,125.8l13.4,23.1h-.1ZM402.7,139.2c-9.3,1.4-12.7,8.6-5.5,15,26.1,4.9,50.3,13.6,75,23,86.7,33.1,172.6,76.2,253.4,121.6,84.5,47.4,169.8,106.6,228.7,184.3,9,11.9,17.7,24.5,26.4,36.6s10.3,17.3,11.2,17.8c2.4,1.6,6.7-7,7.2-8.8,1.5-4.9-.3-16.6-1.5-21.9-13-57.5-99.3-131.3-144.2-168.8-33-27.5-65.3-50.5-103.5-70.5-69.9-36.6-149.2-77.3-224.8-99.2-31.7-9.2-68.8-20.5-100.8-27.2-32-6.7-14-3-21.7-1.8l.1-.1ZM440,170c-6.6-1.9-13.1-4.1-19.8-5.7s-17-4.7-20.6-4.3-13.5,4.9-16,6.1c-48.3,23.1-83.4,50.9-123.2,85.8-9.6,8.4-21.4,11.7-18.5,28,52.6-35.4,103.4-74.9,162.7-98.7l35.2-11.2h.2ZM482,186l-33.5-12c-49.4,9.8-94.7,36.4-136.4,63.6-24.6,16-55.6,36.7-78.4,54.6-9,7.1-18.1,16.7-20.7,28.2,7.6,4.4,9.3,13.4,18.6,6.7,7-5.1,14.8-13.7,21.5-19.5,71.3-61.2,134.4-97.1,226.4-119.6,1.2-.3,2.4-.4,2.6-1.9l-.1-.1ZM521,202c-8.5-1.4-19.8-9.7-27.8-10.8s-32.6,5.8-42,8.5c-84.2,24.6-151.7,72.3-216.3,129.7s-2.5,4.1-4.4,5.6c-3.8,3-9.8,2.8-13.5,6.5s-3.4,6.5-5.7,9.3c-7.8,9.9-15.9,3.8-23.3,19.7-5.6,12.1-7.1,20.7,2.4,31.4,12-11.4,25.2-21.4,37.5-32.5,45.6-40.9,82.1-73,136.3-103.7,46.9-26.5,102.2-52,155.2-61.9s1.7.7,1.5-2l.1.2ZM87.7,196.2c-1.6.3-2.6,1.4-3.8,2.3-5.9,4.5-24.9,23.5-29.5,29.5s-4.6,5.8-1.9,10,10.6,11.7,14.7,10.9,22.5-20.7,25.8-24.3,11-10.6,10-16-11.1-13.1-15.3-12.4h0ZM566,222l-34.8-14.8c-56.1,8.3-112.7,34.1-161.9,61.7-65.1,36.5-125.2,87.9-177.8,140.2-5.7,5.7-10.6,7.7-13.7,16.3s-3.4,19.5,3.9,23.5c7.2,3.9,9.3,2,14.8-2.7,17.5-15,34.2-36.2,51.5-52.5,75.8-71.8,181.6-136.3,282.8-164.2,11.6-3.2,21.9-3.9,33.7-5.3,1.4-.2,3-.6,1.5-2v-.2ZM619,249l-42.7-21.8c-36.2,2.2-70.1,15.1-103.5,28.1-79.9,31-160.3,83.8-222.3,142.7-17.6,16.7-33.6,35.1-50.9,52.1-5.5,5.4-10.2,7.9-15.4,14.6-10,12.9-18.3,25.8-14.9,42.6s13.5,12.6,24.6,14.6c2.7-4.9,1.8-11.9,3.9-16.6,2.3-5.1,17.1-20.7,21.7-25.3,13.6-13.6,30-24.8,43.6-38.4,9.2-9.2,17.2-21.3,26.5-30.5,51.9-51.7,130.9-98.5,198.5-126.5,41.8-17.3,85.6-32,131-35.5l-.1-.1ZM186.3,304.7c-.7-.6-1-1.9-1.8-2.6-28.3-24.1-57.4-47.2-85.2-71.9l-2.3-.7c-1.5,2.5-10.9,8.9-9.5,11.5l120.6,102.5h2l10-11c-11-9.5-22.6-18.4-33.7-27.9l-.1.1ZM404.3,331.2c-21.1,53.2-42.8,106.1-58,161.5-9.2,33.5-16.9,69.1-22.9,103.2,33,61.3,83.7,110.7,139.6,151.5,29,6.9,56.7,9.7,86.5,10.6s57,0,87-3c3.8-.4,8.2.5,11.9,0,8-1.2,36.8-26.2,44.1-32.9,46.6-42.8,86.1-102,112.6-159.4,4.8-10.3,12-25.3,15.1-35.9,2.4-8.1,1.4-38.2.7-48.3-1.9-30-27.2-111.5-42.8-137.2-7.6-12.5-11.3-13.3-23.5-20.5-26.3-15.5-54.6-31-81.6-45.4-8.3-4.4-42.1-23.3-48.5-23.5-15.1-.6-45.4,6.4-60.7,10.4-55.8,14.6-109.4,41.2-159.5,69v-.1ZM398,336l-42.7,26.8c-2.7,3.1-9,5.8-11,9s-9.2,24.1-11.2,29.8c-41.3,116-59.9,223.4-61.9,347.1-.3,18.8-4.1,42.7,6.4,59.5s3.2,5.2,5.2,5.8c3.9,1.1,17.2,1.1,18.3-4.3,1.7-26.4-1-52.6,0-79s5.3-70.2,11.4-104.6c11.8-67.7,28.3-134.3,49.4-199.6l36.3-90.2-.2-.3ZM827,507c1.8-7.6,4.1-15.1,5.7-22.8,3.7-18,7.7-40.5,5.2-58.6s-14.2-54.2-23.9-65.1c-1.8-2-29.8-22.9-31-21.5,4.2,9.9,9.3,19.3,13,29.5,8.2,22.2,16.8,49.4,22.7,72.3,5.8,22.7,6.4,39.6,7.3,62.7.9,23.1-.8,3.7,1,3.5ZM200,352c2.3.2,4.5-.8,6-2.5-3.8-7.4-6.4-4.8-6,2.5ZM845.8,383.2l-20.8-14.2c6.7,15.5,13.1,31.2,16,48,1.5,0,1.7-3.5,1.9-4.6,1.2-9.6,1.9-19.5,2.9-29.2h0ZM336,378l-38.8,33.7c-15.4,42-33,87.5-42.9,131.1-3.3,14.7-4.6,29.7-7.6,44.4-9.4,46.7-22.5,94.1-17.7,142.3,1.3,12.9,8.7,42,23.7,45.3s12,1.4,12.3-2.3c.4-70.7,6.3-141.2,18.2-210.8,10.8-63.4,32.1-123.2,52.8-183.7h0ZM664,752l58.2-11.2c73.5-56.9,124.2-155.4,147.7-244.3,7.2-27.3,12.8-55.3,10.9-83.8l-28.5-24.5-2.4.4c-5,38.5-6.3,80.3-17.5,117.5-22.6,75.3-77.7,165.3-135.5,218.5l-33,27.5.1-.1ZM736,737l42.9-12.6c49.7-56.1,92-120.7,122.9-189.1,6.3-13.9,14.9-34.5,17.7-49.3,2-10.6,1.4-22.7,3.5-33.5-9.8-14.1-24.2-23.9-36.5-35.6-1.4,10.1-.6,21.3-1.6,31.4-5.8,57.8-36.1,131.9-64.7,182.3-22.3,39.3-49.3,77.4-84.2,106.3v.1ZM223,709c1.2-23.8,3.3-47.7,7.3-71.2,10.1-59.9,24.6-119.9,43.4-177.6,4.3-13.2,9.9-26,14.3-39.2-7.1,6.8-12.8,14.9-19.5,22s-10.1,7.3-12.7,13.3c-22,50-46.7,147-49.8,201.2-.8,14.6-1.8,48.4,17,51.5h0ZM929,459l-2,.5c-.2,30.7-11.5,58.5-24.1,85.9-30.4,65.9-67.6,117.4-112.4,173.6-.8,1-1.9,1.3-1.5,3,5.3-3,12.6-2.5,17.9-4.6,13.2-5.2,54.8-47.5,66.1-59.9,40.1-43.8,67.6-108.5,80-166.1-4.8-9.4-13.2-17.7-20-26s-3.8-6.2-4-6.5v.1ZM249,462l-13,9.5c-7.9,6.9-31.8,29.6-34.5,38.5-6.3,20.7-11.5,49.1-13.4,70.6-1,11.1-2.8,30.6-2,41s8.2,15.9,16.5,21.5c9.1-61.6,23.7-123,46.5-181l-.1-.1ZM822,714c15.5-6.1,35.3-6.7,50-14.5s15.1-12.8,20.5-18.5c30.4-32.1,66.2-86.2,78.2-128.8,1.7-5.9,5.9-21.7,6.1-27s-17.3-21.3-18.8-29.2c-1.5-.3-1,1.1-1.3,2.2-21.1,78.1-53.2,147.6-117.7,199.3l-17,16.5ZM887,694c14.5-4.4,27.3-7.6,39-17.5,28.9-24.6,62.8-78.6,65-117,.7-13-2.6-20.5-10.5-30.5-11.4,63.6-50.2,118.8-93.5,165ZM964.7,657.7c10.6-9.1,16.4-33.2,19.8-46.7s2.2-11.4,3.5-17l-8.1,19.4c-11.1,20.7-24.2,40.5-40.8,57.2l.5,1.5c6.5-5.6,19.2-9.1,25.2-14.3l-.1-.1ZM727.7,900.3c-38.8-11-75.7-27.7-111.6-45.9-51.5-26.2-94.3-54.9-140-90-52.7-40.3-103.1-82.1-140.3-137.7l-13.8-22.7-6.6,39c34.8,58.1,82.5,105.1,135.7,146.4s178.3,130.4,252.4,134.6c8.6.5,16.8-.3,24.3-4.8s5.2-12.1,0-18.9h-.1ZM315,650l-2,.6c-2.4,11.2-3,22.5-3.6,33.9,29.6,41,66.8,76.4,104.5,110,61.4,54.7,128.1,94.5,198.1,136.9,14.1,5.5,22.9,10.2,37.9,4.1s11.7-6.4,12-15.4c-36.4-11.7-70.1-30.2-102.9-49.6-41.6-24.7-83.8-55.1-121.6-85.4-37.8-30.3-91.3-81.9-122.5-135l.1-.1ZM472,754l41.5,32,6,2c56.9-1.3,113.5-7.3,170-13,30.9-3.1,62.1-4.9,92.5-11.5,49.5-10.7,93.7-26.7,139.7-47.3,17.3-7.7,48.5-19.7,52.1-40.9,1-5.7-1.3-11.8-7-13.1-10.3,5.1-19.9,11.7-30.1,17-50.6,26.6-116.1,40.5-171.7,55.3-59.3,15.8-117.6,29.3-179.5,28.7-32.4-.3-63.5-.3-95.9-5.3-6-.9-11.5-3.5-17.6-3.9ZM309.5,694c-1.4.9-1.4,1.9-1.6,3.4-1.3,12.5-2.8,29.6-3,42-.1,6.2,6.3,13.2,10.1,18,24.5,30.3,60.6,63.1,90.5,88.5,41,34.9,95.2,67.4,144.3,89.7,13.6,6.2,26.3,9.9,41.4,6s11.7-5.4,9.8-11.2c-44.3-29.7-93.2-54.1-135.5-86.6-32-24.6-64.5-53.5-93.5-81.5-22.4-21.5-43.5-43.9-62.5-68.5v.2ZM524,793c8.4,5.4,22,18.4,30.8,21.7s24.7,4.5,30.8,5.2c40.9,4.4,95.2-4,136.8-9,64.1-7.7,131.1-22.9,187.6-55.4,7.2-4.1,23-17.7,24-26s.9-13.8-2.1-13.1-8.2,4.4-11.3,5.7c-58.5,25.8-122,48.2-186.2,53.8-57.1,5-114.7,12.4-172,16-12.7.8-25.8,0-38.5,1l.1.1ZM305,755l1,34.4c1.4,7.5,29.5,35.6,36.4,42.6,34.7,34.9,75.2,69.7,118.5,93.5,21.1,11.6,50.6,19.1,73,8-32.1-17.2-64.5-33.7-94.3-54.7-31.7-22.3-63.8-51.3-91.7-78.3-14.4-13.9-26.3-30.1-40.2-43.8-.9-.9-.8-2.2-2.8-1.7h.1ZM568,822c6.4,4.6,14,8.6,21.1,12.4,18.1,9.7,26.7,16,48.4,15.7,59.4-1,155.7-25.2,212-46,9.4-3.5,37.1-14.1,41.3-22.7s2.9-10.9-2-10.1c-27.8,11.3-57.6,25-86.7,32.4s-60,10.1-88.5,13.5c-39.4,4.7-87.9,11.8-127,8-6.1-.6-12.4-2.7-18.5-3l-.1-.2ZM365,861l-59.5-60c-.5,4.8-1.7,12,1,16.1,5.8,8.7,22.3,17.3,29.6,25.4l28.9,18.6v-.1ZM855,808c-1.2-1.1-26.3,8.1-30.2,9.3-63.2,19.2-127.5,34-193.8,38.2,9.6,5.9,19.6,11.2,30.5,14.5,47.9-.4,94.9-8.5,140.5-22.5,10.1-3.1,30.8-9.2,39.4-13.6s15.4-15.6,13.6-25.9ZM765,862c-.4,1.9.6,1.9,1.7,2.8,2.3,2,13.9,8.1,16.7,8.1,6.8,0,34.7-12.2,21.2-20.9l-39.6,10h0ZM773.9,874.1l-17.3-10c-28.1,7.3-57.5,10.1-86.5,9.9.3,1.7,2,1.7,3.2,2.3,16,7.7,50.3,20.5,67.4,20.6s24.9-3.2,28.3-5.5,5.5-13,4.9-17.3h0ZM499,943c1.7,12.2,10.6,28.5,20,36.5,27.5,23.6,62.4,27.5,97.5,24.5,18.2-1.6,36.4-12.5,55.3-14.7,35.5-4.2,96,9.8,131.5,19s47.4,19.4,84.3,15.7c7.3-.7,26-1.6,27.4-10.6,2.1-12.9-6.5-19-17.2-22.7-27.2-9.6-56.6-1.6-86.7-11.3-24.2-7.7-47.9-17.2-73.7-20.3-43.4-5.2-83.2,10.9-125.8,12.9-24.2,1.1-47.2,1.8-66.6-14.5-5.4-4.6-10-11-15.7-15.4-10.3.8-19.9,3-30.3.8v.1Z"/>
  <path d="M200,352c-.4-7.4,2.2-9.9,6-2.5-1.5,1.7-3.7,2.7-6,2.5Z"/>
  <path d="M650,584c.7-.7,3.6,4.8,6.4,3.9s6.9-10.6,6.2-11.9c-3.7-7.1-7.8,1.8-9.6,5.5-1.5,1.4-1.1-1-.9-1.9,3.4-19.6,15.5-33.6,36.5-31.6,36.7,3.4,27,49.9,16.6,72.7-32.2,70.7-119.4,90.6-189.6,72.2-119.6-31.3-147.6-210.9-75.5-298.4,54.5-66.2,163.9-76.4,230.4-22.5,21.8,17.7,55.3,64.8,28.1,90-8.4,7.8-22.6,9.4-33,5-13.2-5.6-25.5-34.2-36-46-38.5-43.5-108.3-34.9-138.3,13.7-28.2,45.7-25.5,142.3,11.8,182.8,42.1,45.7,131.1,29.2,147-33.5h-.1ZM570,342h-14v6h14v-6ZM602,345c-5.9-.7-16.8-6.1-14.9,3.9l13.9,2,1-5.9ZM538,344l-13,2.5c-2.2,1.6-.3,4.5,0,6.5l14-3-1-6ZM631.9,354.1c-3.3-.1-11.2-6-13.4-3.1-4.7,6,7.7,7.7,11.9,9.1l1.5-6ZM495.1,362c5.3-.9,17.2-3.8,11-10.5l-11.9,4.7.9,5.8ZM648.6,363.1c-8.5,2.5,7.1,13,9.4,11.5s2.5-4.1,1.5-5.6-9.9-6.2-10.9-5.9ZM479,367c-4.8,2.7-17.1,7.2-9,12.5,5.4-3,14.3-5.8,9-12.5ZM674.6,382.1l-3.6,4.3,9.3,9.6,3.6-4.3-9.3-9.6ZM547,383l-14,3,1.1,5.9,12.9-2.4.9-1.9-1-4.6h.1ZM578.9,384l-14-1.1v6l14,1v-6,.1ZM451.7,387.1c-1,.3-8.5,8.9-8.6,9.5-.3,1.7,2.6,3.2,3.9,4,1.4.3,12.2-10.5,7.6-12.7-.8-.8-1.7-1.1-2.9-.8ZM597,388c-.5,2.1-2.2,4.8,0,6.5,3.4.4,10.7,6.4,12.5,2.5,2.7-5.9-8.2-7.9-12.5-9ZM514.7,395.1c-.8.1-8.9,5.3-9.3,5.9-1.3,1.4.8,5.7,2.1,6,3.1-2.4,14.8-6.5,9.9-11s-1.3-1.1-2.8-.9h.1ZM634.8,415.8l1.8-4.9c-5.3-2.4-8.8-12.5-13.5-4.4-.3,1.6,8.9,10.9,11.8,9.2l-.1.1ZM698.9,421.9c.7-1-2.5-11.7-3.4-12.9s-5.1-.2-6.1,1,3.2,11.2,4.1,12.1c1.6,1.8,3.5.5,5.4-.1v-.1ZM431.9,426.9c.7-3.5,7.3-8.7,5.7-11.9-3.7-7.2-9.9,6.5-11.4,9.5l5.7,2.4h0ZM483.2,427.8c.1.2,3.2,2,3.8,1.8,1.3-.5,8.4-10,7.6-11.6-4.4-8.1-12.8,7.4-11.4,9.8h0ZM646.7,428.1c-1,0-4.7,2.4-4.3,3.9,2.3,2.5,8.3,14.1,12.2,8s-6.5-12-7.9-11.9ZM699.7,440.1c-1.8.5-10,12.3-4,13.8s10.5-10.4,6.9-13c-.8-.8-1.7-1.1-2.9-.8ZM480.9,445.1l-5.9-1.1c-.3,6.5-9.1,14.1,2,15l4-13.9h-.1ZM419.9,448.1l-4.3-1c-1.5.3-5.4,12.5-4.5,13.8l5.8,1c.3-2.6,4.4-12.3,3-13.8ZM662,461l12.6,2.8c7.2-8.1-5.1-7.7-10.9-8.8l-1.7,6.1v-.1ZM462.1,487.9h5.4c.9-2.5,4-11.8,1.6-13.4l-5-.4-1.9,13.9-.1-.1ZM412.9,479.1c-1.8-.6-5.2-2.1-6.5-.1l-1.4,13,5.8,1,2-13.8.1-.1ZM466,506h-7c.2,6-2.4,18.9,6.9,12.4v-12.4h.1ZM412,524l-.4-13.1-6.6-.9.4,13.1,6.6.9ZM469,537c-1.7,0-6.4-.7-6.7,1.5l1.7,12.5h6l-1-14ZM408,556c9.3,3.8,6-14.2,3.4-14.9l-4.5,1.5,1.1,13.4ZM681.9,551.1c-5.6.3-19.2,1.1-11.4,8.6l11.6-3.2c1.8-1.4.5-3.6-.1-5.4h-.1ZM703.9,561.1c-1-.7-5.6,2.2-5.7,3.4l7.2,11.4c9.9-2.6-.3-9.1-1.6-14.8h.1ZM472.9,568.1l-6,1.5,4.1,13.4,5.9-2.6-4-12.3h0ZM418,572l-6.1,1.6,3.7,13.5,5.5-1.7-3.1-13.4h0ZM706,607c-1-5.6,6.7-15-3.4-14.1-1.4,6.5-8,16,3.4,14.1ZM485.1,610.9c1.9.4,6-1,5.8-3.2s-4.9-9.3-5.4-9.7c-2.1-2-4.8-.4-6.5,1.6l6.1,11.4v-.1ZM433,615c-1.1-3.3-6.1-18-10.6-11s4.5,9.6,4.6,13l6-2ZM645.1,603.1l-6.2,10.4c0,1.7,2.4,3.2,3.7,3.3,2.4.2,14.4-15.4,2.5-13.7ZM695.9,623.1l-4.9-1.7-6.6,11.6,4.6,2.6c1.6-2,8-10.5,6.8-12.4l.1-.1ZM501.5,622l-4.5,4.5c2.4,2.2,8.8,9.7,12,8,6.7-3.5-5.3-9.6-7.5-12.5ZM630.9,632.9c1-1.7-2.1-5.5-3.4-5.6s-8.8,5.5-9.5,6.3c-2.4,2.8.2,4.5,2.5,6.3l10.4-6.9v-.1ZM442.5,628l-3,3c-1.7,2.1,6.8,12.2,8,11.9l3.4-4.3-8.4-10.6h0ZM525.1,645.9c5.7.3,13.1,7.4,14.7-1.4-4.8-2.6-16.8-9-14.7,1.4ZM600.9,641c-2.7.4-13.3,2.1-13.8,4.6-1.7,8.3,10.5,2.1,14.8,1.3l-1-5.9h0ZM570,646h-14v6c4.7.8,9.3,1.4,14,1.1v-7.1ZM673.6,647.1l-9.6,9.4,4.5,4.5,9.4-9.6c.2-1.3-3-4.5-4.3-4.3h0ZM461.6,653.1c-1.4,1.2-4.3,2.8-3.2,4.9,1.8,3.5,14.2,13.2,13.1,3l-9.9-7.9ZM652.9,672.8c.5-1.8-1-5.9-3.2-5.7s-10.7,5.7-10.7,7.3l2.5,4.4,11.4-6ZM499.9,675.1l-12.4-5-2.6,5.3,12.4,5.5c1.4-.3,3.3-4.8,2.5-5.8h.1ZM622.9,680.1l-13.9,2.9,1.1,5.9,13.9-3-1.1-5.9v.1ZM515,687c5.3-.8,14.4,6.7,15.1-1.5-.3-3.4-10.5-4.1-13.5-4.6l-1.6,6.1ZM560.9,687l-14-1.1v6l14,1.1v-6ZM592.9,691.9c1.9-10.4-8.9-3.5-14.9-4.9-2,8.9,9.3,6.3,14.9,4.9Z"/>
</svg>